%TF.GenerationSoftware,KiCad,Pcbnew,8.0.4*%
%TF.CreationDate,2024-08-26T16:46:39+08:00*%
%TF.ProjectId,ESP_Board_Test,4553505f-426f-4617-9264-5f546573742e,rev?*%
%TF.SameCoordinates,Original*%
%TF.FileFunction,Copper,L2,Bot*%
%TF.FilePolarity,Positive*%
%FSLAX46Y46*%
G04 Gerber Fmt 4.6, Leading zero omitted, Abs format (unit mm)*
G04 Created by KiCad (PCBNEW 8.0.4) date 2024-08-26 16:46:39*
%MOMM*%
%LPD*%
G01*
G04 APERTURE LIST*
G04 Aperture macros list*
%AMRoundRect*
0 Rectangle with rounded corners*
0 $1 Rounding radius*
0 $2 $3 $4 $5 $6 $7 $8 $9 X,Y pos of 4 corners*
0 Add a 4 corners polygon primitive as box body*
4,1,4,$2,$3,$4,$5,$6,$7,$8,$9,$2,$3,0*
0 Add four circle primitives for the rounded corners*
1,1,$1+$1,$2,$3*
1,1,$1+$1,$4,$5*
1,1,$1+$1,$6,$7*
1,1,$1+$1,$8,$9*
0 Add four rect primitives between the rounded corners*
20,1,$1+$1,$2,$3,$4,$5,0*
20,1,$1+$1,$4,$5,$6,$7,0*
20,1,$1+$1,$6,$7,$8,$9,0*
20,1,$1+$1,$8,$9,$2,$3,0*%
G04 Aperture macros list end*
%TA.AperFunction,ComponentPad*%
%ADD10R,1.700000X1.700000*%
%TD*%
%TA.AperFunction,ComponentPad*%
%ADD11O,1.700000X1.700000*%
%TD*%
%TA.AperFunction,ComponentPad*%
%ADD12O,0.890000X1.550000*%
%TD*%
%TA.AperFunction,ComponentPad*%
%ADD13O,1.250000X0.950000*%
%TD*%
%TA.AperFunction,ComponentPad*%
%ADD14R,1.200000X2.000000*%
%TD*%
%TA.AperFunction,ComponentPad*%
%ADD15O,1.200000X2.000000*%
%TD*%
%TA.AperFunction,ComponentPad*%
%ADD16R,3.500000X3.500000*%
%TD*%
%TA.AperFunction,ComponentPad*%
%ADD17RoundRect,0.750000X0.750000X1.000000X-0.750000X1.000000X-0.750000X-1.000000X0.750000X-1.000000X0*%
%TD*%
%TA.AperFunction,ComponentPad*%
%ADD18RoundRect,0.875000X0.875000X0.875000X-0.875000X0.875000X-0.875000X-0.875000X0.875000X-0.875000X0*%
%TD*%
%TA.AperFunction,ComponentPad*%
%ADD19C,1.524000*%
%TD*%
%TA.AperFunction,ComponentPad*%
%ADD20R,1.524000X1.524000*%
%TD*%
%TA.AperFunction,ComponentPad*%
%ADD21R,1.778000X1.778000*%
%TD*%
%TA.AperFunction,ComponentPad*%
%ADD22C,1.778000*%
%TD*%
%TA.AperFunction,ComponentPad*%
%ADD23C,3.200000*%
%TD*%
%TA.AperFunction,ViaPad*%
%ADD24C,0.600000*%
%TD*%
%TA.AperFunction,Conductor*%
%ADD25C,0.250000*%
%TD*%
%TA.AperFunction,Conductor*%
%ADD26C,0.508000*%
%TD*%
%TA.AperFunction,Conductor*%
%ADD27C,0.406400*%
%TD*%
G04 APERTURE END LIST*
D10*
%TO.P,J11,1,Pin_1*%
%TO.N,/ACTUATE_OUT*%
X100000000Y-31500000D03*
D11*
%TO.P,J11,2,Pin_2*%
%TO.N,/GND*%
X102540000Y-31500000D03*
%TD*%
D12*
%TO.P,J4,6,Shield*%
%TO.N,/GND*%
X52500000Y-93550000D03*
D13*
X53500000Y-90850000D03*
X58500000Y-90850000D03*
D12*
X59500000Y-93550000D03*
%TD*%
%TO.P,J8,6,Shield*%
%TO.N,/GND*%
X103000000Y-93550000D03*
D13*
X104000000Y-90850000D03*
X109000000Y-90850000D03*
D12*
X110000000Y-93550000D03*
%TD*%
%TO.P,J9,6,Shield*%
%TO.N,/GND*%
X115500000Y-93550000D03*
D13*
X116500000Y-90850000D03*
X121500000Y-90850000D03*
D12*
X122500000Y-93550000D03*
%TD*%
%TO.P,J2,6,Shield*%
%TO.N,/GND*%
X27500000Y-93550000D03*
D13*
X28500000Y-90850000D03*
X33500000Y-90850000D03*
D12*
X34500000Y-93550000D03*
%TD*%
%TO.P,J6,6,Shield*%
%TO.N,/GND*%
X78000000Y-93550000D03*
D13*
X79000000Y-90850000D03*
X84000000Y-90850000D03*
D12*
X85000000Y-93550000D03*
%TD*%
D14*
%TO.P,U1,1,3V3*%
%TO.N,/3V3*%
X31100000Y-56900000D03*
D15*
%TO.P,U1,2,CHIP_PU*%
%TO.N,unconnected-(U1-CHIP_PU-Pad2)*%
X33640000Y-56900000D03*
%TO.P,U1,3,SENSOR_VP/GPIO36/ADC1_CH0*%
%TO.N,unconnected-(U1-SENSOR_VP{slash}GPIO36{slash}ADC1_CH0-Pad3)*%
X36180000Y-56900000D03*
%TO.P,U1,4,SENSOR_VN/GPIO39/ADC1_CH3*%
%TO.N,unconnected-(U1-SENSOR_VN{slash}GPIO39{slash}ADC1_CH3-Pad4)*%
X38720000Y-56900000D03*
%TO.P,U1,5,VDET_1/GPIO34/ADC1_CH6*%
%TO.N,unconnected-(U1-VDET_1{slash}GPIO34{slash}ADC1_CH6-Pad5)*%
X41260000Y-56900000D03*
%TO.P,U1,6,VDET_2/GPIO35/ADC1_CH7*%
%TO.N,unconnected-(U1-VDET_2{slash}GPIO35{slash}ADC1_CH7-Pad6)*%
X43800000Y-56900000D03*
%TO.P,U1,7,32K_XP/GPIO32/ADC1_CH4*%
%TO.N,/~{EN0}*%
X46340000Y-56900000D03*
%TO.P,U1,8,32K_XN/GPIO33/ADC1_CH5*%
%TO.N,/~{EN1}*%
X48880000Y-56900000D03*
%TO.P,U1,9,DAC_1/ADC2_CH8/GPIO25*%
%TO.N,/~{EN2}*%
X51420000Y-56900000D03*
%TO.P,U1,10,DAC_2/ADC2_CH9/GPIO26*%
%TO.N,/~{EN3}*%
X53960000Y-56900000D03*
%TO.P,U1,11,ADC2_CH7/GPIO27*%
%TO.N,/~{EN4}*%
X56500000Y-56900000D03*
%TO.P,U1,12,MTMS/GPIO14/ADC2_CH6*%
%TO.N,/~{EN5}*%
X59040000Y-56900000D03*
%TO.P,U1,13,MTDI/GPIO12/ADC2_CH5*%
%TO.N,/~{EN6}*%
X61580000Y-56900000D03*
%TO.P,U1,14,GND*%
%TO.N,/GND*%
X64120000Y-56900000D03*
%TO.P,U1,15,MTCK/GPIO13/ADC2_CH4*%
%TO.N,/~{EN7}*%
X66660000Y-56900000D03*
%TO.P,U1,16,SD_DATA2/GPIO9*%
%TO.N,unconnected-(U1-SD_DATA2{slash}GPIO9-Pad16)*%
X69200000Y-56900000D03*
%TO.P,U1,17,SD_DATA3/GPIO10*%
%TO.N,unconnected-(U1-SD_DATA3{slash}GPIO10-Pad17)*%
X71740000Y-56900000D03*
%TO.P,U1,18,CMD*%
%TO.N,unconnected-(U1-CMD-Pad18)*%
X74280000Y-56900000D03*
%TO.P,U1,19,5V*%
%TO.N,/5V*%
X76820000Y-56900000D03*
%TO.P,U1,20,SD_CLK/GPIO6*%
%TO.N,unconnected-(U1-SD_CLK{slash}GPIO6-Pad20)*%
X76817280Y-31503680D03*
%TO.P,U1,21,SD_DATA0/GPIO7*%
%TO.N,unconnected-(U1-SD_DATA0{slash}GPIO7-Pad21)*%
X74277280Y-31503680D03*
%TO.P,U1,22,SD_DATA1/GPIO8*%
%TO.N,unconnected-(U1-SD_DATA1{slash}GPIO8-Pad22)*%
X71740000Y-31500000D03*
%TO.P,U1,23,MTDO/GPIO15/ADC2_CH3*%
%TO.N,unconnected-(U1-MTDO{slash}GPIO15{slash}ADC2_CH3-Pad23)*%
X69200000Y-31500000D03*
%TO.P,U1,24,ADC2_CH2/GPIO2*%
%TO.N,unconnected-(U1-ADC2_CH2{slash}GPIO2-Pad24)*%
X66660000Y-31500000D03*
%TO.P,U1,25,GPIO0/BOOT/ADC2_CH1*%
%TO.N,unconnected-(U1-GPIO0{slash}BOOT{slash}ADC2_CH1-Pad25)*%
X64120000Y-31500000D03*
%TO.P,U1,26,ADC2_CH0/GPIO4*%
%TO.N,/SETUP_IN*%
X61580000Y-31500000D03*
%TO.P,U1,27,GPIO16*%
%TO.N,/ALRT2*%
X59040000Y-31500000D03*
%TO.P,U1,28,GPIO17*%
%TO.N,/ACTUATE_OUT*%
X56500000Y-31500000D03*
%TO.P,U1,29,GPIO5*%
%TO.N,/ALRT1*%
X53960000Y-31500000D03*
%TO.P,U1,30,GPIO18*%
%TO.N,unconnected-(U1-GPIO18-Pad30)*%
X51420000Y-31500000D03*
%TO.P,U1,31,GPIO19*%
%TO.N,unconnected-(U1-GPIO19-Pad31)*%
X48880000Y-31500000D03*
%TO.P,U1,32,GND*%
%TO.N,/GND*%
X46340000Y-31500000D03*
%TO.P,U1,33,GPIO21*%
%TO.N,/SCL*%
X43800000Y-31500000D03*
%TO.P,U1,34,U0RXD/GPIO3*%
%TO.N,unconnected-(U1-U0RXD{slash}GPIO3-Pad34)*%
X41260000Y-31500000D03*
%TO.P,U1,35,U0TXD/GPIO1*%
%TO.N,unconnected-(U1-U0TXD{slash}GPIO1-Pad35)*%
X38720000Y-31500000D03*
%TO.P,U1,36,GPIO22*%
%TO.N,/SDA*%
X36180000Y-31500000D03*
%TO.P,U1,37,GPIO23*%
%TO.N,/10*%
X33640000Y-31500000D03*
%TO.P,U1,38,GND*%
%TO.N,/GND*%
X31100000Y-31500000D03*
%TD*%
D12*
%TO.P,J3,6,Shield*%
%TO.N,/GND*%
X40000000Y-93550000D03*
D13*
X41000000Y-90850000D03*
X46000000Y-90850000D03*
D12*
X47000000Y-93550000D03*
%TD*%
%TO.P,J7,6,Shield*%
%TO.N,/GND*%
X90500000Y-93550000D03*
D13*
X91500000Y-90850000D03*
X96500000Y-90850000D03*
D12*
X97500000Y-93550000D03*
%TD*%
D16*
%TO.P,J1,1*%
%TO.N,/5V*%
X111025000Y-35257500D03*
D17*
%TO.P,J1,2*%
%TO.N,/GND*%
X117025000Y-35257500D03*
D18*
%TO.P,J1,3*%
%TO.N,N/C*%
X114025000Y-30557500D03*
%TD*%
D10*
%TO.P,J10,1,Pin_1*%
%TO.N,/SETUP_IN*%
X90000000Y-31500000D03*
D11*
%TO.P,J10,2,Pin_2*%
%TO.N,/GND*%
X92540000Y-31500000D03*
%TD*%
D19*
%TO.P,U2,GND_1,GND*%
%TO.N,/GND*%
X90730000Y-53030000D03*
%TO.P,U2,GND_2,GND*%
X90730000Y-42870000D03*
%TO.P,U2,HV,HV*%
%TO.N,/5V*%
X93270000Y-53030000D03*
D20*
%TO.P,U2,HV1,HV1*%
%TO.N,/ALRT2_H*%
X98350000Y-53030000D03*
D19*
%TO.P,U2,HV2,HV2*%
%TO.N,/SDA_H*%
X95810000Y-53030000D03*
%TO.P,U2,HV3,HV3*%
%TO.N,/SCL_H*%
X88190000Y-53030000D03*
%TO.P,U2,HV4,HV4*%
%TO.N,/ALRT1_H*%
X85650000Y-53030000D03*
%TO.P,U2,LV,LV*%
%TO.N,/3V3*%
X93270000Y-42870000D03*
D20*
%TO.P,U2,LV1,LV1*%
%TO.N,/ALRT2*%
X98350000Y-42870000D03*
D19*
%TO.P,U2,LV2,LV2*%
%TO.N,/SDA*%
X95810000Y-42870000D03*
%TO.P,U2,LV3,LV3*%
%TO.N,/SCL*%
X88190000Y-42870000D03*
%TO.P,U2,LV4,LV4*%
%TO.N,/ALRT1*%
X85650000Y-42870000D03*
%TD*%
D21*
%TO.P,U5,1,A3*%
%TO.N,/A7*%
X115180000Y-78642500D03*
D22*
%TO.P,U5,2,A2*%
%TO.N,/A6*%
X112640000Y-78642500D03*
%TO.P,U5,3,A1*%
%TO.N,/A5*%
X110100000Y-78642500D03*
%TO.P,U5,4,A0*%
%TO.N,/A4*%
X107560000Y-78642500D03*
%TO.P,U5,5,ALERT*%
%TO.N,/ALRT2_H*%
X105020000Y-78642500D03*
%TO.P,U5,6,ADDR*%
%TO.N,/5V*%
X102480000Y-78642500D03*
%TO.P,U5,7,SDA*%
%TO.N,/SDA_H*%
X99940000Y-78642500D03*
%TO.P,U5,8,SCL*%
%TO.N,/SCL_H*%
X97400000Y-78642500D03*
%TO.P,U5,9,GND*%
%TO.N,/GND*%
X94860000Y-78642500D03*
%TO.P,U5,10,VDD*%
%TO.N,/5V*%
X92320000Y-78642500D03*
D23*
%TO.P,U5,P1*%
%TO.N,N/C*%
X92320000Y-65942500D03*
%TO.P,U5,P2*%
X115180000Y-65942500D03*
%TD*%
D12*
%TO.P,J5,6,Shield*%
%TO.N,/GND*%
X65000000Y-93550000D03*
D13*
X66000000Y-90850000D03*
X71000000Y-90850000D03*
D12*
X72000000Y-93550000D03*
%TD*%
D21*
%TO.P,U4,1,A3*%
%TO.N,/A3*%
X61430000Y-78667500D03*
D22*
%TO.P,U4,2,A2*%
%TO.N,/A2*%
X58890000Y-78667500D03*
%TO.P,U4,3,A1*%
%TO.N,/A1*%
X56350000Y-78667500D03*
%TO.P,U4,4,A0*%
%TO.N,/A0*%
X53810000Y-78667500D03*
%TO.P,U4,5,ALERT*%
%TO.N,/ALRT1_H*%
X51270000Y-78667500D03*
%TO.P,U4,6,ADDR*%
%TO.N,/GND*%
X48730000Y-78667500D03*
%TO.P,U4,7,SDA*%
%TO.N,/SDA_H*%
X46190000Y-78667500D03*
%TO.P,U4,8,SCL*%
%TO.N,/SCL_H*%
X43650000Y-78667500D03*
%TO.P,U4,9,GND*%
%TO.N,/GND*%
X41110000Y-78667500D03*
%TO.P,U4,10,VDD*%
%TO.N,/5V*%
X38570000Y-78667500D03*
D23*
%TO.P,U4,P1*%
%TO.N,N/C*%
X38570000Y-65967500D03*
%TO.P,U4,P2*%
X61430000Y-65967500D03*
%TD*%
D24*
%TO.N,/5V*%
X67201600Y-89225003D03*
X42201600Y-89225003D03*
X54701600Y-89225003D03*
X105201600Y-89225003D03*
X29700000Y-89225003D03*
X80201600Y-89225003D03*
X92701600Y-89225003D03*
X117701600Y-89225003D03*
%TO.N,/3V3*%
X31648400Y-88425000D03*
X119650000Y-88425000D03*
X82150000Y-88425000D03*
X94650000Y-88425000D03*
X44150000Y-88425000D03*
X107150000Y-88425000D03*
X69150000Y-88425000D03*
X56650000Y-88425000D03*
%TO.N,/~{EN1}*%
X42201600Y-87624997D03*
%TO.N,/~{EN2}*%
X54701600Y-87624997D03*
%TO.N,/~{EN3}*%
X67201600Y-87624997D03*
%TO.N,/~{EN6}*%
X94650000Y-84350000D03*
X105201600Y-87624997D03*
%TO.N,/~{EN5}*%
X92701600Y-84350000D03*
X92701600Y-87624997D03*
%TO.N,/~{EN7}*%
X117701600Y-87624997D03*
X96700000Y-84350000D03*
%TD*%
D25*
%TO.N,/SDA*%
X95795000Y-42870000D02*
X95810000Y-42870000D01*
D26*
%TO.N,/5V*%
X111025000Y-35300000D02*
X111025000Y-43650000D01*
X93270000Y-53030000D02*
X95025000Y-51275000D01*
X95025000Y-51275000D02*
X95025000Y-51250000D01*
D27*
X121450000Y-88525000D02*
X121450000Y-82225000D01*
D26*
X82470000Y-51250000D02*
X76820000Y-56900000D01*
X111025000Y-43650000D02*
X111025000Y-68000000D01*
D27*
X111025000Y-71800000D02*
X111025000Y-68000000D01*
D26*
X95025000Y-51250000D02*
X93400000Y-51250000D01*
D27*
X120749997Y-89225003D02*
X121450000Y-88525000D01*
D26*
X103425000Y-51250000D02*
X95025000Y-51250000D01*
X54701600Y-89225003D02*
X42201600Y-89225003D01*
D25*
X111632000Y-34650000D02*
X111025000Y-35257500D01*
D26*
X111025000Y-43650000D02*
X103425000Y-51250000D01*
D25*
X76820000Y-56900000D02*
X76820000Y-56905000D01*
D26*
X80201600Y-89225003D02*
X67201600Y-89225003D01*
X74525000Y-59200000D02*
X76820000Y-56905000D01*
D25*
X76825000Y-56900000D02*
X76820000Y-56900000D01*
D26*
X58037500Y-59200000D02*
X74525000Y-59200000D01*
X105201600Y-89225003D02*
X92701600Y-89225003D01*
D27*
X121450000Y-82225000D02*
X111025000Y-71800000D01*
X117701600Y-89225003D02*
X120749997Y-89225003D01*
D26*
X117701600Y-89225003D02*
X105201600Y-89225003D01*
X42201600Y-89225003D02*
X29700000Y-89225003D01*
D25*
X112250000Y-34650000D02*
X111632000Y-34650000D01*
D26*
X38525000Y-78622500D02*
X38570000Y-78667500D01*
X111025000Y-35257500D02*
X111025000Y-35300000D01*
X92701600Y-89225003D02*
X80201600Y-89225003D01*
D25*
X111025000Y-35257500D02*
X111025000Y-35300000D01*
D26*
X38570000Y-78667500D02*
X58037500Y-59200000D01*
X93400000Y-51250000D02*
X82470000Y-51250000D01*
X67201600Y-89225003D02*
X54701600Y-89225003D01*
%TO.N,/3V3*%
X93270000Y-42870000D02*
X93230000Y-42870000D01*
D27*
X31648400Y-88425000D02*
X31648400Y-60876600D01*
D26*
X69150000Y-88425000D02*
X56650000Y-88425000D01*
D27*
X31100000Y-60050000D02*
X31100000Y-56900000D01*
D26*
X107150000Y-88425000D02*
X119650000Y-88425000D01*
D27*
X31650000Y-60875000D02*
X31650000Y-60600000D01*
D26*
X44150000Y-88425000D02*
X56650000Y-88425000D01*
D27*
X31650000Y-60600000D02*
X31100000Y-60050000D01*
D26*
X93230000Y-42870000D02*
X88275000Y-47825000D01*
X107150000Y-88425000D02*
X94650000Y-88425000D01*
D27*
X31648400Y-60876600D02*
X31650000Y-60875000D01*
D26*
X94650000Y-88425000D02*
X82150000Y-88425000D01*
X40175000Y-47825000D02*
X31100000Y-56900000D01*
X31648400Y-88425000D02*
X44150000Y-88425000D01*
X82150000Y-88425000D02*
X69150000Y-88425000D01*
X88275000Y-47825000D02*
X40175000Y-47825000D01*
D25*
%TO.N,/~{EN1}*%
X48880000Y-60770000D02*
X48880000Y-56900000D01*
X33800000Y-75850000D02*
X48880000Y-60770000D01*
X42201600Y-87624997D02*
X35699997Y-87624997D01*
X33800000Y-85725000D02*
X33800000Y-75850000D01*
X35699997Y-87624997D02*
X33800000Y-85725000D01*
%TO.N,/~{EN2}*%
X34950000Y-85050000D02*
X34950000Y-76050000D01*
X53876603Y-86800000D02*
X36700000Y-86800000D01*
X34950000Y-76050000D02*
X51420000Y-59580000D01*
X36700000Y-86800000D02*
X34950000Y-85050000D01*
X51420000Y-59580000D02*
X51420000Y-56900000D01*
X54701600Y-87624997D02*
X53876603Y-86800000D01*
%TO.N,/~{EN3}*%
X37750000Y-85625000D02*
X54675000Y-85625000D01*
X35800000Y-83675000D02*
X37750000Y-85625000D01*
X56674997Y-87624997D02*
X67201600Y-87624997D01*
X35800000Y-76650000D02*
X35800000Y-83675000D01*
X53960000Y-58490000D02*
X35800000Y-76650000D01*
X53960000Y-56900000D02*
X53960000Y-58490000D01*
X54675000Y-85625000D02*
X56674997Y-87624997D01*
%TO.N,/~{EN6}*%
X97924997Y-87624997D02*
X94650000Y-84350000D01*
X105201600Y-87624997D02*
X97924997Y-87624997D01*
%TO.N,/~{EN5}*%
X92701600Y-87624997D02*
X92701600Y-84350000D01*
%TO.N,/~{EN7}*%
X114426603Y-84350000D02*
X96700000Y-84350000D01*
X117701600Y-87624997D02*
X114426603Y-84350000D01*
%TO.N,/ALRT2_H*%
X105020000Y-59695000D02*
X98355000Y-53030000D01*
X98355000Y-53030000D02*
X98350000Y-53030000D01*
X105020000Y-78642500D02*
X105020000Y-59695000D01*
%TO.N,/ALRT1*%
X65330000Y-42870000D02*
X85650000Y-42870000D01*
X53960000Y-31500000D02*
X65330000Y-42870000D01*
%TO.N,/ALRT1_H*%
X85650000Y-53030000D02*
X85645000Y-53030000D01*
X58675000Y-61125000D02*
X42400000Y-77400000D01*
X43625000Y-81025000D02*
X48912500Y-81025000D01*
X48912500Y-81025000D02*
X51270000Y-78667500D01*
X85645000Y-53030000D02*
X77550000Y-61125000D01*
X42400000Y-77400000D02*
X42400000Y-79800000D01*
X77550000Y-61125000D02*
X58675000Y-61125000D01*
X42400000Y-79800000D02*
X43625000Y-81025000D01*
%TO.N,/SETUP_IN*%
X63305000Y-29775000D02*
X88275000Y-29775000D01*
X88275000Y-29775000D02*
X90000000Y-31500000D01*
X61580000Y-31500000D02*
X63305000Y-29775000D01*
%TO.N,/ACTUATE_OUT*%
X56500000Y-31500000D02*
X60375000Y-27625000D01*
X96125000Y-27625000D02*
X100000000Y-31500000D01*
X60375000Y-27625000D02*
X96125000Y-27625000D01*
%TO.N,/ALRT2*%
X93600000Y-38150000D02*
X98320000Y-42870000D01*
X65690000Y-38150000D02*
X93600000Y-38150000D01*
X98320000Y-42870000D02*
X98350000Y-42870000D01*
X59040000Y-31500000D02*
X65690000Y-38150000D01*
%TO.N,/SDA_H*%
X95810000Y-53030000D02*
X95810000Y-53035000D01*
X47532500Y-77325000D02*
X46190000Y-78667500D01*
X99933750Y-57158750D02*
X99940000Y-57165000D01*
X99940000Y-59200000D02*
X99940000Y-78642500D01*
X99940000Y-59013000D02*
X99940000Y-59145000D01*
X62515500Y-77325000D02*
X47532500Y-77325000D01*
X99940000Y-59145000D02*
X99940000Y-59200000D01*
X99250000Y-58353000D02*
X99250000Y-58485000D01*
X99514000Y-58749000D02*
X99676000Y-58749000D01*
X65540500Y-80350000D02*
X62515500Y-77325000D01*
X98232500Y-80350000D02*
X65540500Y-80350000D01*
X100366000Y-58089000D02*
X100204000Y-58089000D01*
X95810000Y-53035000D02*
X99933750Y-57158750D01*
X100204000Y-58089000D02*
X99514000Y-58089000D01*
X100630000Y-57693000D02*
X100630000Y-57825000D01*
X99940000Y-78642500D02*
X98232500Y-80350000D01*
X100204000Y-57429000D02*
X100366000Y-57429000D01*
X99676000Y-58749000D02*
G75*
G02*
X99940000Y-59013000I0J-264000D01*
G01*
X99250000Y-58485000D02*
G75*
G03*
X99514000Y-58749000I264000J0D01*
G01*
X99514000Y-58089000D02*
G75*
G03*
X99250000Y-58353000I0J-264000D01*
G01*
X99940000Y-57165000D02*
G75*
G03*
X100204000Y-57429000I264000J0D01*
G01*
X100366000Y-57429000D02*
G75*
G02*
X100630000Y-57693000I0J-264000D01*
G01*
X100630000Y-57825000D02*
G75*
G02*
X100366000Y-58089000I-264000J0D01*
G01*
%TO.N,/SCL_H*%
X87466177Y-54833627D02*
X87371424Y-54928381D01*
X86455015Y-54769989D02*
X86360261Y-54864740D01*
X88190000Y-53030000D02*
X88190000Y-53040000D01*
X88190000Y-53030000D02*
X88190000Y-53035000D01*
X86360261Y-54864740D02*
X86337974Y-54887026D01*
X77950000Y-63275000D02*
X59042500Y-63275000D01*
X59042500Y-63275000D02*
X43650000Y-78667500D01*
X86337974Y-54887026D02*
X77950000Y-63275000D01*
X97400000Y-62250000D02*
X97400000Y-78642500D01*
X87307785Y-54296225D02*
X87466177Y-54454617D01*
X88190000Y-53040000D02*
X97400000Y-62250000D01*
X88190000Y-53035000D02*
X87307785Y-53917215D01*
X86992416Y-54928380D02*
X86834025Y-54769989D01*
X87466177Y-54454617D02*
G75*
G02*
X87466155Y-54833605I-189477J-189483D01*
G01*
X87307785Y-53917215D02*
G75*
G03*
X87307805Y-54296205I189515J-189485D01*
G01*
X87371424Y-54928381D02*
G75*
G02*
X86992395Y-54928401I-189524J189481D01*
G01*
X86834025Y-54769989D02*
G75*
G03*
X86455015Y-54769989I-189505J-189507D01*
G01*
%TD*%
%TA.AperFunction,Conductor*%
%TO.N,/GND*%
G36*
X119640827Y-25520185D02*
G01*
X119686582Y-25572989D01*
X119696526Y-25642147D01*
X119676421Y-25694087D01*
X119624884Y-25770098D01*
X119624878Y-25770107D01*
X119454706Y-26091086D01*
X119454700Y-26091098D01*
X119320226Y-26428603D01*
X119320221Y-26428618D01*
X119223030Y-26778670D01*
X119223024Y-26778696D01*
X119164250Y-27137200D01*
X119164248Y-27137217D01*
X119144579Y-27499997D01*
X119144579Y-27500002D01*
X119164248Y-27862782D01*
X119164250Y-27862799D01*
X119223024Y-28221303D01*
X119223030Y-28221329D01*
X119320221Y-28571381D01*
X119320226Y-28571396D01*
X119454700Y-28908901D01*
X119454706Y-28908913D01*
X119624878Y-29229892D01*
X119624884Y-29229901D01*
X119816357Y-29512303D01*
X119828773Y-29530614D01*
X120063979Y-29807521D01*
X120327746Y-30057375D01*
X120616981Y-30277245D01*
X120928292Y-30464555D01*
X120928294Y-30464556D01*
X120928296Y-30464557D01*
X120928300Y-30464559D01*
X121157451Y-30570575D01*
X121258031Y-30617108D01*
X121602330Y-30733116D01*
X121957153Y-30811218D01*
X122318341Y-30850500D01*
X122318347Y-30850500D01*
X122681653Y-30850500D01*
X122681659Y-30850500D01*
X123042847Y-30811218D01*
X123397670Y-30733116D01*
X123741969Y-30617108D01*
X124071708Y-30464555D01*
X124311573Y-30320232D01*
X124379163Y-30302537D01*
X124445591Y-30324193D01*
X124489767Y-30378326D01*
X124499500Y-30426483D01*
X124499500Y-73273515D01*
X124479815Y-73340554D01*
X124427011Y-73386309D01*
X124357853Y-73396253D01*
X124311572Y-73379765D01*
X124071712Y-73235447D01*
X124071699Y-73235440D01*
X123741979Y-73082896D01*
X123741974Y-73082894D01*
X123741969Y-73082892D01*
X123574143Y-73026344D01*
X123397669Y-72966883D01*
X123042845Y-72888781D01*
X122681660Y-72849500D01*
X122681659Y-72849500D01*
X122318341Y-72849500D01*
X122318339Y-72849500D01*
X121957154Y-72888781D01*
X121602330Y-72966883D01*
X121336178Y-73056560D01*
X121258031Y-73082892D01*
X121258028Y-73082893D01*
X121258020Y-73082896D01*
X120928300Y-73235440D01*
X120928296Y-73235442D01*
X120865019Y-73273515D01*
X120616981Y-73422755D01*
X120527332Y-73490903D01*
X120327755Y-73642617D01*
X120327745Y-73642625D01*
X120063978Y-73892479D01*
X119828772Y-74169386D01*
X119624884Y-74470098D01*
X119624878Y-74470107D01*
X119454706Y-74791086D01*
X119454700Y-74791098D01*
X119320226Y-75128603D01*
X119320221Y-75128618D01*
X119223030Y-75478670D01*
X119223024Y-75478696D01*
X119164250Y-75837200D01*
X119164248Y-75837217D01*
X119144579Y-76199997D01*
X119144579Y-76200002D01*
X119164248Y-76562782D01*
X119164250Y-76562799D01*
X119223024Y-76921303D01*
X119223030Y-76921329D01*
X119320221Y-77271381D01*
X119320226Y-77271396D01*
X119454700Y-77608901D01*
X119454706Y-77608913D01*
X119624878Y-77929892D01*
X119624881Y-77929897D01*
X119624883Y-77929900D01*
X119675060Y-78003905D01*
X119828772Y-78230613D01*
X119983703Y-78413012D01*
X120063979Y-78507521D01*
X120327746Y-78757375D01*
X120616981Y-78977245D01*
X120928292Y-79164555D01*
X120928294Y-79164556D01*
X120928296Y-79164557D01*
X120928300Y-79164559D01*
X121258020Y-79317103D01*
X121258031Y-79317108D01*
X121602330Y-79433116D01*
X121957153Y-79511218D01*
X122318341Y-79550500D01*
X122318347Y-79550500D01*
X122681653Y-79550500D01*
X122681659Y-79550500D01*
X123042847Y-79511218D01*
X123397670Y-79433116D01*
X123741969Y-79317108D01*
X124071708Y-79164555D01*
X124311573Y-79020232D01*
X124379163Y-79002537D01*
X124445591Y-79024193D01*
X124489767Y-79078326D01*
X124499500Y-79126483D01*
X124499500Y-94375500D01*
X124479815Y-94442539D01*
X124427011Y-94488294D01*
X124375500Y-94499500D01*
X123451834Y-94499500D01*
X123384795Y-94479815D01*
X123339040Y-94427011D01*
X123329096Y-94357853D01*
X123337273Y-94328047D01*
X123408683Y-94155646D01*
X123408685Y-94155638D01*
X123444999Y-93973078D01*
X123445000Y-93973076D01*
X123445000Y-93800000D01*
X122750000Y-93800000D01*
X122750000Y-93300000D01*
X123445000Y-93300000D01*
X123445000Y-93126923D01*
X123444999Y-93126921D01*
X123408685Y-92944361D01*
X123408683Y-92944353D01*
X123337449Y-92772377D01*
X123337444Y-92772368D01*
X123234029Y-92617598D01*
X123234026Y-92617594D01*
X123102405Y-92485973D01*
X123102401Y-92485970D01*
X122947631Y-92382555D01*
X122947622Y-92382550D01*
X122775648Y-92311317D01*
X122750000Y-92306214D01*
X122750000Y-93175272D01*
X122711940Y-93083386D01*
X122641614Y-93013060D01*
X122549728Y-92975000D01*
X122450272Y-92975000D01*
X122358386Y-93013060D01*
X122288060Y-93083386D01*
X122250000Y-93175272D01*
X122250000Y-92306214D01*
X122224351Y-92311317D01*
X122052377Y-92382550D01*
X122052368Y-92382555D01*
X121897598Y-92485970D01*
X121897594Y-92485973D01*
X121765973Y-92617594D01*
X121765970Y-92617598D01*
X121662555Y-92772368D01*
X121662550Y-92772377D01*
X121591316Y-92944353D01*
X121591314Y-92944361D01*
X121555000Y-93126921D01*
X121555000Y-93300000D01*
X122250000Y-93300000D01*
X122250000Y-93800000D01*
X121555000Y-93800000D01*
X121555000Y-93973078D01*
X121591314Y-94155638D01*
X121591316Y-94155646D01*
X121662727Y-94328047D01*
X121670196Y-94397517D01*
X121638921Y-94459996D01*
X121578832Y-94495648D01*
X121548166Y-94499500D01*
X116451834Y-94499500D01*
X116384795Y-94479815D01*
X116339040Y-94427011D01*
X116329096Y-94357853D01*
X116337273Y-94328047D01*
X116408683Y-94155646D01*
X116408685Y-94155638D01*
X116444999Y-93973078D01*
X116445000Y-93973076D01*
X116445000Y-93800000D01*
X115750000Y-93800000D01*
X115750000Y-93300000D01*
X116445000Y-93300000D01*
X116445000Y-93126923D01*
X116444999Y-93126921D01*
X116408685Y-92944361D01*
X116408683Y-92944353D01*
X116337449Y-92772377D01*
X116337444Y-92772368D01*
X116234029Y-92617598D01*
X116234026Y-92617594D01*
X116102405Y-92485973D01*
X116102401Y-92485970D01*
X115947631Y-92382555D01*
X115947622Y-92382550D01*
X115775648Y-92311317D01*
X115750000Y-92306214D01*
X115750000Y-93175272D01*
X115711940Y-93083386D01*
X115641614Y-93013060D01*
X115549728Y-92975000D01*
X115450272Y-92975000D01*
X115358386Y-93013060D01*
X115288060Y-93083386D01*
X115250000Y-93175272D01*
X115250000Y-92306214D01*
X115224351Y-92311317D01*
X115052377Y-92382550D01*
X115052368Y-92382555D01*
X114897598Y-92485970D01*
X114897594Y-92485973D01*
X114765973Y-92617594D01*
X114765970Y-92617598D01*
X114662555Y-92772368D01*
X114662550Y-92772377D01*
X114591316Y-92944353D01*
X114591314Y-92944361D01*
X114555000Y-93126921D01*
X114555000Y-93300000D01*
X115250000Y-93300000D01*
X115250000Y-93800000D01*
X114555000Y-93800000D01*
X114555000Y-93973078D01*
X114591314Y-94155638D01*
X114591316Y-94155646D01*
X114662727Y-94328047D01*
X114670196Y-94397517D01*
X114638921Y-94459996D01*
X114578832Y-94495648D01*
X114548166Y-94499500D01*
X110951834Y-94499500D01*
X110884795Y-94479815D01*
X110839040Y-94427011D01*
X110829096Y-94357853D01*
X110837273Y-94328047D01*
X110908683Y-94155646D01*
X110908685Y-94155638D01*
X110944999Y-93973078D01*
X110945000Y-93973076D01*
X110945000Y-93800000D01*
X110250000Y-93800000D01*
X110250000Y-93300000D01*
X110945000Y-93300000D01*
X110945000Y-93126923D01*
X110944999Y-93126921D01*
X110908685Y-92944361D01*
X110908683Y-92944353D01*
X110837449Y-92772377D01*
X110837444Y-92772368D01*
X110734029Y-92617598D01*
X110734026Y-92617594D01*
X110602405Y-92485973D01*
X110602401Y-92485970D01*
X110447631Y-92382555D01*
X110447622Y-92382550D01*
X110275648Y-92311317D01*
X110250000Y-92306214D01*
X110250000Y-93175272D01*
X110211940Y-93083386D01*
X110141614Y-93013060D01*
X110049728Y-92975000D01*
X109950272Y-92975000D01*
X109858386Y-93013060D01*
X109788060Y-93083386D01*
X109750000Y-93175272D01*
X109750000Y-92306214D01*
X109724351Y-92311317D01*
X109552377Y-92382550D01*
X109552368Y-92382555D01*
X109397598Y-92485970D01*
X109397594Y-92485973D01*
X109265973Y-92617594D01*
X109265970Y-92617598D01*
X109162555Y-92772368D01*
X109162550Y-92772377D01*
X109091316Y-92944353D01*
X109091314Y-92944361D01*
X109055000Y-93126921D01*
X109055000Y-93300000D01*
X109750000Y-93300000D01*
X109750000Y-93800000D01*
X109055000Y-93800000D01*
X109055000Y-93973078D01*
X109091314Y-94155638D01*
X109091316Y-94155646D01*
X109162727Y-94328047D01*
X109170196Y-94397517D01*
X109138921Y-94459996D01*
X109078832Y-94495648D01*
X109048166Y-94499500D01*
X103951834Y-94499500D01*
X103884795Y-94479815D01*
X103839040Y-94427011D01*
X103829096Y-94357853D01*
X103837273Y-94328047D01*
X103908683Y-94155646D01*
X103908685Y-94155638D01*
X103944999Y-93973078D01*
X103945000Y-93973076D01*
X103945000Y-93800000D01*
X103250000Y-93800000D01*
X103250000Y-93300000D01*
X103945000Y-93300000D01*
X103945000Y-93126923D01*
X103944999Y-93126921D01*
X103908685Y-92944361D01*
X103908683Y-92944353D01*
X103837449Y-92772377D01*
X103837444Y-92772368D01*
X103734029Y-92617598D01*
X103734026Y-92617594D01*
X103602405Y-92485973D01*
X103602401Y-92485970D01*
X103447631Y-92382555D01*
X103447622Y-92382550D01*
X103275648Y-92311317D01*
X103250000Y-92306214D01*
X103250000Y-93175272D01*
X103211940Y-93083386D01*
X103141614Y-93013060D01*
X103049728Y-92975000D01*
X102950272Y-92975000D01*
X102858386Y-93013060D01*
X102788060Y-93083386D01*
X102750000Y-93175272D01*
X102750000Y-92306214D01*
X102724351Y-92311317D01*
X102552377Y-92382550D01*
X102552368Y-92382555D01*
X102397598Y-92485970D01*
X102397594Y-92485973D01*
X102265973Y-92617594D01*
X102265970Y-92617598D01*
X102162555Y-92772368D01*
X102162550Y-92772377D01*
X102091316Y-92944353D01*
X102091314Y-92944361D01*
X102055000Y-93126921D01*
X102055000Y-93300000D01*
X102750000Y-93300000D01*
X102750000Y-93800000D01*
X102055000Y-93800000D01*
X102055000Y-93973078D01*
X102091314Y-94155638D01*
X102091316Y-94155646D01*
X102162727Y-94328047D01*
X102170196Y-94397517D01*
X102138921Y-94459996D01*
X102078832Y-94495648D01*
X102048166Y-94499500D01*
X98451834Y-94499500D01*
X98384795Y-94479815D01*
X98339040Y-94427011D01*
X98329096Y-94357853D01*
X98337273Y-94328047D01*
X98408683Y-94155646D01*
X98408685Y-94155638D01*
X98444999Y-93973078D01*
X98445000Y-93973076D01*
X98445000Y-93800000D01*
X97750000Y-93800000D01*
X97750000Y-93300000D01*
X98445000Y-93300000D01*
X98445000Y-93126923D01*
X98444999Y-93126921D01*
X98408685Y-92944361D01*
X98408683Y-92944353D01*
X98337449Y-92772377D01*
X98337444Y-92772368D01*
X98234029Y-92617598D01*
X98234026Y-92617594D01*
X98102405Y-92485973D01*
X98102401Y-92485970D01*
X97947631Y-92382555D01*
X97947622Y-92382550D01*
X97775648Y-92311317D01*
X97750000Y-92306214D01*
X97750000Y-93175272D01*
X97711940Y-93083386D01*
X97641614Y-93013060D01*
X97549728Y-92975000D01*
X97450272Y-92975000D01*
X97358386Y-93013060D01*
X97288060Y-93083386D01*
X97250000Y-93175272D01*
X97250000Y-92306214D01*
X97224351Y-92311317D01*
X97052377Y-92382550D01*
X97052368Y-92382555D01*
X96897598Y-92485970D01*
X96897594Y-92485973D01*
X96765973Y-92617594D01*
X96765970Y-92617598D01*
X96662555Y-92772368D01*
X96662550Y-92772377D01*
X96591316Y-92944353D01*
X96591314Y-92944361D01*
X96555000Y-93126921D01*
X96555000Y-93300000D01*
X97250000Y-93300000D01*
X97250000Y-93800000D01*
X96555000Y-93800000D01*
X96555000Y-93973078D01*
X96591314Y-94155638D01*
X96591316Y-94155646D01*
X96662727Y-94328047D01*
X96670196Y-94397517D01*
X96638921Y-94459996D01*
X96578832Y-94495648D01*
X96548166Y-94499500D01*
X91451834Y-94499500D01*
X91384795Y-94479815D01*
X91339040Y-94427011D01*
X91329096Y-94357853D01*
X91337273Y-94328047D01*
X91408683Y-94155646D01*
X91408685Y-94155638D01*
X91444999Y-93973078D01*
X91445000Y-93973076D01*
X91445000Y-93800000D01*
X90750000Y-93800000D01*
X90750000Y-93300000D01*
X91445000Y-93300000D01*
X91445000Y-93126923D01*
X91444999Y-93126921D01*
X91408685Y-92944361D01*
X91408683Y-92944353D01*
X91337449Y-92772377D01*
X91337444Y-92772368D01*
X91234029Y-92617598D01*
X91234026Y-92617594D01*
X91102405Y-92485973D01*
X91102401Y-92485970D01*
X90947631Y-92382555D01*
X90947622Y-92382550D01*
X90775648Y-92311317D01*
X90750000Y-92306214D01*
X90750000Y-93175272D01*
X90711940Y-93083386D01*
X90641614Y-93013060D01*
X90549728Y-92975000D01*
X90450272Y-92975000D01*
X90358386Y-93013060D01*
X90288060Y-93083386D01*
X90250000Y-93175272D01*
X90250000Y-92306214D01*
X90224351Y-92311317D01*
X90052377Y-92382550D01*
X90052368Y-92382555D01*
X89897598Y-92485970D01*
X89897594Y-92485973D01*
X89765973Y-92617594D01*
X89765970Y-92617598D01*
X89662555Y-92772368D01*
X89662550Y-92772377D01*
X89591316Y-92944353D01*
X89591314Y-92944361D01*
X89555000Y-93126921D01*
X89555000Y-93300000D01*
X90250000Y-93300000D01*
X90250000Y-93800000D01*
X89555000Y-93800000D01*
X89555000Y-93973078D01*
X89591314Y-94155638D01*
X89591316Y-94155646D01*
X89662727Y-94328047D01*
X89670196Y-94397517D01*
X89638921Y-94459996D01*
X89578832Y-94495648D01*
X89548166Y-94499500D01*
X85951834Y-94499500D01*
X85884795Y-94479815D01*
X85839040Y-94427011D01*
X85829096Y-94357853D01*
X85837273Y-94328047D01*
X85908683Y-94155646D01*
X85908685Y-94155638D01*
X85944999Y-93973078D01*
X85945000Y-93973076D01*
X85945000Y-93800000D01*
X85250000Y-93800000D01*
X85250000Y-93300000D01*
X85945000Y-93300000D01*
X85945000Y-93126923D01*
X85944999Y-93126921D01*
X85908685Y-92944361D01*
X85908683Y-92944353D01*
X85837449Y-92772377D01*
X85837444Y-92772368D01*
X85734029Y-92617598D01*
X85734026Y-92617594D01*
X85602405Y-92485973D01*
X85602401Y-92485970D01*
X85447631Y-92382555D01*
X85447622Y-92382550D01*
X85275648Y-92311317D01*
X85250000Y-92306214D01*
X85250000Y-93175272D01*
X85211940Y-93083386D01*
X85141614Y-93013060D01*
X85049728Y-92975000D01*
X84950272Y-92975000D01*
X84858386Y-93013060D01*
X84788060Y-93083386D01*
X84750000Y-93175272D01*
X84750000Y-92306214D01*
X84724351Y-92311317D01*
X84552377Y-92382550D01*
X84552368Y-92382555D01*
X84397598Y-92485970D01*
X84397594Y-92485973D01*
X84265973Y-92617594D01*
X84265970Y-92617598D01*
X84162555Y-92772368D01*
X84162550Y-92772377D01*
X84091316Y-92944353D01*
X84091314Y-92944361D01*
X84055000Y-93126921D01*
X84055000Y-93300000D01*
X84750000Y-93300000D01*
X84750000Y-93800000D01*
X84055000Y-93800000D01*
X84055000Y-93973078D01*
X84091314Y-94155638D01*
X84091316Y-94155646D01*
X84162727Y-94328047D01*
X84170196Y-94397517D01*
X84138921Y-94459996D01*
X84078832Y-94495648D01*
X84048166Y-94499500D01*
X78951834Y-94499500D01*
X78884795Y-94479815D01*
X78839040Y-94427011D01*
X78829096Y-94357853D01*
X78837273Y-94328047D01*
X78908683Y-94155646D01*
X78908685Y-94155638D01*
X78944999Y-93973078D01*
X78945000Y-93973076D01*
X78945000Y-93800000D01*
X78250000Y-93800000D01*
X78250000Y-93300000D01*
X78945000Y-93300000D01*
X78945000Y-93126923D01*
X78944999Y-93126921D01*
X78908685Y-92944361D01*
X78908683Y-92944353D01*
X78837449Y-92772377D01*
X78837444Y-92772368D01*
X78734029Y-92617598D01*
X78734026Y-92617594D01*
X78602405Y-92485973D01*
X78602401Y-92485970D01*
X78447631Y-92382555D01*
X78447622Y-92382550D01*
X78275648Y-92311317D01*
X78250000Y-92306214D01*
X78250000Y-93175272D01*
X78211940Y-93083386D01*
X78141614Y-93013060D01*
X78049728Y-92975000D01*
X77950272Y-92975000D01*
X77858386Y-93013060D01*
X77788060Y-93083386D01*
X77750000Y-93175272D01*
X77750000Y-92306214D01*
X77724351Y-92311317D01*
X77552377Y-92382550D01*
X77552368Y-92382555D01*
X77397598Y-92485970D01*
X77397594Y-92485973D01*
X77265973Y-92617594D01*
X77265970Y-92617598D01*
X77162555Y-92772368D01*
X77162550Y-92772377D01*
X77091316Y-92944353D01*
X77091314Y-92944361D01*
X77055000Y-93126921D01*
X77055000Y-93300000D01*
X77750000Y-93300000D01*
X77750000Y-93800000D01*
X77055000Y-93800000D01*
X77055000Y-93973078D01*
X77091314Y-94155638D01*
X77091316Y-94155646D01*
X77162727Y-94328047D01*
X77170196Y-94397517D01*
X77138921Y-94459996D01*
X77078832Y-94495648D01*
X77048166Y-94499500D01*
X72951834Y-94499500D01*
X72884795Y-94479815D01*
X72839040Y-94427011D01*
X72829096Y-94357853D01*
X72837273Y-94328047D01*
X72908683Y-94155646D01*
X72908685Y-94155638D01*
X72944999Y-93973078D01*
X72945000Y-93973076D01*
X72945000Y-93800000D01*
X72250000Y-93800000D01*
X72250000Y-93300000D01*
X72945000Y-93300000D01*
X72945000Y-93126923D01*
X72944999Y-93126921D01*
X72908685Y-92944361D01*
X72908683Y-92944353D01*
X72837449Y-92772377D01*
X72837444Y-92772368D01*
X72734029Y-92617598D01*
X72734026Y-92617594D01*
X72602405Y-92485973D01*
X72602401Y-92485970D01*
X72447631Y-92382555D01*
X72447622Y-92382550D01*
X72275648Y-92311317D01*
X72250000Y-92306214D01*
X72250000Y-93175272D01*
X72211940Y-93083386D01*
X72141614Y-93013060D01*
X72049728Y-92975000D01*
X71950272Y-92975000D01*
X71858386Y-93013060D01*
X71788060Y-93083386D01*
X71750000Y-93175272D01*
X71750000Y-92306214D01*
X71724351Y-92311317D01*
X71552377Y-92382550D01*
X71552368Y-92382555D01*
X71397598Y-92485970D01*
X71397594Y-92485973D01*
X71265973Y-92617594D01*
X71265970Y-92617598D01*
X71162555Y-92772368D01*
X71162550Y-92772377D01*
X71091316Y-92944353D01*
X71091314Y-92944361D01*
X71055000Y-93126921D01*
X71055000Y-93300000D01*
X71750000Y-93300000D01*
X71750000Y-93800000D01*
X71055000Y-93800000D01*
X71055000Y-93973078D01*
X71091314Y-94155638D01*
X71091316Y-94155646D01*
X71162727Y-94328047D01*
X71170196Y-94397517D01*
X71138921Y-94459996D01*
X71078832Y-94495648D01*
X71048166Y-94499500D01*
X65951834Y-94499500D01*
X65884795Y-94479815D01*
X65839040Y-94427011D01*
X65829096Y-94357853D01*
X65837273Y-94328047D01*
X65908683Y-94155646D01*
X65908685Y-94155638D01*
X65944999Y-93973078D01*
X65945000Y-93973076D01*
X65945000Y-93800000D01*
X65250000Y-93800000D01*
X65250000Y-93300000D01*
X65945000Y-93300000D01*
X65945000Y-93126923D01*
X65944999Y-93126921D01*
X65908685Y-92944361D01*
X65908683Y-92944353D01*
X65837449Y-92772377D01*
X65837444Y-92772368D01*
X65734029Y-92617598D01*
X65734026Y-92617594D01*
X65602405Y-92485973D01*
X65602401Y-92485970D01*
X65447631Y-92382555D01*
X65447622Y-92382550D01*
X65275648Y-92311317D01*
X65250000Y-92306214D01*
X65250000Y-93175272D01*
X65211940Y-93083386D01*
X65141614Y-93013060D01*
X65049728Y-92975000D01*
X64950272Y-92975000D01*
X64858386Y-93013060D01*
X64788060Y-93083386D01*
X64750000Y-93175272D01*
X64750000Y-92306214D01*
X64724351Y-92311317D01*
X64552377Y-92382550D01*
X64552368Y-92382555D01*
X64397598Y-92485970D01*
X64397594Y-92485973D01*
X64265973Y-92617594D01*
X64265970Y-92617598D01*
X64162555Y-92772368D01*
X64162550Y-92772377D01*
X64091316Y-92944353D01*
X64091314Y-92944361D01*
X64055000Y-93126921D01*
X64055000Y-93300000D01*
X64750000Y-93300000D01*
X64750000Y-93800000D01*
X64055000Y-93800000D01*
X64055000Y-93973078D01*
X64091314Y-94155638D01*
X64091316Y-94155646D01*
X64162727Y-94328047D01*
X64170196Y-94397517D01*
X64138921Y-94459996D01*
X64078832Y-94495648D01*
X64048166Y-94499500D01*
X60451834Y-94499500D01*
X60384795Y-94479815D01*
X60339040Y-94427011D01*
X60329096Y-94357853D01*
X60337273Y-94328047D01*
X60408683Y-94155646D01*
X60408685Y-94155638D01*
X60444999Y-93973078D01*
X60445000Y-93973076D01*
X60445000Y-93800000D01*
X59750000Y-93800000D01*
X59750000Y-93300000D01*
X60445000Y-93300000D01*
X60445000Y-93126923D01*
X60444999Y-93126921D01*
X60408685Y-92944361D01*
X60408683Y-92944353D01*
X60337449Y-92772377D01*
X60337444Y-92772368D01*
X60234029Y-92617598D01*
X60234026Y-92617594D01*
X60102405Y-92485973D01*
X60102401Y-92485970D01*
X59947631Y-92382555D01*
X59947622Y-92382550D01*
X59775648Y-92311317D01*
X59750000Y-92306214D01*
X59750000Y-93175272D01*
X59711940Y-93083386D01*
X59641614Y-93013060D01*
X59549728Y-92975000D01*
X59450272Y-92975000D01*
X59358386Y-93013060D01*
X59288060Y-93083386D01*
X59250000Y-93175272D01*
X59250000Y-92306214D01*
X59224351Y-92311317D01*
X59052377Y-92382550D01*
X59052368Y-92382555D01*
X58897598Y-92485970D01*
X58897594Y-92485973D01*
X58765973Y-92617594D01*
X58765970Y-92617598D01*
X58662555Y-92772368D01*
X58662550Y-92772377D01*
X58591316Y-92944353D01*
X58591314Y-92944361D01*
X58555000Y-93126921D01*
X58555000Y-93300000D01*
X59250000Y-93300000D01*
X59250000Y-93800000D01*
X58555000Y-93800000D01*
X58555000Y-93973078D01*
X58591314Y-94155638D01*
X58591316Y-94155646D01*
X58662727Y-94328047D01*
X58670196Y-94397517D01*
X58638921Y-94459996D01*
X58578832Y-94495648D01*
X58548166Y-94499500D01*
X53451834Y-94499500D01*
X53384795Y-94479815D01*
X53339040Y-94427011D01*
X53329096Y-94357853D01*
X53337273Y-94328047D01*
X53408683Y-94155646D01*
X53408685Y-94155638D01*
X53444999Y-93973078D01*
X53445000Y-93973076D01*
X53445000Y-93800000D01*
X52750000Y-93800000D01*
X52750000Y-93300000D01*
X53445000Y-93300000D01*
X53445000Y-93126923D01*
X53444999Y-93126921D01*
X53408685Y-92944361D01*
X53408683Y-92944353D01*
X53337449Y-92772377D01*
X53337444Y-92772368D01*
X53234029Y-92617598D01*
X53234026Y-92617594D01*
X53102405Y-92485973D01*
X53102401Y-92485970D01*
X52947631Y-92382555D01*
X52947622Y-92382550D01*
X52775648Y-92311317D01*
X52750000Y-92306214D01*
X52750000Y-93175272D01*
X52711940Y-93083386D01*
X52641614Y-93013060D01*
X52549728Y-92975000D01*
X52450272Y-92975000D01*
X52358386Y-93013060D01*
X52288060Y-93083386D01*
X52250000Y-93175272D01*
X52250000Y-92306214D01*
X52224351Y-92311317D01*
X52052377Y-92382550D01*
X52052368Y-92382555D01*
X51897598Y-92485970D01*
X51897594Y-92485973D01*
X51765973Y-92617594D01*
X51765970Y-92617598D01*
X51662555Y-92772368D01*
X51662550Y-92772377D01*
X51591316Y-92944353D01*
X51591314Y-92944361D01*
X51555000Y-93126921D01*
X51555000Y-93300000D01*
X52250000Y-93300000D01*
X52250000Y-93800000D01*
X51555000Y-93800000D01*
X51555000Y-93973078D01*
X51591314Y-94155638D01*
X51591316Y-94155646D01*
X51662727Y-94328047D01*
X51670196Y-94397517D01*
X51638921Y-94459996D01*
X51578832Y-94495648D01*
X51548166Y-94499500D01*
X47951834Y-94499500D01*
X47884795Y-94479815D01*
X47839040Y-94427011D01*
X47829096Y-94357853D01*
X47837273Y-94328047D01*
X47908683Y-94155646D01*
X47908685Y-94155638D01*
X47944999Y-93973078D01*
X47945000Y-93973076D01*
X47945000Y-93800000D01*
X47250000Y-93800000D01*
X47250000Y-93300000D01*
X47945000Y-93300000D01*
X47945000Y-93126923D01*
X47944999Y-93126921D01*
X47908685Y-92944361D01*
X47908683Y-92944353D01*
X47837449Y-92772377D01*
X47837444Y-92772368D01*
X47734029Y-92617598D01*
X47734026Y-92617594D01*
X47602405Y-92485973D01*
X47602401Y-92485970D01*
X47447631Y-92382555D01*
X47447622Y-92382550D01*
X47275648Y-92311317D01*
X47250000Y-92306214D01*
X47250000Y-93175272D01*
X47211940Y-93083386D01*
X47141614Y-93013060D01*
X47049728Y-92975000D01*
X46950272Y-92975000D01*
X46858386Y-93013060D01*
X46788060Y-93083386D01*
X46750000Y-93175272D01*
X46750000Y-92306214D01*
X46724351Y-92311317D01*
X46552377Y-92382550D01*
X46552368Y-92382555D01*
X46397598Y-92485970D01*
X46397594Y-92485973D01*
X46265973Y-92617594D01*
X46265970Y-92617598D01*
X46162555Y-92772368D01*
X46162550Y-92772377D01*
X46091316Y-92944353D01*
X46091314Y-92944361D01*
X46055000Y-93126921D01*
X46055000Y-93300000D01*
X46750000Y-93300000D01*
X46750000Y-93800000D01*
X46055000Y-93800000D01*
X46055000Y-93973078D01*
X46091314Y-94155638D01*
X46091316Y-94155646D01*
X46162727Y-94328047D01*
X46170196Y-94397517D01*
X46138921Y-94459996D01*
X46078832Y-94495648D01*
X46048166Y-94499500D01*
X40951834Y-94499500D01*
X40884795Y-94479815D01*
X40839040Y-94427011D01*
X40829096Y-94357853D01*
X40837273Y-94328047D01*
X40908683Y-94155646D01*
X40908685Y-94155638D01*
X40944999Y-93973078D01*
X40945000Y-93973076D01*
X40945000Y-93800000D01*
X40250000Y-93800000D01*
X40250000Y-93300000D01*
X40945000Y-93300000D01*
X40945000Y-93126923D01*
X40944999Y-93126921D01*
X40908685Y-92944361D01*
X40908683Y-92944353D01*
X40837449Y-92772377D01*
X40837444Y-92772368D01*
X40734029Y-92617598D01*
X40734026Y-92617594D01*
X40602405Y-92485973D01*
X40602401Y-92485970D01*
X40447631Y-92382555D01*
X40447622Y-92382550D01*
X40275648Y-92311317D01*
X40250000Y-92306214D01*
X40250000Y-93175272D01*
X40211940Y-93083386D01*
X40141614Y-93013060D01*
X40049728Y-92975000D01*
X39950272Y-92975000D01*
X39858386Y-93013060D01*
X39788060Y-93083386D01*
X39750000Y-93175272D01*
X39750000Y-92306214D01*
X39724351Y-92311317D01*
X39552377Y-92382550D01*
X39552368Y-92382555D01*
X39397598Y-92485970D01*
X39397594Y-92485973D01*
X39265973Y-92617594D01*
X39265970Y-92617598D01*
X39162555Y-92772368D01*
X39162550Y-92772377D01*
X39091316Y-92944353D01*
X39091314Y-92944361D01*
X39055000Y-93126921D01*
X39055000Y-93300000D01*
X39750000Y-93300000D01*
X39750000Y-93800000D01*
X39055000Y-93800000D01*
X39055000Y-93973078D01*
X39091314Y-94155638D01*
X39091316Y-94155646D01*
X39162727Y-94328047D01*
X39170196Y-94397517D01*
X39138921Y-94459996D01*
X39078832Y-94495648D01*
X39048166Y-94499500D01*
X35451834Y-94499500D01*
X35384795Y-94479815D01*
X35339040Y-94427011D01*
X35329096Y-94357853D01*
X35337273Y-94328047D01*
X35408683Y-94155646D01*
X35408685Y-94155638D01*
X35444999Y-93973078D01*
X35445000Y-93973076D01*
X35445000Y-93800000D01*
X34750000Y-93800000D01*
X34750000Y-93300000D01*
X35445000Y-93300000D01*
X35445000Y-93126923D01*
X35444999Y-93126921D01*
X35408685Y-92944361D01*
X35408683Y-92944353D01*
X35337449Y-92772377D01*
X35337444Y-92772368D01*
X35234029Y-92617598D01*
X35234026Y-92617594D01*
X35102405Y-92485973D01*
X35102401Y-92485970D01*
X34947631Y-92382555D01*
X34947622Y-92382550D01*
X34775648Y-92311317D01*
X34750000Y-92306214D01*
X34750000Y-93175272D01*
X34711940Y-93083386D01*
X34641614Y-93013060D01*
X34549728Y-92975000D01*
X34450272Y-92975000D01*
X34358386Y-93013060D01*
X34288060Y-93083386D01*
X34250000Y-93175272D01*
X34250000Y-92306214D01*
X34224351Y-92311317D01*
X34052377Y-92382550D01*
X34052368Y-92382555D01*
X33897598Y-92485970D01*
X33897594Y-92485973D01*
X33765973Y-92617594D01*
X33765970Y-92617598D01*
X33662555Y-92772368D01*
X33662550Y-92772377D01*
X33591316Y-92944353D01*
X33591314Y-92944361D01*
X33555000Y-93126921D01*
X33555000Y-93300000D01*
X34250000Y-93300000D01*
X34250000Y-93800000D01*
X33555000Y-93800000D01*
X33555000Y-93973078D01*
X33591314Y-94155638D01*
X33591316Y-94155646D01*
X33662727Y-94328047D01*
X33670196Y-94397517D01*
X33638921Y-94459996D01*
X33578832Y-94495648D01*
X33548166Y-94499500D01*
X28451834Y-94499500D01*
X28384795Y-94479815D01*
X28339040Y-94427011D01*
X28329096Y-94357853D01*
X28337273Y-94328047D01*
X28408683Y-94155646D01*
X28408685Y-94155638D01*
X28444999Y-93973078D01*
X28445000Y-93973076D01*
X28445000Y-93800000D01*
X27750000Y-93800000D01*
X27750000Y-93300000D01*
X28445000Y-93300000D01*
X28445000Y-93126923D01*
X28444999Y-93126921D01*
X28408685Y-92944361D01*
X28408683Y-92944353D01*
X28337449Y-92772377D01*
X28337444Y-92772368D01*
X28234029Y-92617598D01*
X28234026Y-92617594D01*
X28102405Y-92485973D01*
X28102401Y-92485970D01*
X27947631Y-92382555D01*
X27947622Y-92382550D01*
X27775648Y-92311317D01*
X27750000Y-92306214D01*
X27750000Y-93175272D01*
X27711940Y-93083386D01*
X27641614Y-93013060D01*
X27549728Y-92975000D01*
X27450272Y-92975000D01*
X27358386Y-93013060D01*
X27288060Y-93083386D01*
X27250000Y-93175272D01*
X27250000Y-92306214D01*
X27224351Y-92311317D01*
X27052377Y-92382550D01*
X27052368Y-92382555D01*
X26897598Y-92485970D01*
X26897594Y-92485973D01*
X26765973Y-92617594D01*
X26765970Y-92617598D01*
X26662555Y-92772368D01*
X26662550Y-92772377D01*
X26591316Y-92944353D01*
X26591314Y-92944361D01*
X26555000Y-93126921D01*
X26555000Y-93300000D01*
X27250000Y-93300000D01*
X27250000Y-93800000D01*
X26555000Y-93800000D01*
X26555000Y-93973078D01*
X26591314Y-94155638D01*
X26591316Y-94155646D01*
X26662727Y-94328047D01*
X26670196Y-94397517D01*
X26638921Y-94459996D01*
X26578832Y-94495648D01*
X26548166Y-94499500D01*
X25624500Y-94499500D01*
X25557461Y-94479815D01*
X25511706Y-94427011D01*
X25500500Y-94375500D01*
X25500500Y-79126483D01*
X25520185Y-79059444D01*
X25572989Y-79013689D01*
X25642147Y-79003745D01*
X25688425Y-79020231D01*
X25928292Y-79164555D01*
X25928294Y-79164556D01*
X25928296Y-79164557D01*
X25928300Y-79164559D01*
X26258020Y-79317103D01*
X26258031Y-79317108D01*
X26602330Y-79433116D01*
X26957153Y-79511218D01*
X27318341Y-79550500D01*
X27318347Y-79550500D01*
X27681653Y-79550500D01*
X27681659Y-79550500D01*
X28042847Y-79511218D01*
X28397670Y-79433116D01*
X28741969Y-79317108D01*
X29071708Y-79164555D01*
X29383019Y-78977245D01*
X29672254Y-78757375D01*
X29936021Y-78507521D01*
X30171227Y-78230614D01*
X30375117Y-77929900D01*
X30545298Y-77608905D01*
X30679775Y-77271391D01*
X30680716Y-77268002D01*
X30701220Y-77194155D01*
X30738122Y-77134825D01*
X30801242Y-77104864D01*
X30870539Y-77113785D01*
X30924014Y-77158755D01*
X30944686Y-77225496D01*
X30944700Y-77227328D01*
X30944700Y-88004599D01*
X30925696Y-88070567D01*
X30922610Y-88075478D01*
X30863033Y-88245737D01*
X30863030Y-88245750D01*
X30850115Y-88360386D01*
X30823049Y-88424800D01*
X30765454Y-88464355D01*
X30726895Y-88470503D01*
X29988540Y-88470503D01*
X29947585Y-88463544D01*
X29879262Y-88439636D01*
X29879249Y-88439633D01*
X29700004Y-88419438D01*
X29699996Y-88419438D01*
X29520750Y-88439633D01*
X29520745Y-88439634D01*
X29350476Y-88499214D01*
X29197737Y-88595187D01*
X29070184Y-88722740D01*
X28974211Y-88875479D01*
X28914631Y-89045748D01*
X28914630Y-89045753D01*
X28894435Y-89224999D01*
X28894435Y-89225006D01*
X28914630Y-89404252D01*
X28914631Y-89404257D01*
X28974211Y-89574526D01*
X29069413Y-89726038D01*
X29088413Y-89793275D01*
X29068045Y-89860110D01*
X29014777Y-89905324D01*
X28945521Y-89914562D01*
X28940228Y-89913627D01*
X28750000Y-89875788D01*
X28750000Y-90593763D01*
X28704701Y-90575000D01*
X28295299Y-90575000D01*
X28250000Y-90593763D01*
X28250000Y-89875789D01*
X28249999Y-89875788D01*
X28065610Y-89912466D01*
X28065602Y-89912468D01*
X27888166Y-89985964D01*
X27888157Y-89985969D01*
X27728473Y-90092667D01*
X27728469Y-90092670D01*
X27592670Y-90228469D01*
X27592667Y-90228473D01*
X27485969Y-90388157D01*
X27485964Y-90388166D01*
X27412468Y-90565602D01*
X27412466Y-90565610D01*
X27405626Y-90600000D01*
X28234943Y-90600000D01*
X28194225Y-90616866D01*
X28116866Y-90694225D01*
X28075000Y-90795299D01*
X28075000Y-90904701D01*
X28116866Y-91005775D01*
X28194225Y-91083134D01*
X28234943Y-91100000D01*
X27405626Y-91100000D01*
X27412466Y-91134389D01*
X27412468Y-91134397D01*
X27485964Y-91311833D01*
X27485969Y-91311842D01*
X27592667Y-91471526D01*
X27592670Y-91471530D01*
X27728469Y-91607329D01*
X27728473Y-91607332D01*
X27888157Y-91714030D01*
X27888166Y-91714035D01*
X28065602Y-91787531D01*
X28065610Y-91787533D01*
X28249999Y-91824210D01*
X28250000Y-91824210D01*
X28250000Y-91106236D01*
X28295299Y-91125000D01*
X28704701Y-91125000D01*
X28750000Y-91106236D01*
X28750000Y-91824210D01*
X28934389Y-91787533D01*
X28934397Y-91787531D01*
X29111833Y-91714035D01*
X29111842Y-91714030D01*
X29271526Y-91607332D01*
X29271530Y-91607329D01*
X29407329Y-91471530D01*
X29407332Y-91471526D01*
X29514030Y-91311842D01*
X29514035Y-91311833D01*
X29587531Y-91134397D01*
X29587533Y-91134389D01*
X29594374Y-91100000D01*
X28765057Y-91100000D01*
X28805775Y-91083134D01*
X28883134Y-91005775D01*
X28925000Y-90904701D01*
X28925000Y-90795299D01*
X28883134Y-90694225D01*
X28805775Y-90616866D01*
X28765057Y-90600000D01*
X29594374Y-90600000D01*
X29587533Y-90565610D01*
X29587531Y-90565602D01*
X29514035Y-90388166D01*
X29514030Y-90388157D01*
X29407332Y-90228473D01*
X29407329Y-90228469D01*
X29394947Y-90216087D01*
X29361462Y-90154764D01*
X29366446Y-90085072D01*
X29408318Y-90029139D01*
X29473782Y-90004722D01*
X29513674Y-90010043D01*
X29513953Y-90008821D01*
X29520743Y-90010370D01*
X29520745Y-90010371D01*
X29520746Y-90010371D01*
X29520750Y-90010372D01*
X29699996Y-90030568D01*
X29700000Y-90030568D01*
X29700004Y-90030568D01*
X29879249Y-90010372D01*
X29879251Y-90010371D01*
X29879255Y-90010371D01*
X29879258Y-90010369D01*
X29879262Y-90010369D01*
X29947585Y-89986462D01*
X29988540Y-89979503D01*
X32542275Y-89979503D01*
X32609314Y-89999188D01*
X32655069Y-90051992D01*
X32665013Y-90121150D01*
X32635988Y-90184706D01*
X32629956Y-90191184D01*
X32592670Y-90228469D01*
X32592667Y-90228473D01*
X32485969Y-90388157D01*
X32485964Y-90388166D01*
X32412468Y-90565602D01*
X32412466Y-90565610D01*
X32405626Y-90600000D01*
X33234943Y-90600000D01*
X33194225Y-90616866D01*
X33116866Y-90694225D01*
X33075000Y-90795299D01*
X33075000Y-90904701D01*
X33116866Y-91005775D01*
X33194225Y-91083134D01*
X33234943Y-91100000D01*
X32405626Y-91100000D01*
X32412466Y-91134389D01*
X32412468Y-91134397D01*
X32485964Y-91311833D01*
X32485969Y-91311842D01*
X32592667Y-91471526D01*
X32592670Y-91471530D01*
X32728469Y-91607329D01*
X32728473Y-91607332D01*
X32888157Y-91714030D01*
X32888166Y-91714035D01*
X33065602Y-91787531D01*
X33065610Y-91787533D01*
X33249999Y-91824210D01*
X33250000Y-91824210D01*
X33250000Y-91106236D01*
X33295299Y-91125000D01*
X33704701Y-91125000D01*
X33750000Y-91106236D01*
X33750000Y-91824210D01*
X33934389Y-91787533D01*
X33934397Y-91787531D01*
X34111833Y-91714035D01*
X34111842Y-91714030D01*
X34271526Y-91607332D01*
X34271530Y-91607329D01*
X34407329Y-91471530D01*
X34407332Y-91471526D01*
X34514030Y-91311842D01*
X34514035Y-91311833D01*
X34587531Y-91134397D01*
X34587533Y-91134389D01*
X34594374Y-91100000D01*
X33765057Y-91100000D01*
X33805775Y-91083134D01*
X33883134Y-91005775D01*
X33925000Y-90904701D01*
X33925000Y-90795299D01*
X33883134Y-90694225D01*
X33805775Y-90616866D01*
X33765057Y-90600000D01*
X34594374Y-90600000D01*
X34587533Y-90565610D01*
X34587531Y-90565602D01*
X34514035Y-90388166D01*
X34514030Y-90388157D01*
X34407332Y-90228473D01*
X34407329Y-90228469D01*
X34370044Y-90191184D01*
X34336559Y-90129861D01*
X34341543Y-90060169D01*
X34383415Y-90004236D01*
X34448879Y-89979819D01*
X34457725Y-89979503D01*
X40042275Y-89979503D01*
X40109314Y-89999188D01*
X40155069Y-90051992D01*
X40165013Y-90121150D01*
X40135988Y-90184706D01*
X40129956Y-90191184D01*
X40092670Y-90228469D01*
X40092667Y-90228473D01*
X39985969Y-90388157D01*
X39985964Y-90388166D01*
X39912468Y-90565602D01*
X39912466Y-90565610D01*
X39905626Y-90600000D01*
X40734943Y-90600000D01*
X40694225Y-90616866D01*
X40616866Y-90694225D01*
X40575000Y-90795299D01*
X40575000Y-90904701D01*
X40616866Y-91005775D01*
X40694225Y-91083134D01*
X40734943Y-91100000D01*
X39905626Y-91100000D01*
X39912466Y-91134389D01*
X39912468Y-91134397D01*
X39985964Y-91311833D01*
X39985969Y-91311842D01*
X40092667Y-91471526D01*
X40092670Y-91471530D01*
X40228469Y-91607329D01*
X40228473Y-91607332D01*
X40388157Y-91714030D01*
X40388166Y-91714035D01*
X40565602Y-91787531D01*
X40565610Y-91787533D01*
X40749999Y-91824210D01*
X40750000Y-91824210D01*
X40750000Y-91106236D01*
X40795299Y-91125000D01*
X41204701Y-91125000D01*
X41250000Y-91106236D01*
X41250000Y-91824210D01*
X41434389Y-91787533D01*
X41434397Y-91787531D01*
X41611833Y-91714035D01*
X41611842Y-91714030D01*
X41771526Y-91607332D01*
X41771530Y-91607329D01*
X41907329Y-91471530D01*
X41907332Y-91471526D01*
X42014030Y-91311842D01*
X42014035Y-91311833D01*
X42087531Y-91134397D01*
X42087533Y-91134389D01*
X42094374Y-91100000D01*
X41265057Y-91100000D01*
X41305775Y-91083134D01*
X41383134Y-91005775D01*
X41425000Y-90904701D01*
X41425000Y-90795299D01*
X41383134Y-90694225D01*
X41305775Y-90616866D01*
X41265057Y-90600000D01*
X42094374Y-90600000D01*
X42087533Y-90565610D01*
X42087531Y-90565602D01*
X42014035Y-90388166D01*
X42014030Y-90388157D01*
X41907332Y-90228473D01*
X41907329Y-90228469D01*
X41894085Y-90215225D01*
X41860600Y-90153902D01*
X41865584Y-90084210D01*
X41907456Y-90028277D01*
X41972920Y-90003860D01*
X42015391Y-90009526D01*
X42015553Y-90008821D01*
X42022343Y-90010370D01*
X42022345Y-90010371D01*
X42022346Y-90010371D01*
X42022350Y-90010372D01*
X42201596Y-90030568D01*
X42201600Y-90030568D01*
X42201604Y-90030568D01*
X42380849Y-90010372D01*
X42380851Y-90010371D01*
X42380855Y-90010371D01*
X42380858Y-90010369D01*
X42380862Y-90010369D01*
X42449185Y-89986462D01*
X42490140Y-89979503D01*
X45042275Y-89979503D01*
X45109314Y-89999188D01*
X45155069Y-90051992D01*
X45165013Y-90121150D01*
X45135988Y-90184706D01*
X45129956Y-90191184D01*
X45092670Y-90228469D01*
X45092667Y-90228473D01*
X44985969Y-90388157D01*
X44985964Y-90388166D01*
X44912468Y-90565602D01*
X44912466Y-90565610D01*
X44905626Y-90600000D01*
X45734943Y-90600000D01*
X45694225Y-90616866D01*
X45616866Y-90694225D01*
X45575000Y-90795299D01*
X45575000Y-90904701D01*
X45616866Y-91005775D01*
X45694225Y-91083134D01*
X45734943Y-91100000D01*
X44905626Y-91100000D01*
X44912466Y-91134389D01*
X44912468Y-91134397D01*
X44985964Y-91311833D01*
X44985969Y-91311842D01*
X45092667Y-91471526D01*
X45092670Y-91471530D01*
X45228469Y-91607329D01*
X45228473Y-91607332D01*
X45388157Y-91714030D01*
X45388166Y-91714035D01*
X45565602Y-91787531D01*
X45565610Y-91787533D01*
X45749999Y-91824210D01*
X45750000Y-91824210D01*
X45750000Y-91106236D01*
X45795299Y-91125000D01*
X46204701Y-91125000D01*
X46250000Y-91106236D01*
X46250000Y-91824210D01*
X46434389Y-91787533D01*
X46434397Y-91787531D01*
X46611833Y-91714035D01*
X46611842Y-91714030D01*
X46771526Y-91607332D01*
X46771530Y-91607329D01*
X46907329Y-91471530D01*
X46907332Y-91471526D01*
X47014030Y-91311842D01*
X47014035Y-91311833D01*
X47087531Y-91134397D01*
X47087533Y-91134389D01*
X47094374Y-91100000D01*
X46265057Y-91100000D01*
X46305775Y-91083134D01*
X46383134Y-91005775D01*
X46425000Y-90904701D01*
X46425000Y-90795299D01*
X46383134Y-90694225D01*
X46305775Y-90616866D01*
X46265057Y-90600000D01*
X47094374Y-90600000D01*
X47087533Y-90565610D01*
X47087531Y-90565602D01*
X47014035Y-90388166D01*
X47014030Y-90388157D01*
X46907332Y-90228473D01*
X46907329Y-90228469D01*
X46870044Y-90191184D01*
X46836559Y-90129861D01*
X46841543Y-90060169D01*
X46883415Y-90004236D01*
X46948879Y-89979819D01*
X46957725Y-89979503D01*
X52542275Y-89979503D01*
X52609314Y-89999188D01*
X52655069Y-90051992D01*
X52665013Y-90121150D01*
X52635988Y-90184706D01*
X52629956Y-90191184D01*
X52592670Y-90228469D01*
X52592667Y-90228473D01*
X52485969Y-90388157D01*
X52485964Y-90388166D01*
X52412468Y-90565602D01*
X52412466Y-90565610D01*
X52405626Y-90600000D01*
X53234943Y-90600000D01*
X53194225Y-90616866D01*
X53116866Y-90694225D01*
X53075000Y-90795299D01*
X53075000Y-90904701D01*
X53116866Y-91005775D01*
X53194225Y-91083134D01*
X53234943Y-91100000D01*
X52405626Y-91100000D01*
X52412466Y-91134389D01*
X52412468Y-91134397D01*
X52485964Y-91311833D01*
X52485969Y-91311842D01*
X52592667Y-91471526D01*
X52592670Y-91471530D01*
X52728469Y-91607329D01*
X52728473Y-91607332D01*
X52888157Y-91714030D01*
X52888166Y-91714035D01*
X53065602Y-91787531D01*
X53065610Y-91787533D01*
X53250000Y-91824210D01*
X53250000Y-91106236D01*
X53295299Y-91125000D01*
X53704701Y-91125000D01*
X53750000Y-91106236D01*
X53750000Y-91824210D01*
X53934389Y-91787533D01*
X53934397Y-91787531D01*
X54111833Y-91714035D01*
X54111842Y-91714030D01*
X54271526Y-91607332D01*
X54271530Y-91607329D01*
X54407329Y-91471530D01*
X54407332Y-91471526D01*
X54514030Y-91311842D01*
X54514035Y-91311833D01*
X54587531Y-91134397D01*
X54587533Y-91134389D01*
X54594374Y-91100000D01*
X53765057Y-91100000D01*
X53805775Y-91083134D01*
X53883134Y-91005775D01*
X53925000Y-90904701D01*
X53925000Y-90795299D01*
X53883134Y-90694225D01*
X53805775Y-90616866D01*
X53765057Y-90600000D01*
X54594374Y-90600000D01*
X54587533Y-90565610D01*
X54587531Y-90565602D01*
X54514035Y-90388166D01*
X54514030Y-90388157D01*
X54407332Y-90228473D01*
X54407329Y-90228469D01*
X54394085Y-90215225D01*
X54360600Y-90153902D01*
X54365584Y-90084210D01*
X54407456Y-90028277D01*
X54472920Y-90003860D01*
X54515391Y-90009526D01*
X54515553Y-90008821D01*
X54522343Y-90010370D01*
X54522345Y-90010371D01*
X54522346Y-90010371D01*
X54522350Y-90010372D01*
X54701596Y-90030568D01*
X54701600Y-90030568D01*
X54701604Y-90030568D01*
X54880849Y-90010372D01*
X54880851Y-90010371D01*
X54880855Y-90010371D01*
X54880858Y-90010369D01*
X54880862Y-90010369D01*
X54949185Y-89986462D01*
X54990140Y-89979503D01*
X57542275Y-89979503D01*
X57609314Y-89999188D01*
X57655069Y-90051992D01*
X57665013Y-90121150D01*
X57635988Y-90184706D01*
X57629956Y-90191184D01*
X57592670Y-90228469D01*
X57592667Y-90228473D01*
X57485969Y-90388157D01*
X57485964Y-90388166D01*
X57412468Y-90565602D01*
X57412466Y-90565610D01*
X57405626Y-90600000D01*
X58234943Y-90600000D01*
X58194225Y-90616866D01*
X58116866Y-90694225D01*
X58075000Y-90795299D01*
X58075000Y-90904701D01*
X58116866Y-91005775D01*
X58194225Y-91083134D01*
X58234943Y-91100000D01*
X57405626Y-91100000D01*
X57412466Y-91134389D01*
X57412468Y-91134397D01*
X57485964Y-91311833D01*
X57485969Y-91311842D01*
X57592667Y-91471526D01*
X57592670Y-91471530D01*
X57728469Y-91607329D01*
X57728473Y-91607332D01*
X57888157Y-91714030D01*
X57888166Y-91714035D01*
X58065602Y-91787531D01*
X58065610Y-91787533D01*
X58250000Y-91824210D01*
X58250000Y-91106236D01*
X58295299Y-91125000D01*
X58704701Y-91125000D01*
X58750000Y-91106236D01*
X58750000Y-91824210D01*
X58934389Y-91787533D01*
X58934397Y-91787531D01*
X59111833Y-91714035D01*
X59111842Y-91714030D01*
X59271526Y-91607332D01*
X59271530Y-91607329D01*
X59407329Y-91471530D01*
X59407332Y-91471526D01*
X59514030Y-91311842D01*
X59514035Y-91311833D01*
X59587531Y-91134397D01*
X59587533Y-91134389D01*
X59594374Y-91100000D01*
X58765057Y-91100000D01*
X58805775Y-91083134D01*
X58883134Y-91005775D01*
X58925000Y-90904701D01*
X58925000Y-90795299D01*
X58883134Y-90694225D01*
X58805775Y-90616866D01*
X58765057Y-90600000D01*
X59594374Y-90600000D01*
X59587533Y-90565610D01*
X59587531Y-90565602D01*
X59514035Y-90388166D01*
X59514030Y-90388157D01*
X59407332Y-90228473D01*
X59407329Y-90228469D01*
X59370044Y-90191184D01*
X59336559Y-90129861D01*
X59341543Y-90060169D01*
X59383415Y-90004236D01*
X59448879Y-89979819D01*
X59457725Y-89979503D01*
X65042275Y-89979503D01*
X65109314Y-89999188D01*
X65155069Y-90051992D01*
X65165013Y-90121150D01*
X65135988Y-90184706D01*
X65129956Y-90191184D01*
X65092670Y-90228469D01*
X65092667Y-90228473D01*
X64985969Y-90388157D01*
X64985964Y-90388166D01*
X64912468Y-90565602D01*
X64912466Y-90565610D01*
X64905626Y-90600000D01*
X65734943Y-90600000D01*
X65694225Y-90616866D01*
X65616866Y-90694225D01*
X65575000Y-90795299D01*
X65575000Y-90904701D01*
X65616866Y-91005775D01*
X65694225Y-91083134D01*
X65734943Y-91100000D01*
X64905626Y-91100000D01*
X64912466Y-91134389D01*
X64912468Y-91134397D01*
X64985964Y-91311833D01*
X64985969Y-91311842D01*
X65092667Y-91471526D01*
X65092670Y-91471530D01*
X65228469Y-91607329D01*
X65228473Y-91607332D01*
X65388157Y-91714030D01*
X65388166Y-91714035D01*
X65565602Y-91787531D01*
X65565610Y-91787533D01*
X65749999Y-91824210D01*
X65750000Y-91824210D01*
X65750000Y-91106236D01*
X65795299Y-91125000D01*
X66204701Y-91125000D01*
X66250000Y-91106236D01*
X66250000Y-91824210D01*
X66434389Y-91787533D01*
X66434397Y-91787531D01*
X66611833Y-91714035D01*
X66611842Y-91714030D01*
X66771526Y-91607332D01*
X66771530Y-91607329D01*
X66907329Y-91471530D01*
X66907332Y-91471526D01*
X67014030Y-91311842D01*
X67014035Y-91311833D01*
X67087531Y-91134397D01*
X67087533Y-91134389D01*
X67094374Y-91100000D01*
X66265057Y-91100000D01*
X66305775Y-91083134D01*
X66383134Y-91005775D01*
X66425000Y-90904701D01*
X66425000Y-90795299D01*
X66383134Y-90694225D01*
X66305775Y-90616866D01*
X66265057Y-90600000D01*
X67094374Y-90600000D01*
X67087533Y-90565610D01*
X67087531Y-90565602D01*
X67014035Y-90388166D01*
X67014030Y-90388157D01*
X66907332Y-90228473D01*
X66907329Y-90228469D01*
X66894085Y-90215225D01*
X66860600Y-90153902D01*
X66865584Y-90084210D01*
X66907456Y-90028277D01*
X66972920Y-90003860D01*
X67015391Y-90009526D01*
X67015553Y-90008821D01*
X67022343Y-90010370D01*
X67022345Y-90010371D01*
X67022346Y-90010371D01*
X67022350Y-90010372D01*
X67201596Y-90030568D01*
X67201600Y-90030568D01*
X67201604Y-90030568D01*
X67380849Y-90010372D01*
X67380851Y-90010371D01*
X67380855Y-90010371D01*
X67380858Y-90010369D01*
X67380862Y-90010369D01*
X67449185Y-89986462D01*
X67490140Y-89979503D01*
X70042275Y-89979503D01*
X70109314Y-89999188D01*
X70155069Y-90051992D01*
X70165013Y-90121150D01*
X70135988Y-90184706D01*
X70129956Y-90191184D01*
X70092670Y-90228469D01*
X70092667Y-90228473D01*
X69985969Y-90388157D01*
X69985964Y-90388166D01*
X69912468Y-90565602D01*
X69912466Y-90565610D01*
X69905626Y-90600000D01*
X70734943Y-90600000D01*
X70694225Y-90616866D01*
X70616866Y-90694225D01*
X70575000Y-90795299D01*
X70575000Y-90904701D01*
X70616866Y-91005775D01*
X70694225Y-91083134D01*
X70734943Y-91100000D01*
X69905626Y-91100000D01*
X69912466Y-91134389D01*
X69912468Y-91134397D01*
X69985964Y-91311833D01*
X69985969Y-91311842D01*
X70092667Y-91471526D01*
X70092670Y-91471530D01*
X70228469Y-91607329D01*
X70228473Y-91607332D01*
X70388157Y-91714030D01*
X70388166Y-91714035D01*
X70565602Y-91787531D01*
X70565610Y-91787533D01*
X70749999Y-91824210D01*
X70750000Y-91824210D01*
X70750000Y-91106236D01*
X70795299Y-91125000D01*
X71204701Y-91125000D01*
X71250000Y-91106236D01*
X71250000Y-91824210D01*
X71434389Y-91787533D01*
X71434397Y-91787531D01*
X71611833Y-91714035D01*
X71611842Y-91714030D01*
X71771526Y-91607332D01*
X71771530Y-91607329D01*
X71907329Y-91471530D01*
X71907332Y-91471526D01*
X72014030Y-91311842D01*
X72014035Y-91311833D01*
X72087531Y-91134397D01*
X72087533Y-91134389D01*
X72094374Y-91100000D01*
X71265057Y-91100000D01*
X71305775Y-91083134D01*
X71383134Y-91005775D01*
X71425000Y-90904701D01*
X71425000Y-90795299D01*
X71383134Y-90694225D01*
X71305775Y-90616866D01*
X71265057Y-90600000D01*
X72094374Y-90600000D01*
X72087533Y-90565610D01*
X72087531Y-90565602D01*
X72014035Y-90388166D01*
X72014030Y-90388157D01*
X71907332Y-90228473D01*
X71907329Y-90228469D01*
X71870044Y-90191184D01*
X71836559Y-90129861D01*
X71841543Y-90060169D01*
X71883415Y-90004236D01*
X71948879Y-89979819D01*
X71957725Y-89979503D01*
X78042275Y-89979503D01*
X78109314Y-89999188D01*
X78155069Y-90051992D01*
X78165013Y-90121150D01*
X78135988Y-90184706D01*
X78129956Y-90191184D01*
X78092670Y-90228469D01*
X78092667Y-90228473D01*
X77985969Y-90388157D01*
X77985964Y-90388166D01*
X77912468Y-90565602D01*
X77912466Y-90565610D01*
X77905626Y-90600000D01*
X78734943Y-90600000D01*
X78694225Y-90616866D01*
X78616866Y-90694225D01*
X78575000Y-90795299D01*
X78575000Y-90904701D01*
X78616866Y-91005775D01*
X78694225Y-91083134D01*
X78734943Y-91100000D01*
X77905626Y-91100000D01*
X77912466Y-91134389D01*
X77912468Y-91134397D01*
X77985964Y-91311833D01*
X77985969Y-91311842D01*
X78092667Y-91471526D01*
X78092670Y-91471530D01*
X78228469Y-91607329D01*
X78228473Y-91607332D01*
X78388157Y-91714030D01*
X78388166Y-91714035D01*
X78565602Y-91787531D01*
X78565610Y-91787533D01*
X78749999Y-91824210D01*
X78750000Y-91824210D01*
X78750000Y-91106236D01*
X78795299Y-91125000D01*
X79204701Y-91125000D01*
X79250000Y-91106236D01*
X79250000Y-91824210D01*
X79434389Y-91787533D01*
X79434397Y-91787531D01*
X79611833Y-91714035D01*
X79611842Y-91714030D01*
X79771526Y-91607332D01*
X79771530Y-91607329D01*
X79907329Y-91471530D01*
X79907332Y-91471526D01*
X80014030Y-91311842D01*
X80014035Y-91311833D01*
X80087531Y-91134397D01*
X80087533Y-91134389D01*
X80094374Y-91100000D01*
X79265057Y-91100000D01*
X79305775Y-91083134D01*
X79383134Y-91005775D01*
X79425000Y-90904701D01*
X79425000Y-90795299D01*
X79383134Y-90694225D01*
X79305775Y-90616866D01*
X79265057Y-90600000D01*
X80094374Y-90600000D01*
X80087533Y-90565610D01*
X80087531Y-90565602D01*
X80014035Y-90388166D01*
X80014030Y-90388157D01*
X79907332Y-90228473D01*
X79907329Y-90228469D01*
X79894085Y-90215225D01*
X79860600Y-90153902D01*
X79865584Y-90084210D01*
X79907456Y-90028277D01*
X79972920Y-90003860D01*
X80015391Y-90009526D01*
X80015553Y-90008821D01*
X80022343Y-90010370D01*
X80022345Y-90010371D01*
X80022346Y-90010371D01*
X80022350Y-90010372D01*
X80201596Y-90030568D01*
X80201600Y-90030568D01*
X80201604Y-90030568D01*
X80380849Y-90010372D01*
X80380851Y-90010371D01*
X80380855Y-90010371D01*
X80380858Y-90010369D01*
X80380862Y-90010369D01*
X80449185Y-89986462D01*
X80490140Y-89979503D01*
X83042275Y-89979503D01*
X83109314Y-89999188D01*
X83155069Y-90051992D01*
X83165013Y-90121150D01*
X83135988Y-90184706D01*
X83129956Y-90191184D01*
X83092670Y-90228469D01*
X83092667Y-90228473D01*
X82985969Y-90388157D01*
X82985964Y-90388166D01*
X82912468Y-90565602D01*
X82912466Y-90565610D01*
X82905626Y-90600000D01*
X83734943Y-90600000D01*
X83694225Y-90616866D01*
X83616866Y-90694225D01*
X83575000Y-90795299D01*
X83575000Y-90904701D01*
X83616866Y-91005775D01*
X83694225Y-91083134D01*
X83734943Y-91100000D01*
X82905626Y-91100000D01*
X82912466Y-91134389D01*
X82912468Y-91134397D01*
X82985964Y-91311833D01*
X82985969Y-91311842D01*
X83092667Y-91471526D01*
X83092670Y-91471530D01*
X83228469Y-91607329D01*
X83228473Y-91607332D01*
X83388157Y-91714030D01*
X83388166Y-91714035D01*
X83565602Y-91787531D01*
X83565610Y-91787533D01*
X83749999Y-91824210D01*
X83750000Y-91824210D01*
X83750000Y-91106236D01*
X83795299Y-91125000D01*
X84204701Y-91125000D01*
X84250000Y-91106236D01*
X84250000Y-91824210D01*
X84434389Y-91787533D01*
X84434397Y-91787531D01*
X84611833Y-91714035D01*
X84611842Y-91714030D01*
X84771526Y-91607332D01*
X84771530Y-91607329D01*
X84907329Y-91471530D01*
X84907332Y-91471526D01*
X85014030Y-91311842D01*
X85014035Y-91311833D01*
X85087531Y-91134397D01*
X85087533Y-91134389D01*
X85094374Y-91100000D01*
X84265057Y-91100000D01*
X84305775Y-91083134D01*
X84383134Y-91005775D01*
X84425000Y-90904701D01*
X84425000Y-90795299D01*
X84383134Y-90694225D01*
X84305775Y-90616866D01*
X84265057Y-90600000D01*
X85094374Y-90600000D01*
X85087533Y-90565610D01*
X85087531Y-90565602D01*
X85014035Y-90388166D01*
X85014030Y-90388157D01*
X84907332Y-90228473D01*
X84907329Y-90228469D01*
X84870044Y-90191184D01*
X84836559Y-90129861D01*
X84841543Y-90060169D01*
X84883415Y-90004236D01*
X84948879Y-89979819D01*
X84957725Y-89979503D01*
X90542275Y-89979503D01*
X90609314Y-89999188D01*
X90655069Y-90051992D01*
X90665013Y-90121150D01*
X90635988Y-90184706D01*
X90629956Y-90191184D01*
X90592670Y-90228469D01*
X90592667Y-90228473D01*
X90485969Y-90388157D01*
X90485964Y-90388166D01*
X90412468Y-90565602D01*
X90412466Y-90565610D01*
X90405626Y-90600000D01*
X91234943Y-90600000D01*
X91194225Y-90616866D01*
X91116866Y-90694225D01*
X91075000Y-90795299D01*
X91075000Y-90904701D01*
X91116866Y-91005775D01*
X91194225Y-91083134D01*
X91234943Y-91100000D01*
X90405626Y-91100000D01*
X90412466Y-91134389D01*
X90412468Y-91134397D01*
X90485964Y-91311833D01*
X90485969Y-91311842D01*
X90592667Y-91471526D01*
X90592670Y-91471530D01*
X90728469Y-91607329D01*
X90728473Y-91607332D01*
X90888157Y-91714030D01*
X90888166Y-91714035D01*
X91065602Y-91787531D01*
X91065610Y-91787533D01*
X91249999Y-91824210D01*
X91250000Y-91824210D01*
X91250000Y-91106236D01*
X91295299Y-91125000D01*
X91704701Y-91125000D01*
X91750000Y-91106236D01*
X91750000Y-91824210D01*
X91934389Y-91787533D01*
X91934397Y-91787531D01*
X92111833Y-91714035D01*
X92111842Y-91714030D01*
X92271526Y-91607332D01*
X92271530Y-91607329D01*
X92407329Y-91471530D01*
X92407332Y-91471526D01*
X92514030Y-91311842D01*
X92514035Y-91311833D01*
X92587531Y-91134397D01*
X92587533Y-91134389D01*
X92594374Y-91100000D01*
X91765057Y-91100000D01*
X91805775Y-91083134D01*
X91883134Y-91005775D01*
X91925000Y-90904701D01*
X91925000Y-90795299D01*
X91883134Y-90694225D01*
X91805775Y-90616866D01*
X91765057Y-90600000D01*
X92594374Y-90600000D01*
X92587533Y-90565610D01*
X92587531Y-90565602D01*
X92514035Y-90388166D01*
X92514030Y-90388157D01*
X92407332Y-90228473D01*
X92407329Y-90228469D01*
X92394085Y-90215225D01*
X92360600Y-90153902D01*
X92365584Y-90084210D01*
X92407456Y-90028277D01*
X92472920Y-90003860D01*
X92515391Y-90009526D01*
X92515553Y-90008821D01*
X92522343Y-90010370D01*
X92522345Y-90010371D01*
X92522346Y-90010371D01*
X92522350Y-90010372D01*
X92701596Y-90030568D01*
X92701600Y-90030568D01*
X92701604Y-90030568D01*
X92880849Y-90010372D01*
X92880851Y-90010371D01*
X92880855Y-90010371D01*
X92880858Y-90010369D01*
X92880862Y-90010369D01*
X92949185Y-89986462D01*
X92990140Y-89979503D01*
X95542275Y-89979503D01*
X95609314Y-89999188D01*
X95655069Y-90051992D01*
X95665013Y-90121150D01*
X95635988Y-90184706D01*
X95629956Y-90191184D01*
X95592670Y-90228469D01*
X95592667Y-90228473D01*
X95485969Y-90388157D01*
X95485964Y-90388166D01*
X95412468Y-90565602D01*
X95412466Y-90565610D01*
X95405626Y-90600000D01*
X96234943Y-90600000D01*
X96194225Y-90616866D01*
X96116866Y-90694225D01*
X96075000Y-90795299D01*
X96075000Y-90904701D01*
X96116866Y-91005775D01*
X96194225Y-91083134D01*
X96234943Y-91100000D01*
X95405626Y-91100000D01*
X95412466Y-91134389D01*
X95412468Y-91134397D01*
X95485964Y-91311833D01*
X95485969Y-91311842D01*
X95592667Y-91471526D01*
X95592670Y-91471530D01*
X95728469Y-91607329D01*
X95728473Y-91607332D01*
X95888157Y-91714030D01*
X95888166Y-91714035D01*
X96065602Y-91787531D01*
X96065610Y-91787533D01*
X96249999Y-91824210D01*
X96250000Y-91824210D01*
X96250000Y-91106236D01*
X96295299Y-91125000D01*
X96704701Y-91125000D01*
X96750000Y-91106236D01*
X96750000Y-91824210D01*
X96934389Y-91787533D01*
X96934397Y-91787531D01*
X97111833Y-91714035D01*
X97111842Y-91714030D01*
X97271526Y-91607332D01*
X97271530Y-91607329D01*
X97407329Y-91471530D01*
X97407332Y-91471526D01*
X97514030Y-91311842D01*
X97514035Y-91311833D01*
X97587531Y-91134397D01*
X97587533Y-91134389D01*
X97594374Y-91100000D01*
X96765057Y-91100000D01*
X96805775Y-91083134D01*
X96883134Y-91005775D01*
X96925000Y-90904701D01*
X96925000Y-90795299D01*
X96883134Y-90694225D01*
X96805775Y-90616866D01*
X96765057Y-90600000D01*
X97594374Y-90600000D01*
X97587533Y-90565610D01*
X97587531Y-90565602D01*
X97514035Y-90388166D01*
X97514030Y-90388157D01*
X97407332Y-90228473D01*
X97407329Y-90228469D01*
X97370044Y-90191184D01*
X97336559Y-90129861D01*
X97341543Y-90060169D01*
X97383415Y-90004236D01*
X97448879Y-89979819D01*
X97457725Y-89979503D01*
X103042275Y-89979503D01*
X103109314Y-89999188D01*
X103155069Y-90051992D01*
X103165013Y-90121150D01*
X103135988Y-90184706D01*
X103129956Y-90191184D01*
X103092670Y-90228469D01*
X103092667Y-90228473D01*
X102985969Y-90388157D01*
X102985964Y-90388166D01*
X102912468Y-90565602D01*
X102912466Y-90565610D01*
X102905626Y-90600000D01*
X103734943Y-90600000D01*
X103694225Y-90616866D01*
X103616866Y-90694225D01*
X103575000Y-90795299D01*
X103575000Y-90904701D01*
X103616866Y-91005775D01*
X103694225Y-91083134D01*
X103734943Y-91100000D01*
X102905626Y-91100000D01*
X102912466Y-91134389D01*
X102912468Y-91134397D01*
X102985964Y-91311833D01*
X102985969Y-91311842D01*
X103092667Y-91471526D01*
X103092670Y-91471530D01*
X103228469Y-91607329D01*
X103228473Y-91607332D01*
X103388157Y-91714030D01*
X103388166Y-91714035D01*
X103565602Y-91787531D01*
X103565610Y-91787533D01*
X103750000Y-91824210D01*
X103750000Y-91106236D01*
X103795299Y-91125000D01*
X104204701Y-91125000D01*
X104250000Y-91106236D01*
X104250000Y-91824210D01*
X104434389Y-91787533D01*
X104434397Y-91787531D01*
X104611833Y-91714035D01*
X104611842Y-91714030D01*
X104771526Y-91607332D01*
X104771530Y-91607329D01*
X104907329Y-91471530D01*
X104907332Y-91471526D01*
X105014030Y-91311842D01*
X105014035Y-91311833D01*
X105087531Y-91134397D01*
X105087533Y-91134389D01*
X105094374Y-91100000D01*
X104265057Y-91100000D01*
X104305775Y-91083134D01*
X104383134Y-91005775D01*
X104425000Y-90904701D01*
X104425000Y-90795299D01*
X104383134Y-90694225D01*
X104305775Y-90616866D01*
X104265057Y-90600000D01*
X105094374Y-90600000D01*
X105087533Y-90565610D01*
X105087531Y-90565602D01*
X105014035Y-90388166D01*
X105014030Y-90388157D01*
X104907332Y-90228473D01*
X104907329Y-90228469D01*
X104894085Y-90215225D01*
X104860600Y-90153902D01*
X104865584Y-90084210D01*
X104907456Y-90028277D01*
X104972920Y-90003860D01*
X105015391Y-90009526D01*
X105015553Y-90008821D01*
X105022343Y-90010370D01*
X105022345Y-90010371D01*
X105022346Y-90010371D01*
X105022350Y-90010372D01*
X105201596Y-90030568D01*
X105201600Y-90030568D01*
X105201604Y-90030568D01*
X105380849Y-90010372D01*
X105380851Y-90010371D01*
X105380855Y-90010371D01*
X105380858Y-90010369D01*
X105380862Y-90010369D01*
X105449185Y-89986462D01*
X105490140Y-89979503D01*
X108042275Y-89979503D01*
X108109314Y-89999188D01*
X108155069Y-90051992D01*
X108165013Y-90121150D01*
X108135988Y-90184706D01*
X108129956Y-90191184D01*
X108092670Y-90228469D01*
X108092667Y-90228473D01*
X107985969Y-90388157D01*
X107985964Y-90388166D01*
X107912468Y-90565602D01*
X107912466Y-90565610D01*
X107905626Y-90600000D01*
X108734943Y-90600000D01*
X108694225Y-90616866D01*
X108616866Y-90694225D01*
X108575000Y-90795299D01*
X108575000Y-90904701D01*
X108616866Y-91005775D01*
X108694225Y-91083134D01*
X108734943Y-91100000D01*
X107905626Y-91100000D01*
X107912466Y-91134389D01*
X107912468Y-91134397D01*
X107985964Y-91311833D01*
X107985969Y-91311842D01*
X108092667Y-91471526D01*
X108092670Y-91471530D01*
X108228469Y-91607329D01*
X108228473Y-91607332D01*
X108388157Y-91714030D01*
X108388166Y-91714035D01*
X108565602Y-91787531D01*
X108565610Y-91787533D01*
X108750000Y-91824210D01*
X108750000Y-91106236D01*
X108795299Y-91125000D01*
X109204701Y-91125000D01*
X109250000Y-91106236D01*
X109250000Y-91824210D01*
X109434389Y-91787533D01*
X109434397Y-91787531D01*
X109611833Y-91714035D01*
X109611842Y-91714030D01*
X109771526Y-91607332D01*
X109771530Y-91607329D01*
X109907329Y-91471530D01*
X109907332Y-91471526D01*
X110014030Y-91311842D01*
X110014035Y-91311833D01*
X110087531Y-91134397D01*
X110087533Y-91134389D01*
X110094374Y-91100000D01*
X109265057Y-91100000D01*
X109305775Y-91083134D01*
X109383134Y-91005775D01*
X109425000Y-90904701D01*
X109425000Y-90795299D01*
X109383134Y-90694225D01*
X109305775Y-90616866D01*
X109265057Y-90600000D01*
X110094374Y-90600000D01*
X110087533Y-90565610D01*
X110087531Y-90565602D01*
X110014035Y-90388166D01*
X110014030Y-90388157D01*
X109907332Y-90228473D01*
X109907329Y-90228469D01*
X109870044Y-90191184D01*
X109836559Y-90129861D01*
X109841543Y-90060169D01*
X109883415Y-90004236D01*
X109948879Y-89979819D01*
X109957725Y-89979503D01*
X115542275Y-89979503D01*
X115609314Y-89999188D01*
X115655069Y-90051992D01*
X115665013Y-90121150D01*
X115635988Y-90184706D01*
X115629956Y-90191184D01*
X115592670Y-90228469D01*
X115592667Y-90228473D01*
X115485969Y-90388157D01*
X115485964Y-90388166D01*
X115412468Y-90565602D01*
X115412466Y-90565610D01*
X115405626Y-90600000D01*
X116234943Y-90600000D01*
X116194225Y-90616866D01*
X116116866Y-90694225D01*
X116075000Y-90795299D01*
X116075000Y-90904701D01*
X116116866Y-91005775D01*
X116194225Y-91083134D01*
X116234943Y-91100000D01*
X115405626Y-91100000D01*
X115412466Y-91134389D01*
X115412468Y-91134397D01*
X115485964Y-91311833D01*
X115485969Y-91311842D01*
X115592667Y-91471526D01*
X115592670Y-91471530D01*
X115728469Y-91607329D01*
X115728473Y-91607332D01*
X115888157Y-91714030D01*
X115888166Y-91714035D01*
X116065602Y-91787531D01*
X116065610Y-91787533D01*
X116249999Y-91824210D01*
X116250000Y-91824210D01*
X116250000Y-91106236D01*
X116295299Y-91125000D01*
X116704701Y-91125000D01*
X116750000Y-91106236D01*
X116750000Y-91824210D01*
X116934389Y-91787533D01*
X116934397Y-91787531D01*
X117111833Y-91714035D01*
X117111842Y-91714030D01*
X117271526Y-91607332D01*
X117271530Y-91607329D01*
X117407329Y-91471530D01*
X117407332Y-91471526D01*
X117514030Y-91311842D01*
X117514035Y-91311833D01*
X117587531Y-91134397D01*
X117587533Y-91134389D01*
X117594374Y-91100000D01*
X116765057Y-91100000D01*
X116805775Y-91083134D01*
X116883134Y-91005775D01*
X116925000Y-90904701D01*
X116925000Y-90795299D01*
X116883134Y-90694225D01*
X116805775Y-90616866D01*
X116765057Y-90600000D01*
X117594374Y-90600000D01*
X117587533Y-90565610D01*
X117587531Y-90565602D01*
X117514035Y-90388166D01*
X117514030Y-90388157D01*
X117407332Y-90228473D01*
X117407329Y-90228469D01*
X117394085Y-90215225D01*
X117360600Y-90153902D01*
X117365584Y-90084210D01*
X117407456Y-90028277D01*
X117472920Y-90003860D01*
X117515391Y-90009526D01*
X117515553Y-90008821D01*
X117522343Y-90010370D01*
X117522345Y-90010371D01*
X117522346Y-90010371D01*
X117522350Y-90010372D01*
X117701596Y-90030568D01*
X117701600Y-90030568D01*
X117701604Y-90030568D01*
X117880849Y-90010372D01*
X117880852Y-90010371D01*
X117880855Y-90010371D01*
X118051122Y-89950792D01*
X118056028Y-89947708D01*
X118121999Y-89928703D01*
X120593075Y-89928703D01*
X120660114Y-89948388D01*
X120705869Y-90001192D01*
X120715813Y-90070350D01*
X120686788Y-90133906D01*
X120680756Y-90140384D01*
X120592670Y-90228469D01*
X120592667Y-90228473D01*
X120485969Y-90388157D01*
X120485964Y-90388166D01*
X120412468Y-90565602D01*
X120412466Y-90565610D01*
X120405626Y-90600000D01*
X121234943Y-90600000D01*
X121194225Y-90616866D01*
X121116866Y-90694225D01*
X121075000Y-90795299D01*
X121075000Y-90904701D01*
X121116866Y-91005775D01*
X121194225Y-91083134D01*
X121234943Y-91100000D01*
X120405626Y-91100000D01*
X120412466Y-91134389D01*
X120412468Y-91134397D01*
X120485964Y-91311833D01*
X120485969Y-91311842D01*
X120592667Y-91471526D01*
X120592670Y-91471530D01*
X120728469Y-91607329D01*
X120728473Y-91607332D01*
X120888157Y-91714030D01*
X120888166Y-91714035D01*
X121065602Y-91787531D01*
X121065610Y-91787533D01*
X121249999Y-91824210D01*
X121250000Y-91824210D01*
X121250000Y-91106236D01*
X121295299Y-91125000D01*
X121704701Y-91125000D01*
X121750000Y-91106236D01*
X121750000Y-91824210D01*
X121934389Y-91787533D01*
X121934397Y-91787531D01*
X122111833Y-91714035D01*
X122111842Y-91714030D01*
X122271526Y-91607332D01*
X122271530Y-91607329D01*
X122407329Y-91471530D01*
X122407332Y-91471526D01*
X122514030Y-91311842D01*
X122514035Y-91311833D01*
X122587531Y-91134397D01*
X122587533Y-91134389D01*
X122594374Y-91100000D01*
X121765057Y-91100000D01*
X121805775Y-91083134D01*
X121883134Y-91005775D01*
X121925000Y-90904701D01*
X121925000Y-90795299D01*
X121883134Y-90694225D01*
X121805775Y-90616866D01*
X121765057Y-90600000D01*
X122594374Y-90600000D01*
X122587533Y-90565610D01*
X122587531Y-90565602D01*
X122514035Y-90388166D01*
X122514030Y-90388157D01*
X122407332Y-90228473D01*
X122407329Y-90228469D01*
X122271530Y-90092670D01*
X122271526Y-90092667D01*
X122111842Y-89985969D01*
X122111833Y-89985964D01*
X121934397Y-89912468D01*
X121934389Y-89912466D01*
X121750000Y-89875788D01*
X121750000Y-90593763D01*
X121704701Y-90575000D01*
X121295299Y-90575000D01*
X121250000Y-90593763D01*
X121250000Y-89862652D01*
X121230957Y-89834696D01*
X121229086Y-89764851D01*
X121261274Y-89708908D01*
X121296597Y-89673586D01*
X121296598Y-89673584D01*
X121303658Y-89666524D01*
X121303664Y-89666517D01*
X121898579Y-89071602D01*
X121898583Y-89071600D01*
X121996600Y-88973583D01*
X122073611Y-88858327D01*
X122107538Y-88776420D01*
X122126658Y-88730262D01*
X122153701Y-88594308D01*
X122153701Y-88455691D01*
X122153701Y-88450581D01*
X122153700Y-88450555D01*
X122153700Y-82155689D01*
X122153699Y-82155687D01*
X122126658Y-82019745D01*
X122126657Y-82019738D01*
X122126655Y-82019733D01*
X122073613Y-81891676D01*
X121996598Y-81776414D01*
X121895487Y-81675303D01*
X121895456Y-81675274D01*
X111765019Y-71544837D01*
X111731534Y-71483514D01*
X111728700Y-71457156D01*
X111728700Y-68297386D01*
X111738138Y-68249935D01*
X111750505Y-68220080D01*
X111779500Y-68074312D01*
X111779500Y-65942500D01*
X113074592Y-65942500D01*
X113094201Y-66229180D01*
X113152666Y-66510534D01*
X113152667Y-66510537D01*
X113248894Y-66781293D01*
X113248893Y-66781293D01*
X113381098Y-67036435D01*
X113546812Y-67271200D01*
X113570159Y-67296198D01*
X113742947Y-67481208D01*
X113773679Y-67506210D01*
X113965853Y-67662555D01*
X114211382Y-67811865D01*
X114398237Y-67893026D01*
X114474942Y-67926344D01*
X114751642Y-68003871D01*
X115001920Y-68038271D01*
X115036321Y-68043000D01*
X115036322Y-68043000D01*
X115323679Y-68043000D01*
X115354370Y-68038781D01*
X115608358Y-68003871D01*
X115885058Y-67926344D01*
X115998015Y-67877279D01*
X116148617Y-67811865D01*
X116148620Y-67811863D01*
X116148625Y-67811861D01*
X116394147Y-67662555D01*
X116617053Y-67481208D01*
X116813189Y-67271198D01*
X116978901Y-67036436D01*
X117111104Y-66781297D01*
X117207334Y-66510532D01*
X117265798Y-66229186D01*
X117285408Y-65942500D01*
X117265798Y-65655814D01*
X117207334Y-65374468D01*
X117111105Y-65103706D01*
X117111106Y-65103706D01*
X116978901Y-64848564D01*
X116813187Y-64613799D01*
X116734554Y-64529605D01*
X116617053Y-64403792D01*
X116394147Y-64222445D01*
X116394146Y-64222444D01*
X116148617Y-64073134D01*
X115885063Y-63958658D01*
X115885061Y-63958657D01*
X115885058Y-63958656D01*
X115747752Y-63920185D01*
X115608364Y-63881130D01*
X115608359Y-63881129D01*
X115608358Y-63881129D01*
X115466018Y-63861564D01*
X115323679Y-63842000D01*
X115323678Y-63842000D01*
X115036322Y-63842000D01*
X115036321Y-63842000D01*
X114751642Y-63881129D01*
X114751635Y-63881130D01*
X114552880Y-63936819D01*
X114474942Y-63958656D01*
X114474939Y-63958656D01*
X114474936Y-63958658D01*
X114474935Y-63958658D01*
X114211382Y-64073134D01*
X113965853Y-64222444D01*
X113742950Y-64403789D01*
X113546812Y-64613799D01*
X113381098Y-64848564D01*
X113248894Y-65103706D01*
X113152667Y-65374462D01*
X113152666Y-65374465D01*
X113094201Y-65655819D01*
X113074592Y-65942500D01*
X111779500Y-65942500D01*
X111779500Y-43730446D01*
X111779501Y-43730425D01*
X111779501Y-43570578D01*
X111779500Y-43570552D01*
X111779500Y-37631999D01*
X111799185Y-37564960D01*
X111851989Y-37519205D01*
X111903500Y-37507999D01*
X112822871Y-37507999D01*
X112822872Y-37507999D01*
X112882483Y-37501591D01*
X113017331Y-37451296D01*
X113132546Y-37365046D01*
X113218796Y-37249831D01*
X113269091Y-37114983D01*
X113275500Y-37055373D01*
X113275499Y-34193303D01*
X115025000Y-34193303D01*
X115025000Y-35007500D01*
X116525000Y-35007500D01*
X116525000Y-35507500D01*
X115025001Y-35507500D01*
X115025001Y-36321697D01*
X115035400Y-36453832D01*
X115090377Y-36672019D01*
X115183428Y-36876874D01*
X115183431Y-36876880D01*
X115311559Y-37061823D01*
X115311569Y-37061835D01*
X115470664Y-37220930D01*
X115470676Y-37220940D01*
X115655619Y-37349068D01*
X115655625Y-37349071D01*
X115860480Y-37442122D01*
X116078667Y-37497099D01*
X116210810Y-37507499D01*
X116774999Y-37507499D01*
X116775000Y-37507498D01*
X116775000Y-36690512D01*
X116832007Y-36723425D01*
X116959174Y-36757500D01*
X117090826Y-36757500D01*
X117217993Y-36723425D01*
X117275000Y-36690512D01*
X117275000Y-37507499D01*
X117839182Y-37507499D01*
X117839197Y-37507498D01*
X117971332Y-37497099D01*
X118189519Y-37442122D01*
X118394374Y-37349071D01*
X118394380Y-37349068D01*
X118579323Y-37220940D01*
X118579335Y-37220930D01*
X118738430Y-37061835D01*
X118738440Y-37061823D01*
X118866568Y-36876880D01*
X118866571Y-36876874D01*
X118959622Y-36672019D01*
X119014599Y-36453832D01*
X119024999Y-36321696D01*
X119025000Y-36321684D01*
X119025000Y-35507500D01*
X117525000Y-35507500D01*
X117525000Y-35007500D01*
X119024999Y-35007500D01*
X119024999Y-34193317D01*
X119024998Y-34193302D01*
X119014599Y-34061167D01*
X118959622Y-33842980D01*
X118866571Y-33638125D01*
X118866568Y-33638119D01*
X118738440Y-33453176D01*
X118738430Y-33453164D01*
X118579335Y-33294069D01*
X118579323Y-33294059D01*
X118394380Y-33165931D01*
X118394374Y-33165928D01*
X118189519Y-33072877D01*
X117971332Y-33017900D01*
X117839196Y-33007500D01*
X117275000Y-33007500D01*
X117275000Y-33824488D01*
X117217993Y-33791575D01*
X117090826Y-33757500D01*
X116959174Y-33757500D01*
X116832007Y-33791575D01*
X116775000Y-33824488D01*
X116775000Y-33007500D01*
X116210817Y-33007500D01*
X116210802Y-33007501D01*
X116078667Y-33017900D01*
X115860480Y-33072877D01*
X115655625Y-33165928D01*
X115655619Y-33165931D01*
X115470676Y-33294059D01*
X115470664Y-33294069D01*
X115311569Y-33453164D01*
X115311559Y-33453176D01*
X115183431Y-33638119D01*
X115183428Y-33638125D01*
X115090377Y-33842980D01*
X115035400Y-34061167D01*
X115025000Y-34193303D01*
X113275499Y-34193303D01*
X113275499Y-33459628D01*
X113269091Y-33400017D01*
X113229571Y-33294059D01*
X113218797Y-33265171D01*
X113218793Y-33265164D01*
X113132547Y-33149955D01*
X113132544Y-33149952D01*
X113017335Y-33063706D01*
X113017328Y-33063702D01*
X112970061Y-33046073D01*
X112914127Y-33004202D01*
X112889710Y-32938738D01*
X112904562Y-32870465D01*
X112953967Y-32821059D01*
X113019972Y-32806066D01*
X113033053Y-32806761D01*
X113056349Y-32807999D01*
X113056369Y-32807999D01*
X113056378Y-32808000D01*
X113056386Y-32808000D01*
X114993614Y-32808000D01*
X114993622Y-32808000D01*
X115046241Y-32805205D01*
X115276126Y-32760745D01*
X115495190Y-32678074D01*
X115697132Y-32559570D01*
X115795630Y-32476524D01*
X115876141Y-32408643D01*
X115876143Y-32408641D01*
X116027065Y-32229638D01*
X116027065Y-32229637D01*
X116027070Y-32229632D01*
X116145574Y-32027690D01*
X116228245Y-31808626D01*
X116272705Y-31578741D01*
X116275500Y-31526122D01*
X116275500Y-29588878D01*
X116272705Y-29536259D01*
X116228245Y-29306374D01*
X116145574Y-29087310D01*
X116027070Y-28885368D01*
X116027065Y-28885361D01*
X115876143Y-28706358D01*
X115876141Y-28706356D01*
X115697138Y-28555434D01*
X115697131Y-28555429D01*
X115495189Y-28436925D01*
X115404832Y-28402826D01*
X115276126Y-28354255D01*
X115276121Y-28354254D01*
X115046243Y-28309795D01*
X114993652Y-28307001D01*
X114993629Y-28307000D01*
X114993622Y-28307000D01*
X113056378Y-28307000D01*
X113056370Y-28307000D01*
X113056347Y-28307001D01*
X113003756Y-28309795D01*
X113003755Y-28309795D01*
X112773878Y-28354254D01*
X112773876Y-28354254D01*
X112773874Y-28354255D01*
X112699933Y-28382159D01*
X112554810Y-28436925D01*
X112352868Y-28555429D01*
X112352861Y-28555434D01*
X112173858Y-28706356D01*
X112173856Y-28706358D01*
X112022934Y-28885361D01*
X112022929Y-28885368D01*
X111904425Y-29087310D01*
X111860049Y-29204901D01*
X111821755Y-29306374D01*
X111821754Y-29306376D01*
X111821754Y-29306378D01*
X111777295Y-29536255D01*
X111777295Y-29536256D01*
X111774501Y-29588847D01*
X111774500Y-29588886D01*
X111774500Y-31526113D01*
X111774501Y-31526152D01*
X111777295Y-31578743D01*
X111777295Y-31578744D01*
X111821442Y-31807007D01*
X111821755Y-31808626D01*
X111870326Y-31937332D01*
X111904425Y-32027689D01*
X112022929Y-32229631D01*
X112022934Y-32229638D01*
X112173856Y-32408641D01*
X112173858Y-32408643D01*
X112352861Y-32559565D01*
X112352868Y-32559570D01*
X112554810Y-32678074D01*
X112773874Y-32760745D01*
X112776517Y-32761256D01*
X112777537Y-32761782D01*
X112778950Y-32762183D01*
X112778868Y-32762470D01*
X112838598Y-32793314D01*
X112873493Y-32853846D01*
X112870122Y-32923634D01*
X112829556Y-32980521D01*
X112764674Y-33006446D01*
X112752969Y-33007000D01*
X109227129Y-33007000D01*
X109227123Y-33007001D01*
X109167516Y-33013408D01*
X109032671Y-33063702D01*
X109032664Y-33063706D01*
X108917455Y-33149952D01*
X108917452Y-33149955D01*
X108831206Y-33265164D01*
X108831202Y-33265171D01*
X108780908Y-33400017D01*
X108774501Y-33459616D01*
X108774501Y-33459623D01*
X108774500Y-33459635D01*
X108774500Y-37055370D01*
X108774501Y-37055376D01*
X108780908Y-37114983D01*
X108831202Y-37249828D01*
X108831206Y-37249835D01*
X108917452Y-37365044D01*
X108917455Y-37365047D01*
X109032664Y-37451293D01*
X109032671Y-37451297D01*
X109167517Y-37501591D01*
X109167516Y-37501591D01*
X109174444Y-37502335D01*
X109227127Y-37508000D01*
X110146500Y-37507999D01*
X110213539Y-37527683D01*
X110259294Y-37580487D01*
X110270500Y-37631999D01*
X110270500Y-43286113D01*
X110250815Y-43353152D01*
X110234181Y-43373794D01*
X103148794Y-50459181D01*
X103087471Y-50492666D01*
X103061113Y-50495500D01*
X82550446Y-50495500D01*
X82550426Y-50495499D01*
X82544312Y-50495499D01*
X82395688Y-50495499D01*
X82395686Y-50495499D01*
X82274105Y-50519684D01*
X82259540Y-50522581D01*
X82249918Y-50524495D01*
X82249917Y-50524495D01*
X82193045Y-50548052D01*
X82193045Y-50548053D01*
X82112611Y-50581370D01*
X82112609Y-50581371D01*
X81989033Y-50663941D01*
X81936487Y-50716487D01*
X81883941Y-50769034D01*
X81883939Y-50769036D01*
X77243647Y-55409327D01*
X77182324Y-55442812D01*
X77117648Y-55439577D01*
X77077704Y-55426598D01*
X76947076Y-55405909D01*
X76906611Y-55399500D01*
X76733389Y-55399500D01*
X76693728Y-55405781D01*
X76562302Y-55426597D01*
X76562299Y-55426598D01*
X76450085Y-55463059D01*
X76397552Y-55480128D01*
X76243211Y-55558768D01*
X76189123Y-55598066D01*
X76103072Y-55660586D01*
X76103070Y-55660588D01*
X76103069Y-55660588D01*
X75980588Y-55783069D01*
X75980588Y-55783070D01*
X75980586Y-55783072D01*
X75980350Y-55783397D01*
X75878768Y-55923211D01*
X75800128Y-56077552D01*
X75746597Y-56242302D01*
X75719500Y-56413389D01*
X75719500Y-56887113D01*
X75699815Y-56954152D01*
X75683181Y-56974794D01*
X75592181Y-57065794D01*
X75530858Y-57099279D01*
X75461166Y-57094295D01*
X75405233Y-57052423D01*
X75380816Y-56986959D01*
X75380500Y-56978113D01*
X75380500Y-56413389D01*
X75353402Y-56242302D01*
X75353402Y-56242299D01*
X75299873Y-56077555D01*
X75221232Y-55923212D01*
X75119414Y-55783072D01*
X74996928Y-55660586D01*
X74856788Y-55558768D01*
X74702445Y-55480127D01*
X74537701Y-55426598D01*
X74537699Y-55426597D01*
X74537698Y-55426597D01*
X74406271Y-55405781D01*
X74366611Y-55399500D01*
X74193389Y-55399500D01*
X74153728Y-55405781D01*
X74022302Y-55426597D01*
X74022299Y-55426598D01*
X73910085Y-55463059D01*
X73857552Y-55480128D01*
X73703211Y-55558768D01*
X73649123Y-55598066D01*
X73563072Y-55660586D01*
X73563070Y-55660588D01*
X73563069Y-55660588D01*
X73440588Y-55783069D01*
X73440588Y-55783070D01*
X73440586Y-55783072D01*
X73440350Y-55783397D01*
X73338768Y-55923211D01*
X73260128Y-56077552D01*
X73206597Y-56242302D01*
X73179500Y-56413389D01*
X73179500Y-57386610D01*
X73202144Y-57529584D01*
X73206598Y-57557701D01*
X73260127Y-57722445D01*
X73338768Y-57876788D01*
X73440586Y-58016928D01*
X73563072Y-58139414D01*
X73675616Y-58221182D01*
X73718281Y-58276512D01*
X73724260Y-58346126D01*
X73691654Y-58407921D01*
X73630815Y-58442278D01*
X73602730Y-58445500D01*
X72417270Y-58445500D01*
X72350231Y-58425815D01*
X72304476Y-58373011D01*
X72294532Y-58303853D01*
X72323557Y-58240297D01*
X72344384Y-58221182D01*
X72456928Y-58139414D01*
X72579414Y-58016928D01*
X72681232Y-57876788D01*
X72759873Y-57722445D01*
X72813402Y-57557701D01*
X72840500Y-57386611D01*
X72840500Y-56413389D01*
X72813402Y-56242299D01*
X72759873Y-56077555D01*
X72681232Y-55923212D01*
X72579414Y-55783072D01*
X72456928Y-55660586D01*
X72316788Y-55558768D01*
X72162445Y-55480127D01*
X71997701Y-55426598D01*
X71997699Y-55426597D01*
X71997698Y-55426597D01*
X71866271Y-55405781D01*
X71826611Y-55399500D01*
X71653389Y-55399500D01*
X71613728Y-55405781D01*
X71482302Y-55426597D01*
X71482299Y-55426598D01*
X71370085Y-55463059D01*
X71317552Y-55480128D01*
X71163211Y-55558768D01*
X71109123Y-55598066D01*
X71023072Y-55660586D01*
X71023070Y-55660588D01*
X71023069Y-55660588D01*
X70900588Y-55783069D01*
X70900588Y-55783070D01*
X70900586Y-55783072D01*
X70900350Y-55783397D01*
X70798768Y-55923211D01*
X70720128Y-56077552D01*
X70666597Y-56242302D01*
X70639500Y-56413389D01*
X70639500Y-57386610D01*
X70662144Y-57529584D01*
X70666598Y-57557701D01*
X70720127Y-57722445D01*
X70798768Y-57876788D01*
X70900586Y-58016928D01*
X71023072Y-58139414D01*
X71135616Y-58221182D01*
X71178281Y-58276512D01*
X71184260Y-58346126D01*
X71151654Y-58407921D01*
X71090815Y-58442278D01*
X71062730Y-58445500D01*
X69877270Y-58445500D01*
X69810231Y-58425815D01*
X69764476Y-58373011D01*
X69754532Y-58303853D01*
X69783557Y-58240297D01*
X69804384Y-58221182D01*
X69916928Y-58139414D01*
X70039414Y-58016928D01*
X70141232Y-57876788D01*
X70219873Y-57722445D01*
X70273402Y-57557701D01*
X70300500Y-57386611D01*
X70300500Y-56413389D01*
X70273402Y-56242299D01*
X70219873Y-56077555D01*
X70141232Y-55923212D01*
X70039414Y-55783072D01*
X69916928Y-55660586D01*
X69776788Y-55558768D01*
X69622445Y-55480127D01*
X69457701Y-55426598D01*
X69457699Y-55426597D01*
X69457698Y-55426597D01*
X69326271Y-55405781D01*
X69286611Y-55399500D01*
X69113389Y-55399500D01*
X69073728Y-55405781D01*
X68942302Y-55426597D01*
X68942299Y-55426598D01*
X68830085Y-55463059D01*
X68777552Y-55480128D01*
X68623211Y-55558768D01*
X68569123Y-55598066D01*
X68483072Y-55660586D01*
X68483070Y-55660588D01*
X68483069Y-55660588D01*
X68360588Y-55783069D01*
X68360588Y-55783070D01*
X68360586Y-55783072D01*
X68360350Y-55783397D01*
X68258768Y-55923211D01*
X68180128Y-56077552D01*
X68126597Y-56242302D01*
X68099500Y-56413389D01*
X68099500Y-57386610D01*
X68122144Y-57529584D01*
X68126598Y-57557701D01*
X68180127Y-57722445D01*
X68258768Y-57876788D01*
X68360586Y-58016928D01*
X68483072Y-58139414D01*
X68595616Y-58221182D01*
X68638281Y-58276512D01*
X68644260Y-58346126D01*
X68611654Y-58407921D01*
X68550815Y-58442278D01*
X68522730Y-58445500D01*
X67337270Y-58445500D01*
X67270231Y-58425815D01*
X67224476Y-58373011D01*
X67214532Y-58303853D01*
X67243557Y-58240297D01*
X67264384Y-58221182D01*
X67376928Y-58139414D01*
X67499414Y-58016928D01*
X67601232Y-57876788D01*
X67679873Y-57722445D01*
X67733402Y-57557701D01*
X67760500Y-57386611D01*
X67760500Y-56413389D01*
X67733402Y-56242299D01*
X67679873Y-56077555D01*
X67601232Y-55923212D01*
X67499414Y-55783072D01*
X67376928Y-55660586D01*
X67236788Y-55558768D01*
X67082445Y-55480127D01*
X66917701Y-55426598D01*
X66917699Y-55426597D01*
X66917698Y-55426597D01*
X66786271Y-55405781D01*
X66746611Y-55399500D01*
X66573389Y-55399500D01*
X66533728Y-55405781D01*
X66402302Y-55426597D01*
X66402299Y-55426598D01*
X66290085Y-55463059D01*
X66237552Y-55480128D01*
X66083211Y-55558768D01*
X66029123Y-55598066D01*
X65943072Y-55660586D01*
X65943070Y-55660588D01*
X65943069Y-55660588D01*
X65820588Y-55783069D01*
X65820588Y-55783070D01*
X65820586Y-55783072D01*
X65820350Y-55783397D01*
X65718768Y-55923211D01*
X65640128Y-56077552D01*
X65586597Y-56242302D01*
X65559500Y-56413389D01*
X65559500Y-57386610D01*
X65582144Y-57529584D01*
X65586598Y-57557701D01*
X65640127Y-57722445D01*
X65718768Y-57876788D01*
X65820586Y-58016928D01*
X65943072Y-58139414D01*
X66055616Y-58221182D01*
X66098281Y-58276512D01*
X66104260Y-58346126D01*
X66071654Y-58407921D01*
X66010815Y-58442278D01*
X65982730Y-58445500D01*
X64796419Y-58445500D01*
X64729380Y-58425815D01*
X64683625Y-58373011D01*
X64673681Y-58303853D01*
X64702706Y-58240297D01*
X64723534Y-58221182D01*
X64836595Y-58139038D01*
X64836600Y-58139034D01*
X64959032Y-58016602D01*
X65060804Y-57876524D01*
X65139408Y-57722257D01*
X65192914Y-57557584D01*
X65220000Y-57386571D01*
X65220000Y-57150000D01*
X64435686Y-57150000D01*
X64440080Y-57145606D01*
X64492741Y-57054394D01*
X64520000Y-56952661D01*
X64520000Y-56847339D01*
X64492741Y-56745606D01*
X64440080Y-56654394D01*
X64435686Y-56650000D01*
X65220000Y-56650000D01*
X65220000Y-56413428D01*
X65192914Y-56242415D01*
X65139408Y-56077742D01*
X65060804Y-55923475D01*
X64959032Y-55783397D01*
X64836602Y-55660967D01*
X64696524Y-55559195D01*
X64542257Y-55480591D01*
X64377589Y-55427087D01*
X64377581Y-55427085D01*
X64370000Y-55425884D01*
X64370000Y-56584314D01*
X64365606Y-56579920D01*
X64274394Y-56527259D01*
X64172661Y-56500000D01*
X64067339Y-56500000D01*
X63965606Y-56527259D01*
X63874394Y-56579920D01*
X63870000Y-56584314D01*
X63870000Y-55425884D01*
X63869999Y-55425884D01*
X63862418Y-55427085D01*
X63862410Y-55427087D01*
X63697742Y-55480591D01*
X63543475Y-55559195D01*
X63403397Y-55660967D01*
X63280967Y-55783397D01*
X63179195Y-55923475D01*
X63100591Y-56077742D01*
X63047085Y-56242415D01*
X63020000Y-56413428D01*
X63020000Y-56650000D01*
X63804314Y-56650000D01*
X63799920Y-56654394D01*
X63747259Y-56745606D01*
X63720000Y-56847339D01*
X63720000Y-56952661D01*
X63747259Y-57054394D01*
X63799920Y-57145606D01*
X63804314Y-57150000D01*
X63020000Y-57150000D01*
X63020000Y-57386571D01*
X63047085Y-57557584D01*
X63100591Y-57722257D01*
X63179195Y-57876524D01*
X63280967Y-58016602D01*
X63403399Y-58139034D01*
X63403404Y-58139038D01*
X63516466Y-58221182D01*
X63559132Y-58276511D01*
X63565111Y-58346125D01*
X63532506Y-58407920D01*
X63471667Y-58442277D01*
X63443581Y-58445500D01*
X62257270Y-58445500D01*
X62190231Y-58425815D01*
X62144476Y-58373011D01*
X62134532Y-58303853D01*
X62163557Y-58240297D01*
X62184384Y-58221182D01*
X62296928Y-58139414D01*
X62419414Y-58016928D01*
X62521232Y-57876788D01*
X62599873Y-57722445D01*
X62653402Y-57557701D01*
X62680500Y-57386611D01*
X62680500Y-56413389D01*
X62653402Y-56242299D01*
X62599873Y-56077555D01*
X62521232Y-55923212D01*
X62419414Y-55783072D01*
X62296928Y-55660586D01*
X62156788Y-55558768D01*
X62002445Y-55480127D01*
X61837701Y-55426598D01*
X61837699Y-55426597D01*
X61837698Y-55426597D01*
X61706271Y-55405781D01*
X61666611Y-55399500D01*
X61493389Y-55399500D01*
X61453728Y-55405781D01*
X61322302Y-55426597D01*
X61322299Y-55426598D01*
X61210085Y-55463059D01*
X61157552Y-55480128D01*
X61003211Y-55558768D01*
X60949123Y-55598066D01*
X60863072Y-55660586D01*
X60863070Y-55660588D01*
X60863069Y-55660588D01*
X60740588Y-55783069D01*
X60740588Y-55783070D01*
X60740586Y-55783072D01*
X60740350Y-55783397D01*
X60638768Y-55923211D01*
X60560128Y-56077552D01*
X60506597Y-56242302D01*
X60479500Y-56413389D01*
X60479500Y-57386610D01*
X60502144Y-57529584D01*
X60506598Y-57557701D01*
X60560127Y-57722445D01*
X60638768Y-57876788D01*
X60740586Y-58016928D01*
X60863072Y-58139414D01*
X60975616Y-58221182D01*
X61018281Y-58276512D01*
X61024260Y-58346126D01*
X60991654Y-58407921D01*
X60930815Y-58442278D01*
X60902730Y-58445500D01*
X59717270Y-58445500D01*
X59650231Y-58425815D01*
X59604476Y-58373011D01*
X59594532Y-58303853D01*
X59623557Y-58240297D01*
X59644384Y-58221182D01*
X59756928Y-58139414D01*
X59879414Y-58016928D01*
X59981232Y-57876788D01*
X60059873Y-57722445D01*
X60113402Y-57557701D01*
X60140500Y-57386611D01*
X60140500Y-56413389D01*
X60113402Y-56242299D01*
X60059873Y-56077555D01*
X59981232Y-55923212D01*
X59879414Y-55783072D01*
X59756928Y-55660586D01*
X59616788Y-55558768D01*
X59462445Y-55480127D01*
X59297701Y-55426598D01*
X59297699Y-55426597D01*
X59297698Y-55426597D01*
X59166271Y-55405781D01*
X59126611Y-55399500D01*
X58953389Y-55399500D01*
X58913728Y-55405781D01*
X58782302Y-55426597D01*
X58782299Y-55426598D01*
X58670085Y-55463059D01*
X58617552Y-55480128D01*
X58463211Y-55558768D01*
X58409123Y-55598066D01*
X58323072Y-55660586D01*
X58323070Y-55660588D01*
X58323069Y-55660588D01*
X58200588Y-55783069D01*
X58200588Y-55783070D01*
X58200586Y-55783072D01*
X58200350Y-55783397D01*
X58098768Y-55923211D01*
X58020128Y-56077552D01*
X57966597Y-56242302D01*
X57939500Y-56413389D01*
X57939500Y-57386610D01*
X57962144Y-57529584D01*
X57966598Y-57557701D01*
X58020127Y-57722445D01*
X58098768Y-57876788D01*
X58200586Y-58016928D01*
X58323072Y-58139414D01*
X58435616Y-58221182D01*
X58478281Y-58276512D01*
X58484260Y-58346126D01*
X58451654Y-58407921D01*
X58390815Y-58442278D01*
X58362730Y-58445500D01*
X58117946Y-58445500D01*
X58117926Y-58445499D01*
X58111812Y-58445499D01*
X57963188Y-58445499D01*
X57963186Y-58445499D01*
X57841605Y-58469684D01*
X57817420Y-58474495D01*
X57792059Y-58485000D01*
X57792058Y-58485000D01*
X57680113Y-58531367D01*
X57680111Y-58531370D01*
X57556531Y-58613942D01*
X57556528Y-58613945D01*
X57455778Y-58714696D01*
X57455758Y-58714714D01*
X38907957Y-77262516D01*
X38846634Y-77296001D01*
X38799867Y-77297144D01*
X38685137Y-77278000D01*
X38454863Y-77278000D01*
X38429550Y-77282224D01*
X38227725Y-77315902D01*
X38009938Y-77390669D01*
X38009930Y-77390672D01*
X37807408Y-77500272D01*
X37625694Y-77641706D01*
X37625689Y-77641711D01*
X37469728Y-77811129D01*
X37343782Y-78003905D01*
X37251282Y-78214785D01*
X37194753Y-78438015D01*
X37175738Y-78667494D01*
X37175738Y-78667505D01*
X37194753Y-78896984D01*
X37251282Y-79120214D01*
X37343782Y-79331094D01*
X37469728Y-79523870D01*
X37469731Y-79523873D01*
X37625692Y-79693292D01*
X37683638Y-79738393D01*
X37806868Y-79834307D01*
X37807411Y-79834729D01*
X38009931Y-79944328D01*
X38062046Y-79962219D01*
X38227725Y-80019097D01*
X38227727Y-80019097D01*
X38227729Y-80019098D01*
X38454863Y-80057000D01*
X38454864Y-80057000D01*
X38685136Y-80057000D01*
X38685137Y-80057000D01*
X38912271Y-80019098D01*
X38913693Y-80018610D01*
X38920662Y-80016217D01*
X39130069Y-79944328D01*
X39332589Y-79834729D01*
X39514308Y-79693292D01*
X39670269Y-79523873D01*
X39736490Y-79422513D01*
X39789636Y-79377157D01*
X39858868Y-79367733D01*
X39922203Y-79397235D01*
X39944108Y-79422513D01*
X39966760Y-79457184D01*
X40627036Y-78796907D01*
X40644075Y-78860493D01*
X40709901Y-78974507D01*
X40802993Y-79067599D01*
X40917007Y-79133425D01*
X40980590Y-79150462D01*
X40319040Y-79812012D01*
X40319040Y-79812014D01*
X40347677Y-79834303D01*
X40347683Y-79834307D01*
X40550131Y-79943867D01*
X40550140Y-79943870D01*
X40767849Y-80018610D01*
X40994905Y-80056500D01*
X41225095Y-80056500D01*
X41452150Y-80018610D01*
X41658300Y-79947839D01*
X41728099Y-79944689D01*
X41788520Y-79979775D01*
X41813124Y-80017668D01*
X41845685Y-80096280D01*
X41845690Y-80096289D01*
X41879914Y-80147507D01*
X41879915Y-80147509D01*
X41914140Y-80198731D01*
X41914141Y-80198732D01*
X41914142Y-80198733D01*
X42001267Y-80285858D01*
X42001268Y-80285858D01*
X42008335Y-80292925D01*
X42008334Y-80292925D01*
X42008338Y-80292928D01*
X43226263Y-81510855D01*
X43226267Y-81510858D01*
X43328710Y-81579309D01*
X43328711Y-81579309D01*
X43328715Y-81579312D01*
X43395396Y-81606931D01*
X43395398Y-81606933D01*
X43442543Y-81626461D01*
X43442548Y-81626463D01*
X43462597Y-81630451D01*
X43496196Y-81637134D01*
X43563392Y-81650501D01*
X43563394Y-81650501D01*
X43692721Y-81650501D01*
X43692741Y-81650500D01*
X48974107Y-81650500D01*
X49034529Y-81638481D01*
X49094952Y-81626463D01*
X49094955Y-81626461D01*
X49094958Y-81626461D01*
X49128287Y-81612654D01*
X49128286Y-81612654D01*
X49128292Y-81612652D01*
X49208786Y-81579312D01*
X49260009Y-81545084D01*
X49311233Y-81510858D01*
X49398358Y-81423733D01*
X49398358Y-81423731D01*
X49408566Y-81413524D01*
X49408568Y-81413521D01*
X50780138Y-80041950D01*
X50841459Y-80008467D01*
X50908081Y-80012352D01*
X50927729Y-80019098D01*
X51154863Y-80057000D01*
X51154864Y-80057000D01*
X51385136Y-80057000D01*
X51385137Y-80057000D01*
X51612271Y-80019098D01*
X51613693Y-80018610D01*
X51620662Y-80016217D01*
X51830069Y-79944328D01*
X52032589Y-79834729D01*
X52214308Y-79693292D01*
X52370269Y-79523873D01*
X52420501Y-79446987D01*
X52436191Y-79422972D01*
X52489337Y-79377615D01*
X52558569Y-79368191D01*
X52621905Y-79397693D01*
X52643809Y-79422972D01*
X52709728Y-79523870D01*
X52709731Y-79523873D01*
X52865692Y-79693292D01*
X52923638Y-79738393D01*
X53046868Y-79834307D01*
X53047411Y-79834729D01*
X53249931Y-79944328D01*
X53302046Y-79962219D01*
X53467725Y-80019097D01*
X53467727Y-80019097D01*
X53467729Y-80019098D01*
X53694863Y-80057000D01*
X53694864Y-80057000D01*
X53925136Y-80057000D01*
X53925137Y-80057000D01*
X54152271Y-80019098D01*
X54153693Y-80018610D01*
X54160662Y-80016217D01*
X54370069Y-79944328D01*
X54572589Y-79834729D01*
X54754308Y-79693292D01*
X54910269Y-79523873D01*
X54960501Y-79446987D01*
X54976191Y-79422972D01*
X55029337Y-79377615D01*
X55098569Y-79368191D01*
X55161905Y-79397693D01*
X55183809Y-79422972D01*
X55249728Y-79523870D01*
X55249731Y-79523873D01*
X55405692Y-79693292D01*
X55463638Y-79738393D01*
X55586868Y-79834307D01*
X55587411Y-79834729D01*
X55789931Y-79944328D01*
X55842046Y-79962219D01*
X56007725Y-80019097D01*
X56007727Y-80019097D01*
X56007729Y-80019098D01*
X56234863Y-80057000D01*
X56234864Y-80057000D01*
X56465136Y-80057000D01*
X56465137Y-80057000D01*
X56692271Y-80019098D01*
X56693693Y-80018610D01*
X56700662Y-80016217D01*
X56910069Y-79944328D01*
X57112589Y-79834729D01*
X57294308Y-79693292D01*
X57450269Y-79523873D01*
X57500501Y-79446987D01*
X57516191Y-79422972D01*
X57569337Y-79377615D01*
X57638569Y-79368191D01*
X57701905Y-79397693D01*
X57723809Y-79422972D01*
X57789728Y-79523870D01*
X57789731Y-79523873D01*
X57945692Y-79693292D01*
X58003638Y-79738393D01*
X58126868Y-79834307D01*
X58127411Y-79834729D01*
X58329931Y-79944328D01*
X58382046Y-79962219D01*
X58547725Y-80019097D01*
X58547727Y-80019097D01*
X58547729Y-80019098D01*
X58774863Y-80057000D01*
X58774864Y-80057000D01*
X59005136Y-80057000D01*
X59005137Y-80057000D01*
X59232271Y-80019098D01*
X59233693Y-80018610D01*
X59240662Y-80016217D01*
X59450069Y-79944328D01*
X59652589Y-79834729D01*
X59834308Y-79693292D01*
X59856571Y-79669107D01*
X59916453Y-79633118D01*
X59986292Y-79635217D01*
X60043909Y-79674740D01*
X60063981Y-79709757D01*
X60097203Y-79798830D01*
X60097206Y-79798835D01*
X60183452Y-79914044D01*
X60183455Y-79914047D01*
X60298664Y-80000293D01*
X60298671Y-80000297D01*
X60433517Y-80050591D01*
X60433516Y-80050591D01*
X60440444Y-80051335D01*
X60493127Y-80057000D01*
X62366872Y-80056999D01*
X62426483Y-80050591D01*
X62561331Y-80000296D01*
X62676546Y-79914046D01*
X62762796Y-79798831D01*
X62813091Y-79663983D01*
X62819500Y-79604373D01*
X62819499Y-78812950D01*
X62839183Y-78745912D01*
X62891987Y-78700157D01*
X62961146Y-78690213D01*
X63024702Y-78719238D01*
X63031180Y-78725270D01*
X65051516Y-80745606D01*
X65051545Y-80745637D01*
X65141764Y-80835856D01*
X65141767Y-80835858D01*
X65192990Y-80870084D01*
X65244214Y-80904312D01*
X65324707Y-80937652D01*
X65358048Y-80951463D01*
X65379227Y-80955675D01*
X65417984Y-80963385D01*
X65418004Y-80963388D01*
X65418026Y-80963393D01*
X65478891Y-80975499D01*
X65478892Y-80975500D01*
X65478893Y-80975500D01*
X98294108Y-80975500D01*
X98294108Y-80975499D01*
X98354974Y-80963393D01*
X98354975Y-80963393D01*
X98375336Y-80959342D01*
X98414952Y-80951463D01*
X98448292Y-80937652D01*
X98528786Y-80904312D01*
X98580009Y-80870084D01*
X98580011Y-80870083D01*
X98592771Y-80861556D01*
X98631233Y-80835858D01*
X98718358Y-80748733D01*
X98718358Y-80748731D01*
X98728566Y-80738524D01*
X98728568Y-80738521D01*
X99450138Y-80016950D01*
X99511459Y-79983467D01*
X99578081Y-79987352D01*
X99597729Y-79994098D01*
X99824863Y-80032000D01*
X99824864Y-80032000D01*
X100055136Y-80032000D01*
X100055137Y-80032000D01*
X100282271Y-79994098D01*
X100500069Y-79919328D01*
X100702589Y-79809729D01*
X100884308Y-79668292D01*
X101040269Y-79498873D01*
X101090157Y-79422514D01*
X101106191Y-79397972D01*
X101159337Y-79352615D01*
X101228569Y-79343191D01*
X101291905Y-79372693D01*
X101313809Y-79397972D01*
X101379728Y-79498870D01*
X101402742Y-79523870D01*
X101535692Y-79668292D01*
X101717411Y-79809729D01*
X101919931Y-79919328D01*
X102002981Y-79947839D01*
X102137725Y-79994097D01*
X102137727Y-79994097D01*
X102137729Y-79994098D01*
X102364863Y-80032000D01*
X102364864Y-80032000D01*
X102595136Y-80032000D01*
X102595137Y-80032000D01*
X102822271Y-79994098D01*
X103040069Y-79919328D01*
X103242589Y-79809729D01*
X103424308Y-79668292D01*
X103580269Y-79498873D01*
X103630157Y-79422514D01*
X103646191Y-79397972D01*
X103699337Y-79352615D01*
X103768569Y-79343191D01*
X103831905Y-79372693D01*
X103853809Y-79397972D01*
X103919728Y-79498870D01*
X103942742Y-79523870D01*
X104075692Y-79668292D01*
X104257411Y-79809729D01*
X104459931Y-79919328D01*
X104542981Y-79947839D01*
X104677725Y-79994097D01*
X104677727Y-79994097D01*
X104677729Y-79994098D01*
X104904863Y-80032000D01*
X104904864Y-80032000D01*
X105135136Y-80032000D01*
X105135137Y-80032000D01*
X105362271Y-79994098D01*
X105580069Y-79919328D01*
X105782589Y-79809729D01*
X105964308Y-79668292D01*
X106120269Y-79498873D01*
X106170157Y-79422514D01*
X106186191Y-79397972D01*
X106239337Y-79352615D01*
X106308569Y-79343191D01*
X106371905Y-79372693D01*
X106393809Y-79397972D01*
X106459728Y-79498870D01*
X106482742Y-79523870D01*
X106615692Y-79668292D01*
X106797411Y-79809729D01*
X106999931Y-79919328D01*
X107082981Y-79947839D01*
X107217725Y-79994097D01*
X107217727Y-79994097D01*
X107217729Y-79994098D01*
X107444863Y-80032000D01*
X107444864Y-80032000D01*
X107675136Y-80032000D01*
X107675137Y-80032000D01*
X107902271Y-79994098D01*
X108120069Y-79919328D01*
X108322589Y-79809729D01*
X108504308Y-79668292D01*
X108660269Y-79498873D01*
X108710157Y-79422514D01*
X108726191Y-79397972D01*
X108779337Y-79352615D01*
X108848569Y-79343191D01*
X108911905Y-79372693D01*
X108933809Y-79397972D01*
X108999728Y-79498870D01*
X109022742Y-79523870D01*
X109155692Y-79668292D01*
X109337411Y-79809729D01*
X109539931Y-79919328D01*
X109622981Y-79947839D01*
X109757725Y-79994097D01*
X109757727Y-79994097D01*
X109757729Y-79994098D01*
X109984863Y-80032000D01*
X109984864Y-80032000D01*
X110215136Y-80032000D01*
X110215137Y-80032000D01*
X110442271Y-79994098D01*
X110660069Y-79919328D01*
X110862589Y-79809729D01*
X111044308Y-79668292D01*
X111200269Y-79498873D01*
X111250157Y-79422514D01*
X111266191Y-79397972D01*
X111319337Y-79352615D01*
X111388569Y-79343191D01*
X111451905Y-79372693D01*
X111473809Y-79397972D01*
X111539728Y-79498870D01*
X111562742Y-79523870D01*
X111695692Y-79668292D01*
X111877411Y-79809729D01*
X112079931Y-79919328D01*
X112162981Y-79947839D01*
X112297725Y-79994097D01*
X112297727Y-79994097D01*
X112297729Y-79994098D01*
X112524863Y-80032000D01*
X112524864Y-80032000D01*
X112755136Y-80032000D01*
X112755137Y-80032000D01*
X112982271Y-79994098D01*
X113200069Y-79919328D01*
X113402589Y-79809729D01*
X113584308Y-79668292D01*
X113606571Y-79644107D01*
X113666453Y-79608118D01*
X113736292Y-79610217D01*
X113793909Y-79649740D01*
X113813981Y-79684757D01*
X113847203Y-79773830D01*
X113847206Y-79773835D01*
X113933452Y-79889044D01*
X113933455Y-79889047D01*
X114048664Y-79975293D01*
X114048671Y-79975297D01*
X114183517Y-80025591D01*
X114183516Y-80025591D01*
X114190444Y-80026335D01*
X114243127Y-80032000D01*
X116116872Y-80031999D01*
X116176483Y-80025591D01*
X116311331Y-79975296D01*
X116426546Y-79889046D01*
X116512796Y-79773831D01*
X116563091Y-79638983D01*
X116569500Y-79579373D01*
X116569499Y-78639042D01*
X116589183Y-78572004D01*
X116641987Y-78526249D01*
X116711146Y-78516305D01*
X116774702Y-78545330D01*
X116781180Y-78551362D01*
X120709981Y-82480163D01*
X120743466Y-82541486D01*
X120746300Y-82567844D01*
X120746300Y-88182156D01*
X120726615Y-88249195D01*
X120709985Y-88269832D01*
X120661059Y-88318759D01*
X120647687Y-88332131D01*
X120586363Y-88365615D01*
X120516672Y-88360630D01*
X120460738Y-88318759D01*
X120436785Y-88258329D01*
X120435368Y-88245745D01*
X120375789Y-88075478D01*
X120279816Y-87922738D01*
X120152262Y-87795184D01*
X119999523Y-87699211D01*
X119829254Y-87639631D01*
X119829249Y-87639630D01*
X119650004Y-87619435D01*
X119649996Y-87619435D01*
X119470750Y-87639630D01*
X119470737Y-87639633D01*
X119402415Y-87663541D01*
X119361460Y-87670500D01*
X118623105Y-87670500D01*
X118556066Y-87650815D01*
X118510311Y-87598011D01*
X118499885Y-87560383D01*
X118486969Y-87445747D01*
X118486968Y-87445742D01*
X118427388Y-87275473D01*
X118331415Y-87122734D01*
X118203862Y-86995181D01*
X118051121Y-86899207D01*
X117880849Y-86839627D01*
X117833773Y-86834323D01*
X117769359Y-86807256D01*
X117759977Y-86798784D01*
X114916801Y-83955608D01*
X114916781Y-83955586D01*
X114825336Y-83864141D01*
X114774112Y-83829915D01*
X114722890Y-83795689D01*
X114722889Y-83795688D01*
X114722886Y-83795686D01*
X114722883Y-83795685D01*
X114642395Y-83762347D01*
X114609056Y-83748537D01*
X114599030Y-83746543D01*
X114548632Y-83736518D01*
X114488213Y-83724500D01*
X114488210Y-83724500D01*
X114488209Y-83724500D01*
X97244855Y-83724500D01*
X97178883Y-83705494D01*
X97049523Y-83624211D01*
X96879254Y-83564631D01*
X96879249Y-83564630D01*
X96700004Y-83544435D01*
X96699996Y-83544435D01*
X96520750Y-83564630D01*
X96520745Y-83564631D01*
X96350476Y-83624211D01*
X96197737Y-83720184D01*
X96070184Y-83847737D01*
X95974211Y-84000476D01*
X95914631Y-84170745D01*
X95914630Y-84170750D01*
X95894435Y-84349996D01*
X95894435Y-84350005D01*
X95900450Y-84403396D01*
X95888395Y-84472218D01*
X95841045Y-84523596D01*
X95773435Y-84541220D01*
X95707029Y-84519493D01*
X95689549Y-84504959D01*
X95476211Y-84291621D01*
X95442726Y-84230298D01*
X95440673Y-84217838D01*
X95435368Y-84170745D01*
X95375789Y-84000478D01*
X95347581Y-83955586D01*
X95290123Y-83864142D01*
X95279816Y-83847738D01*
X95152262Y-83720184D01*
X95128883Y-83705494D01*
X94999523Y-83624211D01*
X94829254Y-83564631D01*
X94829249Y-83564630D01*
X94650004Y-83544435D01*
X94649996Y-83544435D01*
X94470750Y-83564630D01*
X94470745Y-83564631D01*
X94300476Y-83624211D01*
X94147737Y-83720184D01*
X94020184Y-83847737D01*
X93924211Y-84000476D01*
X93864631Y-84170745D01*
X93864630Y-84170750D01*
X93844435Y-84349996D01*
X93844435Y-84350003D01*
X93864630Y-84529249D01*
X93864631Y-84529254D01*
X93924211Y-84699523D01*
X93924212Y-84699524D01*
X94020184Y-84852262D01*
X94147738Y-84979816D01*
X94217320Y-85023537D01*
X94292359Y-85070688D01*
X94300478Y-85075789D01*
X94470745Y-85135368D01*
X94517823Y-85140672D01*
X94582236Y-85167737D01*
X94591621Y-85176211D01*
X96874229Y-87458819D01*
X96907714Y-87520142D01*
X96902730Y-87589834D01*
X96860858Y-87645767D01*
X96795394Y-87670184D01*
X96786548Y-87670500D01*
X94938540Y-87670500D01*
X94897585Y-87663541D01*
X94829262Y-87639633D01*
X94829249Y-87639630D01*
X94650004Y-87619435D01*
X94649996Y-87619435D01*
X94470750Y-87639630D01*
X94470737Y-87639633D01*
X94402415Y-87663541D01*
X94361460Y-87670500D01*
X93623105Y-87670500D01*
X93556066Y-87650815D01*
X93510311Y-87598011D01*
X93499885Y-87560383D01*
X93486969Y-87445747D01*
X93486968Y-87445742D01*
X93427388Y-87275473D01*
X93346106Y-87146114D01*
X93327100Y-87080142D01*
X93327100Y-84894854D01*
X93346107Y-84828881D01*
X93427388Y-84699524D01*
X93482781Y-84541220D01*
X93486968Y-84529255D01*
X93488068Y-84519493D01*
X93507165Y-84350003D01*
X93507165Y-84349996D01*
X93486969Y-84170750D01*
X93486968Y-84170745D01*
X93427388Y-84000476D01*
X93341723Y-83864142D01*
X93331416Y-83847738D01*
X93203862Y-83720184D01*
X93180483Y-83705494D01*
X93051123Y-83624211D01*
X92880854Y-83564631D01*
X92880849Y-83564630D01*
X92701604Y-83544435D01*
X92701596Y-83544435D01*
X92522350Y-83564630D01*
X92522345Y-83564631D01*
X92352076Y-83624211D01*
X92199337Y-83720184D01*
X92071784Y-83847737D01*
X91975811Y-84000476D01*
X91916231Y-84170745D01*
X91916230Y-84170750D01*
X91896035Y-84349996D01*
X91896035Y-84350003D01*
X91916230Y-84529249D01*
X91916231Y-84529254D01*
X91975811Y-84699524D01*
X92057093Y-84828881D01*
X92076100Y-84894854D01*
X92076100Y-87080142D01*
X92057094Y-87146114D01*
X91975811Y-87275473D01*
X91916231Y-87445742D01*
X91916230Y-87445747D01*
X91903315Y-87560383D01*
X91876249Y-87624797D01*
X91818654Y-87664352D01*
X91780095Y-87670500D01*
X82438540Y-87670500D01*
X82397585Y-87663541D01*
X82329262Y-87639633D01*
X82329249Y-87639630D01*
X82150004Y-87619435D01*
X82149996Y-87619435D01*
X81970750Y-87639630D01*
X81970737Y-87639633D01*
X81902415Y-87663541D01*
X81861460Y-87670500D01*
X69438540Y-87670500D01*
X69397585Y-87663541D01*
X69329262Y-87639633D01*
X69329249Y-87639630D01*
X69150004Y-87619435D01*
X69149996Y-87619435D01*
X68970750Y-87639630D01*
X68970737Y-87639633D01*
X68902415Y-87663541D01*
X68861460Y-87670500D01*
X68123105Y-87670500D01*
X68056066Y-87650815D01*
X68010311Y-87598011D01*
X67999885Y-87560383D01*
X67986969Y-87445747D01*
X67986968Y-87445742D01*
X67927388Y-87275473D01*
X67831415Y-87122734D01*
X67703862Y-86995181D01*
X67551123Y-86899208D01*
X67380854Y-86839628D01*
X67380849Y-86839627D01*
X67201604Y-86819432D01*
X67201596Y-86819432D01*
X67022350Y-86839627D01*
X67022345Y-86839628D01*
X66852076Y-86899208D01*
X66722717Y-86980491D01*
X66656745Y-86999497D01*
X56985449Y-86999497D01*
X56918410Y-86979812D01*
X56897768Y-86963178D01*
X55165198Y-85230608D01*
X55165178Y-85230586D01*
X55073736Y-85139144D01*
X55073732Y-85139141D01*
X55014405Y-85099500D01*
X54978918Y-85075788D01*
X54971286Y-85070688D01*
X54890792Y-85037347D01*
X54857453Y-85023537D01*
X54847427Y-85021543D01*
X54797029Y-85011518D01*
X54736610Y-84999500D01*
X54736607Y-84999500D01*
X54736606Y-84999500D01*
X38060453Y-84999500D01*
X37993414Y-84979815D01*
X37972772Y-84963181D01*
X36461819Y-83452228D01*
X36428334Y-83390905D01*
X36425500Y-83364547D01*
X36425500Y-76960451D01*
X36445185Y-76893412D01*
X36461814Y-76872775D01*
X54358729Y-58975860D01*
X54358733Y-58975858D01*
X54445858Y-58888733D01*
X54514311Y-58786286D01*
X54561463Y-58672452D01*
X54585500Y-58551606D01*
X54585500Y-58269021D01*
X54605185Y-58201982D01*
X54636616Y-58168702D01*
X54676924Y-58139417D01*
X54676924Y-58139416D01*
X54676928Y-58139414D01*
X54799414Y-58016928D01*
X54901232Y-57876788D01*
X54979873Y-57722445D01*
X55033402Y-57557701D01*
X55060500Y-57386611D01*
X55060500Y-56413389D01*
X55399500Y-56413389D01*
X55399500Y-57386610D01*
X55422144Y-57529584D01*
X55426598Y-57557701D01*
X55480127Y-57722445D01*
X55558768Y-57876788D01*
X55660586Y-58016928D01*
X55783072Y-58139414D01*
X55923212Y-58241232D01*
X56077555Y-58319873D01*
X56242299Y-58373402D01*
X56413389Y-58400500D01*
X56413390Y-58400500D01*
X56586610Y-58400500D01*
X56586611Y-58400500D01*
X56757701Y-58373402D01*
X56922445Y-58319873D01*
X57076788Y-58241232D01*
X57216928Y-58139414D01*
X57339414Y-58016928D01*
X57441232Y-57876788D01*
X57519873Y-57722445D01*
X57573402Y-57557701D01*
X57600500Y-57386611D01*
X57600500Y-56413389D01*
X57573402Y-56242299D01*
X57519873Y-56077555D01*
X57441232Y-55923212D01*
X57339414Y-55783072D01*
X57216928Y-55660586D01*
X57076788Y-55558768D01*
X56922445Y-55480127D01*
X56757701Y-55426598D01*
X56757699Y-55426597D01*
X56757698Y-55426597D01*
X56626271Y-55405781D01*
X56586611Y-55399500D01*
X56413389Y-55399500D01*
X56373728Y-55405781D01*
X56242302Y-55426597D01*
X56242299Y-55426598D01*
X56130085Y-55463059D01*
X56077552Y-55480128D01*
X55923211Y-55558768D01*
X55869123Y-55598066D01*
X55783072Y-55660586D01*
X55783070Y-55660588D01*
X55783069Y-55660588D01*
X55660588Y-55783069D01*
X55660588Y-55783070D01*
X55660586Y-55783072D01*
X55660350Y-55783397D01*
X55558768Y-55923211D01*
X55480128Y-56077552D01*
X55426597Y-56242302D01*
X55399500Y-56413389D01*
X55060500Y-56413389D01*
X55033402Y-56242299D01*
X54979873Y-56077555D01*
X54901232Y-55923212D01*
X54799414Y-55783072D01*
X54676928Y-55660586D01*
X54536788Y-55558768D01*
X54382445Y-55480127D01*
X54217701Y-55426598D01*
X54217699Y-55426597D01*
X54217698Y-55426597D01*
X54086271Y-55405781D01*
X54046611Y-55399500D01*
X53873389Y-55399500D01*
X53833728Y-55405781D01*
X53702302Y-55426597D01*
X53702299Y-55426598D01*
X53590085Y-55463059D01*
X53537552Y-55480128D01*
X53383211Y-55558768D01*
X53329123Y-55598066D01*
X53243072Y-55660586D01*
X53243070Y-55660588D01*
X53243069Y-55660588D01*
X53120588Y-55783069D01*
X53120588Y-55783070D01*
X53120586Y-55783072D01*
X53120350Y-55783397D01*
X53018768Y-55923211D01*
X52940128Y-56077552D01*
X52886597Y-56242302D01*
X52859500Y-56413389D01*
X52859500Y-57386610D01*
X52882144Y-57529584D01*
X52886598Y-57557701D01*
X52940127Y-57722445D01*
X53018768Y-57876788D01*
X53120586Y-58016928D01*
X53120588Y-58016930D01*
X53246517Y-58142859D01*
X53244893Y-58144482D01*
X53277913Y-58195032D01*
X53278431Y-58264900D01*
X53246879Y-58318530D01*
X52257181Y-59308229D01*
X52195858Y-59341714D01*
X52126167Y-59336730D01*
X52070233Y-59294858D01*
X52045816Y-59229394D01*
X52045500Y-59220548D01*
X52045500Y-58269021D01*
X52065185Y-58201982D01*
X52096616Y-58168702D01*
X52136924Y-58139417D01*
X52136924Y-58139416D01*
X52136928Y-58139414D01*
X52259414Y-58016928D01*
X52361232Y-57876788D01*
X52439873Y-57722445D01*
X52493402Y-57557701D01*
X52520500Y-57386611D01*
X52520500Y-56413389D01*
X52493402Y-56242299D01*
X52439873Y-56077555D01*
X52361232Y-55923212D01*
X52259414Y-55783072D01*
X52136928Y-55660586D01*
X51996788Y-55558768D01*
X51842445Y-55480127D01*
X51677701Y-55426598D01*
X51677699Y-55426597D01*
X51677698Y-55426597D01*
X51546271Y-55405781D01*
X51506611Y-55399500D01*
X51333389Y-55399500D01*
X51293728Y-55405781D01*
X51162302Y-55426597D01*
X51162299Y-55426598D01*
X51050085Y-55463059D01*
X50997552Y-55480128D01*
X50843211Y-55558768D01*
X50789123Y-55598066D01*
X50703072Y-55660586D01*
X50703070Y-55660588D01*
X50703069Y-55660588D01*
X50580588Y-55783069D01*
X50580588Y-55783070D01*
X50580586Y-55783072D01*
X50580350Y-55783397D01*
X50478768Y-55923211D01*
X50400128Y-56077552D01*
X50346597Y-56242302D01*
X50319500Y-56413389D01*
X50319500Y-57386610D01*
X50342144Y-57529584D01*
X50346598Y-57557701D01*
X50400127Y-57722445D01*
X50478768Y-57876788D01*
X50580586Y-58016928D01*
X50580588Y-58016930D01*
X50703075Y-58139417D01*
X50743384Y-58168702D01*
X50786050Y-58224031D01*
X50794500Y-58269021D01*
X50794500Y-59269547D01*
X50774815Y-59336586D01*
X50758181Y-59357228D01*
X49717181Y-60398228D01*
X49655858Y-60431713D01*
X49586166Y-60426729D01*
X49530233Y-60384857D01*
X49505816Y-60319393D01*
X49505500Y-60310547D01*
X49505500Y-58269021D01*
X49525185Y-58201982D01*
X49556616Y-58168702D01*
X49596924Y-58139417D01*
X49596924Y-58139416D01*
X49596928Y-58139414D01*
X49719414Y-58016928D01*
X49821232Y-57876788D01*
X49899873Y-57722445D01*
X49953402Y-57557701D01*
X49980500Y-57386611D01*
X49980500Y-56413389D01*
X49953402Y-56242299D01*
X49899873Y-56077555D01*
X49821232Y-55923212D01*
X49719414Y-55783072D01*
X49596928Y-55660586D01*
X49456788Y-55558768D01*
X49302445Y-55480127D01*
X49137701Y-55426598D01*
X49137699Y-55426597D01*
X49137698Y-55426597D01*
X49006271Y-55405781D01*
X48966611Y-55399500D01*
X48793389Y-55399500D01*
X48753728Y-55405781D01*
X48622302Y-55426597D01*
X48622299Y-55426598D01*
X48510085Y-55463059D01*
X48457552Y-55480128D01*
X48303211Y-55558768D01*
X48249123Y-55598066D01*
X48163072Y-55660586D01*
X48163070Y-55660588D01*
X48163069Y-55660588D01*
X48040588Y-55783069D01*
X48040588Y-55783070D01*
X48040586Y-55783072D01*
X48040350Y-55783397D01*
X47938768Y-55923211D01*
X47860128Y-56077552D01*
X47806597Y-56242302D01*
X47779500Y-56413389D01*
X47779500Y-57386610D01*
X47802144Y-57529584D01*
X47806598Y-57557701D01*
X47860127Y-57722445D01*
X47938768Y-57876788D01*
X48040586Y-58016928D01*
X48040588Y-58016930D01*
X48163075Y-58139417D01*
X48203384Y-58168702D01*
X48246050Y-58224031D01*
X48254500Y-58269021D01*
X48254500Y-60459546D01*
X48234815Y-60526585D01*
X48218181Y-60547227D01*
X33396969Y-75368437D01*
X33396929Y-75368480D01*
X33314141Y-75451268D01*
X33295822Y-75478685D01*
X33295821Y-75478686D01*
X33245690Y-75553709D01*
X33245685Y-75553718D01*
X33219504Y-75616927D01*
X33219504Y-75616929D01*
X33198537Y-75667548D01*
X33198536Y-75667552D01*
X33198536Y-75667553D01*
X33198535Y-75667556D01*
X33174500Y-75788389D01*
X33174500Y-85786610D01*
X33198535Y-85907444D01*
X33198538Y-85907454D01*
X33212347Y-85940792D01*
X33212347Y-85940793D01*
X33245685Y-86021280D01*
X33245690Y-86021289D01*
X33279914Y-86072507D01*
X33279915Y-86072509D01*
X33314140Y-86123731D01*
X33314141Y-86123732D01*
X33314142Y-86123733D01*
X33401267Y-86210858D01*
X33401268Y-86210858D01*
X33408335Y-86217925D01*
X33408334Y-86217925D01*
X33408338Y-86217928D01*
X34649228Y-87458819D01*
X34682713Y-87520142D01*
X34677729Y-87589834D01*
X34635857Y-87645767D01*
X34570393Y-87670184D01*
X34561547Y-87670500D01*
X32476100Y-87670500D01*
X32409061Y-87650815D01*
X32363306Y-87598011D01*
X32352100Y-87546500D01*
X32352100Y-65967500D01*
X36464592Y-65967500D01*
X36484201Y-66254180D01*
X36542666Y-66535534D01*
X36542667Y-66535537D01*
X36638894Y-66806293D01*
X36638893Y-66806293D01*
X36771098Y-67061435D01*
X36936812Y-67296200D01*
X37021923Y-67387331D01*
X37132947Y-67506208D01*
X37355853Y-67687555D01*
X37560264Y-67811861D01*
X37601382Y-67836865D01*
X37788237Y-67918026D01*
X37864942Y-67951344D01*
X38141642Y-68028871D01*
X38391920Y-68063271D01*
X38426321Y-68068000D01*
X38426322Y-68068000D01*
X38713679Y-68068000D01*
X38744370Y-68063781D01*
X38998358Y-68028871D01*
X39275058Y-67951344D01*
X39388015Y-67902279D01*
X39538617Y-67836865D01*
X39538620Y-67836863D01*
X39538625Y-67836861D01*
X39784147Y-67687555D01*
X40007053Y-67506208D01*
X40203189Y-67296198D01*
X40368901Y-67061436D01*
X40501104Y-66806297D01*
X40597334Y-66535532D01*
X40655798Y-66254186D01*
X40675408Y-65967500D01*
X40655798Y-65680814D01*
X40597334Y-65399468D01*
X40501105Y-65128706D01*
X40501106Y-65128706D01*
X40368901Y-64873564D01*
X40203187Y-64638799D01*
X40124554Y-64554605D01*
X40007053Y-64428792D01*
X39784147Y-64247445D01*
X39784146Y-64247444D01*
X39538617Y-64098134D01*
X39275063Y-63983658D01*
X39275061Y-63983657D01*
X39275058Y-63983656D01*
X39139408Y-63945649D01*
X38998364Y-63906130D01*
X38998359Y-63906129D01*
X38998358Y-63906129D01*
X38816480Y-63881130D01*
X38713679Y-63867000D01*
X38713678Y-63867000D01*
X38426322Y-63867000D01*
X38426321Y-63867000D01*
X38141642Y-63906129D01*
X38141635Y-63906130D01*
X37954169Y-63958656D01*
X37864942Y-63983656D01*
X37864939Y-63983656D01*
X37864936Y-63983658D01*
X37864935Y-63983658D01*
X37601382Y-64098134D01*
X37355853Y-64247444D01*
X37132950Y-64428789D01*
X36936812Y-64638799D01*
X36771098Y-64873564D01*
X36638894Y-65128706D01*
X36542667Y-65399462D01*
X36542666Y-65399465D01*
X36484201Y-65680819D01*
X36464592Y-65967500D01*
X32352100Y-65967500D01*
X32352100Y-60964571D01*
X32353495Y-60950413D01*
X32353104Y-60950375D01*
X32353701Y-60944312D01*
X32353701Y-60800581D01*
X32353700Y-60800555D01*
X32353700Y-60530689D01*
X32353699Y-60530687D01*
X32349765Y-60510909D01*
X32326657Y-60394738D01*
X32322564Y-60384857D01*
X32273613Y-60266676D01*
X32196598Y-60151414D01*
X32095487Y-60050303D01*
X32095456Y-60050274D01*
X31840019Y-59794837D01*
X31806534Y-59733514D01*
X31803700Y-59707156D01*
X31803700Y-58481597D01*
X31823385Y-58414558D01*
X31876189Y-58368803D01*
X31884368Y-58365415D01*
X31942326Y-58343798D01*
X31942326Y-58343797D01*
X31942331Y-58343796D01*
X32057546Y-58257546D01*
X32143796Y-58142331D01*
X32194091Y-58007483D01*
X32200500Y-57947873D01*
X32200499Y-56917886D01*
X32220183Y-56850848D01*
X32236818Y-56830206D01*
X32327819Y-56739205D01*
X32389142Y-56705720D01*
X32458834Y-56710704D01*
X32514767Y-56752576D01*
X32539184Y-56818040D01*
X32539500Y-56826886D01*
X32539500Y-57386610D01*
X32562144Y-57529584D01*
X32566598Y-57557701D01*
X32620127Y-57722445D01*
X32698768Y-57876788D01*
X32800586Y-58016928D01*
X32923072Y-58139414D01*
X33063212Y-58241232D01*
X33217555Y-58319873D01*
X33382299Y-58373402D01*
X33553389Y-58400500D01*
X33553390Y-58400500D01*
X33726610Y-58400500D01*
X33726611Y-58400500D01*
X33897701Y-58373402D01*
X34062445Y-58319873D01*
X34216788Y-58241232D01*
X34356928Y-58139414D01*
X34479414Y-58016928D01*
X34581232Y-57876788D01*
X34659873Y-57722445D01*
X34713402Y-57557701D01*
X34740500Y-57386611D01*
X34740500Y-56413389D01*
X35079500Y-56413389D01*
X35079500Y-57386610D01*
X35102144Y-57529584D01*
X35106598Y-57557701D01*
X35160127Y-57722445D01*
X35238768Y-57876788D01*
X35340586Y-58016928D01*
X35463072Y-58139414D01*
X35603212Y-58241232D01*
X35757555Y-58319873D01*
X35922299Y-58373402D01*
X36093389Y-58400500D01*
X36093390Y-58400500D01*
X36266610Y-58400500D01*
X36266611Y-58400500D01*
X36437701Y-58373402D01*
X36602445Y-58319873D01*
X36756788Y-58241232D01*
X36896928Y-58139414D01*
X37019414Y-58016928D01*
X37121232Y-57876788D01*
X37199873Y-57722445D01*
X37253402Y-57557701D01*
X37280500Y-57386611D01*
X37280500Y-56413389D01*
X37619500Y-56413389D01*
X37619500Y-57386610D01*
X37642144Y-57529584D01*
X37646598Y-57557701D01*
X37700127Y-57722445D01*
X37778768Y-57876788D01*
X37880586Y-58016928D01*
X38003072Y-58139414D01*
X38143212Y-58241232D01*
X38297555Y-58319873D01*
X38462299Y-58373402D01*
X38633389Y-58400500D01*
X38633390Y-58400500D01*
X38806610Y-58400500D01*
X38806611Y-58400500D01*
X38977701Y-58373402D01*
X39142445Y-58319873D01*
X39296788Y-58241232D01*
X39436928Y-58139414D01*
X39559414Y-58016928D01*
X39661232Y-57876788D01*
X39739873Y-57722445D01*
X39793402Y-57557701D01*
X39820500Y-57386611D01*
X39820500Y-56413389D01*
X40159500Y-56413389D01*
X40159500Y-57386610D01*
X40182144Y-57529584D01*
X40186598Y-57557701D01*
X40240127Y-57722445D01*
X40318768Y-57876788D01*
X40420586Y-58016928D01*
X40543072Y-58139414D01*
X40683212Y-58241232D01*
X40837555Y-58319873D01*
X41002299Y-58373402D01*
X41173389Y-58400500D01*
X41173390Y-58400500D01*
X41346610Y-58400500D01*
X41346611Y-58400500D01*
X41517701Y-58373402D01*
X41682445Y-58319873D01*
X41836788Y-58241232D01*
X41976928Y-58139414D01*
X42099414Y-58016928D01*
X42201232Y-57876788D01*
X42279873Y-57722445D01*
X42333402Y-57557701D01*
X42360500Y-57386611D01*
X42360500Y-56413389D01*
X42699500Y-56413389D01*
X42699500Y-57386610D01*
X42722144Y-57529584D01*
X42726598Y-57557701D01*
X42780127Y-57722445D01*
X42858768Y-57876788D01*
X42960586Y-58016928D01*
X43083072Y-58139414D01*
X43223212Y-58241232D01*
X43377555Y-58319873D01*
X43542299Y-58373402D01*
X43713389Y-58400500D01*
X43713390Y-58400500D01*
X43886610Y-58400500D01*
X43886611Y-58400500D01*
X44057701Y-58373402D01*
X44222445Y-58319873D01*
X44376788Y-58241232D01*
X44516928Y-58139414D01*
X44639414Y-58016928D01*
X44741232Y-57876788D01*
X44819873Y-57722445D01*
X44873402Y-57557701D01*
X44900500Y-57386611D01*
X44900500Y-56413389D01*
X45239500Y-56413389D01*
X45239500Y-57386610D01*
X45262144Y-57529584D01*
X45266598Y-57557701D01*
X45320127Y-57722445D01*
X45398768Y-57876788D01*
X45500586Y-58016928D01*
X45623072Y-58139414D01*
X45763212Y-58241232D01*
X45917555Y-58319873D01*
X46082299Y-58373402D01*
X46253389Y-58400500D01*
X46253390Y-58400500D01*
X46426610Y-58400500D01*
X46426611Y-58400500D01*
X46597701Y-58373402D01*
X46762445Y-58319873D01*
X46916788Y-58241232D01*
X47056928Y-58139414D01*
X47179414Y-58016928D01*
X47281232Y-57876788D01*
X47359873Y-57722445D01*
X47413402Y-57557701D01*
X47440500Y-57386611D01*
X47440500Y-56413389D01*
X47413402Y-56242299D01*
X47359873Y-56077555D01*
X47281232Y-55923212D01*
X47179414Y-55783072D01*
X47056928Y-55660586D01*
X46916788Y-55558768D01*
X46762445Y-55480127D01*
X46597701Y-55426598D01*
X46597699Y-55426597D01*
X46597698Y-55426597D01*
X46466271Y-55405781D01*
X46426611Y-55399500D01*
X46253389Y-55399500D01*
X46213728Y-55405781D01*
X46082302Y-55426597D01*
X46082299Y-55426598D01*
X45970085Y-55463059D01*
X45917552Y-55480128D01*
X45763211Y-55558768D01*
X45709123Y-55598066D01*
X45623072Y-55660586D01*
X45623070Y-55660588D01*
X45623069Y-55660588D01*
X45500588Y-55783069D01*
X45500588Y-55783070D01*
X45500586Y-55783072D01*
X45500350Y-55783397D01*
X45398768Y-55923211D01*
X45320128Y-56077552D01*
X45266597Y-56242302D01*
X45239500Y-56413389D01*
X44900500Y-56413389D01*
X44873402Y-56242299D01*
X44819873Y-56077555D01*
X44741232Y-55923212D01*
X44639414Y-55783072D01*
X44516928Y-55660586D01*
X44376788Y-55558768D01*
X44222445Y-55480127D01*
X44057701Y-55426598D01*
X44057699Y-55426597D01*
X44057698Y-55426597D01*
X43926271Y-55405781D01*
X43886611Y-55399500D01*
X43713389Y-55399500D01*
X43673728Y-55405781D01*
X43542302Y-55426597D01*
X43542299Y-55426598D01*
X43430085Y-55463059D01*
X43377552Y-55480128D01*
X43223211Y-55558768D01*
X43169123Y-55598066D01*
X43083072Y-55660586D01*
X43083070Y-55660588D01*
X43083069Y-55660588D01*
X42960588Y-55783069D01*
X42960588Y-55783070D01*
X42960586Y-55783072D01*
X42960350Y-55783397D01*
X42858768Y-55923211D01*
X42780128Y-56077552D01*
X42726597Y-56242302D01*
X42699500Y-56413389D01*
X42360500Y-56413389D01*
X42333402Y-56242299D01*
X42279873Y-56077555D01*
X42201232Y-55923212D01*
X42099414Y-55783072D01*
X41976928Y-55660586D01*
X41836788Y-55558768D01*
X41682445Y-55480127D01*
X41517701Y-55426598D01*
X41517699Y-55426597D01*
X41517698Y-55426597D01*
X41386271Y-55405781D01*
X41346611Y-55399500D01*
X41173389Y-55399500D01*
X41133728Y-55405781D01*
X41002302Y-55426597D01*
X41002299Y-55426598D01*
X40890085Y-55463059D01*
X40837552Y-55480128D01*
X40683211Y-55558768D01*
X40629123Y-55598066D01*
X40543072Y-55660586D01*
X40543070Y-55660588D01*
X40543069Y-55660588D01*
X40420588Y-55783069D01*
X40420588Y-55783070D01*
X40420586Y-55783072D01*
X40420350Y-55783397D01*
X40318768Y-55923211D01*
X40240128Y-56077552D01*
X40186597Y-56242302D01*
X40159500Y-56413389D01*
X39820500Y-56413389D01*
X39793402Y-56242299D01*
X39739873Y-56077555D01*
X39661232Y-55923212D01*
X39559414Y-55783072D01*
X39436928Y-55660586D01*
X39296788Y-55558768D01*
X39142445Y-55480127D01*
X38977701Y-55426598D01*
X38977699Y-55426597D01*
X38977698Y-55426597D01*
X38846271Y-55405781D01*
X38806611Y-55399500D01*
X38633389Y-55399500D01*
X38593728Y-55405781D01*
X38462302Y-55426597D01*
X38462299Y-55426598D01*
X38350085Y-55463059D01*
X38297552Y-55480128D01*
X38143211Y-55558768D01*
X38089123Y-55598066D01*
X38003072Y-55660586D01*
X38003070Y-55660588D01*
X38003069Y-55660588D01*
X37880588Y-55783069D01*
X37880588Y-55783070D01*
X37880586Y-55783072D01*
X37880350Y-55783397D01*
X37778768Y-55923211D01*
X37700128Y-56077552D01*
X37646597Y-56242302D01*
X37619500Y-56413389D01*
X37280500Y-56413389D01*
X37253402Y-56242299D01*
X37199873Y-56077555D01*
X37121232Y-55923212D01*
X37019414Y-55783072D01*
X36896928Y-55660586D01*
X36756788Y-55558768D01*
X36602445Y-55480127D01*
X36437701Y-55426598D01*
X36437699Y-55426597D01*
X36437698Y-55426597D01*
X36306271Y-55405781D01*
X36266611Y-55399500D01*
X36093389Y-55399500D01*
X36053728Y-55405781D01*
X35922302Y-55426597D01*
X35922299Y-55426598D01*
X35810085Y-55463059D01*
X35757552Y-55480128D01*
X35603211Y-55558768D01*
X35549123Y-55598066D01*
X35463072Y-55660586D01*
X35463070Y-55660588D01*
X35463069Y-55660588D01*
X35340588Y-55783069D01*
X35340588Y-55783070D01*
X35340586Y-55783072D01*
X35340350Y-55783397D01*
X35238768Y-55923211D01*
X35160128Y-56077552D01*
X35106597Y-56242302D01*
X35079500Y-56413389D01*
X34740500Y-56413389D01*
X34713402Y-56242299D01*
X34659873Y-56077555D01*
X34581232Y-55923212D01*
X34479414Y-55783072D01*
X34356928Y-55660586D01*
X34216788Y-55558768D01*
X34161728Y-55530714D01*
X34062449Y-55480129D01*
X34062448Y-55480128D01*
X34062445Y-55480127D01*
X33897701Y-55426598D01*
X33897698Y-55426597D01*
X33895964Y-55426034D01*
X33838289Y-55386596D01*
X33811091Y-55322237D01*
X33823006Y-55253391D01*
X33846599Y-55220425D01*
X40451206Y-48615819D01*
X40512529Y-48582334D01*
X40538887Y-48579500D01*
X88194554Y-48579500D01*
X88194574Y-48579501D01*
X88200688Y-48579501D01*
X88349314Y-48579501D01*
X88470894Y-48555315D01*
X88470894Y-48555316D01*
X88470900Y-48555313D01*
X88495080Y-48550505D01*
X88530942Y-48535649D01*
X88551944Y-48526951D01*
X88551947Y-48526949D01*
X88551955Y-48526946D01*
X88632389Y-48493630D01*
X88755966Y-48411059D01*
X93008147Y-44158875D01*
X93069468Y-44125392D01*
X93106629Y-44123030D01*
X93251003Y-44135661D01*
X93269999Y-44137323D01*
X93270000Y-44137323D01*
X93270002Y-44137323D01*
X93325151Y-44132498D01*
X93490068Y-44118070D01*
X93703450Y-44060894D01*
X93903662Y-43967534D01*
X94084620Y-43840826D01*
X94240826Y-43684620D01*
X94367534Y-43503662D01*
X94427618Y-43374811D01*
X94473790Y-43322371D01*
X94540983Y-43303219D01*
X94607865Y-43323435D01*
X94652382Y-43374811D01*
X94712464Y-43503658D01*
X94712468Y-43503666D01*
X94839170Y-43684615D01*
X94839175Y-43684621D01*
X94995378Y-43840824D01*
X94995384Y-43840829D01*
X95176333Y-43967531D01*
X95176335Y-43967532D01*
X95176338Y-43967534D01*
X95376550Y-44060894D01*
X95589932Y-44118070D01*
X95747123Y-44131822D01*
X95809998Y-44137323D01*
X95810000Y-44137323D01*
X95810002Y-44137323D01*
X95865151Y-44132498D01*
X96030068Y-44118070D01*
X96243450Y-44060894D01*
X96443662Y-43967534D01*
X96624620Y-43840826D01*
X96780826Y-43684620D01*
X96861927Y-43568795D01*
X96916501Y-43525172D01*
X96985999Y-43517978D01*
X97048354Y-43549500D01*
X97083769Y-43609730D01*
X97087500Y-43639917D01*
X97087500Y-43679868D01*
X97087501Y-43679876D01*
X97093908Y-43739483D01*
X97144202Y-43874328D01*
X97144206Y-43874335D01*
X97230452Y-43989544D01*
X97230455Y-43989547D01*
X97345664Y-44075793D01*
X97345671Y-44075797D01*
X97480517Y-44126091D01*
X97480516Y-44126091D01*
X97487444Y-44126835D01*
X97540127Y-44132500D01*
X99159872Y-44132499D01*
X99219483Y-44126091D01*
X99354331Y-44075796D01*
X99469546Y-43989546D01*
X99555796Y-43874331D01*
X99606091Y-43739483D01*
X99612500Y-43679873D01*
X99612499Y-42060128D01*
X99606091Y-42000517D01*
X99555796Y-41865669D01*
X99555795Y-41865668D01*
X99555793Y-41865664D01*
X99469547Y-41750455D01*
X99469544Y-41750452D01*
X99354335Y-41664206D01*
X99354328Y-41664202D01*
X99219482Y-41613908D01*
X99219483Y-41613908D01*
X99159883Y-41607501D01*
X99159881Y-41607500D01*
X99159873Y-41607500D01*
X99159865Y-41607500D01*
X97993452Y-41607500D01*
X97926413Y-41587815D01*
X97905771Y-41571181D01*
X94090198Y-37755608D01*
X94090178Y-37755586D01*
X93998733Y-37664141D01*
X93947509Y-37629915D01*
X93896287Y-37595689D01*
X93896286Y-37595688D01*
X93896283Y-37595686D01*
X93896280Y-37595685D01*
X93815792Y-37562347D01*
X93782453Y-37548537D01*
X93772427Y-37546543D01*
X93722029Y-37536518D01*
X93661610Y-37524500D01*
X93661607Y-37524500D01*
X93661606Y-37524500D01*
X66000452Y-37524500D01*
X65933413Y-37504815D01*
X65912771Y-37488181D01*
X61630196Y-33205606D01*
X61596711Y-33144283D01*
X61601695Y-33074591D01*
X61643567Y-33018658D01*
X61698478Y-32995452D01*
X61793349Y-32980426D01*
X61837696Y-32973403D01*
X61837696Y-32973402D01*
X61837701Y-32973402D01*
X62002445Y-32919873D01*
X62156788Y-32841232D01*
X62296928Y-32739414D01*
X62419414Y-32616928D01*
X62521232Y-32476788D01*
X62599873Y-32322445D01*
X62653402Y-32157701D01*
X62680500Y-31986611D01*
X62680500Y-31335452D01*
X62700185Y-31268413D01*
X62716819Y-31247771D01*
X62807819Y-31156771D01*
X62869142Y-31123286D01*
X62938834Y-31128270D01*
X62994767Y-31170142D01*
X63019184Y-31235606D01*
X63019500Y-31244452D01*
X63019500Y-31986611D01*
X63046598Y-32157701D01*
X63100127Y-32322445D01*
X63178768Y-32476788D01*
X63280586Y-32616928D01*
X63403072Y-32739414D01*
X63543212Y-32841232D01*
X63697555Y-32919873D01*
X63862299Y-32973402D01*
X64033389Y-33000500D01*
X64033390Y-33000500D01*
X64206610Y-33000500D01*
X64206611Y-33000500D01*
X64377701Y-32973402D01*
X64542445Y-32919873D01*
X64696788Y-32841232D01*
X64836928Y-32739414D01*
X64959414Y-32616928D01*
X65061232Y-32476788D01*
X65139873Y-32322445D01*
X65193402Y-32157701D01*
X65220500Y-31986611D01*
X65220500Y-31013389D01*
X65193402Y-30842299D01*
X65139873Y-30677555D01*
X65115096Y-30628926D01*
X65090572Y-30580794D01*
X65077676Y-30512125D01*
X65103953Y-30447385D01*
X65161059Y-30407128D01*
X65201057Y-30400500D01*
X65578943Y-30400500D01*
X65645982Y-30420185D01*
X65691737Y-30472989D01*
X65701681Y-30542147D01*
X65689428Y-30580794D01*
X65640129Y-30677549D01*
X65586597Y-30842302D01*
X65585299Y-30850499D01*
X65559500Y-31013389D01*
X65559500Y-31986611D01*
X65586598Y-32157701D01*
X65640127Y-32322445D01*
X65718768Y-32476788D01*
X65820586Y-32616928D01*
X65943072Y-32739414D01*
X66083212Y-32841232D01*
X66237555Y-32919873D01*
X66402299Y-32973402D01*
X66573389Y-33000500D01*
X66573390Y-33000500D01*
X66746610Y-33000500D01*
X66746611Y-33000500D01*
X66917701Y-32973402D01*
X67082445Y-32919873D01*
X67236788Y-32841232D01*
X67376928Y-32739414D01*
X67499414Y-32616928D01*
X67601232Y-32476788D01*
X67679873Y-32322445D01*
X67733402Y-32157701D01*
X67760500Y-31986611D01*
X67760500Y-31013389D01*
X67733402Y-30842299D01*
X67679873Y-30677555D01*
X67655096Y-30628926D01*
X67630572Y-30580794D01*
X67617676Y-30512125D01*
X67643953Y-30447385D01*
X67701059Y-30407128D01*
X67741057Y-30400500D01*
X68118943Y-30400500D01*
X68185982Y-30420185D01*
X68231737Y-30472989D01*
X68241681Y-30542147D01*
X68229428Y-30580794D01*
X68180129Y-30677549D01*
X68126597Y-30842302D01*
X68125299Y-30850499D01*
X68099500Y-31013389D01*
X68099500Y-31986611D01*
X68126598Y-32157701D01*
X68180127Y-32322445D01*
X68258768Y-32476788D01*
X68360586Y-32616928D01*
X68483072Y-32739414D01*
X68623212Y-32841232D01*
X68777555Y-32919873D01*
X68942299Y-32973402D01*
X69113389Y-33000500D01*
X69113390Y-33000500D01*
X69286610Y-33000500D01*
X69286611Y-33000500D01*
X69457701Y-32973402D01*
X69622445Y-32919873D01*
X69776788Y-32841232D01*
X69916928Y-32739414D01*
X70039414Y-32616928D01*
X70141232Y-32476788D01*
X70219873Y-32322445D01*
X70273402Y-32157701D01*
X70300500Y-31986611D01*
X70300500Y-31013389D01*
X70273402Y-30842299D01*
X70219873Y-30677555D01*
X70195096Y-30628926D01*
X70170572Y-30580794D01*
X70157676Y-30512125D01*
X70183953Y-30447385D01*
X70241059Y-30407128D01*
X70281057Y-30400500D01*
X70658943Y-30400500D01*
X70725982Y-30420185D01*
X70771737Y-30472989D01*
X70781681Y-30542147D01*
X70769428Y-30580794D01*
X70720129Y-30677549D01*
X70666597Y-30842302D01*
X70665299Y-30850499D01*
X70639500Y-31013389D01*
X70639500Y-31986611D01*
X70666598Y-32157701D01*
X70720127Y-32322445D01*
X70798768Y-32476788D01*
X70900586Y-32616928D01*
X71023072Y-32739414D01*
X71163212Y-32841232D01*
X71317555Y-32919873D01*
X71482299Y-32973402D01*
X71653389Y-33000500D01*
X71653390Y-33000500D01*
X71826610Y-33000500D01*
X71826611Y-33000500D01*
X71997701Y-32973402D01*
X72162445Y-32919873D01*
X72316788Y-32841232D01*
X72456928Y-32739414D01*
X72579414Y-32616928D01*
X72681232Y-32476788D01*
X72759873Y-32322445D01*
X72813402Y-32157701D01*
X72840500Y-31986611D01*
X72840500Y-31013389D01*
X72813402Y-30842299D01*
X72759873Y-30677555D01*
X72735096Y-30628926D01*
X72710572Y-30580794D01*
X72697676Y-30512125D01*
X72723953Y-30447385D01*
X72781059Y-30407128D01*
X72821057Y-30400500D01*
X73198099Y-30400500D01*
X73265138Y-30420185D01*
X73310893Y-30472989D01*
X73320837Y-30542147D01*
X73308585Y-30580791D01*
X73284063Y-30628920D01*
X73257408Y-30681232D01*
X73203877Y-30845982D01*
X73176780Y-31017069D01*
X73176780Y-31990290D01*
X73203294Y-32157697D01*
X73203878Y-32161381D01*
X73257407Y-32326125D01*
X73336048Y-32480468D01*
X73437866Y-32620608D01*
X73560352Y-32743094D01*
X73700492Y-32844912D01*
X73854835Y-32923553D01*
X74019579Y-32977082D01*
X74190669Y-33004180D01*
X74190670Y-33004180D01*
X74363890Y-33004180D01*
X74363891Y-33004180D01*
X74534981Y-32977082D01*
X74699725Y-32923553D01*
X74854068Y-32844912D01*
X74994208Y-32743094D01*
X75116694Y-32620608D01*
X75218512Y-32480468D01*
X75297153Y-32326125D01*
X75350682Y-32161381D01*
X75377780Y-31990291D01*
X75377780Y-31017069D01*
X75350682Y-30845979D01*
X75297153Y-30681235D01*
X75245975Y-30580792D01*
X75233080Y-30512126D01*
X75259356Y-30447386D01*
X75316462Y-30407128D01*
X75356461Y-30400500D01*
X75738099Y-30400500D01*
X75805138Y-30420185D01*
X75850893Y-30472989D01*
X75860837Y-30542147D01*
X75848585Y-30580791D01*
X75824063Y-30628920D01*
X75797408Y-30681232D01*
X75743877Y-30845982D01*
X75716780Y-31017069D01*
X75716780Y-31990290D01*
X75743294Y-32157697D01*
X75743878Y-32161381D01*
X75797407Y-32326125D01*
X75876048Y-32480468D01*
X75977866Y-32620608D01*
X76100352Y-32743094D01*
X76240492Y-32844912D01*
X76394835Y-32923553D01*
X76559579Y-32977082D01*
X76730669Y-33004180D01*
X76730670Y-33004180D01*
X76903890Y-33004180D01*
X76903891Y-33004180D01*
X77074981Y-32977082D01*
X77239725Y-32923553D01*
X77394068Y-32844912D01*
X77534208Y-32743094D01*
X77656694Y-32620608D01*
X77758512Y-32480468D01*
X77837153Y-32326125D01*
X77890682Y-32161381D01*
X77917780Y-31990291D01*
X77917780Y-31017069D01*
X77890682Y-30845979D01*
X77837153Y-30681235D01*
X77785975Y-30580792D01*
X77773080Y-30512126D01*
X77799356Y-30447386D01*
X77856462Y-30407128D01*
X77896461Y-30400500D01*
X87964548Y-30400500D01*
X88031587Y-30420185D01*
X88052229Y-30436819D01*
X88613181Y-30997771D01*
X88646666Y-31059094D01*
X88649500Y-31085452D01*
X88649500Y-32397870D01*
X88649501Y-32397876D01*
X88655908Y-32457483D01*
X88706202Y-32592328D01*
X88706206Y-32592335D01*
X88792452Y-32707544D01*
X88792455Y-32707547D01*
X88907664Y-32793793D01*
X88907671Y-32793797D01*
X89042517Y-32844091D01*
X89042516Y-32844091D01*
X89049444Y-32844835D01*
X89102127Y-32850500D01*
X90897872Y-32850499D01*
X90957483Y-32844091D01*
X91092331Y-32793796D01*
X91207546Y-32707546D01*
X91293796Y-32592331D01*
X91343002Y-32460401D01*
X91384872Y-32404468D01*
X91450337Y-32380050D01*
X91518610Y-32394901D01*
X91546865Y-32416053D01*
X91668917Y-32538105D01*
X91862421Y-32673600D01*
X92076507Y-32773429D01*
X92076516Y-32773433D01*
X92290000Y-32830634D01*
X92290000Y-31933012D01*
X92347007Y-31965925D01*
X92474174Y-32000000D01*
X92605826Y-32000000D01*
X92732993Y-31965925D01*
X92790000Y-31933012D01*
X92790000Y-32830633D01*
X93003483Y-32773433D01*
X93003492Y-32773429D01*
X93217578Y-32673600D01*
X93411082Y-32538105D01*
X93578105Y-32371082D01*
X93713600Y-32177578D01*
X93813429Y-31963492D01*
X93813432Y-31963486D01*
X93870636Y-31750000D01*
X92973012Y-31750000D01*
X93005925Y-31692993D01*
X93040000Y-31565826D01*
X93040000Y-31434174D01*
X93005925Y-31307007D01*
X92973012Y-31250000D01*
X93870636Y-31250000D01*
X93870635Y-31249999D01*
X93813432Y-31036513D01*
X93813429Y-31036507D01*
X93713600Y-30822422D01*
X93713599Y-30822420D01*
X93578113Y-30628926D01*
X93578108Y-30628920D01*
X93411082Y-30461894D01*
X93217578Y-30326399D01*
X93003492Y-30226570D01*
X93003486Y-30226567D01*
X92790000Y-30169364D01*
X92790000Y-31066988D01*
X92732993Y-31034075D01*
X92605826Y-31000000D01*
X92474174Y-31000000D01*
X92347007Y-31034075D01*
X92290000Y-31066988D01*
X92290000Y-30169364D01*
X92289999Y-30169364D01*
X92076513Y-30226567D01*
X92076507Y-30226570D01*
X91862422Y-30326399D01*
X91862420Y-30326400D01*
X91668926Y-30461886D01*
X91546865Y-30583947D01*
X91485542Y-30617431D01*
X91415850Y-30612447D01*
X91359917Y-30570575D01*
X91343002Y-30539598D01*
X91336890Y-30523212D01*
X91314018Y-30461886D01*
X91293797Y-30407671D01*
X91293793Y-30407664D01*
X91207547Y-30292455D01*
X91207544Y-30292452D01*
X91092335Y-30206206D01*
X91092328Y-30206202D01*
X90957482Y-30155908D01*
X90957483Y-30155908D01*
X90897883Y-30149501D01*
X90897881Y-30149500D01*
X90897873Y-30149500D01*
X90897865Y-30149500D01*
X89585453Y-30149500D01*
X89518414Y-30129815D01*
X89497772Y-30113181D01*
X88767928Y-29383338D01*
X88767925Y-29383334D01*
X88767925Y-29383335D01*
X88760858Y-29376268D01*
X88760858Y-29376267D01*
X88673733Y-29289142D01*
X88673732Y-29289141D01*
X88673731Y-29289140D01*
X88622509Y-29254915D01*
X88571286Y-29220688D01*
X88471309Y-29179277D01*
X88470208Y-29178821D01*
X88457454Y-29173537D01*
X88437403Y-29169549D01*
X88397029Y-29161518D01*
X88336610Y-29149500D01*
X88336607Y-29149500D01*
X88336606Y-29149500D01*
X63366606Y-29149500D01*
X63243393Y-29149500D01*
X63243388Y-29149500D01*
X63122555Y-29173535D01*
X63122547Y-29173537D01*
X63008716Y-29220687D01*
X62906265Y-29289142D01*
X62140819Y-30054588D01*
X62079496Y-30088073D01*
X62009804Y-30083089D01*
X62005691Y-30081470D01*
X62002452Y-30080128D01*
X61837698Y-30026597D01*
X61698476Y-30004547D01*
X61666611Y-29999500D01*
X61493389Y-29999500D01*
X61461524Y-30004547D01*
X61322302Y-30026597D01*
X61157552Y-30080128D01*
X61003211Y-30158768D01*
X60962017Y-30188698D01*
X60863072Y-30260586D01*
X60863070Y-30260588D01*
X60863069Y-30260588D01*
X60740588Y-30383069D01*
X60740588Y-30383070D01*
X60740586Y-30383072D01*
X60722719Y-30407664D01*
X60638768Y-30523211D01*
X60560128Y-30677552D01*
X60506597Y-30842302D01*
X60479500Y-31013389D01*
X60479500Y-31755548D01*
X60459815Y-31822587D01*
X60407011Y-31868342D01*
X60337853Y-31878286D01*
X60274297Y-31849261D01*
X60267819Y-31843229D01*
X60176819Y-31752229D01*
X60143334Y-31690906D01*
X60140500Y-31664548D01*
X60140500Y-31013389D01*
X60138379Y-31000000D01*
X60113402Y-30842299D01*
X60059873Y-30677555D01*
X59981232Y-30523212D01*
X59879414Y-30383072D01*
X59756928Y-30260586D01*
X59616788Y-30158768D01*
X59462445Y-30080127D01*
X59297701Y-30026598D01*
X59297699Y-30026597D01*
X59297697Y-30026597D01*
X59158479Y-30004547D01*
X59095344Y-29974618D01*
X59058413Y-29915306D01*
X59059411Y-29845444D01*
X59090194Y-29794395D01*
X60597772Y-28286819D01*
X60659095Y-28253334D01*
X60685453Y-28250500D01*
X95814548Y-28250500D01*
X95881587Y-28270185D01*
X95902229Y-28286819D01*
X98613181Y-30997772D01*
X98646666Y-31059095D01*
X98649500Y-31085453D01*
X98649500Y-32397870D01*
X98649501Y-32397876D01*
X98655908Y-32457483D01*
X98706202Y-32592328D01*
X98706206Y-32592335D01*
X98792452Y-32707544D01*
X98792455Y-32707547D01*
X98907664Y-32793793D01*
X98907671Y-32793797D01*
X99042517Y-32844091D01*
X99042516Y-32844091D01*
X99049444Y-32844835D01*
X99102127Y-32850500D01*
X100897872Y-32850499D01*
X100957483Y-32844091D01*
X101092331Y-32793796D01*
X101207546Y-32707546D01*
X101293796Y-32592331D01*
X101343002Y-32460401D01*
X101384872Y-32404468D01*
X101450337Y-32380050D01*
X101518610Y-32394901D01*
X101546865Y-32416053D01*
X101668917Y-32538105D01*
X101862421Y-32673600D01*
X102076507Y-32773429D01*
X102076516Y-32773433D01*
X102290000Y-32830634D01*
X102290000Y-31933012D01*
X102347007Y-31965925D01*
X102474174Y-32000000D01*
X102605826Y-32000000D01*
X102732993Y-31965925D01*
X102790000Y-31933012D01*
X102790000Y-32830633D01*
X103003483Y-32773433D01*
X103003492Y-32773429D01*
X103217578Y-32673600D01*
X103411082Y-32538105D01*
X103578105Y-32371082D01*
X103713600Y-32177578D01*
X103813429Y-31963492D01*
X103813432Y-31963486D01*
X103870636Y-31750000D01*
X102973012Y-31750000D01*
X103005925Y-31692993D01*
X103040000Y-31565826D01*
X103040000Y-31434174D01*
X103005925Y-31307007D01*
X102973012Y-31250000D01*
X103870636Y-31250000D01*
X103870635Y-31249999D01*
X103813432Y-31036513D01*
X103813429Y-31036507D01*
X103713600Y-30822422D01*
X103713599Y-30822420D01*
X103578113Y-30628926D01*
X103578108Y-30628920D01*
X103411082Y-30461894D01*
X103217578Y-30326399D01*
X103003492Y-30226570D01*
X103003486Y-30226567D01*
X102790000Y-30169364D01*
X102790000Y-31066988D01*
X102732993Y-31034075D01*
X102605826Y-31000000D01*
X102474174Y-31000000D01*
X102347007Y-31034075D01*
X102290000Y-31066988D01*
X102290000Y-30169364D01*
X102289999Y-30169364D01*
X102076513Y-30226567D01*
X102076507Y-30226570D01*
X101862422Y-30326399D01*
X101862420Y-30326400D01*
X101668926Y-30461886D01*
X101546865Y-30583947D01*
X101485542Y-30617431D01*
X101415850Y-30612447D01*
X101359917Y-30570575D01*
X101343002Y-30539598D01*
X101336890Y-30523212D01*
X101314018Y-30461886D01*
X101293797Y-30407671D01*
X101293793Y-30407664D01*
X101207547Y-30292455D01*
X101207544Y-30292452D01*
X101092335Y-30206206D01*
X101092328Y-30206202D01*
X100957482Y-30155908D01*
X100957483Y-30155908D01*
X100897883Y-30149501D01*
X100897881Y-30149500D01*
X100897873Y-30149500D01*
X100897865Y-30149500D01*
X99585453Y-30149500D01*
X99518414Y-30129815D01*
X99497772Y-30113181D01*
X96617928Y-27233338D01*
X96617925Y-27233334D01*
X96617925Y-27233335D01*
X96610858Y-27226268D01*
X96610858Y-27226267D01*
X96523733Y-27139142D01*
X96523732Y-27139141D01*
X96523731Y-27139140D01*
X96472509Y-27104915D01*
X96421287Y-27070689D01*
X96421286Y-27070688D01*
X96421283Y-27070686D01*
X96421280Y-27070685D01*
X96340792Y-27037347D01*
X96307453Y-27023537D01*
X96297427Y-27021543D01*
X96247029Y-27011518D01*
X96186610Y-26999500D01*
X96186607Y-26999500D01*
X96186606Y-26999500D01*
X60442741Y-26999500D01*
X60442721Y-26999499D01*
X60436607Y-26999499D01*
X60313394Y-26999499D01*
X60212597Y-27019548D01*
X60212592Y-27019548D01*
X60192549Y-27023536D01*
X60192547Y-27023536D01*
X60145397Y-27043067D01*
X60078719Y-27070685D01*
X60078717Y-27070686D01*
X59976266Y-27139141D01*
X59976263Y-27139144D01*
X57060819Y-30054589D01*
X56999496Y-30088074D01*
X56929804Y-30083090D01*
X56925691Y-30081471D01*
X56922452Y-30080129D01*
X56843694Y-30054539D01*
X56757701Y-30026598D01*
X56757699Y-30026597D01*
X56757698Y-30026597D01*
X56618476Y-30004547D01*
X56586611Y-29999500D01*
X56413389Y-29999500D01*
X56381524Y-30004547D01*
X56242302Y-30026597D01*
X56077552Y-30080128D01*
X55923211Y-30158768D01*
X55882017Y-30188698D01*
X55783072Y-30260586D01*
X55783070Y-30260588D01*
X55783069Y-30260588D01*
X55660588Y-30383069D01*
X55660588Y-30383070D01*
X55660586Y-30383072D01*
X55642719Y-30407664D01*
X55558768Y-30523211D01*
X55480128Y-30677552D01*
X55426597Y-30842302D01*
X55399500Y-31013389D01*
X55399500Y-31755548D01*
X55379815Y-31822587D01*
X55327011Y-31868342D01*
X55257853Y-31878286D01*
X55194297Y-31849261D01*
X55187819Y-31843229D01*
X55096819Y-31752229D01*
X55063334Y-31690906D01*
X55060500Y-31664548D01*
X55060500Y-31013389D01*
X55058379Y-31000000D01*
X55033402Y-30842299D01*
X54979873Y-30677555D01*
X54901232Y-30523212D01*
X54799414Y-30383072D01*
X54676928Y-30260586D01*
X54536788Y-30158768D01*
X54382445Y-30080127D01*
X54217701Y-30026598D01*
X54217699Y-30026597D01*
X54217698Y-30026597D01*
X54078476Y-30004547D01*
X54046611Y-29999500D01*
X53873389Y-29999500D01*
X53841524Y-30004547D01*
X53702302Y-30026597D01*
X53537552Y-30080128D01*
X53383211Y-30158768D01*
X53342017Y-30188698D01*
X53243072Y-30260586D01*
X53243070Y-30260588D01*
X53243069Y-30260588D01*
X53120588Y-30383069D01*
X53120588Y-30383070D01*
X53120586Y-30383072D01*
X53102719Y-30407664D01*
X53018768Y-30523211D01*
X52940128Y-30677552D01*
X52886597Y-30842302D01*
X52885299Y-30850499D01*
X52859500Y-31013389D01*
X52859500Y-31986611D01*
X52886598Y-32157701D01*
X52940127Y-32322445D01*
X53018768Y-32476788D01*
X53120586Y-32616928D01*
X53243072Y-32739414D01*
X53383212Y-32841232D01*
X53537555Y-32919873D01*
X53702299Y-32973402D01*
X53873389Y-33000500D01*
X53873390Y-33000500D01*
X54046610Y-33000500D01*
X54046611Y-33000500D01*
X54217701Y-32973402D01*
X54382445Y-32919873D01*
X54382455Y-32919867D01*
X54385684Y-32918531D01*
X54387014Y-32918387D01*
X54387079Y-32918367D01*
X54387083Y-32918380D01*
X54455153Y-32911061D01*
X54517633Y-32942335D01*
X54520820Y-32945410D01*
X64841016Y-43265606D01*
X64841045Y-43265637D01*
X64931263Y-43355855D01*
X64931267Y-43355858D01*
X65033707Y-43424307D01*
X65033713Y-43424310D01*
X65033714Y-43424311D01*
X65147548Y-43471463D01*
X65207971Y-43483481D01*
X65268393Y-43495500D01*
X65268394Y-43495500D01*
X84482200Y-43495500D01*
X84549239Y-43515185D01*
X84583775Y-43548376D01*
X84679174Y-43684620D01*
X84679175Y-43684621D01*
X84835378Y-43840824D01*
X84835384Y-43840829D01*
X85016333Y-43967531D01*
X85016335Y-43967532D01*
X85016338Y-43967534D01*
X85216550Y-44060894D01*
X85429932Y-44118070D01*
X85587123Y-44131822D01*
X85649998Y-44137323D01*
X85650000Y-44137323D01*
X85650002Y-44137323D01*
X85705151Y-44132498D01*
X85870068Y-44118070D01*
X86083450Y-44060894D01*
X86283662Y-43967534D01*
X86464620Y-43840826D01*
X86620826Y-43684620D01*
X86747534Y-43503662D01*
X86807618Y-43374811D01*
X86853790Y-43322371D01*
X86920983Y-43303219D01*
X86987865Y-43323435D01*
X87032382Y-43374811D01*
X87092464Y-43503658D01*
X87092468Y-43503666D01*
X87219170Y-43684615D01*
X87219175Y-43684621D01*
X87375378Y-43840824D01*
X87375384Y-43840829D01*
X87556333Y-43967531D01*
X87556335Y-43967532D01*
X87556338Y-43967534D01*
X87756550Y-44060894D01*
X87969932Y-44118070D01*
X88127123Y-44131822D01*
X88189998Y-44137323D01*
X88190000Y-44137323D01*
X88190002Y-44137323D01*
X88245151Y-44132498D01*
X88410068Y-44118070D01*
X88623450Y-44060894D01*
X88823662Y-43967534D01*
X89004620Y-43840826D01*
X89160826Y-43684620D01*
X89287534Y-43503662D01*
X89347894Y-43374218D01*
X89394066Y-43321779D01*
X89461259Y-43302627D01*
X89528141Y-43322843D01*
X89572658Y-43374219D01*
X89632898Y-43503405D01*
X89632901Y-43503411D01*
X89678258Y-43568187D01*
X89678259Y-43568188D01*
X90240504Y-43005942D01*
X90256619Y-43066081D01*
X90323498Y-43181920D01*
X90418080Y-43276502D01*
X90533919Y-43343381D01*
X90594057Y-43359494D01*
X90031810Y-43921740D01*
X90096590Y-43967099D01*
X90096592Y-43967100D01*
X90296715Y-44060419D01*
X90296729Y-44060424D01*
X90510013Y-44117573D01*
X90510024Y-44117575D01*
X90617879Y-44127011D01*
X90682948Y-44152463D01*
X90723927Y-44209054D01*
X90727805Y-44278816D01*
X90694753Y-44338220D01*
X87998794Y-47034181D01*
X87937471Y-47067666D01*
X87911113Y-47070500D01*
X40255446Y-47070500D01*
X40255426Y-47070499D01*
X40249312Y-47070499D01*
X40100688Y-47070499D01*
X40100686Y-47070499D01*
X39979105Y-47094684D01*
X39967012Y-47097089D01*
X39954922Y-47099494D01*
X39954920Y-47099495D01*
X39914703Y-47116153D01*
X39914701Y-47116153D01*
X39817616Y-47156366D01*
X39817603Y-47156373D01*
X39694034Y-47238940D01*
X39694030Y-47238943D01*
X31569792Y-55363181D01*
X31508469Y-55396666D01*
X31482111Y-55399500D01*
X30452129Y-55399500D01*
X30452123Y-55399501D01*
X30392516Y-55405908D01*
X30257671Y-55456202D01*
X30257664Y-55456206D01*
X30142455Y-55542452D01*
X30142452Y-55542455D01*
X30056206Y-55657664D01*
X30056202Y-55657671D01*
X30005908Y-55792517D01*
X29999501Y-55852116D01*
X29999500Y-55852135D01*
X29999500Y-57947870D01*
X29999501Y-57947876D01*
X30005908Y-58007483D01*
X30056202Y-58142328D01*
X30056206Y-58142335D01*
X30142452Y-58257544D01*
X30142455Y-58257547D01*
X30257664Y-58343793D01*
X30257673Y-58343798D01*
X30315632Y-58365415D01*
X30371566Y-58407285D01*
X30395984Y-58472749D01*
X30396300Y-58481597D01*
X30396300Y-59975556D01*
X30396299Y-59975582D01*
X30396299Y-60119309D01*
X30415471Y-60215687D01*
X30415471Y-60215689D01*
X30423341Y-60255254D01*
X30423344Y-60255266D01*
X30476386Y-60383323D01*
X30553401Y-60498585D01*
X30655736Y-60600920D01*
X30655758Y-60600940D01*
X30908380Y-60853562D01*
X30941865Y-60914885D01*
X30944699Y-60941243D01*
X30944699Y-60952021D01*
X30944700Y-60952042D01*
X30944700Y-75172671D01*
X30925015Y-75239710D01*
X30872211Y-75285465D01*
X30803053Y-75295409D01*
X30739497Y-75266384D01*
X30701723Y-75207606D01*
X30701220Y-75205845D01*
X30679776Y-75128614D01*
X30679773Y-75128603D01*
X30545299Y-74791098D01*
X30545298Y-74791095D01*
X30375117Y-74470100D01*
X30171227Y-74169386D01*
X29936021Y-73892479D01*
X29672254Y-73642625D01*
X29672244Y-73642617D01*
X29603635Y-73590462D01*
X29383019Y-73422755D01*
X29071708Y-73235445D01*
X29071707Y-73235444D01*
X29071703Y-73235442D01*
X29071699Y-73235440D01*
X28741979Y-73082896D01*
X28741974Y-73082894D01*
X28741969Y-73082892D01*
X28574143Y-73026344D01*
X28397669Y-72966883D01*
X28042845Y-72888781D01*
X27681660Y-72849500D01*
X27681659Y-72849500D01*
X27318341Y-72849500D01*
X27318339Y-72849500D01*
X26957154Y-72888781D01*
X26602330Y-72966883D01*
X26336178Y-73056560D01*
X26258031Y-73082892D01*
X26258028Y-73082893D01*
X26258020Y-73082896D01*
X25928300Y-73235440D01*
X25928287Y-73235447D01*
X25688428Y-73379765D01*
X25620837Y-73397461D01*
X25554408Y-73375804D01*
X25510233Y-73321672D01*
X25500500Y-73273515D01*
X25500500Y-31013428D01*
X30000000Y-31013428D01*
X30000000Y-31250000D01*
X30784314Y-31250000D01*
X30779920Y-31254394D01*
X30727259Y-31345606D01*
X30700000Y-31447339D01*
X30700000Y-31552661D01*
X30727259Y-31654394D01*
X30779920Y-31745606D01*
X30784314Y-31750000D01*
X30000000Y-31750000D01*
X30000000Y-31986571D01*
X30027085Y-32157584D01*
X30080591Y-32322257D01*
X30159195Y-32476524D01*
X30260967Y-32616602D01*
X30383397Y-32739032D01*
X30523475Y-32840804D01*
X30677744Y-32919408D01*
X30842415Y-32972914D01*
X30842414Y-32972914D01*
X30849999Y-32974115D01*
X30850000Y-32974114D01*
X30850000Y-31815686D01*
X30854394Y-31820080D01*
X30945606Y-31872741D01*
X31047339Y-31900000D01*
X31152661Y-31900000D01*
X31254394Y-31872741D01*
X31345606Y-31820080D01*
X31350000Y-31815686D01*
X31350000Y-32974115D01*
X31357584Y-32972914D01*
X31522255Y-32919408D01*
X31676524Y-32840804D01*
X31816602Y-32739032D01*
X31939032Y-32616602D01*
X32040804Y-32476524D01*
X32119408Y-32322257D01*
X32172914Y-32157584D01*
X32200000Y-31986571D01*
X32200000Y-31750000D01*
X31415686Y-31750000D01*
X31420080Y-31745606D01*
X31472741Y-31654394D01*
X31500000Y-31552661D01*
X31500000Y-31447339D01*
X31472741Y-31345606D01*
X31420080Y-31254394D01*
X31415686Y-31250000D01*
X32200000Y-31250000D01*
X32200000Y-31013428D01*
X32199994Y-31013389D01*
X32539500Y-31013389D01*
X32539500Y-31986611D01*
X32566598Y-32157701D01*
X32620127Y-32322445D01*
X32698768Y-32476788D01*
X32800586Y-32616928D01*
X32923072Y-32739414D01*
X33063212Y-32841232D01*
X33217555Y-32919873D01*
X33382299Y-32973402D01*
X33553389Y-33000500D01*
X33553390Y-33000500D01*
X33726610Y-33000500D01*
X33726611Y-33000500D01*
X33897701Y-32973402D01*
X34062445Y-32919873D01*
X34216788Y-32841232D01*
X34356928Y-32739414D01*
X34479414Y-32616928D01*
X34581232Y-32476788D01*
X34659873Y-32322445D01*
X34713402Y-32157701D01*
X34740500Y-31986611D01*
X34740500Y-31013389D01*
X35079500Y-31013389D01*
X35079500Y-31986611D01*
X35106598Y-32157701D01*
X35160127Y-32322445D01*
X35238768Y-32476788D01*
X35340586Y-32616928D01*
X35463072Y-32739414D01*
X35603212Y-32841232D01*
X35757555Y-32919873D01*
X35922299Y-32973402D01*
X36093389Y-33000500D01*
X36093390Y-33000500D01*
X36266610Y-33000500D01*
X36266611Y-33000500D01*
X36437701Y-32973402D01*
X36602445Y-32919873D01*
X36756788Y-32841232D01*
X36896928Y-32739414D01*
X37019414Y-32616928D01*
X37121232Y-32476788D01*
X37199873Y-32322445D01*
X37253402Y-32157701D01*
X37280500Y-31986611D01*
X37280500Y-31013389D01*
X37619500Y-31013389D01*
X37619500Y-31986611D01*
X37646598Y-32157701D01*
X37700127Y-32322445D01*
X37778768Y-32476788D01*
X37880586Y-32616928D01*
X38003072Y-32739414D01*
X38143212Y-32841232D01*
X38297555Y-32919873D01*
X38462299Y-32973402D01*
X38633389Y-33000500D01*
X38633390Y-33000500D01*
X38806610Y-33000500D01*
X38806611Y-33000500D01*
X38977701Y-32973402D01*
X39142445Y-32919873D01*
X39296788Y-32841232D01*
X39436928Y-32739414D01*
X39559414Y-32616928D01*
X39661232Y-32476788D01*
X39739873Y-32322445D01*
X39793402Y-32157701D01*
X39820500Y-31986611D01*
X39820500Y-31013389D01*
X40159500Y-31013389D01*
X40159500Y-31986611D01*
X40186598Y-32157701D01*
X40240127Y-32322445D01*
X40318768Y-32476788D01*
X40420586Y-32616928D01*
X40543072Y-32739414D01*
X40683212Y-32841232D01*
X40837555Y-32919873D01*
X41002299Y-32973402D01*
X41173389Y-33000500D01*
X41173390Y-33000500D01*
X41346610Y-33000500D01*
X41346611Y-33000500D01*
X41517701Y-32973402D01*
X41682445Y-32919873D01*
X41836788Y-32841232D01*
X41976928Y-32739414D01*
X42099414Y-32616928D01*
X42201232Y-32476788D01*
X42279873Y-32322445D01*
X42333402Y-32157701D01*
X42360500Y-31986611D01*
X42360500Y-31013389D01*
X42699500Y-31013389D01*
X42699500Y-31986611D01*
X42726598Y-32157701D01*
X42780127Y-32322445D01*
X42858768Y-32476788D01*
X42960586Y-32616928D01*
X43083072Y-32739414D01*
X43223212Y-32841232D01*
X43377555Y-32919873D01*
X43542299Y-32973402D01*
X43713389Y-33000500D01*
X43713390Y-33000500D01*
X43886610Y-33000500D01*
X43886611Y-33000500D01*
X44057701Y-32973402D01*
X44222445Y-32919873D01*
X44376788Y-32841232D01*
X44516928Y-32739414D01*
X44639414Y-32616928D01*
X44741232Y-32476788D01*
X44819873Y-32322445D01*
X44873402Y-32157701D01*
X44900500Y-31986611D01*
X44900500Y-31013428D01*
X45240000Y-31013428D01*
X45240000Y-31250000D01*
X46024314Y-31250000D01*
X46019920Y-31254394D01*
X45967259Y-31345606D01*
X45940000Y-31447339D01*
X45940000Y-31552661D01*
X45967259Y-31654394D01*
X46019920Y-31745606D01*
X46024314Y-31750000D01*
X45240000Y-31750000D01*
X45240000Y-31986571D01*
X45267085Y-32157584D01*
X45320591Y-32322257D01*
X45399195Y-32476524D01*
X45500967Y-32616602D01*
X45623397Y-32739032D01*
X45763475Y-32840804D01*
X45917744Y-32919408D01*
X46082415Y-32972914D01*
X46082414Y-32972914D01*
X46089999Y-32974115D01*
X46090000Y-32974114D01*
X46090000Y-31815686D01*
X46094394Y-31820080D01*
X46185606Y-31872741D01*
X46287339Y-31900000D01*
X46392661Y-31900000D01*
X46494394Y-31872741D01*
X46585606Y-31820080D01*
X46590000Y-31815686D01*
X46590000Y-32974115D01*
X46597584Y-32972914D01*
X46762255Y-32919408D01*
X46916524Y-32840804D01*
X47056602Y-32739032D01*
X47179032Y-32616602D01*
X47280804Y-32476524D01*
X47359408Y-32322257D01*
X47412914Y-32157584D01*
X47440000Y-31986571D01*
X47440000Y-31750000D01*
X46655686Y-31750000D01*
X46660080Y-31745606D01*
X46712741Y-31654394D01*
X46740000Y-31552661D01*
X46740000Y-31447339D01*
X46712741Y-31345606D01*
X46660080Y-31254394D01*
X46655686Y-31250000D01*
X47440000Y-31250000D01*
X47440000Y-31013428D01*
X47439994Y-31013389D01*
X47779500Y-31013389D01*
X47779500Y-31986611D01*
X47806598Y-32157701D01*
X47860127Y-32322445D01*
X47938768Y-32476788D01*
X48040586Y-32616928D01*
X48163072Y-32739414D01*
X48303212Y-32841232D01*
X48457555Y-32919873D01*
X48622299Y-32973402D01*
X48793389Y-33000500D01*
X48793390Y-33000500D01*
X48966610Y-33000500D01*
X48966611Y-33000500D01*
X49137701Y-32973402D01*
X49302445Y-32919873D01*
X49456788Y-32841232D01*
X49596928Y-32739414D01*
X49719414Y-32616928D01*
X49821232Y-32476788D01*
X49899873Y-32322445D01*
X49953402Y-32157701D01*
X49980500Y-31986611D01*
X49980500Y-31013389D01*
X50319500Y-31013389D01*
X50319500Y-31986611D01*
X50346598Y-32157701D01*
X50400127Y-32322445D01*
X50478768Y-32476788D01*
X50580586Y-32616928D01*
X50703072Y-32739414D01*
X50843212Y-32841232D01*
X50997555Y-32919873D01*
X51162299Y-32973402D01*
X51333389Y-33000500D01*
X51333390Y-33000500D01*
X51506610Y-33000500D01*
X51506611Y-33000500D01*
X51677701Y-32973402D01*
X51842445Y-32919873D01*
X51996788Y-32841232D01*
X52136928Y-32739414D01*
X52259414Y-32616928D01*
X52361232Y-32476788D01*
X52439873Y-32322445D01*
X52493402Y-32157701D01*
X52520500Y-31986611D01*
X52520500Y-31013389D01*
X52493402Y-30842299D01*
X52439873Y-30677555D01*
X52361232Y-30523212D01*
X52259414Y-30383072D01*
X52136928Y-30260586D01*
X51996788Y-30158768D01*
X51842445Y-30080127D01*
X51677701Y-30026598D01*
X51677699Y-30026597D01*
X51677698Y-30026597D01*
X51538476Y-30004547D01*
X51506611Y-29999500D01*
X51333389Y-29999500D01*
X51301524Y-30004547D01*
X51162302Y-30026597D01*
X50997552Y-30080128D01*
X50843211Y-30158768D01*
X50802017Y-30188698D01*
X50703072Y-30260586D01*
X50703070Y-30260588D01*
X50703069Y-30260588D01*
X50580588Y-30383069D01*
X50580588Y-30383070D01*
X50580586Y-30383072D01*
X50562719Y-30407664D01*
X50478768Y-30523211D01*
X50400128Y-30677552D01*
X50346597Y-30842302D01*
X50345299Y-30850499D01*
X50319500Y-31013389D01*
X49980500Y-31013389D01*
X49953402Y-30842299D01*
X49899873Y-30677555D01*
X49821232Y-30523212D01*
X49719414Y-30383072D01*
X49596928Y-30260586D01*
X49456788Y-30158768D01*
X49302445Y-30080127D01*
X49137701Y-30026598D01*
X49137699Y-30026597D01*
X49137698Y-30026597D01*
X48998476Y-30004547D01*
X48966611Y-29999500D01*
X48793389Y-29999500D01*
X48761524Y-30004547D01*
X48622302Y-30026597D01*
X48457552Y-30080128D01*
X48303211Y-30158768D01*
X48262017Y-30188698D01*
X48163072Y-30260586D01*
X48163070Y-30260588D01*
X48163069Y-30260588D01*
X48040588Y-30383069D01*
X48040588Y-30383070D01*
X48040586Y-30383072D01*
X48022719Y-30407664D01*
X47938768Y-30523211D01*
X47860128Y-30677552D01*
X47806597Y-30842302D01*
X47805299Y-30850499D01*
X47779500Y-31013389D01*
X47439994Y-31013389D01*
X47412914Y-30842415D01*
X47359408Y-30677742D01*
X47280804Y-30523475D01*
X47179032Y-30383397D01*
X47056602Y-30260967D01*
X46916524Y-30159195D01*
X46762257Y-30080591D01*
X46597589Y-30027087D01*
X46597581Y-30027085D01*
X46590000Y-30025884D01*
X46590000Y-31184314D01*
X46585606Y-31179920D01*
X46494394Y-31127259D01*
X46392661Y-31100000D01*
X46287339Y-31100000D01*
X46185606Y-31127259D01*
X46094394Y-31179920D01*
X46090000Y-31184314D01*
X46090000Y-30025884D01*
X46089999Y-30025884D01*
X46082418Y-30027085D01*
X46082410Y-30027087D01*
X45917742Y-30080591D01*
X45763475Y-30159195D01*
X45623397Y-30260967D01*
X45500967Y-30383397D01*
X45399195Y-30523475D01*
X45320591Y-30677742D01*
X45267085Y-30842415D01*
X45240000Y-31013428D01*
X44900500Y-31013428D01*
X44900500Y-31013389D01*
X44873402Y-30842299D01*
X44819873Y-30677555D01*
X44741232Y-30523212D01*
X44639414Y-30383072D01*
X44516928Y-30260586D01*
X44376788Y-30158768D01*
X44222445Y-30080127D01*
X44057701Y-30026598D01*
X44057699Y-30026597D01*
X44057698Y-30026597D01*
X43918476Y-30004547D01*
X43886611Y-29999500D01*
X43713389Y-29999500D01*
X43681524Y-30004547D01*
X43542302Y-30026597D01*
X43377552Y-30080128D01*
X43223211Y-30158768D01*
X43182017Y-30188698D01*
X43083072Y-30260586D01*
X43083070Y-30260588D01*
X43083069Y-30260588D01*
X42960588Y-30383069D01*
X42960588Y-30383070D01*
X42960586Y-30383072D01*
X42942719Y-30407664D01*
X42858768Y-30523211D01*
X42780128Y-30677552D01*
X42726597Y-30842302D01*
X42725299Y-30850499D01*
X42699500Y-31013389D01*
X42360500Y-31013389D01*
X42333402Y-30842299D01*
X42279873Y-30677555D01*
X42201232Y-30523212D01*
X42099414Y-30383072D01*
X41976928Y-30260586D01*
X41836788Y-30158768D01*
X41682445Y-30080127D01*
X41517701Y-30026598D01*
X41517699Y-30026597D01*
X41517698Y-30026597D01*
X41378476Y-30004547D01*
X41346611Y-29999500D01*
X41173389Y-29999500D01*
X41141524Y-30004547D01*
X41002302Y-30026597D01*
X40837552Y-30080128D01*
X40683211Y-30158768D01*
X40642017Y-30188698D01*
X40543072Y-30260586D01*
X40543070Y-30260588D01*
X40543069Y-30260588D01*
X40420588Y-30383069D01*
X40420588Y-30383070D01*
X40420586Y-30383072D01*
X40402719Y-30407664D01*
X40318768Y-30523211D01*
X40240128Y-30677552D01*
X40186597Y-30842302D01*
X40185299Y-30850499D01*
X40159500Y-31013389D01*
X39820500Y-31013389D01*
X39793402Y-30842299D01*
X39739873Y-30677555D01*
X39661232Y-30523212D01*
X39559414Y-30383072D01*
X39436928Y-30260586D01*
X39296788Y-30158768D01*
X39142445Y-30080127D01*
X38977701Y-30026598D01*
X38977699Y-30026597D01*
X38977698Y-30026597D01*
X38838476Y-30004547D01*
X38806611Y-29999500D01*
X38633389Y-29999500D01*
X38601524Y-30004547D01*
X38462302Y-30026597D01*
X38297552Y-30080128D01*
X38143211Y-30158768D01*
X38102017Y-30188698D01*
X38003072Y-30260586D01*
X38003070Y-30260588D01*
X38003069Y-30260588D01*
X37880588Y-30383069D01*
X37880588Y-30383070D01*
X37880586Y-30383072D01*
X37862719Y-30407664D01*
X37778768Y-30523211D01*
X37700128Y-30677552D01*
X37646597Y-30842302D01*
X37645299Y-30850499D01*
X37619500Y-31013389D01*
X37280500Y-31013389D01*
X37253402Y-30842299D01*
X37199873Y-30677555D01*
X37121232Y-30523212D01*
X37019414Y-30383072D01*
X36896928Y-30260586D01*
X36756788Y-30158768D01*
X36602445Y-30080127D01*
X36437701Y-30026598D01*
X36437699Y-30026597D01*
X36437698Y-30026597D01*
X36298476Y-30004547D01*
X36266611Y-29999500D01*
X36093389Y-29999500D01*
X36061524Y-30004547D01*
X35922302Y-30026597D01*
X35757552Y-30080128D01*
X35603211Y-30158768D01*
X35562017Y-30188698D01*
X35463072Y-30260586D01*
X35463070Y-30260588D01*
X35463069Y-30260588D01*
X35340588Y-30383069D01*
X35340588Y-30383070D01*
X35340586Y-30383072D01*
X35322719Y-30407664D01*
X35238768Y-30523211D01*
X35160128Y-30677552D01*
X35106597Y-30842302D01*
X35105299Y-30850499D01*
X35079500Y-31013389D01*
X34740500Y-31013389D01*
X34713402Y-30842299D01*
X34659873Y-30677555D01*
X34581232Y-30523212D01*
X34479414Y-30383072D01*
X34356928Y-30260586D01*
X34216788Y-30158768D01*
X34062445Y-30080127D01*
X33897701Y-30026598D01*
X33897699Y-30026597D01*
X33897698Y-30026597D01*
X33758476Y-30004547D01*
X33726611Y-29999500D01*
X33553389Y-29999500D01*
X33521524Y-30004547D01*
X33382302Y-30026597D01*
X33217552Y-30080128D01*
X33063211Y-30158768D01*
X33022017Y-30188698D01*
X32923072Y-30260586D01*
X32923070Y-30260588D01*
X32923069Y-30260588D01*
X32800588Y-30383069D01*
X32800588Y-30383070D01*
X32800586Y-30383072D01*
X32782719Y-30407664D01*
X32698768Y-30523211D01*
X32620128Y-30677552D01*
X32566597Y-30842302D01*
X32565299Y-30850499D01*
X32539500Y-31013389D01*
X32199994Y-31013389D01*
X32172914Y-30842415D01*
X32119408Y-30677742D01*
X32040804Y-30523475D01*
X31939032Y-30383397D01*
X31816602Y-30260967D01*
X31676524Y-30159195D01*
X31522257Y-30080591D01*
X31357589Y-30027087D01*
X31357581Y-30027085D01*
X31350000Y-30025884D01*
X31350000Y-31184314D01*
X31345606Y-31179920D01*
X31254394Y-31127259D01*
X31152661Y-31100000D01*
X31047339Y-31100000D01*
X30945606Y-31127259D01*
X30854394Y-31179920D01*
X30850000Y-31184314D01*
X30850000Y-30025884D01*
X30849999Y-30025884D01*
X30842418Y-30027085D01*
X30842410Y-30027087D01*
X30677742Y-30080591D01*
X30523475Y-30159195D01*
X30383397Y-30260967D01*
X30260967Y-30383397D01*
X30159195Y-30523475D01*
X30080591Y-30677742D01*
X30027085Y-30842415D01*
X30000000Y-31013428D01*
X25500500Y-31013428D01*
X25500500Y-30401483D01*
X25520185Y-30334444D01*
X25572989Y-30288689D01*
X25642147Y-30278745D01*
X25688425Y-30295231D01*
X25928292Y-30439555D01*
X25928294Y-30439556D01*
X25928296Y-30439557D01*
X25928300Y-30439559D01*
X26150841Y-30542517D01*
X26258031Y-30592108D01*
X26602330Y-30708116D01*
X26957153Y-30786218D01*
X27318341Y-30825500D01*
X27318347Y-30825500D01*
X27681653Y-30825500D01*
X27681659Y-30825500D01*
X28042847Y-30786218D01*
X28397670Y-30708116D01*
X28741969Y-30592108D01*
X29071708Y-30439555D01*
X29383019Y-30252245D01*
X29672254Y-30032375D01*
X29936021Y-29782521D01*
X30171227Y-29505614D01*
X30375117Y-29204900D01*
X30545298Y-28883905D01*
X30679775Y-28546391D01*
X30776973Y-28196316D01*
X30831650Y-27862799D01*
X30835749Y-27837799D01*
X30835751Y-27837782D01*
X30838892Y-27779862D01*
X30855421Y-27475000D01*
X30835751Y-27112215D01*
X30834554Y-27104915D01*
X30776975Y-26753696D01*
X30776974Y-26753695D01*
X30776973Y-26753684D01*
X30714975Y-26530388D01*
X30679778Y-26403618D01*
X30679773Y-26403603D01*
X30545299Y-26066098D01*
X30545298Y-26066095D01*
X30375117Y-25745100D01*
X30340528Y-25694085D01*
X30319200Y-25627553D01*
X30337227Y-25560050D01*
X30388889Y-25513008D01*
X30443162Y-25500500D01*
X119573788Y-25500500D01*
X119640827Y-25520185D01*
G37*
%TD.AperFunction*%
%TA.AperFunction,Conductor*%
G36*
X48264075Y-78860493D02*
G01*
X48329901Y-78974507D01*
X48422993Y-79067599D01*
X48537007Y-79133425D01*
X48600590Y-79150462D01*
X47939040Y-79812012D01*
X47939040Y-79812014D01*
X47967677Y-79834303D01*
X47967683Y-79834307D01*
X48170131Y-79943867D01*
X48170140Y-79943870D01*
X48387849Y-80018610D01*
X48614905Y-80056500D01*
X48697048Y-80056500D01*
X48764087Y-80076185D01*
X48809842Y-80128989D01*
X48819786Y-80198147D01*
X48790761Y-80261703D01*
X48784729Y-80268181D01*
X48689729Y-80363181D01*
X48628406Y-80396666D01*
X48602048Y-80399500D01*
X43935453Y-80399500D01*
X43868414Y-80379815D01*
X43847772Y-80363181D01*
X43743899Y-80259308D01*
X43710414Y-80197985D01*
X43715398Y-80128293D01*
X43757270Y-80072360D01*
X43811169Y-80049318D01*
X43992271Y-80019098D01*
X44210069Y-79944328D01*
X44412589Y-79834729D01*
X44594308Y-79693292D01*
X44750269Y-79523873D01*
X44800501Y-79446987D01*
X44816191Y-79422972D01*
X44869337Y-79377615D01*
X44938569Y-79368191D01*
X45001905Y-79397693D01*
X45023809Y-79422972D01*
X45089728Y-79523870D01*
X45089731Y-79523873D01*
X45245692Y-79693292D01*
X45303638Y-79738393D01*
X45426868Y-79834307D01*
X45427411Y-79834729D01*
X45629931Y-79944328D01*
X45682046Y-79962219D01*
X45847725Y-80019097D01*
X45847727Y-80019097D01*
X45847729Y-80019098D01*
X46074863Y-80057000D01*
X46074864Y-80057000D01*
X46305136Y-80057000D01*
X46305137Y-80057000D01*
X46532271Y-80019098D01*
X46533693Y-80018610D01*
X46540662Y-80016217D01*
X46750069Y-79944328D01*
X46952589Y-79834729D01*
X47134308Y-79693292D01*
X47290269Y-79523873D01*
X47356490Y-79422513D01*
X47409636Y-79377157D01*
X47478868Y-79367733D01*
X47542203Y-79397235D01*
X47564108Y-79422513D01*
X47586760Y-79457184D01*
X48247036Y-78796907D01*
X48264075Y-78860493D01*
G37*
%TD.AperFunction*%
%TA.AperFunction,Conductor*%
G36*
X88515982Y-54270067D02*
G01*
X88565909Y-54300499D01*
X96738181Y-62472771D01*
X96771666Y-62534094D01*
X96774500Y-62560452D01*
X96774500Y-77327194D01*
X96754815Y-77394233D01*
X96709520Y-77436246D01*
X96637411Y-77475271D01*
X96637409Y-77475271D01*
X96637406Y-77475274D01*
X96455694Y-77616706D01*
X96455689Y-77616711D01*
X96299727Y-77786131D01*
X96233508Y-77887487D01*
X96180362Y-77932843D01*
X96111131Y-77942267D01*
X96047795Y-77912765D01*
X96025892Y-77887487D01*
X96003238Y-77852813D01*
X95342962Y-78513089D01*
X95325925Y-78449507D01*
X95260099Y-78335493D01*
X95167007Y-78242401D01*
X95052993Y-78176575D01*
X94989409Y-78159537D01*
X95650958Y-77497986D01*
X95650958Y-77497984D01*
X95622322Y-77475696D01*
X95622316Y-77475692D01*
X95419868Y-77366132D01*
X95419859Y-77366129D01*
X95202150Y-77291389D01*
X94975095Y-77253500D01*
X94744905Y-77253500D01*
X94517849Y-77291389D01*
X94300140Y-77366129D01*
X94300132Y-77366132D01*
X94097681Y-77475694D01*
X94069040Y-77497985D01*
X94069040Y-77497987D01*
X94730591Y-78159537D01*
X94667007Y-78176575D01*
X94552993Y-78242401D01*
X94459901Y-78335493D01*
X94394075Y-78449507D01*
X94377037Y-78513091D01*
X93716760Y-77852814D01*
X93694108Y-77887486D01*
X93640961Y-77932842D01*
X93571730Y-77942266D01*
X93508394Y-77912764D01*
X93486490Y-77887486D01*
X93481018Y-77879111D01*
X93420269Y-77786127D01*
X93264308Y-77616708D01*
X93186983Y-77556524D01*
X93082591Y-77475272D01*
X92880069Y-77365672D01*
X92880061Y-77365669D01*
X92662274Y-77290902D01*
X92466988Y-77258315D01*
X92435137Y-77253000D01*
X92204863Y-77253000D01*
X92173012Y-77258315D01*
X91977725Y-77290902D01*
X91759938Y-77365669D01*
X91759930Y-77365672D01*
X91557408Y-77475272D01*
X91375694Y-77616706D01*
X91375689Y-77616711D01*
X91219728Y-77786129D01*
X91093782Y-77978905D01*
X91001282Y-78189785D01*
X90944753Y-78413015D01*
X90925738Y-78642494D01*
X90925738Y-78642505D01*
X90944753Y-78871984D01*
X91001282Y-79095214D01*
X91093782Y-79306094D01*
X91219728Y-79498870D01*
X91219731Y-79498873D01*
X91231095Y-79511218D01*
X91235973Y-79516516D01*
X91266896Y-79579171D01*
X91259036Y-79648597D01*
X91214889Y-79702753D01*
X91148472Y-79724444D01*
X91144744Y-79724500D01*
X65850952Y-79724500D01*
X65783913Y-79704815D01*
X65763271Y-79688181D01*
X63005698Y-76930608D01*
X63005678Y-76930586D01*
X62914233Y-76839141D01*
X62863009Y-76804915D01*
X62811786Y-76770688D01*
X62811783Y-76770686D01*
X62811780Y-76770685D01*
X62731292Y-76737347D01*
X62697953Y-76723537D01*
X62687927Y-76721543D01*
X62637529Y-76711518D01*
X62577110Y-76699500D01*
X62577107Y-76699500D01*
X62577106Y-76699500D01*
X47600241Y-76699500D01*
X47600221Y-76699499D01*
X47594107Y-76699499D01*
X47470894Y-76699499D01*
X47370097Y-76719548D01*
X47370092Y-76719548D01*
X47350049Y-76723536D01*
X47350047Y-76723536D01*
X47302897Y-76743067D01*
X47236219Y-76770685D01*
X47236217Y-76770686D01*
X47133766Y-76839141D01*
X47133763Y-76839144D01*
X46679862Y-77293046D01*
X46618539Y-77326531D01*
X46551919Y-77322647D01*
X46532271Y-77315901D01*
X46330450Y-77282224D01*
X46305137Y-77278000D01*
X46223451Y-77278000D01*
X46156412Y-77258315D01*
X46110657Y-77205511D01*
X46100713Y-77136353D01*
X46129738Y-77072797D01*
X46135770Y-77066319D01*
X59265271Y-63936819D01*
X59326594Y-63903334D01*
X59352952Y-63900500D01*
X60343817Y-63900500D01*
X60410856Y-63920185D01*
X60456611Y-63972989D01*
X60466555Y-64042147D01*
X60437530Y-64105703D01*
X60408247Y-64130446D01*
X60355877Y-64162293D01*
X60215853Y-64247444D01*
X59992950Y-64428789D01*
X59796812Y-64638799D01*
X59631098Y-64873564D01*
X59498894Y-65128706D01*
X59402667Y-65399462D01*
X59402666Y-65399465D01*
X59344201Y-65680819D01*
X59324592Y-65967500D01*
X59344201Y-66254180D01*
X59402666Y-66535534D01*
X59402667Y-66535537D01*
X59498894Y-66806293D01*
X59498893Y-66806293D01*
X59631098Y-67061435D01*
X59796812Y-67296200D01*
X59881923Y-67387331D01*
X59992947Y-67506208D01*
X60215853Y-67687555D01*
X60420264Y-67811861D01*
X60461382Y-67836865D01*
X60648237Y-67918026D01*
X60724942Y-67951344D01*
X61001642Y-68028871D01*
X61251920Y-68063271D01*
X61286321Y-68068000D01*
X61286322Y-68068000D01*
X61573679Y-68068000D01*
X61604370Y-68063781D01*
X61858358Y-68028871D01*
X62135058Y-67951344D01*
X62248015Y-67902279D01*
X62398617Y-67836865D01*
X62398620Y-67836863D01*
X62398625Y-67836861D01*
X62644147Y-67687555D01*
X62867053Y-67506208D01*
X63063189Y-67296198D01*
X63228901Y-67061436D01*
X63361104Y-66806297D01*
X63457334Y-66535532D01*
X63515798Y-66254186D01*
X63535408Y-65967500D01*
X63533698Y-65942500D01*
X90214592Y-65942500D01*
X90234201Y-66229180D01*
X90292666Y-66510534D01*
X90292667Y-66510537D01*
X90388894Y-66781293D01*
X90388893Y-66781293D01*
X90521098Y-67036435D01*
X90686812Y-67271200D01*
X90710159Y-67296198D01*
X90882947Y-67481208D01*
X90913679Y-67506210D01*
X91105853Y-67662555D01*
X91351382Y-67811865D01*
X91538237Y-67893026D01*
X91614942Y-67926344D01*
X91891642Y-68003871D01*
X92141920Y-68038271D01*
X92176321Y-68043000D01*
X92176322Y-68043000D01*
X92463679Y-68043000D01*
X92494370Y-68038781D01*
X92748358Y-68003871D01*
X93025058Y-67926344D01*
X93138015Y-67877279D01*
X93288617Y-67811865D01*
X93288620Y-67811863D01*
X93288625Y-67811861D01*
X93534147Y-67662555D01*
X93757053Y-67481208D01*
X93953189Y-67271198D01*
X94118901Y-67036436D01*
X94251104Y-66781297D01*
X94347334Y-66510532D01*
X94405798Y-66229186D01*
X94425408Y-65942500D01*
X94405798Y-65655814D01*
X94347334Y-65374468D01*
X94251105Y-65103706D01*
X94251106Y-65103706D01*
X94118901Y-64848564D01*
X93953187Y-64613799D01*
X93874554Y-64529605D01*
X93757053Y-64403792D01*
X93534147Y-64222445D01*
X93534146Y-64222444D01*
X93288617Y-64073134D01*
X93025063Y-63958658D01*
X93025061Y-63958657D01*
X93025058Y-63958656D01*
X92887752Y-63920185D01*
X92748364Y-63881130D01*
X92748359Y-63881129D01*
X92748358Y-63881129D01*
X92606018Y-63861564D01*
X92463679Y-63842000D01*
X92463678Y-63842000D01*
X92176322Y-63842000D01*
X92176321Y-63842000D01*
X91891642Y-63881129D01*
X91891635Y-63881130D01*
X91692880Y-63936819D01*
X91614942Y-63958656D01*
X91614939Y-63958656D01*
X91614936Y-63958658D01*
X91614935Y-63958658D01*
X91351382Y-64073134D01*
X91105853Y-64222444D01*
X90882950Y-64403789D01*
X90686812Y-64613799D01*
X90521098Y-64848564D01*
X90388894Y-65103706D01*
X90292667Y-65374462D01*
X90292666Y-65374465D01*
X90234201Y-65655819D01*
X90214592Y-65942500D01*
X63533698Y-65942500D01*
X63515798Y-65680814D01*
X63457334Y-65399468D01*
X63361105Y-65128706D01*
X63361106Y-65128706D01*
X63228901Y-64873564D01*
X63063187Y-64638799D01*
X62984554Y-64554605D01*
X62867053Y-64428792D01*
X62644147Y-64247445D01*
X62644146Y-64247444D01*
X62545703Y-64187579D01*
X62451753Y-64130447D01*
X62404702Y-64078796D01*
X62393045Y-64009906D01*
X62420483Y-63945649D01*
X62478305Y-63906427D01*
X62516183Y-63900500D01*
X78011607Y-63900500D01*
X78072029Y-63888481D01*
X78132452Y-63876463D01*
X78132455Y-63876461D01*
X78132458Y-63876461D01*
X78165787Y-63862654D01*
X78165786Y-63862654D01*
X78165792Y-63862652D01*
X78246286Y-63829312D01*
X78297509Y-63795084D01*
X78348733Y-63760858D01*
X78435858Y-63673733D01*
X78435858Y-63673731D01*
X78446066Y-63663524D01*
X78446067Y-63663521D01*
X86578940Y-55530649D01*
X86640261Y-55497166D01*
X86709953Y-55502150D01*
X86735507Y-55515228D01*
X86758681Y-55530712D01*
X86758684Y-55530713D01*
X86758684Y-55530714D01*
X86870587Y-55577062D01*
X86921301Y-55598068D01*
X87093937Y-55632401D01*
X87269955Y-55632392D01*
X87442588Y-55598041D01*
X87605201Y-55530668D01*
X87751544Y-55432864D01*
X87811139Y-55373256D01*
X87811140Y-55373257D01*
X87811144Y-55373250D01*
X87906597Y-55277796D01*
X87906621Y-55277774D01*
X87944638Y-55239777D01*
X87944730Y-55239664D01*
X87956261Y-55228133D01*
X87956560Y-55227801D01*
X87970630Y-55213736D01*
X88068434Y-55067397D01*
X88135807Y-54904788D01*
X88170159Y-54732159D01*
X88170169Y-54556145D01*
X88158905Y-54499507D01*
X88146895Y-54439114D01*
X88153125Y-54369522D01*
X88195990Y-54314347D01*
X88257703Y-54291399D01*
X88410068Y-54278070D01*
X88446133Y-54268406D01*
X88515982Y-54270067D01*
G37*
%TD.AperFunction*%
%TA.AperFunction,Conductor*%
G36*
X91781741Y-53728188D02*
G01*
X91827094Y-53663417D01*
X91827095Y-53663416D01*
X91887340Y-53534219D01*
X91933512Y-53481780D01*
X92000706Y-53462627D01*
X92067587Y-53482842D01*
X92112105Y-53534218D01*
X92172466Y-53663662D01*
X92172468Y-53663666D01*
X92299170Y-53844615D01*
X92299175Y-53844621D01*
X92455378Y-54000824D01*
X92455384Y-54000829D01*
X92636333Y-54127531D01*
X92636335Y-54127532D01*
X92636338Y-54127534D01*
X92836550Y-54220894D01*
X93049932Y-54278070D01*
X93178615Y-54289328D01*
X93269998Y-54297323D01*
X93270000Y-54297323D01*
X93270002Y-54297323D01*
X93337713Y-54291399D01*
X93490068Y-54278070D01*
X93703450Y-54220894D01*
X93903662Y-54127534D01*
X94084620Y-54000826D01*
X94240826Y-53844620D01*
X94367534Y-53663662D01*
X94427618Y-53534811D01*
X94473790Y-53482371D01*
X94540983Y-53463219D01*
X94607865Y-53483435D01*
X94652382Y-53534811D01*
X94712464Y-53663658D01*
X94712468Y-53663666D01*
X94839170Y-53844615D01*
X94839175Y-53844621D01*
X94995378Y-54000824D01*
X94995384Y-54000829D01*
X95176333Y-54127531D01*
X95176335Y-54127532D01*
X95176338Y-54127534D01*
X95376550Y-54220894D01*
X95589932Y-54278070D01*
X95718615Y-54289328D01*
X95809998Y-54297323D01*
X95810000Y-54297323D01*
X95810002Y-54297323D01*
X95840502Y-54294654D01*
X96030068Y-54278070D01*
X96070077Y-54267349D01*
X96139924Y-54269010D01*
X96189852Y-54299442D01*
X99217752Y-57327342D01*
X99251237Y-57388665D01*
X99246253Y-57458357D01*
X99204381Y-57514290D01*
X99177524Y-57529584D01*
X99092667Y-57564733D01*
X99092657Y-57564738D01*
X98946977Y-57662079D01*
X98946973Y-57662082D01*
X98823082Y-57785973D01*
X98823079Y-57785977D01*
X98725738Y-57931657D01*
X98725731Y-57931670D01*
X98658684Y-58093537D01*
X98658681Y-58093549D01*
X98624500Y-58265387D01*
X98624500Y-58572612D01*
X98658681Y-58744450D01*
X98658684Y-58744462D01*
X98725731Y-58906329D01*
X98725738Y-58906342D01*
X98823079Y-59052022D01*
X98823082Y-59052026D01*
X98946973Y-59175917D01*
X98946977Y-59175920D01*
X99092657Y-59273261D01*
X99092670Y-59273268D01*
X99237952Y-59333445D01*
X99292356Y-59377285D01*
X99314421Y-59443580D01*
X99314500Y-59448006D01*
X99314500Y-77327194D01*
X99294815Y-77394233D01*
X99249520Y-77436246D01*
X99177411Y-77475271D01*
X99177409Y-77475271D01*
X99177406Y-77475274D01*
X98995694Y-77616706D01*
X98995689Y-77616711D01*
X98839727Y-77786130D01*
X98773808Y-77887028D01*
X98720662Y-77932384D01*
X98651431Y-77941808D01*
X98588095Y-77912306D01*
X98566192Y-77887028D01*
X98500272Y-77786130D01*
X98463104Y-77745756D01*
X98344308Y-77616708D01*
X98163135Y-77475696D01*
X98162593Y-77475274D01*
X98162592Y-77475273D01*
X98162589Y-77475271D01*
X98090479Y-77436246D01*
X98040891Y-77387028D01*
X98025500Y-77327194D01*
X98025500Y-62188396D01*
X98025500Y-62188394D01*
X98001463Y-62067548D01*
X98001461Y-62067543D01*
X97981962Y-62020468D01*
X97981947Y-62020435D01*
X97981932Y-62020397D01*
X97954312Y-61953715D01*
X97937256Y-61928190D01*
X97885858Y-61851267D01*
X97885856Y-61851264D01*
X97795637Y-61761045D01*
X97795606Y-61761016D01*
X90534097Y-54499507D01*
X90500612Y-54438184D01*
X90505596Y-54368492D01*
X90547468Y-54312559D01*
X90612932Y-54288142D01*
X90632586Y-54288298D01*
X90729999Y-54296821D01*
X90730001Y-54296821D01*
X90949976Y-54277575D01*
X90949986Y-54277573D01*
X91163270Y-54220424D01*
X91163284Y-54220419D01*
X91363407Y-54127100D01*
X91363417Y-54127094D01*
X91428188Y-54081741D01*
X90865942Y-53519495D01*
X90926081Y-53503381D01*
X91041920Y-53436502D01*
X91136502Y-53341920D01*
X91203381Y-53226081D01*
X91219495Y-53165942D01*
X91781741Y-53728188D01*
G37*
%TD.AperFunction*%
%TA.AperFunction,Conductor*%
G36*
X57858834Y-31128270D02*
G01*
X57914767Y-31170142D01*
X57939184Y-31235606D01*
X57939500Y-31244452D01*
X57939500Y-31986611D01*
X57966598Y-32157701D01*
X58020127Y-32322445D01*
X58098768Y-32476788D01*
X58200586Y-32616928D01*
X58323072Y-32739414D01*
X58463212Y-32841232D01*
X58617555Y-32919873D01*
X58782299Y-32973402D01*
X58953389Y-33000500D01*
X58953390Y-33000500D01*
X59126610Y-33000500D01*
X59126611Y-33000500D01*
X59297701Y-32973402D01*
X59462445Y-32919873D01*
X59462455Y-32919867D01*
X59465684Y-32918531D01*
X59467014Y-32918387D01*
X59467079Y-32918367D01*
X59467083Y-32918380D01*
X59535153Y-32911061D01*
X59597633Y-32942335D01*
X59600820Y-32945410D01*
X65201016Y-38545606D01*
X65201045Y-38545637D01*
X65291263Y-38635855D01*
X65291267Y-38635858D01*
X65393707Y-38704307D01*
X65393713Y-38704310D01*
X65393714Y-38704311D01*
X65507548Y-38751463D01*
X65567971Y-38763481D01*
X65628393Y-38775500D01*
X65628394Y-38775500D01*
X93289548Y-38775500D01*
X93356587Y-38795185D01*
X93377229Y-38811819D01*
X95961517Y-41396107D01*
X95995002Y-41457430D01*
X95990018Y-41527122D01*
X95948146Y-41583055D01*
X95882682Y-41607472D01*
X95863029Y-41607316D01*
X95810002Y-41602677D01*
X95809998Y-41602677D01*
X95589937Y-41621929D01*
X95589929Y-41621930D01*
X95376554Y-41679104D01*
X95376550Y-41679106D01*
X95354103Y-41689572D01*
X95176340Y-41772465D01*
X95176338Y-41772466D01*
X94995377Y-41899175D01*
X94839175Y-42055377D01*
X94712466Y-42236338D01*
X94712465Y-42236340D01*
X94652382Y-42365189D01*
X94606209Y-42417628D01*
X94539016Y-42436780D01*
X94472135Y-42416564D01*
X94427618Y-42365189D01*
X94409059Y-42325390D01*
X94367534Y-42236339D01*
X94304180Y-42145859D01*
X94240827Y-42055381D01*
X94185962Y-42000516D01*
X94084620Y-41899174D01*
X94084616Y-41899171D01*
X94084615Y-41899170D01*
X93903666Y-41772468D01*
X93903662Y-41772466D01*
X93856457Y-41750454D01*
X93703450Y-41679106D01*
X93703447Y-41679105D01*
X93703445Y-41679104D01*
X93490070Y-41621930D01*
X93490062Y-41621929D01*
X93270002Y-41602677D01*
X93269998Y-41602677D01*
X93049937Y-41621929D01*
X93049929Y-41621930D01*
X92836554Y-41679104D01*
X92836550Y-41679106D01*
X92814103Y-41689572D01*
X92636340Y-41772465D01*
X92636338Y-41772466D01*
X92455377Y-41899175D01*
X92299175Y-42055377D01*
X92172467Y-42236337D01*
X92112105Y-42365782D01*
X92065932Y-42418221D01*
X91998738Y-42437372D01*
X91931857Y-42417156D01*
X91887341Y-42365780D01*
X91827098Y-42236589D01*
X91827097Y-42236587D01*
X91781741Y-42171811D01*
X91781740Y-42171810D01*
X91219494Y-42734056D01*
X91203381Y-42673919D01*
X91136502Y-42558080D01*
X91041920Y-42463498D01*
X90926081Y-42396619D01*
X90865942Y-42380505D01*
X91428188Y-41818259D01*
X91428187Y-41818258D01*
X91363411Y-41772901D01*
X91363405Y-41772898D01*
X91163284Y-41679580D01*
X91163270Y-41679575D01*
X90949986Y-41622426D01*
X90949976Y-41622424D01*
X90730001Y-41603179D01*
X90729999Y-41603179D01*
X90510023Y-41622424D01*
X90510013Y-41622426D01*
X90296729Y-41679575D01*
X90296720Y-41679579D01*
X90096590Y-41772901D01*
X90031811Y-41818258D01*
X90594057Y-42380504D01*
X90533919Y-42396619D01*
X90418080Y-42463498D01*
X90323498Y-42558080D01*
X90256619Y-42673919D01*
X90240504Y-42734057D01*
X89678258Y-42171811D01*
X89632901Y-42236590D01*
X89572658Y-42365781D01*
X89526485Y-42418220D01*
X89459292Y-42437372D01*
X89392411Y-42417156D01*
X89347894Y-42365781D01*
X89332906Y-42333639D01*
X89287534Y-42236339D01*
X89224180Y-42145859D01*
X89160827Y-42055381D01*
X89105962Y-42000516D01*
X89004620Y-41899174D01*
X89004616Y-41899171D01*
X89004615Y-41899170D01*
X88823666Y-41772468D01*
X88823662Y-41772466D01*
X88776457Y-41750454D01*
X88623450Y-41679106D01*
X88623447Y-41679105D01*
X88623445Y-41679104D01*
X88410070Y-41621930D01*
X88410062Y-41621929D01*
X88190002Y-41602677D01*
X88189998Y-41602677D01*
X87969937Y-41621929D01*
X87969929Y-41621930D01*
X87756554Y-41679104D01*
X87756550Y-41679106D01*
X87734103Y-41689572D01*
X87556340Y-41772465D01*
X87556338Y-41772466D01*
X87375377Y-41899175D01*
X87219175Y-42055377D01*
X87092466Y-42236338D01*
X87092465Y-42236340D01*
X87032382Y-42365189D01*
X86986209Y-42417628D01*
X86919016Y-42436780D01*
X86852135Y-42416564D01*
X86807618Y-42365189D01*
X86789059Y-42325390D01*
X86747534Y-42236339D01*
X86684180Y-42145859D01*
X86620827Y-42055381D01*
X86565962Y-42000516D01*
X86464620Y-41899174D01*
X86464616Y-41899171D01*
X86464615Y-41899170D01*
X86283666Y-41772468D01*
X86283662Y-41772466D01*
X86236457Y-41750454D01*
X86083450Y-41679106D01*
X86083447Y-41679105D01*
X86083445Y-41679104D01*
X85870070Y-41621930D01*
X85870062Y-41621929D01*
X85650002Y-41602677D01*
X85649998Y-41602677D01*
X85429937Y-41621929D01*
X85429929Y-41621930D01*
X85216554Y-41679104D01*
X85216550Y-41679106D01*
X85194103Y-41689572D01*
X85016340Y-41772465D01*
X85016338Y-41772466D01*
X84835377Y-41899175D01*
X84679175Y-42055377D01*
X84583776Y-42191623D01*
X84529199Y-42235248D01*
X84482201Y-42244500D01*
X65640452Y-42244500D01*
X65573413Y-42224815D01*
X65552771Y-42208181D01*
X56550196Y-33205606D01*
X56516711Y-33144283D01*
X56521695Y-33074591D01*
X56563567Y-33018658D01*
X56618478Y-32995452D01*
X56713349Y-32980426D01*
X56757696Y-32973403D01*
X56757696Y-32973402D01*
X56757701Y-32973402D01*
X56922445Y-32919873D01*
X57076788Y-32841232D01*
X57216928Y-32739414D01*
X57339414Y-32616928D01*
X57441232Y-32476788D01*
X57519873Y-32322445D01*
X57573402Y-32157701D01*
X57600500Y-31986611D01*
X57600500Y-31335452D01*
X57620185Y-31268413D01*
X57636819Y-31247771D01*
X57727819Y-31156771D01*
X57789142Y-31123286D01*
X57858834Y-31128270D01*
G37*
%TD.AperFunction*%
%TD*%
M02*
