%TF.GenerationSoftware,KiCad,Pcbnew,8.0.4*%
%TF.CreationDate,2024-08-26T16:46:39+08:00*%
%TF.ProjectId,ESP_Board_Test,4553505f-426f-4617-9264-5f546573742e,rev?*%
%TF.SameCoordinates,Original*%
%TF.FileFunction,Legend,Top*%
%TF.FilePolarity,Positive*%
%FSLAX46Y46*%
G04 Gerber Fmt 4.6, Leading zero omitted, Abs format (unit mm)*
G04 Created by KiCad (PCBNEW 8.0.4) date 2024-08-26 16:46:39*
%MOMM*%
%LPD*%
G01*
G04 APERTURE LIST*
%ADD10C,0.300000*%
%ADD11C,0.100000*%
%ADD12C,0.150000*%
%ADD13C,0.120000*%
%ADD14C,0.127000*%
%ADD15C,0.200000*%
G04 APERTURE END LIST*
D10*
X90961653Y-89332971D02*
X90890225Y-89404400D01*
X90890225Y-89404400D02*
X90675939Y-89475828D01*
X90675939Y-89475828D02*
X90533082Y-89475828D01*
X90533082Y-89475828D02*
X90318796Y-89404400D01*
X90318796Y-89404400D02*
X90175939Y-89261542D01*
X90175939Y-89261542D02*
X90104510Y-89118685D01*
X90104510Y-89118685D02*
X90033082Y-88832971D01*
X90033082Y-88832971D02*
X90033082Y-88618685D01*
X90033082Y-88618685D02*
X90104510Y-88332971D01*
X90104510Y-88332971D02*
X90175939Y-88190114D01*
X90175939Y-88190114D02*
X90318796Y-88047257D01*
X90318796Y-88047257D02*
X90533082Y-87975828D01*
X90533082Y-87975828D02*
X90675939Y-87975828D01*
X90675939Y-87975828D02*
X90890225Y-88047257D01*
X90890225Y-88047257D02*
X90961653Y-88118685D01*
X91604510Y-89475828D02*
X91604510Y-87975828D01*
X91604510Y-88690114D02*
X92461653Y-88690114D01*
X92461653Y-89475828D02*
X92461653Y-87975828D01*
X93890225Y-87975828D02*
X93175939Y-87975828D01*
X93175939Y-87975828D02*
X93104511Y-88690114D01*
X93104511Y-88690114D02*
X93175939Y-88618685D01*
X93175939Y-88618685D02*
X93318797Y-88547257D01*
X93318797Y-88547257D02*
X93675939Y-88547257D01*
X93675939Y-88547257D02*
X93818797Y-88618685D01*
X93818797Y-88618685D02*
X93890225Y-88690114D01*
X93890225Y-88690114D02*
X93961654Y-88832971D01*
X93961654Y-88832971D02*
X93961654Y-89190114D01*
X93961654Y-89190114D02*
X93890225Y-89332971D01*
X93890225Y-89332971D02*
X93818797Y-89404400D01*
X93818797Y-89404400D02*
X93675939Y-89475828D01*
X93675939Y-89475828D02*
X93318797Y-89475828D01*
X93318797Y-89475828D02*
X93175939Y-89404400D01*
X93175939Y-89404400D02*
X93104511Y-89332971D01*
X115961653Y-89332971D02*
X115890225Y-89404400D01*
X115890225Y-89404400D02*
X115675939Y-89475828D01*
X115675939Y-89475828D02*
X115533082Y-89475828D01*
X115533082Y-89475828D02*
X115318796Y-89404400D01*
X115318796Y-89404400D02*
X115175939Y-89261542D01*
X115175939Y-89261542D02*
X115104510Y-89118685D01*
X115104510Y-89118685D02*
X115033082Y-88832971D01*
X115033082Y-88832971D02*
X115033082Y-88618685D01*
X115033082Y-88618685D02*
X115104510Y-88332971D01*
X115104510Y-88332971D02*
X115175939Y-88190114D01*
X115175939Y-88190114D02*
X115318796Y-88047257D01*
X115318796Y-88047257D02*
X115533082Y-87975828D01*
X115533082Y-87975828D02*
X115675939Y-87975828D01*
X115675939Y-87975828D02*
X115890225Y-88047257D01*
X115890225Y-88047257D02*
X115961653Y-88118685D01*
X116604510Y-89475828D02*
X116604510Y-87975828D01*
X116604510Y-88690114D02*
X117461653Y-88690114D01*
X117461653Y-89475828D02*
X117461653Y-87975828D01*
X118033082Y-87975828D02*
X119033082Y-87975828D01*
X119033082Y-87975828D02*
X118390225Y-89475828D01*
D11*
X100606265Y-72086704D02*
X101082455Y-72086704D01*
X100511027Y-72372419D02*
X100844360Y-71372419D01*
X100844360Y-71372419D02*
X101177693Y-72372419D01*
X101511027Y-72372419D02*
X101511027Y-71372419D01*
X101511027Y-71372419D02*
X101749122Y-71372419D01*
X101749122Y-71372419D02*
X101891979Y-71420038D01*
X101891979Y-71420038D02*
X101987217Y-71515276D01*
X101987217Y-71515276D02*
X102034836Y-71610514D01*
X102034836Y-71610514D02*
X102082455Y-71800990D01*
X102082455Y-71800990D02*
X102082455Y-71943847D01*
X102082455Y-71943847D02*
X102034836Y-72134323D01*
X102034836Y-72134323D02*
X101987217Y-72229561D01*
X101987217Y-72229561D02*
X101891979Y-72324800D01*
X101891979Y-72324800D02*
X101749122Y-72372419D01*
X101749122Y-72372419D02*
X101511027Y-72372419D01*
X102463408Y-72324800D02*
X102606265Y-72372419D01*
X102606265Y-72372419D02*
X102844360Y-72372419D01*
X102844360Y-72372419D02*
X102939598Y-72324800D01*
X102939598Y-72324800D02*
X102987217Y-72277180D01*
X102987217Y-72277180D02*
X103034836Y-72181942D01*
X103034836Y-72181942D02*
X103034836Y-72086704D01*
X103034836Y-72086704D02*
X102987217Y-71991466D01*
X102987217Y-71991466D02*
X102939598Y-71943847D01*
X102939598Y-71943847D02*
X102844360Y-71896228D01*
X102844360Y-71896228D02*
X102653884Y-71848609D01*
X102653884Y-71848609D02*
X102558646Y-71800990D01*
X102558646Y-71800990D02*
X102511027Y-71753371D01*
X102511027Y-71753371D02*
X102463408Y-71658133D01*
X102463408Y-71658133D02*
X102463408Y-71562895D01*
X102463408Y-71562895D02*
X102511027Y-71467657D01*
X102511027Y-71467657D02*
X102558646Y-71420038D01*
X102558646Y-71420038D02*
X102653884Y-71372419D01*
X102653884Y-71372419D02*
X102891979Y-71372419D01*
X102891979Y-71372419D02*
X103034836Y-71420038D01*
X103987217Y-72372419D02*
X103415789Y-72372419D01*
X103701503Y-72372419D02*
X103701503Y-71372419D01*
X103701503Y-71372419D02*
X103606265Y-71515276D01*
X103606265Y-71515276D02*
X103511027Y-71610514D01*
X103511027Y-71610514D02*
X103415789Y-71658133D01*
X104939598Y-72372419D02*
X104368170Y-72372419D01*
X104653884Y-72372419D02*
X104653884Y-71372419D01*
X104653884Y-71372419D02*
X104558646Y-71515276D01*
X104558646Y-71515276D02*
X104463408Y-71610514D01*
X104463408Y-71610514D02*
X104368170Y-71658133D01*
X105891979Y-72372419D02*
X105320551Y-72372419D01*
X105606265Y-72372419D02*
X105606265Y-71372419D01*
X105606265Y-71372419D02*
X105511027Y-71515276D01*
X105511027Y-71515276D02*
X105415789Y-71610514D01*
X105415789Y-71610514D02*
X105320551Y-71658133D01*
X106796741Y-71372419D02*
X106320551Y-71372419D01*
X106320551Y-71372419D02*
X106272932Y-71848609D01*
X106272932Y-71848609D02*
X106320551Y-71800990D01*
X106320551Y-71800990D02*
X106415789Y-71753371D01*
X106415789Y-71753371D02*
X106653884Y-71753371D01*
X106653884Y-71753371D02*
X106749122Y-71800990D01*
X106749122Y-71800990D02*
X106796741Y-71848609D01*
X106796741Y-71848609D02*
X106844360Y-71943847D01*
X106844360Y-71943847D02*
X106844360Y-72181942D01*
X106844360Y-72181942D02*
X106796741Y-72277180D01*
X106796741Y-72277180D02*
X106749122Y-72324800D01*
X106749122Y-72324800D02*
X106653884Y-72372419D01*
X106653884Y-72372419D02*
X106415789Y-72372419D01*
X106415789Y-72372419D02*
X106320551Y-72324800D01*
X106320551Y-72324800D02*
X106272932Y-72277180D01*
D10*
X100445489Y-34229400D02*
X99302632Y-34229400D01*
X99874060Y-34800828D02*
X99874060Y-33657971D01*
D11*
X120830074Y-40522419D02*
X120353884Y-40522419D01*
X120353884Y-40522419D02*
X120306265Y-40998609D01*
X120306265Y-40998609D02*
X120353884Y-40950990D01*
X120353884Y-40950990D02*
X120449122Y-40903371D01*
X120449122Y-40903371D02*
X120687217Y-40903371D01*
X120687217Y-40903371D02*
X120782455Y-40950990D01*
X120782455Y-40950990D02*
X120830074Y-40998609D01*
X120830074Y-40998609D02*
X120877693Y-41093847D01*
X120877693Y-41093847D02*
X120877693Y-41331942D01*
X120877693Y-41331942D02*
X120830074Y-41427180D01*
X120830074Y-41427180D02*
X120782455Y-41474800D01*
X120782455Y-41474800D02*
X120687217Y-41522419D01*
X120687217Y-41522419D02*
X120449122Y-41522419D01*
X120449122Y-41522419D02*
X120353884Y-41474800D01*
X120353884Y-41474800D02*
X120306265Y-41427180D01*
X121163408Y-40522419D02*
X121496741Y-41522419D01*
X121496741Y-41522419D02*
X121830074Y-40522419D01*
X122925313Y-41522419D02*
X122925313Y-40522419D01*
X122925313Y-40522419D02*
X123163408Y-40522419D01*
X123163408Y-40522419D02*
X123306265Y-40570038D01*
X123306265Y-40570038D02*
X123401503Y-40665276D01*
X123401503Y-40665276D02*
X123449122Y-40760514D01*
X123449122Y-40760514D02*
X123496741Y-40950990D01*
X123496741Y-40950990D02*
X123496741Y-41093847D01*
X123496741Y-41093847D02*
X123449122Y-41284323D01*
X123449122Y-41284323D02*
X123401503Y-41379561D01*
X123401503Y-41379561D02*
X123306265Y-41474800D01*
X123306265Y-41474800D02*
X123163408Y-41522419D01*
X123163408Y-41522419D02*
X122925313Y-41522419D01*
X124496741Y-41427180D02*
X124449122Y-41474800D01*
X124449122Y-41474800D02*
X124306265Y-41522419D01*
X124306265Y-41522419D02*
X124211027Y-41522419D01*
X124211027Y-41522419D02*
X124068170Y-41474800D01*
X124068170Y-41474800D02*
X123972932Y-41379561D01*
X123972932Y-41379561D02*
X123925313Y-41284323D01*
X123925313Y-41284323D02*
X123877694Y-41093847D01*
X123877694Y-41093847D02*
X123877694Y-40950990D01*
X123877694Y-40950990D02*
X123925313Y-40760514D01*
X123925313Y-40760514D02*
X123972932Y-40665276D01*
X123972932Y-40665276D02*
X124068170Y-40570038D01*
X124068170Y-40570038D02*
X124211027Y-40522419D01*
X124211027Y-40522419D02*
X124306265Y-40522419D01*
X124306265Y-40522419D02*
X124449122Y-40570038D01*
X124449122Y-40570038D02*
X124496741Y-40617657D01*
X88256265Y-29324800D02*
X88399122Y-29372419D01*
X88399122Y-29372419D02*
X88637217Y-29372419D01*
X88637217Y-29372419D02*
X88732455Y-29324800D01*
X88732455Y-29324800D02*
X88780074Y-29277180D01*
X88780074Y-29277180D02*
X88827693Y-29181942D01*
X88827693Y-29181942D02*
X88827693Y-29086704D01*
X88827693Y-29086704D02*
X88780074Y-28991466D01*
X88780074Y-28991466D02*
X88732455Y-28943847D01*
X88732455Y-28943847D02*
X88637217Y-28896228D01*
X88637217Y-28896228D02*
X88446741Y-28848609D01*
X88446741Y-28848609D02*
X88351503Y-28800990D01*
X88351503Y-28800990D02*
X88303884Y-28753371D01*
X88303884Y-28753371D02*
X88256265Y-28658133D01*
X88256265Y-28658133D02*
X88256265Y-28562895D01*
X88256265Y-28562895D02*
X88303884Y-28467657D01*
X88303884Y-28467657D02*
X88351503Y-28420038D01*
X88351503Y-28420038D02*
X88446741Y-28372419D01*
X88446741Y-28372419D02*
X88684836Y-28372419D01*
X88684836Y-28372419D02*
X88827693Y-28420038D01*
X89256265Y-28848609D02*
X89589598Y-28848609D01*
X89732455Y-29372419D02*
X89256265Y-29372419D01*
X89256265Y-29372419D02*
X89256265Y-28372419D01*
X89256265Y-28372419D02*
X89732455Y-28372419D01*
X90018170Y-28372419D02*
X90589598Y-28372419D01*
X90303884Y-29372419D02*
X90303884Y-28372419D01*
X90922932Y-28372419D02*
X90922932Y-29181942D01*
X90922932Y-29181942D02*
X90970551Y-29277180D01*
X90970551Y-29277180D02*
X91018170Y-29324800D01*
X91018170Y-29324800D02*
X91113408Y-29372419D01*
X91113408Y-29372419D02*
X91303884Y-29372419D01*
X91303884Y-29372419D02*
X91399122Y-29324800D01*
X91399122Y-29324800D02*
X91446741Y-29277180D01*
X91446741Y-29277180D02*
X91494360Y-29181942D01*
X91494360Y-29181942D02*
X91494360Y-28372419D01*
X91970551Y-29372419D02*
X91970551Y-28372419D01*
X91970551Y-28372419D02*
X92351503Y-28372419D01*
X92351503Y-28372419D02*
X92446741Y-28420038D01*
X92446741Y-28420038D02*
X92494360Y-28467657D01*
X92494360Y-28467657D02*
X92541979Y-28562895D01*
X92541979Y-28562895D02*
X92541979Y-28705752D01*
X92541979Y-28705752D02*
X92494360Y-28800990D01*
X92494360Y-28800990D02*
X92446741Y-28848609D01*
X92446741Y-28848609D02*
X92351503Y-28896228D01*
X92351503Y-28896228D02*
X91970551Y-28896228D01*
X92732456Y-29467657D02*
X93494360Y-29467657D01*
X93732456Y-29372419D02*
X93732456Y-28372419D01*
X94208646Y-29372419D02*
X94208646Y-28372419D01*
X94208646Y-28372419D02*
X94780074Y-29372419D01*
X94780074Y-29372419D02*
X94780074Y-28372419D01*
D10*
X103120489Y-34229400D02*
X101977632Y-34229400D01*
X65461653Y-89332971D02*
X65390225Y-89404400D01*
X65390225Y-89404400D02*
X65175939Y-89475828D01*
X65175939Y-89475828D02*
X65033082Y-89475828D01*
X65033082Y-89475828D02*
X64818796Y-89404400D01*
X64818796Y-89404400D02*
X64675939Y-89261542D01*
X64675939Y-89261542D02*
X64604510Y-89118685D01*
X64604510Y-89118685D02*
X64533082Y-88832971D01*
X64533082Y-88832971D02*
X64533082Y-88618685D01*
X64533082Y-88618685D02*
X64604510Y-88332971D01*
X64604510Y-88332971D02*
X64675939Y-88190114D01*
X64675939Y-88190114D02*
X64818796Y-88047257D01*
X64818796Y-88047257D02*
X65033082Y-87975828D01*
X65033082Y-87975828D02*
X65175939Y-87975828D01*
X65175939Y-87975828D02*
X65390225Y-88047257D01*
X65390225Y-88047257D02*
X65461653Y-88118685D01*
X66104510Y-89475828D02*
X66104510Y-87975828D01*
X66104510Y-88690114D02*
X66961653Y-88690114D01*
X66961653Y-89475828D02*
X66961653Y-87975828D01*
X67533082Y-87975828D02*
X68461654Y-87975828D01*
X68461654Y-87975828D02*
X67961654Y-88547257D01*
X67961654Y-88547257D02*
X68175939Y-88547257D01*
X68175939Y-88547257D02*
X68318797Y-88618685D01*
X68318797Y-88618685D02*
X68390225Y-88690114D01*
X68390225Y-88690114D02*
X68461654Y-88832971D01*
X68461654Y-88832971D02*
X68461654Y-89190114D01*
X68461654Y-89190114D02*
X68390225Y-89332971D01*
X68390225Y-89332971D02*
X68318797Y-89404400D01*
X68318797Y-89404400D02*
X68175939Y-89475828D01*
X68175939Y-89475828D02*
X67747368Y-89475828D01*
X67747368Y-89475828D02*
X67604511Y-89404400D01*
X67604511Y-89404400D02*
X67533082Y-89332971D01*
X78461653Y-89332971D02*
X78390225Y-89404400D01*
X78390225Y-89404400D02*
X78175939Y-89475828D01*
X78175939Y-89475828D02*
X78033082Y-89475828D01*
X78033082Y-89475828D02*
X77818796Y-89404400D01*
X77818796Y-89404400D02*
X77675939Y-89261542D01*
X77675939Y-89261542D02*
X77604510Y-89118685D01*
X77604510Y-89118685D02*
X77533082Y-88832971D01*
X77533082Y-88832971D02*
X77533082Y-88618685D01*
X77533082Y-88618685D02*
X77604510Y-88332971D01*
X77604510Y-88332971D02*
X77675939Y-88190114D01*
X77675939Y-88190114D02*
X77818796Y-88047257D01*
X77818796Y-88047257D02*
X78033082Y-87975828D01*
X78033082Y-87975828D02*
X78175939Y-87975828D01*
X78175939Y-87975828D02*
X78390225Y-88047257D01*
X78390225Y-88047257D02*
X78461653Y-88118685D01*
X79104510Y-89475828D02*
X79104510Y-87975828D01*
X79104510Y-88690114D02*
X79961653Y-88690114D01*
X79961653Y-89475828D02*
X79961653Y-87975828D01*
X81318797Y-88475828D02*
X81318797Y-89475828D01*
X80961654Y-87904400D02*
X80604511Y-88975828D01*
X80604511Y-88975828D02*
X81533082Y-88975828D01*
D11*
X87105074Y-48447419D02*
X86628884Y-48447419D01*
X86628884Y-48447419D02*
X86628884Y-47447419D01*
X87438408Y-47923609D02*
X87771741Y-47923609D01*
X87914598Y-48447419D02*
X87438408Y-48447419D01*
X87438408Y-48447419D02*
X87438408Y-47447419D01*
X87438408Y-47447419D02*
X87914598Y-47447419D01*
X88200313Y-47447419D02*
X88533646Y-48447419D01*
X88533646Y-48447419D02*
X88866979Y-47447419D01*
X89200313Y-47923609D02*
X89533646Y-47923609D01*
X89676503Y-48447419D02*
X89200313Y-48447419D01*
X89200313Y-48447419D02*
X89200313Y-47447419D01*
X89200313Y-47447419D02*
X89676503Y-47447419D01*
X90581265Y-48447419D02*
X90105075Y-48447419D01*
X90105075Y-48447419D02*
X90105075Y-47447419D01*
X91628885Y-48399800D02*
X91771742Y-48447419D01*
X91771742Y-48447419D02*
X92009837Y-48447419D01*
X92009837Y-48447419D02*
X92105075Y-48399800D01*
X92105075Y-48399800D02*
X92152694Y-48352180D01*
X92152694Y-48352180D02*
X92200313Y-48256942D01*
X92200313Y-48256942D02*
X92200313Y-48161704D01*
X92200313Y-48161704D02*
X92152694Y-48066466D01*
X92152694Y-48066466D02*
X92105075Y-48018847D01*
X92105075Y-48018847D02*
X92009837Y-47971228D01*
X92009837Y-47971228D02*
X91819361Y-47923609D01*
X91819361Y-47923609D02*
X91724123Y-47875990D01*
X91724123Y-47875990D02*
X91676504Y-47828371D01*
X91676504Y-47828371D02*
X91628885Y-47733133D01*
X91628885Y-47733133D02*
X91628885Y-47637895D01*
X91628885Y-47637895D02*
X91676504Y-47542657D01*
X91676504Y-47542657D02*
X91724123Y-47495038D01*
X91724123Y-47495038D02*
X91819361Y-47447419D01*
X91819361Y-47447419D02*
X92057456Y-47447419D01*
X92057456Y-47447419D02*
X92200313Y-47495038D01*
X92628885Y-48447419D02*
X92628885Y-47447419D01*
X92628885Y-47923609D02*
X93200313Y-47923609D01*
X93200313Y-48447419D02*
X93200313Y-47447419D01*
X93676504Y-48447419D02*
X93676504Y-47447419D01*
X94486027Y-47923609D02*
X94152694Y-47923609D01*
X94152694Y-48447419D02*
X94152694Y-47447419D01*
X94152694Y-47447419D02*
X94628884Y-47447419D01*
X94866980Y-47447419D02*
X95438408Y-47447419D01*
X95152694Y-48447419D02*
X95152694Y-47447419D01*
X95771742Y-47923609D02*
X96105075Y-47923609D01*
X96247932Y-48447419D02*
X95771742Y-48447419D01*
X95771742Y-48447419D02*
X95771742Y-47447419D01*
X95771742Y-47447419D02*
X96247932Y-47447419D01*
X97247932Y-48447419D02*
X96914599Y-47971228D01*
X96676504Y-48447419D02*
X96676504Y-47447419D01*
X96676504Y-47447419D02*
X97057456Y-47447419D01*
X97057456Y-47447419D02*
X97152694Y-47495038D01*
X97152694Y-47495038D02*
X97200313Y-47542657D01*
X97200313Y-47542657D02*
X97247932Y-47637895D01*
X97247932Y-47637895D02*
X97247932Y-47780752D01*
X97247932Y-47780752D02*
X97200313Y-47875990D01*
X97200313Y-47875990D02*
X97152694Y-47923609D01*
X97152694Y-47923609D02*
X97057456Y-47971228D01*
X97057456Y-47971228D02*
X96676504Y-47971228D01*
D10*
X27986653Y-89307971D02*
X27915225Y-89379400D01*
X27915225Y-89379400D02*
X27700939Y-89450828D01*
X27700939Y-89450828D02*
X27558082Y-89450828D01*
X27558082Y-89450828D02*
X27343796Y-89379400D01*
X27343796Y-89379400D02*
X27200939Y-89236542D01*
X27200939Y-89236542D02*
X27129510Y-89093685D01*
X27129510Y-89093685D02*
X27058082Y-88807971D01*
X27058082Y-88807971D02*
X27058082Y-88593685D01*
X27058082Y-88593685D02*
X27129510Y-88307971D01*
X27129510Y-88307971D02*
X27200939Y-88165114D01*
X27200939Y-88165114D02*
X27343796Y-88022257D01*
X27343796Y-88022257D02*
X27558082Y-87950828D01*
X27558082Y-87950828D02*
X27700939Y-87950828D01*
X27700939Y-87950828D02*
X27915225Y-88022257D01*
X27915225Y-88022257D02*
X27986653Y-88093685D01*
X28629510Y-89450828D02*
X28629510Y-87950828D01*
X28629510Y-88665114D02*
X29486653Y-88665114D01*
X29486653Y-89450828D02*
X29486653Y-87950828D01*
X30486654Y-87950828D02*
X30629511Y-87950828D01*
X30629511Y-87950828D02*
X30772368Y-88022257D01*
X30772368Y-88022257D02*
X30843797Y-88093685D01*
X30843797Y-88093685D02*
X30915225Y-88236542D01*
X30915225Y-88236542D02*
X30986654Y-88522257D01*
X30986654Y-88522257D02*
X30986654Y-88879400D01*
X30986654Y-88879400D02*
X30915225Y-89165114D01*
X30915225Y-89165114D02*
X30843797Y-89307971D01*
X30843797Y-89307971D02*
X30772368Y-89379400D01*
X30772368Y-89379400D02*
X30629511Y-89450828D01*
X30629511Y-89450828D02*
X30486654Y-89450828D01*
X30486654Y-89450828D02*
X30343797Y-89379400D01*
X30343797Y-89379400D02*
X30272368Y-89307971D01*
X30272368Y-89307971D02*
X30200939Y-89165114D01*
X30200939Y-89165114D02*
X30129511Y-88879400D01*
X30129511Y-88879400D02*
X30129511Y-88522257D01*
X30129511Y-88522257D02*
X30200939Y-88236542D01*
X30200939Y-88236542D02*
X30272368Y-88093685D01*
X30272368Y-88093685D02*
X30343797Y-88022257D01*
X30343797Y-88022257D02*
X30486654Y-87950828D01*
X52961653Y-89332971D02*
X52890225Y-89404400D01*
X52890225Y-89404400D02*
X52675939Y-89475828D01*
X52675939Y-89475828D02*
X52533082Y-89475828D01*
X52533082Y-89475828D02*
X52318796Y-89404400D01*
X52318796Y-89404400D02*
X52175939Y-89261542D01*
X52175939Y-89261542D02*
X52104510Y-89118685D01*
X52104510Y-89118685D02*
X52033082Y-88832971D01*
X52033082Y-88832971D02*
X52033082Y-88618685D01*
X52033082Y-88618685D02*
X52104510Y-88332971D01*
X52104510Y-88332971D02*
X52175939Y-88190114D01*
X52175939Y-88190114D02*
X52318796Y-88047257D01*
X52318796Y-88047257D02*
X52533082Y-87975828D01*
X52533082Y-87975828D02*
X52675939Y-87975828D01*
X52675939Y-87975828D02*
X52890225Y-88047257D01*
X52890225Y-88047257D02*
X52961653Y-88118685D01*
X53604510Y-89475828D02*
X53604510Y-87975828D01*
X53604510Y-88690114D02*
X54461653Y-88690114D01*
X54461653Y-89475828D02*
X54461653Y-87975828D01*
X55104511Y-88118685D02*
X55175939Y-88047257D01*
X55175939Y-88047257D02*
X55318797Y-87975828D01*
X55318797Y-87975828D02*
X55675939Y-87975828D01*
X55675939Y-87975828D02*
X55818797Y-88047257D01*
X55818797Y-88047257D02*
X55890225Y-88118685D01*
X55890225Y-88118685D02*
X55961654Y-88261542D01*
X55961654Y-88261542D02*
X55961654Y-88404400D01*
X55961654Y-88404400D02*
X55890225Y-88618685D01*
X55890225Y-88618685D02*
X55033082Y-89475828D01*
X55033082Y-89475828D02*
X55961654Y-89475828D01*
D11*
X46831265Y-72186704D02*
X47307455Y-72186704D01*
X46736027Y-72472419D02*
X47069360Y-71472419D01*
X47069360Y-71472419D02*
X47402693Y-72472419D01*
X47736027Y-72472419D02*
X47736027Y-71472419D01*
X47736027Y-71472419D02*
X47974122Y-71472419D01*
X47974122Y-71472419D02*
X48116979Y-71520038D01*
X48116979Y-71520038D02*
X48212217Y-71615276D01*
X48212217Y-71615276D02*
X48259836Y-71710514D01*
X48259836Y-71710514D02*
X48307455Y-71900990D01*
X48307455Y-71900990D02*
X48307455Y-72043847D01*
X48307455Y-72043847D02*
X48259836Y-72234323D01*
X48259836Y-72234323D02*
X48212217Y-72329561D01*
X48212217Y-72329561D02*
X48116979Y-72424800D01*
X48116979Y-72424800D02*
X47974122Y-72472419D01*
X47974122Y-72472419D02*
X47736027Y-72472419D01*
X48688408Y-72424800D02*
X48831265Y-72472419D01*
X48831265Y-72472419D02*
X49069360Y-72472419D01*
X49069360Y-72472419D02*
X49164598Y-72424800D01*
X49164598Y-72424800D02*
X49212217Y-72377180D01*
X49212217Y-72377180D02*
X49259836Y-72281942D01*
X49259836Y-72281942D02*
X49259836Y-72186704D01*
X49259836Y-72186704D02*
X49212217Y-72091466D01*
X49212217Y-72091466D02*
X49164598Y-72043847D01*
X49164598Y-72043847D02*
X49069360Y-71996228D01*
X49069360Y-71996228D02*
X48878884Y-71948609D01*
X48878884Y-71948609D02*
X48783646Y-71900990D01*
X48783646Y-71900990D02*
X48736027Y-71853371D01*
X48736027Y-71853371D02*
X48688408Y-71758133D01*
X48688408Y-71758133D02*
X48688408Y-71662895D01*
X48688408Y-71662895D02*
X48736027Y-71567657D01*
X48736027Y-71567657D02*
X48783646Y-71520038D01*
X48783646Y-71520038D02*
X48878884Y-71472419D01*
X48878884Y-71472419D02*
X49116979Y-71472419D01*
X49116979Y-71472419D02*
X49259836Y-71520038D01*
X50212217Y-72472419D02*
X49640789Y-72472419D01*
X49926503Y-72472419D02*
X49926503Y-71472419D01*
X49926503Y-71472419D02*
X49831265Y-71615276D01*
X49831265Y-71615276D02*
X49736027Y-71710514D01*
X49736027Y-71710514D02*
X49640789Y-71758133D01*
X51164598Y-72472419D02*
X50593170Y-72472419D01*
X50878884Y-72472419D02*
X50878884Y-71472419D01*
X50878884Y-71472419D02*
X50783646Y-71615276D01*
X50783646Y-71615276D02*
X50688408Y-71710514D01*
X50688408Y-71710514D02*
X50593170Y-71758133D01*
X52116979Y-72472419D02*
X51545551Y-72472419D01*
X51831265Y-72472419D02*
X51831265Y-71472419D01*
X51831265Y-71472419D02*
X51736027Y-71615276D01*
X51736027Y-71615276D02*
X51640789Y-71710514D01*
X51640789Y-71710514D02*
X51545551Y-71758133D01*
X53021741Y-71472419D02*
X52545551Y-71472419D01*
X52545551Y-71472419D02*
X52497932Y-71948609D01*
X52497932Y-71948609D02*
X52545551Y-71900990D01*
X52545551Y-71900990D02*
X52640789Y-71853371D01*
X52640789Y-71853371D02*
X52878884Y-71853371D01*
X52878884Y-71853371D02*
X52974122Y-71900990D01*
X52974122Y-71900990D02*
X53021741Y-71948609D01*
X53021741Y-71948609D02*
X53069360Y-72043847D01*
X53069360Y-72043847D02*
X53069360Y-72281942D01*
X53069360Y-72281942D02*
X53021741Y-72377180D01*
X53021741Y-72377180D02*
X52974122Y-72424800D01*
X52974122Y-72424800D02*
X52878884Y-72472419D01*
X52878884Y-72472419D02*
X52640789Y-72472419D01*
X52640789Y-72472419D02*
X52545551Y-72424800D01*
X52545551Y-72424800D02*
X52497932Y-72377180D01*
D10*
X40461653Y-89332971D02*
X40390225Y-89404400D01*
X40390225Y-89404400D02*
X40175939Y-89475828D01*
X40175939Y-89475828D02*
X40033082Y-89475828D01*
X40033082Y-89475828D02*
X39818796Y-89404400D01*
X39818796Y-89404400D02*
X39675939Y-89261542D01*
X39675939Y-89261542D02*
X39604510Y-89118685D01*
X39604510Y-89118685D02*
X39533082Y-88832971D01*
X39533082Y-88832971D02*
X39533082Y-88618685D01*
X39533082Y-88618685D02*
X39604510Y-88332971D01*
X39604510Y-88332971D02*
X39675939Y-88190114D01*
X39675939Y-88190114D02*
X39818796Y-88047257D01*
X39818796Y-88047257D02*
X40033082Y-87975828D01*
X40033082Y-87975828D02*
X40175939Y-87975828D01*
X40175939Y-87975828D02*
X40390225Y-88047257D01*
X40390225Y-88047257D02*
X40461653Y-88118685D01*
X41104510Y-89475828D02*
X41104510Y-87975828D01*
X41104510Y-88690114D02*
X41961653Y-88690114D01*
X41961653Y-89475828D02*
X41961653Y-87975828D01*
X43461654Y-89475828D02*
X42604511Y-89475828D01*
X43033082Y-89475828D02*
X43033082Y-87975828D01*
X43033082Y-87975828D02*
X42890225Y-88190114D01*
X42890225Y-88190114D02*
X42747368Y-88332971D01*
X42747368Y-88332971D02*
X42604511Y-88404400D01*
D11*
X98875312Y-29372419D02*
X98541979Y-28896228D01*
X98303884Y-29372419D02*
X98303884Y-28372419D01*
X98303884Y-28372419D02*
X98684836Y-28372419D01*
X98684836Y-28372419D02*
X98780074Y-28420038D01*
X98780074Y-28420038D02*
X98827693Y-28467657D01*
X98827693Y-28467657D02*
X98875312Y-28562895D01*
X98875312Y-28562895D02*
X98875312Y-28705752D01*
X98875312Y-28705752D02*
X98827693Y-28800990D01*
X98827693Y-28800990D02*
X98780074Y-28848609D01*
X98780074Y-28848609D02*
X98684836Y-28896228D01*
X98684836Y-28896228D02*
X98303884Y-28896228D01*
X99303884Y-28848609D02*
X99637217Y-28848609D01*
X99780074Y-29372419D02*
X99303884Y-29372419D01*
X99303884Y-29372419D02*
X99303884Y-28372419D01*
X99303884Y-28372419D02*
X99780074Y-28372419D01*
X100684836Y-29372419D02*
X100208646Y-29372419D01*
X100208646Y-29372419D02*
X100208646Y-28372419D01*
X100970551Y-29086704D02*
X101446741Y-29086704D01*
X100875313Y-29372419D02*
X101208646Y-28372419D01*
X101208646Y-28372419D02*
X101541979Y-29372419D01*
X102065789Y-28896228D02*
X102065789Y-29372419D01*
X101732456Y-28372419D02*
X102065789Y-28896228D01*
X102065789Y-28896228D02*
X102399122Y-28372419D01*
X103684837Y-28372419D02*
X103875313Y-28372419D01*
X103875313Y-28372419D02*
X103970551Y-28420038D01*
X103970551Y-28420038D02*
X104065789Y-28515276D01*
X104065789Y-28515276D02*
X104113408Y-28705752D01*
X104113408Y-28705752D02*
X104113408Y-29039085D01*
X104113408Y-29039085D02*
X104065789Y-29229561D01*
X104065789Y-29229561D02*
X103970551Y-29324800D01*
X103970551Y-29324800D02*
X103875313Y-29372419D01*
X103875313Y-29372419D02*
X103684837Y-29372419D01*
X103684837Y-29372419D02*
X103589599Y-29324800D01*
X103589599Y-29324800D02*
X103494361Y-29229561D01*
X103494361Y-29229561D02*
X103446742Y-29039085D01*
X103446742Y-29039085D02*
X103446742Y-28705752D01*
X103446742Y-28705752D02*
X103494361Y-28515276D01*
X103494361Y-28515276D02*
X103589599Y-28420038D01*
X103589599Y-28420038D02*
X103684837Y-28372419D01*
X104541980Y-28372419D02*
X104541980Y-29181942D01*
X104541980Y-29181942D02*
X104589599Y-29277180D01*
X104589599Y-29277180D02*
X104637218Y-29324800D01*
X104637218Y-29324800D02*
X104732456Y-29372419D01*
X104732456Y-29372419D02*
X104922932Y-29372419D01*
X104922932Y-29372419D02*
X105018170Y-29324800D01*
X105018170Y-29324800D02*
X105065789Y-29277180D01*
X105065789Y-29277180D02*
X105113408Y-29181942D01*
X105113408Y-29181942D02*
X105113408Y-28372419D01*
X105446742Y-28372419D02*
X106018170Y-28372419D01*
X105732456Y-29372419D02*
X105732456Y-28372419D01*
D10*
X103461653Y-89332971D02*
X103390225Y-89404400D01*
X103390225Y-89404400D02*
X103175939Y-89475828D01*
X103175939Y-89475828D02*
X103033082Y-89475828D01*
X103033082Y-89475828D02*
X102818796Y-89404400D01*
X102818796Y-89404400D02*
X102675939Y-89261542D01*
X102675939Y-89261542D02*
X102604510Y-89118685D01*
X102604510Y-89118685D02*
X102533082Y-88832971D01*
X102533082Y-88832971D02*
X102533082Y-88618685D01*
X102533082Y-88618685D02*
X102604510Y-88332971D01*
X102604510Y-88332971D02*
X102675939Y-88190114D01*
X102675939Y-88190114D02*
X102818796Y-88047257D01*
X102818796Y-88047257D02*
X103033082Y-87975828D01*
X103033082Y-87975828D02*
X103175939Y-87975828D01*
X103175939Y-87975828D02*
X103390225Y-88047257D01*
X103390225Y-88047257D02*
X103461653Y-88118685D01*
X104104510Y-89475828D02*
X104104510Y-87975828D01*
X104104510Y-88690114D02*
X104961653Y-88690114D01*
X104961653Y-89475828D02*
X104961653Y-87975828D01*
X106318797Y-87975828D02*
X106033082Y-87975828D01*
X106033082Y-87975828D02*
X105890225Y-88047257D01*
X105890225Y-88047257D02*
X105818797Y-88118685D01*
X105818797Y-88118685D02*
X105675939Y-88332971D01*
X105675939Y-88332971D02*
X105604511Y-88618685D01*
X105604511Y-88618685D02*
X105604511Y-89190114D01*
X105604511Y-89190114D02*
X105675939Y-89332971D01*
X105675939Y-89332971D02*
X105747368Y-89404400D01*
X105747368Y-89404400D02*
X105890225Y-89475828D01*
X105890225Y-89475828D02*
X106175939Y-89475828D01*
X106175939Y-89475828D02*
X106318797Y-89404400D01*
X106318797Y-89404400D02*
X106390225Y-89332971D01*
X106390225Y-89332971D02*
X106461654Y-89190114D01*
X106461654Y-89190114D02*
X106461654Y-88832971D01*
X106461654Y-88832971D02*
X106390225Y-88690114D01*
X106390225Y-88690114D02*
X106318797Y-88618685D01*
X106318797Y-88618685D02*
X106175939Y-88547257D01*
X106175939Y-88547257D02*
X105890225Y-88547257D01*
X105890225Y-88547257D02*
X105747368Y-88618685D01*
X105747368Y-88618685D02*
X105675939Y-88690114D01*
X105675939Y-88690114D02*
X105604511Y-88832971D01*
X93145489Y-34229400D02*
X92002632Y-34229400D01*
X90370489Y-34229400D02*
X89227632Y-34229400D01*
X89799060Y-34800828D02*
X89799060Y-33657971D01*
D12*
X97124819Y-32309523D02*
X97839104Y-32309523D01*
X97839104Y-32309523D02*
X97981961Y-32357142D01*
X97981961Y-32357142D02*
X98077200Y-32452380D01*
X98077200Y-32452380D02*
X98124819Y-32595237D01*
X98124819Y-32595237D02*
X98124819Y-32690475D01*
X98124819Y-31309523D02*
X98124819Y-31880951D01*
X98124819Y-31595237D02*
X97124819Y-31595237D01*
X97124819Y-31595237D02*
X97267676Y-31690475D01*
X97267676Y-31690475D02*
X97362914Y-31785713D01*
X97362914Y-31785713D02*
X97410533Y-31880951D01*
X98124819Y-30357142D02*
X98124819Y-30928570D01*
X98124819Y-30642856D02*
X97124819Y-30642856D01*
X97124819Y-30642856D02*
X97267676Y-30738094D01*
X97267676Y-30738094D02*
X97362914Y-30833332D01*
X97362914Y-30833332D02*
X97410533Y-30928570D01*
X28454819Y-44961904D02*
X29264342Y-44961904D01*
X29264342Y-44961904D02*
X29359580Y-44914285D01*
X29359580Y-44914285D02*
X29407200Y-44866666D01*
X29407200Y-44866666D02*
X29454819Y-44771428D01*
X29454819Y-44771428D02*
X29454819Y-44580952D01*
X29454819Y-44580952D02*
X29407200Y-44485714D01*
X29407200Y-44485714D02*
X29359580Y-44438095D01*
X29359580Y-44438095D02*
X29264342Y-44390476D01*
X29264342Y-44390476D02*
X28454819Y-44390476D01*
X29454819Y-43390476D02*
X29454819Y-43961904D01*
X29454819Y-43676190D02*
X28454819Y-43676190D01*
X28454819Y-43676190D02*
X28597676Y-43771428D01*
X28597676Y-43771428D02*
X28692914Y-43866666D01*
X28692914Y-43866666D02*
X28740533Y-43961904D01*
X53256009Y-50195237D02*
X53256009Y-49861904D01*
X53779819Y-49719047D02*
X53779819Y-50195237D01*
X53779819Y-50195237D02*
X52779819Y-50195237D01*
X52779819Y-50195237D02*
X52779819Y-49719047D01*
X53732200Y-49338094D02*
X53779819Y-49195237D01*
X53779819Y-49195237D02*
X53779819Y-48957142D01*
X53779819Y-48957142D02*
X53732200Y-48861904D01*
X53732200Y-48861904D02*
X53684580Y-48814285D01*
X53684580Y-48814285D02*
X53589342Y-48766666D01*
X53589342Y-48766666D02*
X53494104Y-48766666D01*
X53494104Y-48766666D02*
X53398866Y-48814285D01*
X53398866Y-48814285D02*
X53351247Y-48861904D01*
X53351247Y-48861904D02*
X53303628Y-48957142D01*
X53303628Y-48957142D02*
X53256009Y-49147618D01*
X53256009Y-49147618D02*
X53208390Y-49242856D01*
X53208390Y-49242856D02*
X53160771Y-49290475D01*
X53160771Y-49290475D02*
X53065533Y-49338094D01*
X53065533Y-49338094D02*
X52970295Y-49338094D01*
X52970295Y-49338094D02*
X52875057Y-49290475D01*
X52875057Y-49290475D02*
X52827438Y-49242856D01*
X52827438Y-49242856D02*
X52779819Y-49147618D01*
X52779819Y-49147618D02*
X52779819Y-48909523D01*
X52779819Y-48909523D02*
X52827438Y-48766666D01*
X53779819Y-48338094D02*
X52779819Y-48338094D01*
X52779819Y-48338094D02*
X52779819Y-47957142D01*
X52779819Y-47957142D02*
X52827438Y-47861904D01*
X52827438Y-47861904D02*
X52875057Y-47814285D01*
X52875057Y-47814285D02*
X52970295Y-47766666D01*
X52970295Y-47766666D02*
X53113152Y-47766666D01*
X53113152Y-47766666D02*
X53208390Y-47814285D01*
X53208390Y-47814285D02*
X53256009Y-47861904D01*
X53256009Y-47861904D02*
X53303628Y-47957142D01*
X53303628Y-47957142D02*
X53303628Y-48338094D01*
X52779819Y-47433332D02*
X52779819Y-46814285D01*
X52779819Y-46814285D02*
X53160771Y-47147618D01*
X53160771Y-47147618D02*
X53160771Y-47004761D01*
X53160771Y-47004761D02*
X53208390Y-46909523D01*
X53208390Y-46909523D02*
X53256009Y-46861904D01*
X53256009Y-46861904D02*
X53351247Y-46814285D01*
X53351247Y-46814285D02*
X53589342Y-46814285D01*
X53589342Y-46814285D02*
X53684580Y-46861904D01*
X53684580Y-46861904D02*
X53732200Y-46909523D01*
X53732200Y-46909523D02*
X53779819Y-47004761D01*
X53779819Y-47004761D02*
X53779819Y-47290475D01*
X53779819Y-47290475D02*
X53732200Y-47385713D01*
X53732200Y-47385713D02*
X53684580Y-47433332D01*
X52875057Y-46433332D02*
X52827438Y-46385713D01*
X52827438Y-46385713D02*
X52779819Y-46290475D01*
X52779819Y-46290475D02*
X52779819Y-46052380D01*
X52779819Y-46052380D02*
X52827438Y-45957142D01*
X52827438Y-45957142D02*
X52875057Y-45909523D01*
X52875057Y-45909523D02*
X52970295Y-45861904D01*
X52970295Y-45861904D02*
X53065533Y-45861904D01*
X53065533Y-45861904D02*
X53208390Y-45909523D01*
X53208390Y-45909523D02*
X53779819Y-46480951D01*
X53779819Y-46480951D02*
X53779819Y-45861904D01*
X53398866Y-45433332D02*
X53398866Y-44671428D01*
X53779819Y-44195237D02*
X52779819Y-44195237D01*
X52779819Y-44195237D02*
X52779819Y-43957142D01*
X52779819Y-43957142D02*
X52827438Y-43814285D01*
X52827438Y-43814285D02*
X52922676Y-43719047D01*
X52922676Y-43719047D02*
X53017914Y-43671428D01*
X53017914Y-43671428D02*
X53208390Y-43623809D01*
X53208390Y-43623809D02*
X53351247Y-43623809D01*
X53351247Y-43623809D02*
X53541723Y-43671428D01*
X53541723Y-43671428D02*
X53636961Y-43719047D01*
X53636961Y-43719047D02*
X53732200Y-43814285D01*
X53732200Y-43814285D02*
X53779819Y-43957142D01*
X53779819Y-43957142D02*
X53779819Y-44195237D01*
X53732200Y-42814285D02*
X53779819Y-42909523D01*
X53779819Y-42909523D02*
X53779819Y-43099999D01*
X53779819Y-43099999D02*
X53732200Y-43195237D01*
X53732200Y-43195237D02*
X53636961Y-43242856D01*
X53636961Y-43242856D02*
X53256009Y-43242856D01*
X53256009Y-43242856D02*
X53160771Y-43195237D01*
X53160771Y-43195237D02*
X53113152Y-43099999D01*
X53113152Y-43099999D02*
X53113152Y-42909523D01*
X53113152Y-42909523D02*
X53160771Y-42814285D01*
X53160771Y-42814285D02*
X53256009Y-42766666D01*
X53256009Y-42766666D02*
X53351247Y-42766666D01*
X53351247Y-42766666D02*
X53446485Y-43242856D01*
X53113152Y-42433332D02*
X53779819Y-42195237D01*
X53779819Y-42195237D02*
X53113152Y-41957142D01*
X53779819Y-41576189D02*
X52779819Y-41576189D01*
X53779819Y-41004761D02*
X53208390Y-41433332D01*
X52779819Y-41004761D02*
X53351247Y-41576189D01*
X53779819Y-40576189D02*
X53113152Y-40576189D01*
X52779819Y-40576189D02*
X52827438Y-40623808D01*
X52827438Y-40623808D02*
X52875057Y-40576189D01*
X52875057Y-40576189D02*
X52827438Y-40528570D01*
X52827438Y-40528570D02*
X52779819Y-40576189D01*
X52779819Y-40576189D02*
X52875057Y-40576189D01*
X53113152Y-40242856D02*
X53113152Y-39861904D01*
X52779819Y-40099999D02*
X53636961Y-40099999D01*
X53636961Y-40099999D02*
X53732200Y-40052380D01*
X53732200Y-40052380D02*
X53779819Y-39957142D01*
X53779819Y-39957142D02*
X53779819Y-39861904D01*
X53684580Y-38957142D02*
X53732200Y-39004761D01*
X53732200Y-39004761D02*
X53779819Y-39147618D01*
X53779819Y-39147618D02*
X53779819Y-39242856D01*
X53779819Y-39242856D02*
X53732200Y-39385713D01*
X53732200Y-39385713D02*
X53636961Y-39480951D01*
X53636961Y-39480951D02*
X53541723Y-39528570D01*
X53541723Y-39528570D02*
X53351247Y-39576189D01*
X53351247Y-39576189D02*
X53208390Y-39576189D01*
X53208390Y-39576189D02*
X53017914Y-39528570D01*
X53017914Y-39528570D02*
X52922676Y-39480951D01*
X52922676Y-39480951D02*
X52827438Y-39385713D01*
X52827438Y-39385713D02*
X52779819Y-39242856D01*
X52779819Y-39242856D02*
X52779819Y-39147618D01*
X52779819Y-39147618D02*
X52827438Y-39004761D01*
X52827438Y-39004761D02*
X52875057Y-38957142D01*
X119141666Y-28962319D02*
X119141666Y-29676604D01*
X119141666Y-29676604D02*
X119094047Y-29819461D01*
X119094047Y-29819461D02*
X118998809Y-29914700D01*
X118998809Y-29914700D02*
X118855952Y-29962319D01*
X118855952Y-29962319D02*
X118760714Y-29962319D01*
X120141666Y-29962319D02*
X119570238Y-29962319D01*
X119855952Y-29962319D02*
X119855952Y-28962319D01*
X119855952Y-28962319D02*
X119760714Y-29105176D01*
X119760714Y-29105176D02*
X119665476Y-29200414D01*
X119665476Y-29200414D02*
X119570238Y-29248033D01*
X87124819Y-32309523D02*
X87839104Y-32309523D01*
X87839104Y-32309523D02*
X87981961Y-32357142D01*
X87981961Y-32357142D02*
X88077200Y-32452380D01*
X88077200Y-32452380D02*
X88124819Y-32595237D01*
X88124819Y-32595237D02*
X88124819Y-32690475D01*
X88124819Y-31309523D02*
X88124819Y-31880951D01*
X88124819Y-31595237D02*
X87124819Y-31595237D01*
X87124819Y-31595237D02*
X87267676Y-31690475D01*
X87267676Y-31690475D02*
X87362914Y-31785713D01*
X87362914Y-31785713D02*
X87410533Y-31880951D01*
X87124819Y-30690475D02*
X87124819Y-30595237D01*
X87124819Y-30595237D02*
X87172438Y-30499999D01*
X87172438Y-30499999D02*
X87220057Y-30452380D01*
X87220057Y-30452380D02*
X87315295Y-30404761D01*
X87315295Y-30404761D02*
X87505771Y-30357142D01*
X87505771Y-30357142D02*
X87743866Y-30357142D01*
X87743866Y-30357142D02*
X87934342Y-30404761D01*
X87934342Y-30404761D02*
X88029580Y-30452380D01*
X88029580Y-30452380D02*
X88077200Y-30499999D01*
X88077200Y-30499999D02*
X88124819Y-30595237D01*
X88124819Y-30595237D02*
X88124819Y-30690475D01*
X88124819Y-30690475D02*
X88077200Y-30785713D01*
X88077200Y-30785713D02*
X88029580Y-30833332D01*
X88029580Y-30833332D02*
X87934342Y-30880951D01*
X87934342Y-30880951D02*
X87743866Y-30928570D01*
X87743866Y-30928570D02*
X87505771Y-30928570D01*
X87505771Y-30928570D02*
X87315295Y-30880951D01*
X87315295Y-30880951D02*
X87220057Y-30833332D01*
X87220057Y-30833332D02*
X87172438Y-30785713D01*
X87172438Y-30785713D02*
X87124819Y-30690475D01*
X100589819Y-45386904D02*
X101399342Y-45386904D01*
X101399342Y-45386904D02*
X101494580Y-45339285D01*
X101494580Y-45339285D02*
X101542200Y-45291666D01*
X101542200Y-45291666D02*
X101589819Y-45196428D01*
X101589819Y-45196428D02*
X101589819Y-45005952D01*
X101589819Y-45005952D02*
X101542200Y-44910714D01*
X101542200Y-44910714D02*
X101494580Y-44863095D01*
X101494580Y-44863095D02*
X101399342Y-44815476D01*
X101399342Y-44815476D02*
X100589819Y-44815476D01*
X100685057Y-44386904D02*
X100637438Y-44339285D01*
X100637438Y-44339285D02*
X100589819Y-44244047D01*
X100589819Y-44244047D02*
X100589819Y-44005952D01*
X100589819Y-44005952D02*
X100637438Y-43910714D01*
X100637438Y-43910714D02*
X100685057Y-43863095D01*
X100685057Y-43863095D02*
X100780295Y-43815476D01*
X100780295Y-43815476D02*
X100875533Y-43815476D01*
X100875533Y-43815476D02*
X101018390Y-43863095D01*
X101018390Y-43863095D02*
X101589819Y-44434523D01*
X101589819Y-44434523D02*
X101589819Y-43815476D01*
X93463095Y-60634819D02*
X93463095Y-61444342D01*
X93463095Y-61444342D02*
X93510714Y-61539580D01*
X93510714Y-61539580D02*
X93558333Y-61587200D01*
X93558333Y-61587200D02*
X93653571Y-61634819D01*
X93653571Y-61634819D02*
X93844047Y-61634819D01*
X93844047Y-61634819D02*
X93939285Y-61587200D01*
X93939285Y-61587200D02*
X93986904Y-61539580D01*
X93986904Y-61539580D02*
X94034523Y-61444342D01*
X94034523Y-61444342D02*
X94034523Y-60634819D01*
X94986904Y-60634819D02*
X94510714Y-60634819D01*
X94510714Y-60634819D02*
X94463095Y-61111009D01*
X94463095Y-61111009D02*
X94510714Y-61063390D01*
X94510714Y-61063390D02*
X94605952Y-61015771D01*
X94605952Y-61015771D02*
X94844047Y-61015771D01*
X94844047Y-61015771D02*
X94939285Y-61063390D01*
X94939285Y-61063390D02*
X94986904Y-61111009D01*
X94986904Y-61111009D02*
X95034523Y-61206247D01*
X95034523Y-61206247D02*
X95034523Y-61444342D01*
X95034523Y-61444342D02*
X94986904Y-61539580D01*
X94986904Y-61539580D02*
X94939285Y-61587200D01*
X94939285Y-61587200D02*
X94844047Y-61634819D01*
X94844047Y-61634819D02*
X94605952Y-61634819D01*
X94605952Y-61634819D02*
X94510714Y-61587200D01*
X94510714Y-61587200D02*
X94463095Y-61539580D01*
X39713095Y-60659819D02*
X39713095Y-61469342D01*
X39713095Y-61469342D02*
X39760714Y-61564580D01*
X39760714Y-61564580D02*
X39808333Y-61612200D01*
X39808333Y-61612200D02*
X39903571Y-61659819D01*
X39903571Y-61659819D02*
X40094047Y-61659819D01*
X40094047Y-61659819D02*
X40189285Y-61612200D01*
X40189285Y-61612200D02*
X40236904Y-61564580D01*
X40236904Y-61564580D02*
X40284523Y-61469342D01*
X40284523Y-61469342D02*
X40284523Y-60659819D01*
X41189285Y-60993152D02*
X41189285Y-61659819D01*
X40951190Y-60612200D02*
X40713095Y-61326485D01*
X40713095Y-61326485D02*
X41332142Y-61326485D01*
D13*
%TO.C,J11*%
X98670000Y-32830000D02*
X98670000Y-31500000D01*
X100000000Y-32830000D02*
X98670000Y-32830000D01*
X101270000Y-30170000D02*
X103870000Y-30170000D01*
X101270000Y-32830000D02*
X101270000Y-30170000D01*
X101270000Y-32830000D02*
X103870000Y-32830000D01*
X103870000Y-32830000D02*
X103870000Y-30170000D01*
%TO.C,J4*%
X52240000Y-90590000D02*
X52660000Y-90590000D01*
X52240000Y-92570000D02*
X52240000Y-90590000D01*
X52240000Y-94940000D02*
X52240000Y-94540000D01*
X54240000Y-90360000D02*
X54240000Y-89910000D01*
X54690000Y-89910000D02*
X54240000Y-89910000D01*
X59760000Y-90590000D02*
X59340000Y-90590000D01*
X59760000Y-92570000D02*
X59760000Y-90590000D01*
X59760000Y-94540000D02*
X59760000Y-94940000D01*
%TO.C,J8*%
X102740000Y-90590000D02*
X103160000Y-90590000D01*
X102740000Y-92570000D02*
X102740000Y-90590000D01*
X102740000Y-94940000D02*
X102740000Y-94540000D01*
X104740000Y-90360000D02*
X104740000Y-89910000D01*
X105190000Y-89910000D02*
X104740000Y-89910000D01*
X110260000Y-90590000D02*
X109840000Y-90590000D01*
X110260000Y-92570000D02*
X110260000Y-90590000D01*
X110260000Y-94540000D02*
X110260000Y-94940000D01*
%TO.C,J9*%
X115240000Y-90590000D02*
X115660000Y-90590000D01*
X115240000Y-92570000D02*
X115240000Y-90590000D01*
X115240000Y-94940000D02*
X115240000Y-94540000D01*
X117240000Y-90360000D02*
X117240000Y-89910000D01*
X117690000Y-89910000D02*
X117240000Y-89910000D01*
X122760000Y-90590000D02*
X122340000Y-90590000D01*
X122760000Y-92570000D02*
X122760000Y-90590000D01*
X122760000Y-94540000D02*
X122760000Y-94940000D01*
%TO.C,J2*%
X27240000Y-90590000D02*
X27660000Y-90590000D01*
X27240000Y-92570000D02*
X27240000Y-90590000D01*
X27240000Y-94940000D02*
X27240000Y-94540000D01*
X29240000Y-90360000D02*
X29240000Y-89910000D01*
X29690000Y-89910000D02*
X29240000Y-89910000D01*
X34760000Y-90590000D02*
X34340000Y-90590000D01*
X34760000Y-92570000D02*
X34760000Y-90590000D01*
X34760000Y-94540000D02*
X34760000Y-94940000D01*
%TO.C,J6*%
X77740000Y-90590000D02*
X78160000Y-90590000D01*
X77740000Y-92570000D02*
X77740000Y-90590000D01*
X77740000Y-94940000D02*
X77740000Y-94540000D01*
X79740000Y-90360000D02*
X79740000Y-89910000D01*
X80190000Y-89910000D02*
X79740000Y-89910000D01*
X85260000Y-90590000D02*
X84840000Y-90590000D01*
X85260000Y-92570000D02*
X85260000Y-90590000D01*
X85260000Y-94540000D02*
X85260000Y-94940000D01*
%TO.C,U1*%
X30000000Y-30000000D02*
X30000000Y-58399999D01*
X30000000Y-58399999D02*
X77920000Y-58400000D01*
X77920000Y-30000001D02*
X30000000Y-30000000D01*
X77920000Y-58400000D02*
X77920000Y-30000001D01*
%TO.C,J3*%
X39740000Y-90590000D02*
X40160000Y-90590000D01*
X39740000Y-92570000D02*
X39740000Y-90590000D01*
X39740000Y-94940000D02*
X39740000Y-94540000D01*
X41740000Y-90360000D02*
X41740000Y-89910000D01*
X42190000Y-89910000D02*
X41740000Y-89910000D01*
X47260000Y-90590000D02*
X46840000Y-90590000D01*
X47260000Y-92570000D02*
X47260000Y-90590000D01*
X47260000Y-94540000D02*
X47260000Y-94940000D01*
%TO.C,J7*%
X90240000Y-90590000D02*
X90660000Y-90590000D01*
X90240000Y-92570000D02*
X90240000Y-90590000D01*
X90240000Y-94940000D02*
X90240000Y-94540000D01*
X92240000Y-90360000D02*
X92240000Y-89910000D01*
X92690000Y-89910000D02*
X92240000Y-89910000D01*
X97760000Y-90590000D02*
X97340000Y-90590000D01*
X97760000Y-92570000D02*
X97760000Y-90590000D01*
X97760000Y-94540000D02*
X97760000Y-94940000D01*
%TO.C,J1*%
X109925000Y-39007500D02*
X109925000Y-40057500D01*
X110125000Y-30657500D02*
X112025000Y-30657500D01*
X110125000Y-33357500D02*
X110125000Y-30657500D01*
X110125000Y-39857500D02*
X110125000Y-37257500D01*
X110975000Y-40057500D02*
X109925000Y-40057500D01*
X116025000Y-30657500D02*
X124825000Y-30657500D01*
X124825000Y-30657500D02*
X124825000Y-39857500D01*
X124825000Y-39857500D02*
X110125000Y-39857500D01*
%TO.C,J10*%
X88670000Y-32830000D02*
X88670000Y-31500000D01*
X90000000Y-32830000D02*
X88670000Y-32830000D01*
X91270000Y-30170000D02*
X93870000Y-30170000D01*
X91270000Y-32830000D02*
X91270000Y-30170000D01*
X91270000Y-32830000D02*
X93870000Y-32830000D01*
X93870000Y-32830000D02*
X93870000Y-30170000D01*
D14*
%TO.C,U2*%
X83975000Y-41285000D02*
X100025000Y-41285000D01*
X83975000Y-54615000D02*
X83975000Y-41285000D01*
X100025000Y-41285000D02*
X100025000Y-54615000D01*
X100025000Y-54615000D02*
X83975000Y-54615000D01*
%TO.C,U5*%
X89780000Y-78007500D02*
X89780000Y-65942500D01*
X92320000Y-63402500D02*
X115180000Y-63402500D01*
X115180000Y-80547500D02*
X92320000Y-80547500D01*
X117720000Y-65942500D02*
X117720000Y-78007500D01*
X89780000Y-65942500D02*
G75*
G02*
X92320000Y-63402500I2540001J-1D01*
G01*
X92320000Y-80547500D02*
G75*
G02*
X89780000Y-78007500I1J2540001D01*
G01*
X115180000Y-63402500D02*
G75*
G02*
X117720000Y-65942500I0J-2540000D01*
G01*
X117720000Y-78007500D02*
G75*
G02*
X115180000Y-80547500I-2540000J0D01*
G01*
D15*
X118752000Y-78862000D02*
G75*
G02*
X118552000Y-78862000I-100000J0D01*
G01*
X118552000Y-78862000D02*
G75*
G02*
X118752000Y-78862000I100000J0D01*
G01*
D13*
%TO.C,J5*%
X64740000Y-90590000D02*
X65160000Y-90590000D01*
X64740000Y-92570000D02*
X64740000Y-90590000D01*
X64740000Y-94940000D02*
X64740000Y-94540000D01*
X66740000Y-90360000D02*
X66740000Y-89910000D01*
X67190000Y-89910000D02*
X66740000Y-89910000D01*
X72260000Y-90590000D02*
X71840000Y-90590000D01*
X72260000Y-92570000D02*
X72260000Y-90590000D01*
X72260000Y-94540000D02*
X72260000Y-94940000D01*
D14*
%TO.C,U4*%
X36030000Y-78032500D02*
X36030000Y-65967500D01*
X38570000Y-63427500D02*
X61430000Y-63427500D01*
X61430000Y-80572500D02*
X38570000Y-80572500D01*
X63970000Y-65967500D02*
X63970000Y-78032500D01*
X36030000Y-65967500D02*
G75*
G02*
X38570000Y-63427500I2540001J-1D01*
G01*
X38570000Y-80572500D02*
G75*
G02*
X36030000Y-78032500I1J2540001D01*
G01*
X61430000Y-63427500D02*
G75*
G02*
X63970000Y-65967500I0J-2540000D01*
G01*
X63970000Y-78032500D02*
G75*
G02*
X61430000Y-80572500I-2540000J0D01*
G01*
%TD*%
M02*
