M48
; DRILL file {KiCad 8.0.4} date 2024-08-26T16:46:42+0800
; FORMAT={-:-/ absolute / inch / decimal}
; #@! TF.CreationDate,2024-08-26T16:46:42+08:00
; #@! TF.GenerationSoftware,Kicad,Pcbnew,8.0.4
; #@! TF.FileFunction,Plated,1,2,PTH
FMAT,2
INCH
; #@! TA.AperFunction,Plated,PTH,ViaDrill
T1C0.0118
; #@! TA.AperFunction,Plated,PTH,ComponentDrill
T2C0.0197
; #@! TA.AperFunction,Plated,PTH,ComponentDrill
T3C0.0217
; #@! TA.AperFunction,Plated,PTH,ComponentDrill
T4C0.0315
; #@! TA.AperFunction,Plated,PTH,ComponentDrill
T5C0.0394
; #@! TA.AperFunction,Plated,PTH,ComponentDrill
T6C0.0400
; #@! TA.AperFunction,Plated,PTH,ComponentDrill
T7C0.0984
%
G90
G05
T1
X1.1693Y-3.5128
X1.246Y-3.4813
X1.6615Y-3.4498
X1.6615Y-3.5128
X1.7382Y-3.4813
X2.1536Y-3.4498
X2.1536Y-3.5128
X2.2303Y-3.4813
X2.6457Y-3.4498
X2.6457Y-3.5128
X2.7224Y-3.4813
X3.1575Y-3.5128
X3.2343Y-3.4813
X3.6497Y-3.3209
X3.6497Y-3.4498
X3.6497Y-3.5128
X3.7264Y-3.3209
X3.7264Y-3.4813
X3.8071Y-3.3209
X4.1418Y-3.4498
X4.1418Y-3.5128
X4.2185Y-3.4813
X4.6339Y-3.4498
X4.6339Y-3.5128
X4.7106Y-3.4813
T4
X1.2244Y-1.2402
X1.2244Y-2.2402
X1.3244Y-1.2402
X1.3244Y-2.2402
X1.4244Y-1.2402
X1.4244Y-2.2402
X1.5244Y-1.2402
X1.5244Y-2.2402
X1.6244Y-1.2402
X1.6244Y-2.2402
X1.7244Y-1.2402
X1.7244Y-2.2402
X1.8244Y-1.2402
X1.8244Y-2.2402
X1.9244Y-1.2402
X1.9244Y-2.2402
X2.0244Y-1.2402
X2.0244Y-2.2402
X2.1244Y-1.2402
X2.1244Y-2.2402
X2.2244Y-1.2402
X2.2244Y-2.2402
X2.3244Y-1.2402
X2.3244Y-2.2402
X2.4244Y-1.2402
X2.4244Y-2.2402
X2.5244Y-1.2402
X2.5244Y-2.2402
X2.6244Y-1.2402
X2.6244Y-2.2402
X2.7244Y-1.2402
X2.7244Y-2.2402
X2.8244Y-1.2402
X2.8244Y-2.2402
X2.9243Y-1.2403
X2.9244Y-2.2402
X3.0243Y-1.2403
X3.0244Y-2.2402
T5
X1.5185Y-3.0971
X1.6185Y-3.0971
X1.7185Y-3.0971
X1.8185Y-3.0971
X1.9185Y-3.0971
X2.0185Y-3.0971
X2.1185Y-3.0971
X2.2185Y-3.0971
X2.3185Y-3.0971
X2.4185Y-3.0971
X3.5433Y-1.2402
X3.6346Y-3.0962
X3.6433Y-1.2402
X3.7346Y-3.0962
X3.8346Y-3.0962
X3.9346Y-3.0962
X3.937Y-1.2402
X4.0346Y-3.0962
X4.037Y-1.2402
X4.1346Y-3.0962
X4.2346Y-3.0962
X4.3346Y-3.0962
X4.4346Y-3.0962
X4.5346Y-3.0962
T6
X3.372Y-1.6878
X3.372Y-2.0878
X3.472Y-1.6878
X3.472Y-2.0878
X3.572Y-1.6878
X3.572Y-2.0878
X3.672Y-1.6878
X3.672Y-2.0878
X3.772Y-1.6878
X3.772Y-2.0878
X3.872Y-1.6878
X3.872Y-2.0878
T7
X1.5185Y-2.5971
X2.4185Y-2.5971
X3.6346Y-2.5962
X4.5346Y-2.5962
T2
G00X1.0827Y-3.6703
M15
G01X1.0827Y-3.6959
M16
G05
G00X1.3583Y-3.6703
M15
G01X1.3583Y-3.6959
M16
G05
G00X1.5748Y-3.6703
M15
G01X1.5748Y-3.6959
M16
G05
G00X1.8504Y-3.6703
M15
G01X1.8504Y-3.6959
M16
G05
G00X2.0669Y-3.6703
M15
G01X2.0669Y-3.6959
M16
G05
G00X2.3425Y-3.6703
M15
G01X2.3425Y-3.6959
M16
G05
G00X2.5591Y-3.6703
M15
G01X2.5591Y-3.6959
M16
G05
G00X2.8346Y-3.6703
M15
G01X2.8346Y-3.6959
M16
G05
G00X3.0709Y-3.6703
M15
G01X3.0709Y-3.6959
M16
G05
G00X3.3465Y-3.6703
M15
G01X3.3465Y-3.6959
M16
G05
G00X3.563Y-3.6703
M15
G01X3.563Y-3.6959
M16
G05
G00X3.8386Y-3.6703
M15
G01X3.8386Y-3.6959
M16
G05
G00X4.0551Y-3.6703
M15
G01X4.0551Y-3.6959
M16
G05
G00X4.3307Y-3.6703
M15
G01X4.3307Y-3.6959
M16
G05
G00X4.5472Y-3.6703
M15
G01X4.5472Y-3.6959
M16
G05
G00X4.8228Y-3.6703
M15
G01X4.8228Y-3.6959
M16
G05
T3
G00X1.1161Y-3.5768
M15
G01X1.128Y-3.5768
M16
G05
G00X1.313Y-3.5768
M15
G01X1.3248Y-3.5768
M16
G05
G00X1.6083Y-3.5768
M15
G01X1.6201Y-3.5768
M16
G05
G00X1.8051Y-3.5768
M15
G01X1.8169Y-3.5768
M16
G05
G00X2.1004Y-3.5768
M15
G01X2.1122Y-3.5768
M16
G05
G00X2.2972Y-3.5768
M15
G01X2.3091Y-3.5768
M16
G05
G00X2.5925Y-3.5768
M15
G01X2.6043Y-3.5768
M16
G05
G00X2.7894Y-3.5768
M15
G01X2.8012Y-3.5768
M16
G05
G00X3.1043Y-3.5768
M15
G01X3.1161Y-3.5768
M16
G05
G00X3.3012Y-3.5768
M15
G01X3.313Y-3.5768
M16
G05
G00X3.5965Y-3.5768
M15
G01X3.6083Y-3.5768
M16
G05
G00X3.7933Y-3.5768
M15
G01X3.8051Y-3.5768
M16
G05
G00X4.0886Y-3.5768
M15
G01X4.1004Y-3.5768
M16
G05
G00X4.2854Y-3.5768
M15
G01X4.2972Y-3.5768
M16
G05
G00X4.5807Y-3.5768
M15
G01X4.5925Y-3.5768
M16
G05
G00X4.7776Y-3.5768
M15
G01X4.7894Y-3.5768
M16
G05
T5
G00X4.3711Y-1.4275
M15
G01X4.3711Y-1.3487
M16
G05
G00X4.5285Y-1.2031
M15
G01X4.4498Y-1.2031
M16
G05
G00X4.6073Y-1.4275
M15
G01X4.6073Y-1.3487
M16
G05
M30
