%TF.GenerationSoftware,KiCad,Pcbnew,8.0.4*%
%TF.CreationDate,2024-08-26T16:46:39+08:00*%
%TF.ProjectId,ESP_Board_Test,4553505f-426f-4617-9264-5f546573742e,rev?*%
%TF.SameCoordinates,Original*%
%TF.FileFunction,Soldermask,Top*%
%TF.FilePolarity,Negative*%
%FSLAX46Y46*%
G04 Gerber Fmt 4.6, Leading zero omitted, Abs format (unit mm)*
G04 Created by KiCad (PCBNEW 8.0.4) date 2024-08-26 16:46:39*
%MOMM*%
%LPD*%
G01*
G04 APERTURE LIST*
G04 Aperture macros list*
%AMRoundRect*
0 Rectangle with rounded corners*
0 $1 Rounding radius*
0 $2 $3 $4 $5 $6 $7 $8 $9 X,Y pos of 4 corners*
0 Add a 4 corners polygon primitive as box body*
4,1,4,$2,$3,$4,$5,$6,$7,$8,$9,$2,$3,0*
0 Add four circle primitives for the rounded corners*
1,1,$1+$1,$2,$3*
1,1,$1+$1,$4,$5*
1,1,$1+$1,$6,$7*
1,1,$1+$1,$8,$9*
0 Add four rect primitives between the rounded corners*
20,1,$1+$1,$2,$3,$4,$5,0*
20,1,$1+$1,$4,$5,$6,$7,0*
20,1,$1+$1,$6,$7,$8,$9,0*
20,1,$1+$1,$8,$9,$2,$3,0*%
G04 Aperture macros list end*
%ADD10R,1.700000X1.700000*%
%ADD11O,1.700000X1.700000*%
%ADD12R,0.400000X1.350000*%
%ADD13O,0.890000X1.550000*%
%ADD14R,1.200000X1.550000*%
%ADD15O,1.250000X0.950000*%
%ADD16R,1.500000X1.550000*%
%ADD17R,1.200000X2.000000*%
%ADD18O,1.200000X2.000000*%
%ADD19R,3.500000X3.500000*%
%ADD20RoundRect,0.750000X0.750000X1.000000X-0.750000X1.000000X-0.750000X-1.000000X0.750000X-1.000000X0*%
%ADD21RoundRect,0.875000X0.875000X0.875000X-0.875000X0.875000X-0.875000X-0.875000X0.875000X-0.875000X0*%
%ADD22C,1.728000*%
%ADD23RoundRect,0.102000X-0.762000X0.762000X-0.762000X-0.762000X0.762000X-0.762000X0.762000X0.762000X0*%
%ADD24RoundRect,0.102000X-0.889000X-0.889000X0.889000X-0.889000X0.889000X0.889000X-0.889000X0.889000X0*%
%ADD25C,1.982000*%
%ADD26C,3.404000*%
G04 APERTURE END LIST*
D10*
%TO.C,J11*%
X100000000Y-31500000D03*
D11*
X102540000Y-31500000D03*
%TD*%
D12*
%TO.C,J4*%
X54700000Y-90850000D03*
X55350000Y-90850000D03*
X56000000Y-90850000D03*
X56650000Y-90850000D03*
X57300000Y-90850000D03*
D13*
X52500000Y-93550000D03*
D14*
X53100000Y-93550000D03*
D15*
X53500000Y-90850000D03*
D16*
X55000000Y-93550000D03*
X57000000Y-93550000D03*
D15*
X58500000Y-90850000D03*
D14*
X58900000Y-93550000D03*
D13*
X59500000Y-93550000D03*
%TD*%
D12*
%TO.C,J8*%
X105200000Y-90850000D03*
X105850000Y-90850000D03*
X106500000Y-90850000D03*
X107150000Y-90850000D03*
X107800000Y-90850000D03*
D13*
X103000000Y-93550000D03*
D14*
X103600000Y-93550000D03*
D15*
X104000000Y-90850000D03*
D16*
X105500000Y-93550000D03*
X107500000Y-93550000D03*
D15*
X109000000Y-90850000D03*
D14*
X109400000Y-93550000D03*
D13*
X110000000Y-93550000D03*
%TD*%
D12*
%TO.C,J9*%
X117700000Y-90850000D03*
X118350000Y-90850000D03*
X119000000Y-90850000D03*
X119650000Y-90850000D03*
X120300000Y-90850000D03*
D13*
X115500000Y-93550000D03*
D14*
X116100000Y-93550000D03*
D15*
X116500000Y-90850000D03*
D16*
X118000000Y-93550000D03*
X120000000Y-93550000D03*
D15*
X121500000Y-90850000D03*
D14*
X121900000Y-93550000D03*
D13*
X122500000Y-93550000D03*
%TD*%
D12*
%TO.C,J2*%
X29700000Y-90850000D03*
X30350000Y-90850000D03*
X31000000Y-90850000D03*
X31650000Y-90850000D03*
X32300000Y-90850000D03*
D13*
X27500000Y-93550000D03*
D14*
X28100000Y-93550000D03*
D15*
X28500000Y-90850000D03*
D16*
X30000000Y-93550000D03*
X32000000Y-93550000D03*
D15*
X33500000Y-90850000D03*
D14*
X33900000Y-93550000D03*
D13*
X34500000Y-93550000D03*
%TD*%
D12*
%TO.C,J6*%
X80200000Y-90850000D03*
X80850000Y-90850000D03*
X81500000Y-90850000D03*
X82150000Y-90850000D03*
X82800000Y-90850000D03*
D13*
X78000000Y-93550000D03*
D14*
X78600000Y-93550000D03*
D15*
X79000000Y-90850000D03*
D16*
X80500000Y-93550000D03*
X82500000Y-93550000D03*
D15*
X84000000Y-90850000D03*
D14*
X84400000Y-93550000D03*
D13*
X85000000Y-93550000D03*
%TD*%
D17*
%TO.C,U1*%
X31100000Y-56900000D03*
D18*
X33640000Y-56900000D03*
X36180000Y-56900000D03*
X38720000Y-56900000D03*
X41260000Y-56900000D03*
X43800000Y-56900000D03*
X46340000Y-56900000D03*
X48880000Y-56900000D03*
X51420000Y-56900000D03*
X53960000Y-56900000D03*
X56500000Y-56900000D03*
X59040000Y-56900000D03*
X61580000Y-56900000D03*
X64120000Y-56900000D03*
X66660000Y-56900000D03*
X69200000Y-56900000D03*
X71740000Y-56900000D03*
X74280000Y-56900000D03*
X76820000Y-56900000D03*
X76817280Y-31503680D03*
X74277280Y-31503680D03*
X71740000Y-31500000D03*
X69200000Y-31500000D03*
X66660000Y-31500000D03*
X64120000Y-31500000D03*
X61580000Y-31500000D03*
X59040000Y-31500000D03*
X56500000Y-31500000D03*
X53960000Y-31500000D03*
X51420000Y-31500000D03*
X48880000Y-31500000D03*
X46340000Y-31500000D03*
X43800000Y-31500000D03*
X41260000Y-31500000D03*
X38720000Y-31500000D03*
X36180000Y-31500000D03*
X33640000Y-31500000D03*
X31100000Y-31500000D03*
%TD*%
D12*
%TO.C,J3*%
X42200000Y-90850000D03*
X42850000Y-90850000D03*
X43500000Y-90850000D03*
X44150000Y-90850000D03*
X44800000Y-90850000D03*
D13*
X40000000Y-93550000D03*
D14*
X40600000Y-93550000D03*
D15*
X41000000Y-90850000D03*
D16*
X42500000Y-93550000D03*
X44500000Y-93550000D03*
D15*
X46000000Y-90850000D03*
D14*
X46400000Y-93550000D03*
D13*
X47000000Y-93550000D03*
%TD*%
D12*
%TO.C,J7*%
X92700000Y-90850000D03*
X93350000Y-90850000D03*
X94000000Y-90850000D03*
X94650000Y-90850000D03*
X95300000Y-90850000D03*
D13*
X90500000Y-93550000D03*
D14*
X91100000Y-93550000D03*
D15*
X91500000Y-90850000D03*
D16*
X93000000Y-93550000D03*
X95000000Y-93550000D03*
D15*
X96500000Y-90850000D03*
D14*
X96900000Y-93550000D03*
D13*
X97500000Y-93550000D03*
%TD*%
D19*
%TO.C,J1*%
X111025000Y-35257500D03*
D20*
X117025000Y-35257500D03*
D21*
X114025000Y-30557500D03*
%TD*%
D10*
%TO.C,J10*%
X90000000Y-31500000D03*
D11*
X92540000Y-31500000D03*
%TD*%
D22*
%TO.C,U2*%
X90730000Y-53030000D03*
X90730000Y-42870000D03*
X93270000Y-53030000D03*
D23*
X98350000Y-53030000D03*
D22*
X95810000Y-53030000D03*
X88190000Y-53030000D03*
X85650000Y-53030000D03*
X93270000Y-42870000D03*
D23*
X98350000Y-42870000D03*
D22*
X95810000Y-42870000D03*
X88190000Y-42870000D03*
X85650000Y-42870000D03*
%TD*%
D24*
%TO.C,U5*%
X115180000Y-78642500D03*
D25*
X112640000Y-78642500D03*
X110100000Y-78642500D03*
X107560000Y-78642500D03*
X105020000Y-78642500D03*
X102480000Y-78642500D03*
X99940000Y-78642500D03*
X97400000Y-78642500D03*
X94860000Y-78642500D03*
X92320000Y-78642500D03*
D26*
X92320000Y-65942500D03*
X115180000Y-65942500D03*
%TD*%
D12*
%TO.C,J5*%
X67200000Y-90850000D03*
X67850000Y-90850000D03*
X68500000Y-90850000D03*
X69150000Y-90850000D03*
X69800000Y-90850000D03*
D13*
X65000000Y-93550000D03*
D14*
X65600000Y-93550000D03*
D15*
X66000000Y-90850000D03*
D16*
X67500000Y-93550000D03*
X69500000Y-93550000D03*
D15*
X71000000Y-90850000D03*
D14*
X71400000Y-93550000D03*
D13*
X72000000Y-93550000D03*
%TD*%
D24*
%TO.C,U4*%
X61430000Y-78667500D03*
D25*
X58890000Y-78667500D03*
X56350000Y-78667500D03*
X53810000Y-78667500D03*
X51270000Y-78667500D03*
X48730000Y-78667500D03*
X46190000Y-78667500D03*
X43650000Y-78667500D03*
X41110000Y-78667500D03*
X38570000Y-78667500D03*
D26*
X38570000Y-65967500D03*
X61430000Y-65967500D03*
%TD*%
M02*
