%TF.GenerationSoftware,KiCad,Pcbnew,8.0.4*%
%TF.CreationDate,2024-08-26T16:46:39+08:00*%
%TF.ProjectId,ESP_Board_Test,4553505f-426f-4617-9264-5f546573742e,rev?*%
%TF.SameCoordinates,Original*%
%TF.FileFunction,Soldermask,Bot*%
%TF.FilePolarity,Negative*%
%FSLAX46Y46*%
G04 Gerber Fmt 4.6, Leading zero omitted, Abs format (unit mm)*
G04 Created by KiCad (PCBNEW 8.0.4) date 2024-08-26 16:46:39*
%MOMM*%
%LPD*%
G01*
G04 APERTURE LIST*
G04 Aperture macros list*
%AMRoundRect*
0 Rectangle with rounded corners*
0 $1 Rounding radius*
0 $2 $3 $4 $5 $6 $7 $8 $9 X,Y pos of 4 corners*
0 Add a 4 corners polygon primitive as box body*
4,1,4,$2,$3,$4,$5,$6,$7,$8,$9,$2,$3,0*
0 Add four circle primitives for the rounded corners*
1,1,$1+$1,$2,$3*
1,1,$1+$1,$4,$5*
1,1,$1+$1,$6,$7*
1,1,$1+$1,$8,$9*
0 Add four rect primitives between the rounded corners*
20,1,$1+$1,$2,$3,$4,$5,0*
20,1,$1+$1,$4,$5,$6,$7,0*
20,1,$1+$1,$6,$7,$8,$9,0*
20,1,$1+$1,$8,$9,$2,$3,0*%
G04 Aperture macros list end*
%ADD10R,1.700000X1.700000*%
%ADD11O,1.700000X1.700000*%
%ADD12O,0.890000X1.550000*%
%ADD13O,1.250000X0.950000*%
%ADD14R,1.200000X2.000000*%
%ADD15O,1.200000X2.000000*%
%ADD16R,3.500000X3.500000*%
%ADD17RoundRect,0.750000X0.750000X1.000000X-0.750000X1.000000X-0.750000X-1.000000X0.750000X-1.000000X0*%
%ADD18RoundRect,0.875000X0.875000X0.875000X-0.875000X0.875000X-0.875000X-0.875000X0.875000X-0.875000X0*%
%ADD19C,1.728000*%
%ADD20RoundRect,0.102000X-0.762000X0.762000X-0.762000X-0.762000X0.762000X-0.762000X0.762000X0.762000X0*%
%ADD21RoundRect,0.102000X-0.889000X-0.889000X0.889000X-0.889000X0.889000X0.889000X-0.889000X0.889000X0*%
%ADD22C,1.982000*%
%ADD23C,3.404000*%
G04 APERTURE END LIST*
D10*
%TO.C,J11*%
X100000000Y-31500000D03*
D11*
X102540000Y-31500000D03*
%TD*%
D12*
%TO.C,J4*%
X52500000Y-93550000D03*
D13*
X53500000Y-90850000D03*
X58500000Y-90850000D03*
D12*
X59500000Y-93550000D03*
%TD*%
%TO.C,J8*%
X103000000Y-93550000D03*
D13*
X104000000Y-90850000D03*
X109000000Y-90850000D03*
D12*
X110000000Y-93550000D03*
%TD*%
%TO.C,J9*%
X115500000Y-93550000D03*
D13*
X116500000Y-90850000D03*
X121500000Y-90850000D03*
D12*
X122500000Y-93550000D03*
%TD*%
%TO.C,J2*%
X27500000Y-93550000D03*
D13*
X28500000Y-90850000D03*
X33500000Y-90850000D03*
D12*
X34500000Y-93550000D03*
%TD*%
%TO.C,J6*%
X78000000Y-93550000D03*
D13*
X79000000Y-90850000D03*
X84000000Y-90850000D03*
D12*
X85000000Y-93550000D03*
%TD*%
D14*
%TO.C,U1*%
X31100000Y-56900000D03*
D15*
X33640000Y-56900000D03*
X36180000Y-56900000D03*
X38720000Y-56900000D03*
X41260000Y-56900000D03*
X43800000Y-56900000D03*
X46340000Y-56900000D03*
X48880000Y-56900000D03*
X51420000Y-56900000D03*
X53960000Y-56900000D03*
X56500000Y-56900000D03*
X59040000Y-56900000D03*
X61580000Y-56900000D03*
X64120000Y-56900000D03*
X66660000Y-56900000D03*
X69200000Y-56900000D03*
X71740000Y-56900000D03*
X74280000Y-56900000D03*
X76820000Y-56900000D03*
X76817280Y-31503680D03*
X74277280Y-31503680D03*
X71740000Y-31500000D03*
X69200000Y-31500000D03*
X66660000Y-31500000D03*
X64120000Y-31500000D03*
X61580000Y-31500000D03*
X59040000Y-31500000D03*
X56500000Y-31500000D03*
X53960000Y-31500000D03*
X51420000Y-31500000D03*
X48880000Y-31500000D03*
X46340000Y-31500000D03*
X43800000Y-31500000D03*
X41260000Y-31500000D03*
X38720000Y-31500000D03*
X36180000Y-31500000D03*
X33640000Y-31500000D03*
X31100000Y-31500000D03*
%TD*%
D12*
%TO.C,J3*%
X40000000Y-93550000D03*
D13*
X41000000Y-90850000D03*
X46000000Y-90850000D03*
D12*
X47000000Y-93550000D03*
%TD*%
%TO.C,J7*%
X90500000Y-93550000D03*
D13*
X91500000Y-90850000D03*
X96500000Y-90850000D03*
D12*
X97500000Y-93550000D03*
%TD*%
D16*
%TO.C,J1*%
X111025000Y-35257500D03*
D17*
X117025000Y-35257500D03*
D18*
X114025000Y-30557500D03*
%TD*%
D10*
%TO.C,J10*%
X90000000Y-31500000D03*
D11*
X92540000Y-31500000D03*
%TD*%
D19*
%TO.C,U2*%
X90730000Y-53030000D03*
X90730000Y-42870000D03*
X93270000Y-53030000D03*
D20*
X98350000Y-53030000D03*
D19*
X95810000Y-53030000D03*
X88190000Y-53030000D03*
X85650000Y-53030000D03*
X93270000Y-42870000D03*
D20*
X98350000Y-42870000D03*
D19*
X95810000Y-42870000D03*
X88190000Y-42870000D03*
X85650000Y-42870000D03*
%TD*%
D21*
%TO.C,U5*%
X115180000Y-78642500D03*
D22*
X112640000Y-78642500D03*
X110100000Y-78642500D03*
X107560000Y-78642500D03*
X105020000Y-78642500D03*
X102480000Y-78642500D03*
X99940000Y-78642500D03*
X97400000Y-78642500D03*
X94860000Y-78642500D03*
X92320000Y-78642500D03*
D23*
X92320000Y-65942500D03*
X115180000Y-65942500D03*
%TD*%
D12*
%TO.C,J5*%
X65000000Y-93550000D03*
D13*
X66000000Y-90850000D03*
X71000000Y-90850000D03*
D12*
X72000000Y-93550000D03*
%TD*%
D21*
%TO.C,U4*%
X61430000Y-78667500D03*
D22*
X58890000Y-78667500D03*
X56350000Y-78667500D03*
X53810000Y-78667500D03*
X51270000Y-78667500D03*
X48730000Y-78667500D03*
X46190000Y-78667500D03*
X43650000Y-78667500D03*
X41110000Y-78667500D03*
X38570000Y-78667500D03*
D23*
X38570000Y-65967500D03*
X61430000Y-65967500D03*
%TD*%
M02*
