%TF.GenerationSoftware,KiCad,Pcbnew,8.0.4*%
%TF.CreationDate,2024-08-26T16:43:06+08:00*%
%TF.ProjectId,ESP8266_Calib_Module,45535038-3236-4365-9f43-616c69625f4d,rev?*%
%TF.SameCoordinates,Original*%
%TF.FileFunction,Copper,L2,Bot*%
%TF.FilePolarity,Positive*%
%FSLAX46Y46*%
G04 Gerber Fmt 4.6, Leading zero omitted, Abs format (unit mm)*
G04 Created by KiCad (PCBNEW 8.0.4) date 2024-08-26 16:43:06*
%MOMM*%
%LPD*%
G01*
G04 APERTURE LIST*
%TA.AperFunction,ComponentPad*%
%ADD10C,1.524000*%
%TD*%
%TA.AperFunction,ComponentPad*%
%ADD11R,1.524000X1.524000*%
%TD*%
%TA.AperFunction,ComponentPad*%
%ADD12O,1.550000X0.890000*%
%TD*%
%TA.AperFunction,ComponentPad*%
%ADD13O,0.950000X1.250000*%
%TD*%
%TA.AperFunction,ComponentPad*%
%ADD14R,1.778000X1.778000*%
%TD*%
%TA.AperFunction,ComponentPad*%
%ADD15C,1.778000*%
%TD*%
%TA.AperFunction,ComponentPad*%
%ADD16C,3.200000*%
%TD*%
%TA.AperFunction,ComponentPad*%
%ADD17R,1.700000X1.700000*%
%TD*%
%TA.AperFunction,ComponentPad*%
%ADD18O,1.700000X1.700000*%
%TD*%
%TA.AperFunction,ViaPad*%
%ADD19C,0.600000*%
%TD*%
%TA.AperFunction,Conductor*%
%ADD20C,0.812800*%
%TD*%
G04 APERTURE END LIST*
D10*
%TO.P,U4,1,A0*%
%TO.N,unconnected-(U4-A0-Pad1)*%
X83975000Y-59970000D03*
%TO.P,U4,2,G*%
%TO.N,/GND*%
X86515000Y-59970000D03*
%TO.P,U4,3,VU*%
%TO.N,/5V*%
X89055000Y-59970000D03*
%TO.P,U4,4,S3*%
%TO.N,unconnected-(U4-S3-Pad4)*%
X91595000Y-59970000D03*
%TO.P,U4,5,S2*%
%TO.N,unconnected-(U4-S2-Pad5)*%
X94135000Y-59970000D03*
%TO.P,U4,6,S1*%
%TO.N,unconnected-(U4-S1-Pad6)*%
X96675000Y-59970000D03*
%TO.P,U4,7,SC*%
%TO.N,unconnected-(U4-SC-Pad7)*%
X99215000Y-59970000D03*
%TO.P,U4,8,S0*%
%TO.N,unconnected-(U4-S0-Pad8)*%
X101755000Y-59970000D03*
%TO.P,U4,9,SK*%
%TO.N,unconnected-(U4-SK-Pad9)*%
X104295000Y-59970000D03*
%TO.P,U4,10,G*%
%TO.N,/GND*%
X106835000Y-59970000D03*
%TO.P,U4,11,3V*%
%TO.N,/3V*%
X109375000Y-59970000D03*
%TO.P,U4,12,EN*%
%TO.N,unconnected-(U4-EN-Pad12)*%
X111915000Y-59970000D03*
%TO.P,U4,13,RST*%
%TO.N,unconnected-(U4-RST-Pad13)*%
X114455000Y-59970000D03*
%TO.P,U4,14,G*%
%TO.N,/GND*%
X116995000Y-59970000D03*
%TO.P,U4,15,VIN*%
%TO.N,unconnected-(U4-VIN-Pad15)*%
X119535000Y-59970000D03*
%TO.P,U4,16,3V*%
%TO.N,/3V*%
X119535000Y-32030000D03*
%TO.P,U4,17,G*%
%TO.N,/GND*%
X116995000Y-32030000D03*
%TO.P,U4,18,TX*%
%TO.N,unconnected-(U4-TX-Pad18)*%
X114455000Y-32030000D03*
%TO.P,U4,19,RX*%
%TO.N,unconnected-(U4-RX-Pad19)*%
X111915000Y-32030000D03*
%TO.P,U4,20,D8*%
%TO.N,unconnected-(U4-D8-Pad20)*%
X109375000Y-32030000D03*
%TO.P,U4,21,D7*%
%TO.N,/EN_0*%
X106835000Y-32030000D03*
%TO.P,U4,22,D6*%
%TO.N,/EN_1*%
X104295000Y-32030000D03*
%TO.P,U4,23,D5*%
%TO.N,/ALRT*%
X101755000Y-32030000D03*
%TO.P,U4,24,G*%
%TO.N,/GND*%
X99215000Y-32030000D03*
%TO.P,U4,25,3V*%
%TO.N,/3V*%
X96675000Y-32030000D03*
%TO.P,U4,26,D4*%
%TO.N,unconnected-(U4-D4-Pad26)*%
X94135000Y-32030000D03*
%TO.P,U4,27,D3*%
%TO.N,unconnected-(U4-D3-Pad27)*%
X91595000Y-32030000D03*
%TO.P,U4,28,D2*%
%TO.N,/SDA*%
X89055000Y-32030000D03*
%TO.P,U4,29,D1*%
%TO.N,/SCL*%
X86515000Y-32030000D03*
%TO.P,U4,30,D0*%
%TO.N,unconnected-(U4-D0-Pad30)*%
X83975000Y-32030000D03*
%TD*%
%TO.P,U2,GND_1,GND*%
%TO.N,/GND*%
X60455000Y-46610000D03*
%TO.P,U2,GND_2,GND*%
X70615000Y-46610000D03*
%TO.P,U2,HV,HV*%
%TO.N,/5V*%
X60455000Y-49150000D03*
D11*
%TO.P,U2,HV1,HV1*%
%TO.N,/ALRT_H*%
X60455000Y-54230000D03*
D10*
%TO.P,U2,HV2,HV2*%
%TO.N,unconnected-(U2-PadHV2)*%
X60455000Y-51690000D03*
%TO.P,U2,HV3,HV3*%
%TO.N,/SDA_H*%
X60455000Y-44070000D03*
%TO.P,U2,HV4,HV4*%
%TO.N,/SCL_H*%
X60455000Y-41530000D03*
%TO.P,U2,LV,LV*%
%TO.N,/3V*%
X70615000Y-49150000D03*
D11*
%TO.P,U2,LV1,LV1*%
%TO.N,/ALRT*%
X70615000Y-54230000D03*
D10*
%TO.P,U2,LV2,LV2*%
%TO.N,unconnected-(U2-PadLV2)*%
X70615000Y-51690000D03*
%TO.P,U2,LV3,LV3*%
%TO.N,/SDA*%
X70615000Y-44070000D03*
%TO.P,U2,LV4,LV4*%
%TO.N,/SCL*%
X70615000Y-41530000D03*
%TD*%
D12*
%TO.P,J2,6,Shield*%
%TO.N,/GND*%
X26410000Y-48130000D03*
D13*
X29110000Y-49130000D03*
X29110000Y-54130000D03*
D12*
X26410000Y-55130000D03*
%TD*%
D14*
%TO.P,U3,1,A3*%
%TO.N,unconnected-(U3-A3-Pad1)*%
X42617500Y-59310000D03*
D15*
%TO.P,U3,2,A2*%
%TO.N,unconnected-(U3-A2-Pad2)*%
X42617500Y-56770000D03*
%TO.P,U3,3,A1*%
%TO.N,/A1*%
X42617500Y-54230000D03*
%TO.P,U3,4,A0*%
%TO.N,/A0*%
X42617500Y-51690000D03*
%TO.P,U3,5,ALERT*%
%TO.N,/ALRT_H*%
X42617500Y-49150000D03*
%TO.P,U3,6,ADDR*%
%TO.N,/GND*%
X42617500Y-46610000D03*
%TO.P,U3,7,SDA*%
%TO.N,/SDA_H*%
X42617500Y-44070000D03*
%TO.P,U3,8,SCL*%
%TO.N,/SCL_H*%
X42617500Y-41530000D03*
%TO.P,U3,9,GND*%
%TO.N,/GND*%
X42617500Y-38990000D03*
%TO.P,U3,10,VDD*%
%TO.N,/5V*%
X42617500Y-36450000D03*
D16*
%TO.P,U3,P1*%
%TO.N,N/C*%
X55317500Y-36450000D03*
%TO.P,U3,P2*%
X55317500Y-59310000D03*
%TD*%
D17*
%TO.P,J1,1,Pin_1*%
%TO.N,/GND*%
X35725000Y-56755000D03*
D18*
%TO.P,J1,2,Pin_2*%
%TO.N,/3V*%
X35725000Y-54215000D03*
%TO.P,J1,3,Pin_3*%
%TO.N,/A1*%
X35725000Y-51675000D03*
%TO.P,J1,4,Pin_4*%
%TO.N,/EN_1*%
X35725000Y-49135000D03*
%TO.P,J1,5,Pin_5*%
%TO.N,/5V*%
X35725000Y-46595000D03*
%TD*%
D19*
%TO.N,/EN_0*%
X31250000Y-50675000D03*
%TD*%
D20*
%TO.N,/SCL*%
X70615000Y-41530000D02*
X78945000Y-41530000D01*
X82351827Y-36595822D02*
X83115503Y-37359497D01*
X83638764Y-37882755D02*
X83879180Y-38123171D01*
X85862500Y-34612500D02*
X86515000Y-33960000D01*
X81043679Y-36857452D02*
X81305309Y-36595822D01*
X85187328Y-36815023D02*
X84946911Y-36574607D01*
X83115503Y-37359497D02*
X83638764Y-37882755D01*
X81807354Y-38667647D02*
X81807354Y-38667646D01*
X82330613Y-39190906D02*
X81807354Y-38667647D01*
X81022464Y-40499055D02*
X81262880Y-40739472D01*
X84925698Y-38123171D02*
X85187328Y-37861541D01*
X86515000Y-33960000D02*
X86515000Y-32030000D01*
X84946911Y-35528089D02*
X85208540Y-35266460D01*
X78945000Y-41530000D02*
X79975944Y-40499056D01*
X81807354Y-38667646D02*
X81043679Y-37903970D01*
X82309398Y-40739472D02*
X82571028Y-40477842D01*
X85208540Y-35266460D02*
X85862500Y-34612500D01*
X82571028Y-39431324D02*
X82330613Y-39190906D01*
X84946911Y-36574607D02*
G75*
G02*
X84946863Y-35528041I523289J523307D01*
G01*
X81262880Y-40739472D02*
G75*
G03*
X82309398Y-40739472I523259J523259D01*
G01*
X83879180Y-38123171D02*
G75*
G03*
X84925698Y-38123171I523259J523259D01*
G01*
X81305309Y-36595822D02*
G75*
G02*
X82351827Y-36595822I523259J-523259D01*
G01*
X85187328Y-37861541D02*
G75*
G03*
X85187310Y-36815041I-523228J523241D01*
G01*
X82571028Y-40477842D02*
G75*
G03*
X82571011Y-39431341I-523228J523242D01*
G01*
X79975944Y-40499056D02*
G75*
G02*
X81022459Y-40499059I523256J-523244D01*
G01*
X81043679Y-37903970D02*
G75*
G02*
X81043668Y-36857441I523221J523270D01*
G01*
%TO.N,/3V*%
X91575000Y-49150000D02*
X96675000Y-44050000D01*
X70615000Y-49150000D02*
X91575000Y-49150000D01*
X96675000Y-44050000D02*
X96675000Y-32030000D01*
%TO.N,/ALRT*%
X101755000Y-47920000D02*
X95445000Y-54230000D01*
X101755000Y-32030000D02*
X101755000Y-47920000D01*
X95445000Y-54230000D02*
X70615000Y-54230000D01*
%TO.N,/5V*%
X68980000Y-57675000D02*
X60455000Y-49150000D01*
X60700000Y-39100000D02*
X45267500Y-39100000D01*
X60455000Y-49150000D02*
X62850000Y-46755000D01*
X62850000Y-41250000D02*
X60700000Y-39100000D01*
X60525000Y-49150000D02*
X60455000Y-49150000D01*
X89055000Y-59970000D02*
X86760000Y-57675000D01*
X86760000Y-57675000D02*
X68980000Y-57675000D01*
X62850000Y-46755000D02*
X62850000Y-41250000D01*
X60455000Y-49150000D02*
X60455000Y-49155000D01*
X45267500Y-39100000D02*
X42617500Y-36450000D01*
%TO.N,/SDA*%
X87055000Y-44070000D02*
X89055000Y-42070000D01*
X70615000Y-44070000D02*
X87055000Y-44070000D01*
X89055000Y-42070000D02*
X89055000Y-32030000D01*
%TO.N,/SCL_H*%
X60205000Y-41530000D02*
X42642500Y-41530000D01*
%TO.N,/SDA_H*%
X60205000Y-44070000D02*
X42642500Y-44070000D01*
%TO.N,/GND*%
X86515000Y-59670000D02*
X86515000Y-59640000D01*
%TO.N,/ALRT_H*%
X52660000Y-54230000D02*
X60455000Y-54230000D01*
X42617500Y-49150000D02*
X47580000Y-49150000D01*
X47580000Y-49150000D02*
X52660000Y-54230000D01*
%TO.N,/A1*%
X42597500Y-54210000D02*
X42617500Y-54230000D01*
%TO.N,/EN_1*%
X38650000Y-36450000D02*
X38650000Y-46210000D01*
X45325000Y-29775000D02*
X38650000Y-36450000D01*
X104295000Y-32030000D02*
X102040000Y-29775000D01*
X102040000Y-29775000D02*
X45325000Y-29775000D01*
X38650000Y-46210000D02*
X35725000Y-49135000D01*
%TO.N,/EN_0*%
X106830000Y-32030000D02*
X102625000Y-27825000D01*
X106835000Y-32030000D02*
X106830000Y-32030000D01*
X102625000Y-27825000D02*
X41875000Y-27825000D01*
X41875000Y-27825000D02*
X31250000Y-38450000D01*
X31250000Y-38450000D02*
X31250000Y-50675000D01*
%TD*%
%TA.AperFunction,Conductor*%
%TO.N,/GND*%
G36*
X84477829Y-58601585D02*
G01*
X84432074Y-58654389D01*
X84422130Y-58723547D01*
X84451155Y-58787103D01*
X84492463Y-58818282D01*
X84608660Y-58872465D01*
X84608662Y-58872466D01*
X84789623Y-58999175D01*
X84945825Y-59155377D01*
X85072533Y-59336337D01*
X85132895Y-59465782D01*
X85179068Y-59518221D01*
X85246262Y-59537372D01*
X85313143Y-59517156D01*
X85357659Y-59465780D01*
X85417902Y-59336589D01*
X85417903Y-59336587D01*
X85463259Y-59271811D01*
X85463260Y-59271810D01*
X86134000Y-59942551D01*
X86134000Y-59919840D01*
X86159964Y-59822939D01*
X86210124Y-59736060D01*
X86281060Y-59665124D01*
X86367939Y-59614964D01*
X86464840Y-59589000D01*
X86487554Y-59589000D01*
X85816812Y-58918258D01*
X85881589Y-58872901D01*
X85881595Y-58872898D01*
X85998720Y-58818282D01*
X86051160Y-58772110D01*
X86070312Y-58704916D01*
X86050096Y-58638035D01*
X85996931Y-58592701D01*
X85946316Y-58581900D01*
X84544868Y-58581900D01*
X84477829Y-58601585D01*
G37*
%TD.AperFunction*%
%TA.AperFunction,Conductor*%
G36*
X43658608Y-44996585D02*
G01*
X43634421Y-45016914D01*
X43561808Y-45095792D01*
X43469632Y-45167535D01*
X43376041Y-45240380D01*
X43376930Y-45241521D01*
X43335868Y-45289624D01*
X43326437Y-45358855D01*
X43355932Y-45422194D01*
X43376071Y-45439651D01*
X43375767Y-45440041D01*
X43408460Y-45465485D01*
X43408460Y-45465487D01*
X42746909Y-46127037D01*
X42810493Y-46144075D01*
X42924507Y-46209901D01*
X43017599Y-46302993D01*
X43083425Y-46417007D01*
X43100463Y-46480591D01*
X43760741Y-45820313D01*
X43843276Y-45946644D01*
X43935743Y-46157446D01*
X43992251Y-46380591D01*
X43992253Y-46380603D01*
X44011260Y-46609994D01*
X44011260Y-46610005D01*
X43992253Y-46839396D01*
X43992251Y-46839408D01*
X43935743Y-47062553D01*
X43843277Y-47273352D01*
X43760740Y-47399685D01*
X43100463Y-46739408D01*
X43083425Y-46802993D01*
X43017599Y-46917007D01*
X42924507Y-47010099D01*
X42810493Y-47075925D01*
X42746910Y-47092962D01*
X43408460Y-47754512D01*
X43408460Y-47754514D01*
X43375767Y-47779960D01*
X43376711Y-47781172D01*
X43335861Y-47829043D01*
X43326440Y-47898274D01*
X43355944Y-47961609D01*
X43376319Y-47979263D01*
X43376041Y-47979620D01*
X43561806Y-48124206D01*
X43561808Y-48124208D01*
X43634419Y-48203083D01*
X43694304Y-48239073D01*
X43725647Y-48243100D01*
X47669324Y-48243100D01*
X47844528Y-48277950D01*
X47844534Y-48277952D01*
X48009576Y-48346314D01*
X48009585Y-48346319D01*
X48158115Y-48445564D01*
X48158119Y-48445567D01*
X52999331Y-53286781D01*
X53060654Y-53320266D01*
X53087012Y-53323100D01*
X59126769Y-53323100D01*
X59193808Y-53303415D01*
X59239563Y-53250611D01*
X59242951Y-53242433D01*
X59249203Y-53225671D01*
X59249207Y-53225664D01*
X59335453Y-53110455D01*
X59335456Y-53110452D01*
X59450665Y-53024206D01*
X59450672Y-53024202D01*
X59585518Y-52973908D01*
X59585517Y-52973908D01*
X59645117Y-52967501D01*
X59645119Y-52967500D01*
X59645127Y-52967500D01*
X59645135Y-52967500D01*
X59685079Y-52967500D01*
X59752118Y-52947815D01*
X59797873Y-52895011D01*
X59807817Y-52825853D01*
X59778792Y-52762297D01*
X59756202Y-52741925D01*
X59640380Y-52660826D01*
X59484174Y-52504620D01*
X59357466Y-52323662D01*
X59264106Y-52123450D01*
X59206930Y-51910068D01*
X59187677Y-51690000D01*
X59187678Y-51689994D01*
X59200183Y-51547049D01*
X59206930Y-51469932D01*
X59264106Y-51256550D01*
X59357466Y-51056339D01*
X59484174Y-50875380D01*
X59640380Y-50719174D01*
X59640384Y-50719171D01*
X59640385Y-50719170D01*
X59821334Y-50592468D01*
X59821342Y-50592464D01*
X59950189Y-50532382D01*
X60002629Y-50486210D01*
X60021781Y-50419017D01*
X60001565Y-50352135D01*
X59950189Y-50307618D01*
X59941197Y-50303425D01*
X59821338Y-50247534D01*
X59640380Y-50120826D01*
X59484174Y-49964620D01*
X59357466Y-49783662D01*
X59264106Y-49583450D01*
X59206930Y-49370068D01*
X59187677Y-49150000D01*
X59187678Y-49149994D01*
X59203648Y-48967449D01*
X59206930Y-48929932D01*
X59264106Y-48716550D01*
X59357466Y-48516339D01*
X59474228Y-48349584D01*
X59484173Y-48335381D01*
X59555957Y-48263597D01*
X59640380Y-48179174D01*
X59640384Y-48179171D01*
X59640385Y-48179170D01*
X59821334Y-48052468D01*
X59821338Y-48052466D01*
X59950782Y-47992105D01*
X60003221Y-47945932D01*
X60022373Y-47878739D01*
X60002157Y-47811858D01*
X59950781Y-47767340D01*
X59821584Y-47707095D01*
X59821583Y-47707094D01*
X59756812Y-47661741D01*
X60319058Y-47099495D01*
X60258919Y-47083381D01*
X60143080Y-47016502D01*
X60048498Y-46921920D01*
X59981619Y-46806081D01*
X59965505Y-46745942D01*
X59403259Y-47308188D01*
X59357906Y-47243417D01*
X59357900Y-47243407D01*
X59264581Y-47043284D01*
X59264576Y-47043270D01*
X59207427Y-46829986D01*
X59207425Y-46829976D01*
X59188179Y-46610000D01*
X59188179Y-46609999D01*
X59207425Y-46390023D01*
X59207427Y-46390013D01*
X59264576Y-46176729D01*
X59264580Y-46176720D01*
X59357904Y-45976586D01*
X59403259Y-45911811D01*
X59403260Y-45911810D01*
X59965506Y-46474056D01*
X59981619Y-46413919D01*
X60048498Y-46298080D01*
X60143080Y-46203498D01*
X60258919Y-46136619D01*
X60319058Y-46120505D01*
X59756812Y-45558259D01*
X59756813Y-45558258D01*
X59821589Y-45512901D01*
X59821595Y-45512898D01*
X59950781Y-45452658D01*
X60003221Y-45406486D01*
X60022373Y-45339293D01*
X60002157Y-45272411D01*
X59950781Y-45227894D01*
X59821338Y-45167534D01*
X59640380Y-45040826D01*
X59612773Y-45013219D01*
X59551450Y-44979734D01*
X59525092Y-44976900D01*
X43725647Y-44976900D01*
X43658608Y-44996585D01*
G37*
%TD.AperFunction*%
%TA.AperFunction,Conductor*%
G36*
X61737897Y-44242424D02*
G01*
X61700123Y-44301202D01*
X61699334Y-44304013D01*
X61690726Y-44336137D01*
X61645896Y-44503445D01*
X61645895Y-44503447D01*
X61645894Y-44503450D01*
X61578436Y-44648115D01*
X61552534Y-44703662D01*
X61552532Y-44703666D01*
X61425830Y-44884615D01*
X61425825Y-44884621D01*
X61269622Y-45040824D01*
X61269616Y-45040829D01*
X61088667Y-45167531D01*
X61088665Y-45167532D01*
X61088662Y-45167534D01*
X60959219Y-45227894D01*
X60906780Y-45274066D01*
X60887628Y-45341260D01*
X60907844Y-45408141D01*
X60959219Y-45452658D01*
X61088410Y-45512901D01*
X61153189Y-45558258D01*
X60590943Y-46120504D01*
X60651081Y-46136619D01*
X60766920Y-46203498D01*
X60861502Y-46298080D01*
X60928381Y-46413919D01*
X60944496Y-46474057D01*
X61506742Y-45911811D01*
X61552099Y-45976590D01*
X61645421Y-46176720D01*
X61645424Y-46176727D01*
X61695562Y-46363845D01*
X61731927Y-46423505D01*
X61794774Y-46454034D01*
X61864150Y-46445739D01*
X61903018Y-46419432D01*
X61906781Y-46415669D01*
X61940266Y-46354346D01*
X61943100Y-46327988D01*
X61943100Y-44336137D01*
X61923415Y-44269098D01*
X61870611Y-44223343D01*
X61801453Y-44213399D01*
X61737897Y-44242424D01*
G37*
%TD.AperFunction*%
%TA.AperFunction,Conductor*%
G36*
X43083425Y-39182993D02*
G01*
X43017599Y-39297007D01*
X42924507Y-39390099D01*
X42810493Y-39455925D01*
X42746910Y-39472962D01*
X43408460Y-40134512D01*
X43408460Y-40134514D01*
X43375767Y-40159960D01*
X43376711Y-40161172D01*
X43335861Y-40209043D01*
X43326440Y-40278274D01*
X43355944Y-40341609D01*
X43376319Y-40359263D01*
X43376041Y-40359620D01*
X43561806Y-40504206D01*
X43561808Y-40504208D01*
X43634419Y-40583083D01*
X43694304Y-40619073D01*
X43725647Y-40623100D01*
X59525092Y-40623100D01*
X59592131Y-40603415D01*
X59612773Y-40586781D01*
X59640379Y-40559175D01*
X59640385Y-40559170D01*
X59821334Y-40432468D01*
X59821338Y-40432466D01*
X59821340Y-40432465D01*
X60021550Y-40339106D01*
X60021553Y-40339105D01*
X60021555Y-40339104D01*
X60234930Y-40281930D01*
X60234937Y-40281929D01*
X60305155Y-40275786D01*
X60370224Y-40250333D01*
X60411202Y-40193742D01*
X60415080Y-40123980D01*
X60382027Y-40064576D01*
X60360667Y-40043217D01*
X60299343Y-40009733D01*
X60272988Y-40006900D01*
X45178176Y-40006900D01*
X45043849Y-39980180D01*
X45002967Y-39972048D01*
X44837922Y-39903684D01*
X44689385Y-39804435D01*
X44169214Y-39284263D01*
X44107895Y-39250781D01*
X44038204Y-39255765D01*
X43982270Y-39297636D01*
X43961332Y-39341506D01*
X43935744Y-39442548D01*
X43935744Y-39442549D01*
X43843277Y-39653352D01*
X43760740Y-39779684D01*
X43100463Y-39119408D01*
X43083425Y-39182993D01*
G37*
%TD.AperFunction*%
%TA.AperFunction,Conductor*%
G36*
X30030944Y-25520185D02*
G01*
X29985189Y-25572989D01*
X29975245Y-25642147D01*
X29996853Y-25696255D01*
X30104405Y-25847835D01*
X30272856Y-26152625D01*
X30367089Y-26380124D01*
X30404592Y-26470666D01*
X30406122Y-26474359D01*
X30502526Y-26808982D01*
X30502528Y-26808990D01*
X30560858Y-27152299D01*
X30560860Y-27152311D01*
X30580385Y-27500000D01*
X30560860Y-27847688D01*
X30560858Y-27847700D01*
X30502528Y-28191009D01*
X30502526Y-28191017D01*
X30475500Y-28284825D01*
X30406121Y-28525644D01*
X30272855Y-28847376D01*
X30104405Y-29152164D01*
X29902888Y-29436176D01*
X29670839Y-29695839D01*
X29411176Y-29927888D01*
X29127164Y-30129405D01*
X28822376Y-30297855D01*
X28500644Y-30431121D01*
X28166013Y-30527527D01*
X27822693Y-30585859D01*
X27475000Y-30605385D01*
X27127307Y-30585859D01*
X26783987Y-30527527D01*
X26449356Y-30431121D01*
X26127624Y-30297855D01*
X25822836Y-30129405D01*
X25696254Y-30039590D01*
X25630190Y-30016851D01*
X25562318Y-30033438D01*
X25514188Y-30084087D01*
X25500500Y-30140720D01*
X25500500Y-47161597D01*
X25520185Y-47228636D01*
X25572989Y-47274391D01*
X25642147Y-47284335D01*
X25671952Y-47276158D01*
X25804350Y-47221317D01*
X25804362Y-47221314D01*
X25986923Y-47185000D01*
X26160000Y-47185000D01*
X26160000Y-47880000D01*
X26660000Y-47880000D01*
X26660000Y-47185000D01*
X26833077Y-47185000D01*
X27015639Y-47221314D01*
X27015647Y-47221316D01*
X27187623Y-47292550D01*
X27187632Y-47292555D01*
X27342402Y-47395970D01*
X27342406Y-47395973D01*
X27474027Y-47527594D01*
X27474030Y-47527598D01*
X27577445Y-47682368D01*
X27577452Y-47682381D01*
X27648683Y-47854350D01*
X27648684Y-47854355D01*
X27653784Y-47880000D01*
X26784728Y-47880000D01*
X26876614Y-47918060D01*
X26946940Y-47988386D01*
X26985000Y-48080272D01*
X26985000Y-48179728D01*
X26946940Y-48271614D01*
X26876614Y-48341940D01*
X26784728Y-48380000D01*
X27653784Y-48380000D01*
X27648684Y-48405644D01*
X27648683Y-48405649D01*
X27577452Y-48577618D01*
X27577445Y-48577631D01*
X27474030Y-48732401D01*
X27474027Y-48732405D01*
X27342406Y-48864026D01*
X27342402Y-48864029D01*
X27187632Y-48967444D01*
X27187623Y-48967449D01*
X27015647Y-49038683D01*
X27015639Y-49038685D01*
X26833079Y-49074999D01*
X26833076Y-49075000D01*
X26660000Y-49075000D01*
X26660000Y-48380000D01*
X26160000Y-48380000D01*
X26160000Y-49075000D01*
X25986924Y-49075000D01*
X25986922Y-49074999D01*
X25804362Y-49038685D01*
X25804354Y-49038683D01*
X25671953Y-48983841D01*
X25602484Y-48976372D01*
X25540004Y-49007647D01*
X25504352Y-49067736D01*
X25500500Y-49098402D01*
X25500500Y-54161597D01*
X25520185Y-54228636D01*
X25572989Y-54274391D01*
X25642147Y-54284335D01*
X25671952Y-54276158D01*
X25804350Y-54221317D01*
X25804362Y-54221314D01*
X25986923Y-54185000D01*
X26160000Y-54185000D01*
X26160000Y-54880000D01*
X26660000Y-54880000D01*
X26660000Y-54185000D01*
X26833077Y-54185000D01*
X27015639Y-54221314D01*
X27015647Y-54221316D01*
X27187623Y-54292550D01*
X27187632Y-54292555D01*
X27342402Y-54395970D01*
X27342406Y-54395973D01*
X27474027Y-54527594D01*
X27474030Y-54527598D01*
X27577445Y-54682368D01*
X27577452Y-54682381D01*
X27648683Y-54854350D01*
X27648684Y-54854355D01*
X27653784Y-54880000D01*
X26784728Y-54880000D01*
X26876614Y-54918060D01*
X26946940Y-54988386D01*
X26985000Y-55080272D01*
X26985000Y-55179728D01*
X26946940Y-55271614D01*
X26876614Y-55341940D01*
X26784728Y-55380000D01*
X27653784Y-55380000D01*
X27648684Y-55405644D01*
X27648683Y-55405649D01*
X27577452Y-55577618D01*
X27577445Y-55577631D01*
X27474030Y-55732401D01*
X27474027Y-55732405D01*
X27342406Y-55864026D01*
X27342402Y-55864029D01*
X27187632Y-55967444D01*
X27187623Y-55967449D01*
X27015647Y-56038683D01*
X27015639Y-56038685D01*
X26833079Y-56074999D01*
X26833076Y-56075000D01*
X26660000Y-56075000D01*
X26660000Y-55380000D01*
X26160000Y-55380000D01*
X26160000Y-56075000D01*
X25986924Y-56075000D01*
X25986922Y-56074999D01*
X25804362Y-56038685D01*
X25804354Y-56038683D01*
X25671953Y-55983841D01*
X25602484Y-55976372D01*
X25540004Y-56007647D01*
X25504352Y-56067736D01*
X25500500Y-56098402D01*
X25500500Y-62359279D01*
X25520185Y-62426318D01*
X25572989Y-62472073D01*
X25642147Y-62482017D01*
X25696255Y-62460409D01*
X25822836Y-62370595D01*
X26127626Y-62202144D01*
X26194259Y-62174544D01*
X26449356Y-62068879D01*
X26616672Y-62020676D01*
X26783983Y-61972474D01*
X26783991Y-61972472D01*
X27127300Y-61914142D01*
X27127312Y-61914140D01*
X27475000Y-61894615D01*
X27822689Y-61914140D01*
X27822701Y-61914142D01*
X28166010Y-61972472D01*
X28166018Y-61972474D01*
X28500641Y-62068878D01*
X28500644Y-62068879D01*
X28594876Y-62107911D01*
X28822375Y-62202144D01*
X29127165Y-62370595D01*
X29270184Y-62472073D01*
X29411176Y-62572112D01*
X29474499Y-62628701D01*
X29670839Y-62804161D01*
X29902887Y-63063823D01*
X30104405Y-63347835D01*
X30272856Y-63652625D01*
X30367089Y-63880124D01*
X30404592Y-63970666D01*
X30406122Y-63974359D01*
X30502526Y-64308982D01*
X30502528Y-64308990D01*
X30560858Y-64652299D01*
X30560860Y-64652311D01*
X30580385Y-65000000D01*
X30560860Y-65347688D01*
X30560858Y-65347700D01*
X30502528Y-65691009D01*
X30502526Y-65691017D01*
X30475500Y-65784825D01*
X30406121Y-66025644D01*
X30300456Y-66280741D01*
X30272856Y-66347374D01*
X30104405Y-66652164D01*
X29996853Y-66803745D01*
X29974114Y-66869811D01*
X29990702Y-66937683D01*
X30041351Y-66985812D01*
X30097983Y-66999500D01*
X117352017Y-66999500D01*
X117419056Y-66979815D01*
X117464811Y-66927011D01*
X117474755Y-66857853D01*
X117453147Y-66803745D01*
X117427321Y-66767345D01*
X117345595Y-66652164D01*
X117177145Y-66347376D01*
X117043879Y-66025644D01*
X116947473Y-65691013D01*
X116889141Y-65347693D01*
X116869615Y-65000000D01*
X116889141Y-64652307D01*
X116947473Y-64308987D01*
X117043879Y-63974356D01*
X117177145Y-63652624D01*
X117345595Y-63347836D01*
X117547112Y-63063824D01*
X117779161Y-62804161D01*
X118038824Y-62572112D01*
X118322836Y-62370595D01*
X118627624Y-62202145D01*
X118949356Y-62068879D01*
X119116672Y-62020676D01*
X119283983Y-61972474D01*
X119283991Y-61972472D01*
X119627300Y-61914142D01*
X119627312Y-61914140D01*
X119975000Y-61894615D01*
X120322689Y-61914140D01*
X120322701Y-61914142D01*
X120666010Y-61972472D01*
X120666018Y-61972474D01*
X121000641Y-62068878D01*
X121000644Y-62068879D01*
X121094876Y-62107911D01*
X121322375Y-62202144D01*
X121627165Y-62370595D01*
X121778745Y-62478147D01*
X121844811Y-62500886D01*
X121912683Y-62484298D01*
X121960812Y-62433649D01*
X121974500Y-62377017D01*
X121974500Y-59969997D01*
X120802323Y-59969997D01*
X120802323Y-59970002D01*
X120783071Y-60190062D01*
X120783070Y-60190070D01*
X120725896Y-60403445D01*
X120725895Y-60403447D01*
X120725894Y-60403450D01*
X120708228Y-60441335D01*
X120632534Y-60603662D01*
X120632532Y-60603666D01*
X120505830Y-60784615D01*
X120505825Y-60784621D01*
X120349622Y-60940824D01*
X120349616Y-60940829D01*
X120168667Y-61067531D01*
X120168665Y-61067532D01*
X120168662Y-61067534D01*
X119968450Y-61160894D01*
X119755068Y-61218070D01*
X119597877Y-61231822D01*
X119535002Y-61237323D01*
X119535000Y-61237323D01*
X119534998Y-61237323D01*
X119479983Y-61232509D01*
X119314932Y-61218070D01*
X119101550Y-61160894D01*
X118901338Y-61067534D01*
X118720380Y-60940826D01*
X118564174Y-60784620D01*
X118437466Y-60603662D01*
X118377106Y-60474218D01*
X118330934Y-60421779D01*
X118263741Y-60402627D01*
X118196859Y-60422843D01*
X118152342Y-60474219D01*
X118092102Y-60603405D01*
X118092099Y-60603411D01*
X118046742Y-60668187D01*
X118046741Y-60668188D01*
X117376000Y-59997447D01*
X117376000Y-60020160D01*
X117350036Y-60117061D01*
X117299876Y-60203940D01*
X117228940Y-60274876D01*
X117142061Y-60325036D01*
X117045160Y-60351000D01*
X117022447Y-60351000D01*
X117693190Y-61021740D01*
X117628410Y-61067099D01*
X117628408Y-61067100D01*
X117428285Y-61160419D01*
X117428271Y-61160424D01*
X117214987Y-61217573D01*
X117214977Y-61217575D01*
X116995001Y-61236821D01*
X116994999Y-61236821D01*
X116775024Y-61217575D01*
X116775014Y-61217573D01*
X116561730Y-61160424D01*
X116561716Y-61160419D01*
X116361593Y-61067100D01*
X116361583Y-61067094D01*
X116296812Y-61021741D01*
X116967552Y-60351000D01*
X116944840Y-60351000D01*
X116847939Y-60325036D01*
X116761060Y-60274876D01*
X116690124Y-60203940D01*
X116639964Y-60117061D01*
X116614000Y-60020160D01*
X116614000Y-59997447D01*
X115943259Y-60668188D01*
X115897906Y-60603417D01*
X115897905Y-60603416D01*
X115837660Y-60474219D01*
X115791488Y-60421780D01*
X115724294Y-60402627D01*
X115657413Y-60422842D01*
X115612895Y-60474218D01*
X115552534Y-60603662D01*
X115552532Y-60603666D01*
X115425830Y-60784615D01*
X115425825Y-60784621D01*
X115269622Y-60940824D01*
X115269616Y-60940829D01*
X115088667Y-61067531D01*
X115088665Y-61067532D01*
X115088662Y-61067534D01*
X114888450Y-61160894D01*
X114675068Y-61218070D01*
X114517877Y-61231822D01*
X114455002Y-61237323D01*
X114455000Y-61237323D01*
X114454998Y-61237323D01*
X114399983Y-61232509D01*
X114234932Y-61218070D01*
X114021550Y-61160894D01*
X113821338Y-61067534D01*
X113640380Y-60940826D01*
X113484174Y-60784620D01*
X113357466Y-60603662D01*
X113297382Y-60474811D01*
X113251210Y-60422371D01*
X113184017Y-60403219D01*
X113117135Y-60423435D01*
X113072618Y-60474811D01*
X113012536Y-60603658D01*
X113012532Y-60603666D01*
X112885830Y-60784615D01*
X112885825Y-60784621D01*
X112729622Y-60940824D01*
X112729616Y-60940829D01*
X112548667Y-61067531D01*
X112548665Y-61067532D01*
X112548662Y-61067534D01*
X112348450Y-61160894D01*
X112135068Y-61218070D01*
X111977877Y-61231822D01*
X111915002Y-61237323D01*
X111915000Y-61237323D01*
X111914998Y-61237323D01*
X111859983Y-61232509D01*
X111694932Y-61218070D01*
X111481550Y-61160894D01*
X111281338Y-61067534D01*
X111100380Y-60940826D01*
X110944174Y-60784620D01*
X110817466Y-60603662D01*
X110757382Y-60474811D01*
X110711210Y-60422371D01*
X110644017Y-60403219D01*
X110577135Y-60423435D01*
X110532618Y-60474811D01*
X110472536Y-60603658D01*
X110472532Y-60603666D01*
X110345830Y-60784615D01*
X110345825Y-60784621D01*
X110189622Y-60940824D01*
X110189616Y-60940829D01*
X110008667Y-61067531D01*
X110008665Y-61067532D01*
X110008662Y-61067534D01*
X109808450Y-61160894D01*
X109595068Y-61218070D01*
X109437877Y-61231822D01*
X109375002Y-61237323D01*
X109375000Y-61237323D01*
X109374998Y-61237323D01*
X109319983Y-61232509D01*
X109154932Y-61218070D01*
X108941550Y-61160894D01*
X108741338Y-61067534D01*
X108560380Y-60940826D01*
X108404174Y-60784620D01*
X108277466Y-60603662D01*
X108217106Y-60474218D01*
X108170934Y-60421779D01*
X108103741Y-60402627D01*
X108036859Y-60422843D01*
X107992342Y-60474219D01*
X107932102Y-60603405D01*
X107932099Y-60603411D01*
X107886742Y-60668187D01*
X107886741Y-60668188D01*
X107216000Y-59997447D01*
X107216000Y-60020160D01*
X107190036Y-60117061D01*
X107139876Y-60203940D01*
X107068940Y-60274876D01*
X106982061Y-60325036D01*
X106885160Y-60351000D01*
X106862447Y-60351000D01*
X107533190Y-61021740D01*
X107468410Y-61067099D01*
X107468408Y-61067100D01*
X107268285Y-61160419D01*
X107268271Y-61160424D01*
X107054987Y-61217573D01*
X107054977Y-61217575D01*
X106835001Y-61236821D01*
X106834999Y-61236821D01*
X106615024Y-61217575D01*
X106615014Y-61217573D01*
X106401730Y-61160424D01*
X106401716Y-61160419D01*
X106201593Y-61067100D01*
X106201583Y-61067094D01*
X106136812Y-61021741D01*
X106807552Y-60351000D01*
X106784840Y-60351000D01*
X106687939Y-60325036D01*
X106601060Y-60274876D01*
X106530124Y-60203940D01*
X106479964Y-60117061D01*
X106454000Y-60020160D01*
X106454000Y-59997447D01*
X105783259Y-60668188D01*
X105737906Y-60603417D01*
X105737905Y-60603416D01*
X105677660Y-60474219D01*
X105631488Y-60421780D01*
X105564294Y-60402627D01*
X105497413Y-60422842D01*
X105452895Y-60474218D01*
X105392534Y-60603662D01*
X105392532Y-60603666D01*
X105265830Y-60784615D01*
X105265825Y-60784621D01*
X105109622Y-60940824D01*
X105109616Y-60940829D01*
X104928667Y-61067531D01*
X104928665Y-61067532D01*
X104928662Y-61067534D01*
X104728450Y-61160894D01*
X104515068Y-61218070D01*
X104357877Y-61231822D01*
X104295002Y-61237323D01*
X104295000Y-61237323D01*
X104294998Y-61237323D01*
X104239983Y-61232509D01*
X104074932Y-61218070D01*
X103861550Y-61160894D01*
X103661338Y-61067534D01*
X103480380Y-60940826D01*
X103324174Y-60784620D01*
X103197466Y-60603662D01*
X103137382Y-60474811D01*
X103091210Y-60422371D01*
X103024017Y-60403219D01*
X102957135Y-60423435D01*
X102912618Y-60474811D01*
X102852536Y-60603658D01*
X102852532Y-60603666D01*
X102725830Y-60784615D01*
X102725825Y-60784621D01*
X102569622Y-60940824D01*
X102569616Y-60940829D01*
X102388667Y-61067531D01*
X102388665Y-61067532D01*
X102388662Y-61067534D01*
X102188450Y-61160894D01*
X101975068Y-61218070D01*
X101817877Y-61231822D01*
X101755002Y-61237323D01*
X101755000Y-61237323D01*
X101754998Y-61237323D01*
X101699983Y-61232509D01*
X101534932Y-61218070D01*
X101321550Y-61160894D01*
X101121338Y-61067534D01*
X100940380Y-60940826D01*
X100784174Y-60784620D01*
X100657466Y-60603662D01*
X100597382Y-60474811D01*
X100551210Y-60422371D01*
X100484017Y-60403219D01*
X100417135Y-60423435D01*
X100372618Y-60474811D01*
X100312536Y-60603658D01*
X100312532Y-60603666D01*
X100185830Y-60784615D01*
X100185825Y-60784621D01*
X100029622Y-60940824D01*
X100029616Y-60940829D01*
X99848667Y-61067531D01*
X99848665Y-61067532D01*
X99848662Y-61067534D01*
X99648450Y-61160894D01*
X99435068Y-61218070D01*
X99277877Y-61231822D01*
X99215002Y-61237323D01*
X99215000Y-61237323D01*
X99214998Y-61237323D01*
X99159983Y-61232509D01*
X98994932Y-61218070D01*
X98781550Y-61160894D01*
X98581338Y-61067534D01*
X98400380Y-60940826D01*
X98244174Y-60784620D01*
X98117466Y-60603662D01*
X98057382Y-60474811D01*
X98011210Y-60422371D01*
X97944017Y-60403219D01*
X97877135Y-60423435D01*
X97832618Y-60474811D01*
X97772536Y-60603658D01*
X97772532Y-60603666D01*
X97645830Y-60784615D01*
X97645825Y-60784621D01*
X97489622Y-60940824D01*
X97489616Y-60940829D01*
X97308667Y-61067531D01*
X97308665Y-61067532D01*
X97308662Y-61067534D01*
X97108450Y-61160894D01*
X96895068Y-61218070D01*
X96737877Y-61231822D01*
X96675002Y-61237323D01*
X96675000Y-61237323D01*
X96674998Y-61237323D01*
X96619983Y-61232509D01*
X96454932Y-61218070D01*
X96241550Y-61160894D01*
X96041338Y-61067534D01*
X95860380Y-60940826D01*
X95704174Y-60784620D01*
X95577466Y-60603662D01*
X95517382Y-60474811D01*
X95471210Y-60422371D01*
X95404017Y-60403219D01*
X95337135Y-60423435D01*
X95292618Y-60474811D01*
X95232536Y-60603658D01*
X95232532Y-60603666D01*
X95105830Y-60784615D01*
X95105825Y-60784621D01*
X94949622Y-60940824D01*
X94949616Y-60940829D01*
X94768667Y-61067531D01*
X94768665Y-61067532D01*
X94768662Y-61067534D01*
X94568450Y-61160894D01*
X94355068Y-61218070D01*
X94197877Y-61231822D01*
X94135002Y-61237323D01*
X94135000Y-61237323D01*
X94134998Y-61237323D01*
X94079983Y-61232509D01*
X93914932Y-61218070D01*
X93701550Y-61160894D01*
X93501338Y-61067534D01*
X93320380Y-60940826D01*
X93164174Y-60784620D01*
X93037466Y-60603662D01*
X92977382Y-60474811D01*
X92931210Y-60422371D01*
X92864017Y-60403219D01*
X92797135Y-60423435D01*
X92752618Y-60474811D01*
X92692536Y-60603658D01*
X92692532Y-60603666D01*
X92565830Y-60784615D01*
X92565825Y-60784621D01*
X92409622Y-60940824D01*
X92409616Y-60940829D01*
X92228667Y-61067531D01*
X92228665Y-61067532D01*
X92228662Y-61067534D01*
X92028450Y-61160894D01*
X91815068Y-61218070D01*
X91657877Y-61231822D01*
X91595002Y-61237323D01*
X91595000Y-61237323D01*
X91594998Y-61237323D01*
X91539983Y-61232509D01*
X91374932Y-61218070D01*
X91161550Y-61160894D01*
X90961338Y-61067534D01*
X90780380Y-60940826D01*
X90624174Y-60784620D01*
X90497466Y-60603662D01*
X90437382Y-60474811D01*
X90391210Y-60422371D01*
X90324017Y-60403219D01*
X90257135Y-60423435D01*
X90212618Y-60474811D01*
X90152536Y-60603658D01*
X90152532Y-60603666D01*
X90025830Y-60784615D01*
X90025825Y-60784621D01*
X89869622Y-60940824D01*
X89869616Y-60940829D01*
X89688667Y-61067531D01*
X89688665Y-61067532D01*
X89688662Y-61067534D01*
X89488450Y-61160894D01*
X89275068Y-61218070D01*
X89117877Y-61231822D01*
X89055002Y-61237323D01*
X89055000Y-61237323D01*
X89054998Y-61237323D01*
X88999983Y-61232509D01*
X88834932Y-61218070D01*
X88621550Y-61160894D01*
X88421338Y-61067534D01*
X88240380Y-60940826D01*
X88084174Y-60784620D01*
X87957466Y-60603662D01*
X87897106Y-60474218D01*
X87850934Y-60421779D01*
X87783741Y-60402627D01*
X87716859Y-60422843D01*
X87672342Y-60474219D01*
X87612102Y-60603405D01*
X87612099Y-60603411D01*
X87566742Y-60668187D01*
X87566742Y-60668188D01*
X86896000Y-59997446D01*
X86896000Y-60020160D01*
X86870036Y-60117061D01*
X86819876Y-60203940D01*
X86748940Y-60274876D01*
X86662061Y-60325036D01*
X86565160Y-60351000D01*
X86542447Y-60351000D01*
X87213190Y-61021740D01*
X87148410Y-61067099D01*
X87148408Y-61067100D01*
X86948285Y-61160419D01*
X86948271Y-61160424D01*
X86734987Y-61217573D01*
X86734977Y-61217575D01*
X86515001Y-61236821D01*
X86514999Y-61236821D01*
X86295024Y-61217575D01*
X86295014Y-61217573D01*
X86081730Y-61160424D01*
X86081716Y-61160419D01*
X85881593Y-61067100D01*
X85881583Y-61067094D01*
X85816812Y-61021741D01*
X86487552Y-60351000D01*
X86464840Y-60351000D01*
X86367939Y-60325036D01*
X86281060Y-60274876D01*
X86210124Y-60203940D01*
X86159964Y-60117061D01*
X86134000Y-60020160D01*
X86134000Y-59997447D01*
X85463259Y-60668188D01*
X85417906Y-60603417D01*
X85417905Y-60603416D01*
X85357660Y-60474219D01*
X85311488Y-60421780D01*
X85244294Y-60402627D01*
X85177413Y-60422842D01*
X85132895Y-60474218D01*
X85072534Y-60603662D01*
X85072532Y-60603666D01*
X84945830Y-60784615D01*
X84945825Y-60784621D01*
X84789622Y-60940824D01*
X84789616Y-60940829D01*
X84608667Y-61067531D01*
X84608665Y-61067532D01*
X84608662Y-61067534D01*
X84408450Y-61160894D01*
X84195068Y-61218070D01*
X84037877Y-61231822D01*
X83975002Y-61237323D01*
X83975000Y-61237323D01*
X83974998Y-61237323D01*
X83919983Y-61232509D01*
X83754932Y-61218070D01*
X83541550Y-61160894D01*
X83341338Y-61067534D01*
X83160380Y-60940826D01*
X83004174Y-60784620D01*
X82877466Y-60603662D01*
X82784106Y-60403450D01*
X82726930Y-60190068D01*
X82707677Y-59970000D01*
X82726930Y-59749932D01*
X82784106Y-59536550D01*
X82877466Y-59336339D01*
X82895909Y-59310000D01*
X57422908Y-59310000D01*
X57403299Y-59596680D01*
X57403299Y-59596684D01*
X57403298Y-59596686D01*
X57381516Y-59701509D01*
X57344834Y-59878034D01*
X57344833Y-59878037D01*
X57248606Y-60148793D01*
X57248607Y-60148793D01*
X57116402Y-60403935D01*
X56950688Y-60638700D01*
X56893906Y-60699498D01*
X56754553Y-60848708D01*
X56531647Y-61030055D01*
X56316493Y-61160894D01*
X56286118Y-61179365D01*
X56152683Y-61237323D01*
X56022558Y-61293844D01*
X55745858Y-61371371D01*
X55495580Y-61405771D01*
X55461179Y-61410500D01*
X55461178Y-61410500D01*
X55173821Y-61410500D01*
X55143130Y-61406281D01*
X54889142Y-61371371D01*
X54612442Y-61293844D01*
X54482317Y-61237323D01*
X54348883Y-61179365D01*
X54348880Y-61179363D01*
X54348875Y-61179361D01*
X54103353Y-61030055D01*
X53880447Y-60848708D01*
X53684311Y-60638698D01*
X53518599Y-60403936D01*
X53386396Y-60148797D01*
X53290166Y-59878032D01*
X53231702Y-59596686D01*
X53212092Y-59310000D01*
X53231702Y-59023314D01*
X53290166Y-58741968D01*
X53297288Y-58721930D01*
X53386395Y-58471206D01*
X53386394Y-58471206D01*
X53518599Y-58216064D01*
X53684313Y-57981299D01*
X53809654Y-57847093D01*
X53880447Y-57771292D01*
X54009048Y-57666667D01*
X54103354Y-57589944D01*
X54348883Y-57440634D01*
X54612437Y-57326158D01*
X54612439Y-57326157D01*
X54612442Y-57326156D01*
X54741922Y-57289877D01*
X54889136Y-57248630D01*
X54889141Y-57248629D01*
X54889142Y-57248629D01*
X55077670Y-57222716D01*
X55173821Y-57209500D01*
X55173822Y-57209500D01*
X55461178Y-57209500D01*
X55461179Y-57209500D01*
X55745858Y-57248629D01*
X55745865Y-57248630D01*
X55953639Y-57306845D01*
X56022558Y-57326156D01*
X56022561Y-57326156D01*
X56022564Y-57326158D01*
X56022565Y-57326158D01*
X56286118Y-57440634D01*
X56531647Y-57589944D01*
X56754550Y-57771289D01*
X56950688Y-57981299D01*
X57116402Y-58216064D01*
X57248606Y-58471206D01*
X57344833Y-58741962D01*
X57344834Y-58741965D01*
X57403299Y-59023319D01*
X57422908Y-59310000D01*
X82895909Y-59310000D01*
X83004174Y-59155380D01*
X83160380Y-58999174D01*
X83160384Y-58999171D01*
X83160385Y-58999170D01*
X83341334Y-58872468D01*
X83341338Y-58872466D01*
X83341340Y-58872465D01*
X83457538Y-58818281D01*
X83509976Y-58772110D01*
X83529128Y-58704916D01*
X83508912Y-58638035D01*
X83455747Y-58592701D01*
X83405132Y-58581900D01*
X68890676Y-58581900D01*
X68772802Y-58558452D01*
X68715467Y-58547048D01*
X68550422Y-58478684D01*
X68401885Y-58379435D01*
X61903425Y-51880974D01*
X61842104Y-51847491D01*
X61772412Y-51852475D01*
X61716479Y-51894347D01*
X61695971Y-51936563D01*
X61645896Y-52123444D01*
X61645895Y-52123446D01*
X61645894Y-52123450D01*
X61636911Y-52142714D01*
X61552534Y-52323662D01*
X61552532Y-52323666D01*
X61531575Y-52353595D01*
X61425826Y-52504620D01*
X61269620Y-52660826D01*
X61194404Y-52713493D01*
X61153798Y-52741925D01*
X61110173Y-52796502D01*
X61102979Y-52866000D01*
X61134502Y-52928355D01*
X61194731Y-52963769D01*
X61224918Y-52967500D01*
X61264869Y-52967500D01*
X61264877Y-52967501D01*
X61324484Y-52973908D01*
X61459329Y-53024202D01*
X61459336Y-53024206D01*
X61574545Y-53110452D01*
X61574548Y-53110455D01*
X61660794Y-53225664D01*
X61660798Y-53225671D01*
X61711092Y-53360517D01*
X61717499Y-53420116D01*
X61717499Y-53420123D01*
X61717500Y-53420135D01*
X61717500Y-55039870D01*
X61717499Y-55039876D01*
X61711092Y-55099483D01*
X61660798Y-55234328D01*
X61660794Y-55234335D01*
X61574548Y-55349544D01*
X61574545Y-55349547D01*
X61459336Y-55435793D01*
X61459329Y-55435797D01*
X61324483Y-55486091D01*
X61324484Y-55486091D01*
X61317556Y-55486835D01*
X61264873Y-55492500D01*
X59645128Y-55492499D01*
X59585517Y-55486091D01*
X59450669Y-55435796D01*
X59335454Y-55349546D01*
X59249204Y-55234331D01*
X59245490Y-55224373D01*
X59242951Y-55217567D01*
X59201080Y-55161633D01*
X59135616Y-55137216D01*
X59126769Y-55136900D01*
X52570676Y-55136900D01*
X52452802Y-55113452D01*
X52395467Y-55102048D01*
X52230422Y-55033684D01*
X52081885Y-54934435D01*
X47240669Y-50093219D01*
X47179346Y-50059734D01*
X47152988Y-50056900D01*
X43725647Y-50056900D01*
X43658608Y-50076585D01*
X43634421Y-50096914D01*
X43561808Y-50175792D01*
X43469632Y-50247535D01*
X43376041Y-50320380D01*
X43377024Y-50321641D01*
X43336317Y-50369349D01*
X43326900Y-50438581D01*
X43356408Y-50501914D01*
X43376364Y-50519205D01*
X43376041Y-50519620D01*
X43561806Y-50664206D01*
X43561811Y-50664211D01*
X43717772Y-50833629D01*
X43843718Y-51026405D01*
X43936218Y-51237285D01*
X43992747Y-51460515D01*
X44011762Y-51689994D01*
X44011762Y-51690005D01*
X43992747Y-51919484D01*
X43936218Y-52142714D01*
X43843718Y-52353594D01*
X43717772Y-52546370D01*
X43677398Y-52590227D01*
X43561808Y-52715792D01*
X43458111Y-52796502D01*
X43376041Y-52860380D01*
X43377024Y-52861641D01*
X43336317Y-52909349D01*
X43326900Y-52978581D01*
X43356408Y-53041914D01*
X43376364Y-53059205D01*
X43376041Y-53059620D01*
X43561806Y-53204206D01*
X43561811Y-53204211D01*
X43717772Y-53373629D01*
X43843718Y-53566405D01*
X43936218Y-53777285D01*
X43992747Y-54000515D01*
X44011762Y-54229994D01*
X44011762Y-54230005D01*
X43992747Y-54459484D01*
X43936218Y-54682714D01*
X43843718Y-54893594D01*
X43717772Y-55086370D01*
X43703340Y-55102047D01*
X43561808Y-55255792D01*
X43453965Y-55339729D01*
X43376041Y-55400380D01*
X43377024Y-55401641D01*
X43336317Y-55449349D01*
X43326900Y-55518581D01*
X43356408Y-55581914D01*
X43376364Y-55599205D01*
X43376041Y-55599620D01*
X43561806Y-55744206D01*
X43561811Y-55744211D01*
X43717772Y-55913629D01*
X43843718Y-56106405D01*
X43936218Y-56317285D01*
X43992747Y-56540515D01*
X44011762Y-56769994D01*
X44011762Y-56770005D01*
X43992747Y-56999484D01*
X43936218Y-57222714D01*
X43843718Y-57433594D01*
X43717772Y-57626370D01*
X43717769Y-57626373D01*
X43610219Y-57743204D01*
X43579297Y-57805858D01*
X43587157Y-57875284D01*
X43631304Y-57929439D01*
X43658115Y-57943368D01*
X43748830Y-57977203D01*
X43748836Y-57977206D01*
X43864045Y-58063452D01*
X43864048Y-58063455D01*
X43950294Y-58178664D01*
X43950298Y-58178671D01*
X44000592Y-58313517D01*
X44006999Y-58373116D01*
X44006999Y-58373123D01*
X44007000Y-58373135D01*
X44007000Y-60246870D01*
X44006999Y-60246876D01*
X44000592Y-60306483D01*
X43950298Y-60441328D01*
X43950294Y-60441335D01*
X43864048Y-60556544D01*
X43864045Y-60556547D01*
X43748836Y-60642793D01*
X43748829Y-60642797D01*
X43613983Y-60693091D01*
X43613984Y-60693091D01*
X43607056Y-60693835D01*
X43554373Y-60699500D01*
X41680628Y-60699499D01*
X41621017Y-60693091D01*
X41486169Y-60642796D01*
X41370954Y-60556546D01*
X41284704Y-60441331D01*
X41234409Y-60306483D01*
X41228000Y-60246873D01*
X41228001Y-58373128D01*
X41234409Y-58313517D01*
X41270757Y-58216064D01*
X41284703Y-58178671D01*
X41284707Y-58178664D01*
X41370953Y-58063455D01*
X41370956Y-58063452D01*
X41486165Y-57977206D01*
X41486170Y-57977203D01*
X41576886Y-57943368D01*
X41632819Y-57901496D01*
X41657236Y-57836032D01*
X41642384Y-57767759D01*
X41624783Y-57743205D01*
X41517231Y-57626373D01*
X41391283Y-57433595D01*
X41298783Y-57222716D01*
X41242254Y-56999488D01*
X41233803Y-56897493D01*
X41223238Y-56770005D01*
X41223238Y-56769994D01*
X41242254Y-56540515D01*
X41242254Y-56540512D01*
X41298783Y-56317284D01*
X41391283Y-56106405D01*
X41411801Y-56075000D01*
X41517229Y-55913629D01*
X41562892Y-55864026D01*
X41673192Y-55744208D01*
X41854911Y-55602771D01*
X41854910Y-55602771D01*
X41858959Y-55599620D01*
X41857975Y-55598354D01*
X41898676Y-55550670D01*
X41908104Y-55481439D01*
X41878607Y-55418102D01*
X41858635Y-55400796D01*
X41858959Y-55400380D01*
X41793645Y-55349544D01*
X41673192Y-55255792D01*
X41517231Y-55086373D01*
X41391283Y-54893595D01*
X41298783Y-54682716D01*
X41242254Y-54459488D01*
X41223238Y-54230000D01*
X41223958Y-54221316D01*
X41242254Y-54000515D01*
X41242254Y-54000512D01*
X41298783Y-53777284D01*
X41391283Y-53566405D01*
X41517229Y-53373629D01*
X41586513Y-53298367D01*
X41673192Y-53204208D01*
X41854911Y-53062771D01*
X41854910Y-53062771D01*
X41858959Y-53059620D01*
X41857975Y-53058354D01*
X41898676Y-53010670D01*
X41908104Y-52941439D01*
X41878607Y-52878102D01*
X41858635Y-52860796D01*
X41858959Y-52860380D01*
X41776889Y-52796502D01*
X41673192Y-52715792D01*
X41517231Y-52546373D01*
X41391283Y-52353595D01*
X41298783Y-52142716D01*
X41242254Y-51919488D01*
X41223238Y-51690000D01*
X41224481Y-51675000D01*
X41241473Y-51469937D01*
X41242254Y-51460512D01*
X41298783Y-51237284D01*
X41391283Y-51026405D01*
X41517229Y-50833629D01*
X41581031Y-50764322D01*
X41673192Y-50664208D01*
X41767064Y-50591144D01*
X41858959Y-50519620D01*
X41857975Y-50518354D01*
X41898676Y-50470670D01*
X41908104Y-50401439D01*
X41878607Y-50338102D01*
X41858635Y-50320796D01*
X41858959Y-50320380D01*
X41765368Y-50247535D01*
X41673192Y-50175792D01*
X41517231Y-50006373D01*
X41391283Y-49813595D01*
X41298783Y-49602716D01*
X41242254Y-49379488D01*
X41230503Y-49237680D01*
X41223238Y-49150005D01*
X41223238Y-49149994D01*
X41241473Y-48929937D01*
X41242254Y-48920512D01*
X41298783Y-48697284D01*
X41391283Y-48486405D01*
X41517229Y-48293629D01*
X41566353Y-48240266D01*
X41673192Y-48124208D01*
X41778212Y-48042468D01*
X41858959Y-47979620D01*
X41858072Y-47978480D01*
X41899137Y-47930366D01*
X41908562Y-47861135D01*
X41879063Y-47797798D01*
X41858929Y-47780352D01*
X41859234Y-47779960D01*
X41826542Y-47754513D01*
X41826541Y-47754511D01*
X42488090Y-47092962D01*
X42424507Y-47075925D01*
X42310493Y-47010099D01*
X42217401Y-46917007D01*
X42151575Y-46802993D01*
X42134538Y-46739409D01*
X41474262Y-47399685D01*
X41391728Y-47273359D01*
X41391723Y-47273351D01*
X41299258Y-47062553D01*
X41242750Y-46839408D01*
X41242748Y-46839396D01*
X41223740Y-46610005D01*
X41223740Y-46609994D01*
X41242748Y-46380603D01*
X41242750Y-46380591D01*
X41299258Y-46157446D01*
X41391726Y-45946642D01*
X41474262Y-45820313D01*
X42134538Y-46480589D01*
X42151575Y-46417007D01*
X42217401Y-46302993D01*
X42310493Y-46209901D01*
X42424507Y-46144075D01*
X42488091Y-46127037D01*
X41826542Y-45465486D01*
X41826542Y-45465484D01*
X41859233Y-45440040D01*
X41858291Y-45438829D01*
X41899145Y-45390947D01*
X41908559Y-45321714D01*
X41879050Y-45258382D01*
X41858680Y-45240738D01*
X41858959Y-45240380D01*
X41765368Y-45167535D01*
X41673192Y-45095792D01*
X41517231Y-44926373D01*
X41391283Y-44733595D01*
X41298783Y-44522716D01*
X41242254Y-44299488D01*
X41223238Y-44070000D01*
X41242254Y-43840512D01*
X41298783Y-43617284D01*
X41391283Y-43406405D01*
X41517229Y-43213629D01*
X41566353Y-43160266D01*
X41673192Y-43044208D01*
X41767064Y-42971144D01*
X41858959Y-42899620D01*
X41857975Y-42898354D01*
X41898676Y-42850670D01*
X41908104Y-42781439D01*
X41878607Y-42718102D01*
X41858635Y-42700796D01*
X41858959Y-42700380D01*
X41765368Y-42627535D01*
X41673192Y-42555792D01*
X41517231Y-42386373D01*
X41391283Y-42193595D01*
X41298783Y-41982716D01*
X41242254Y-41759488D01*
X41231164Y-41625650D01*
X41223238Y-41530005D01*
X41223238Y-41529994D01*
X41235916Y-41377008D01*
X41242254Y-41300512D01*
X41298783Y-41077284D01*
X41391283Y-40866405D01*
X41421330Y-40820415D01*
X41517229Y-40673629D01*
X41566353Y-40620266D01*
X41673192Y-40504208D01*
X41767064Y-40431144D01*
X41858959Y-40359620D01*
X41858072Y-40358480D01*
X41899137Y-40310366D01*
X41908562Y-40241135D01*
X41879063Y-40177798D01*
X41858929Y-40160352D01*
X41859234Y-40159960D01*
X41826542Y-40134513D01*
X41826541Y-40134511D01*
X42488090Y-39472962D01*
X42424507Y-39455925D01*
X42310493Y-39390099D01*
X42217401Y-39297007D01*
X42151575Y-39182993D01*
X42134538Y-39119409D01*
X41474262Y-39779685D01*
X41391728Y-39653359D01*
X41391723Y-39653351D01*
X41299258Y-39442553D01*
X41242750Y-39219408D01*
X41242748Y-39219396D01*
X41223740Y-38990005D01*
X41223740Y-38989994D01*
X41242748Y-38760603D01*
X41242750Y-38760591D01*
X41299258Y-38537446D01*
X41391726Y-38326642D01*
X41474262Y-38200313D01*
X42134538Y-38860589D01*
X42151575Y-38797007D01*
X42217401Y-38682993D01*
X42310493Y-38589901D01*
X42424507Y-38524075D01*
X42488091Y-38507037D01*
X41826542Y-37845486D01*
X41826542Y-37845484D01*
X41859233Y-37820040D01*
X41858291Y-37818829D01*
X41899145Y-37770947D01*
X41908559Y-37701714D01*
X41879050Y-37638382D01*
X41858680Y-37620738D01*
X41858959Y-37620380D01*
X41822326Y-37591866D01*
X41673192Y-37475792D01*
X41517231Y-37306373D01*
X41391283Y-37113595D01*
X41298783Y-36902716D01*
X41242254Y-36679488D01*
X41231786Y-36553163D01*
X41223238Y-36450005D01*
X41223238Y-36449994D01*
X41240888Y-36236999D01*
X41242254Y-36220512D01*
X41298783Y-35997284D01*
X41391283Y-35786405D01*
X41428080Y-35730083D01*
X41517229Y-35593629D01*
X41544145Y-35564390D01*
X41673192Y-35424208D01*
X41760744Y-35356064D01*
X41854909Y-35282772D01*
X42057431Y-35173172D01*
X42057439Y-35173169D01*
X42275226Y-35098402D01*
X42445580Y-35069975D01*
X42502363Y-35060500D01*
X42732637Y-35060500D01*
X42778064Y-35068080D01*
X42959775Y-35098402D01*
X43177562Y-35173169D01*
X43177570Y-35173172D01*
X43380092Y-35282772D01*
X43561806Y-35424206D01*
X43561811Y-35424211D01*
X43717772Y-35593629D01*
X43843718Y-35786405D01*
X43936218Y-35997285D01*
X43992747Y-36220515D01*
X44011762Y-36449994D01*
X44011762Y-36450000D01*
X44008610Y-36488041D01*
X44007960Y-36495885D01*
X44022042Y-36564320D01*
X44043856Y-36593804D01*
X45606831Y-38156781D01*
X45668154Y-38190266D01*
X45694512Y-38193100D01*
X53785860Y-38193100D01*
X53852899Y-38173415D01*
X53898654Y-38120611D01*
X53908598Y-38051453D01*
X53879573Y-37987897D01*
X53876498Y-37984479D01*
X53684311Y-37778698D01*
X53518599Y-37543936D01*
X53386396Y-37288797D01*
X53290166Y-37018032D01*
X53231702Y-36736686D01*
X53212092Y-36450000D01*
X53231702Y-36163314D01*
X53290166Y-35881968D01*
X53293750Y-35871885D01*
X53386395Y-35611206D01*
X53386394Y-35611206D01*
X53518599Y-35356064D01*
X53684313Y-35121299D01*
X53762946Y-35037105D01*
X53880447Y-34911292D01*
X54103353Y-34729945D01*
X54103354Y-34729944D01*
X54348883Y-34580634D01*
X54612437Y-34466158D01*
X54612439Y-34466157D01*
X54612442Y-34466156D01*
X54741922Y-34429877D01*
X54889136Y-34388630D01*
X54889141Y-34388629D01*
X54889142Y-34388629D01*
X55031482Y-34369064D01*
X55173821Y-34349500D01*
X55173822Y-34349500D01*
X55461178Y-34349500D01*
X55461179Y-34349500D01*
X55745858Y-34388629D01*
X55745865Y-34388630D01*
X55953639Y-34446845D01*
X56022558Y-34466156D01*
X56022561Y-34466156D01*
X56022564Y-34466158D01*
X56022565Y-34466158D01*
X56286118Y-34580634D01*
X56531647Y-34729944D01*
X56754550Y-34911289D01*
X56950688Y-35121299D01*
X57116402Y-35356064D01*
X57248606Y-35611206D01*
X57344833Y-35881962D01*
X57344834Y-35881965D01*
X57403299Y-36163319D01*
X57422908Y-36450000D01*
X57403299Y-36736680D01*
X57344834Y-37018034D01*
X57344833Y-37018037D01*
X57248606Y-37288793D01*
X57248607Y-37288793D01*
X57116402Y-37543935D01*
X56950688Y-37778700D01*
X56833914Y-37903733D01*
X56758517Y-37984464D01*
X56727145Y-38046894D01*
X56734505Y-38116374D01*
X56778262Y-38170846D01*
X56844521Y-38193014D01*
X56849140Y-38193100D01*
X60789324Y-38193100D01*
X60964528Y-38227950D01*
X60964534Y-38227952D01*
X61129576Y-38296314D01*
X61129585Y-38296319D01*
X61278115Y-38395564D01*
X61278119Y-38395567D01*
X62892283Y-40009733D01*
X63428115Y-40545565D01*
X63465633Y-40583083D01*
X63554437Y-40671886D01*
X63653681Y-40820415D01*
X63653686Y-40820424D01*
X63722048Y-40985466D01*
X63722050Y-40985472D01*
X63756900Y-41160675D01*
X63756900Y-41160678D01*
X63756900Y-46665678D01*
X63756900Y-46844322D01*
X63756900Y-46844324D01*
X63756901Y-46844324D01*
X63722050Y-47019527D01*
X63722048Y-47019533D01*
X63653686Y-47184575D01*
X63653681Y-47184584D01*
X63554436Y-47333114D01*
X63554433Y-47333118D01*
X61825233Y-49062318D01*
X61791748Y-49123641D01*
X61796732Y-49193333D01*
X61825233Y-49237680D01*
X69319331Y-56731781D01*
X69380654Y-56765266D01*
X69407012Y-56768100D01*
X86849324Y-56768100D01*
X87024528Y-56802950D01*
X87024534Y-56802952D01*
X87189576Y-56871314D01*
X87189585Y-56871319D01*
X87338115Y-56970564D01*
X87338119Y-56970567D01*
X89039774Y-58672222D01*
X89101097Y-58705707D01*
X89116647Y-58708069D01*
X89275064Y-58721929D01*
X89275071Y-58721930D01*
X89488446Y-58779104D01*
X89488452Y-58779107D01*
X89688660Y-58872465D01*
X89688662Y-58872466D01*
X89869623Y-58999175D01*
X90025825Y-59155377D01*
X90152534Y-59336338D01*
X90152535Y-59336340D01*
X90212618Y-59465189D01*
X90258791Y-59517628D01*
X90325984Y-59536780D01*
X90392865Y-59516564D01*
X90437382Y-59465189D01*
X90497349Y-59336590D01*
X90497466Y-59336339D01*
X90624174Y-59155380D01*
X90780380Y-58999174D01*
X90780384Y-58999171D01*
X90780385Y-58999170D01*
X90961334Y-58872468D01*
X90961338Y-58872466D01*
X90961340Y-58872465D01*
X91161550Y-58779106D01*
X91161553Y-58779105D01*
X91161555Y-58779104D01*
X91374930Y-58721930D01*
X91374938Y-58721929D01*
X91594998Y-58702677D01*
X91595002Y-58702677D01*
X91815063Y-58721929D01*
X91815071Y-58721930D01*
X92028446Y-58779104D01*
X92028452Y-58779107D01*
X92228660Y-58872465D01*
X92228662Y-58872466D01*
X92409623Y-58999175D01*
X92565825Y-59155377D01*
X92692534Y-59336338D01*
X92692535Y-59336340D01*
X92752618Y-59465189D01*
X92798791Y-59517628D01*
X92865984Y-59536780D01*
X92932865Y-59516564D01*
X92977382Y-59465189D01*
X93037349Y-59336590D01*
X93037466Y-59336339D01*
X93164174Y-59155380D01*
X93320380Y-58999174D01*
X93320384Y-58999171D01*
X93320385Y-58999170D01*
X93501334Y-58872468D01*
X93501338Y-58872466D01*
X93501340Y-58872465D01*
X93701550Y-58779106D01*
X93701553Y-58779105D01*
X93701555Y-58779104D01*
X93914930Y-58721930D01*
X93914938Y-58721929D01*
X94134998Y-58702677D01*
X94135002Y-58702677D01*
X94355063Y-58721929D01*
X94355071Y-58721930D01*
X94568446Y-58779104D01*
X94568452Y-58779107D01*
X94768660Y-58872465D01*
X94768662Y-58872466D01*
X94949623Y-58999175D01*
X95105825Y-59155377D01*
X95232534Y-59336338D01*
X95232535Y-59336340D01*
X95292618Y-59465189D01*
X95338791Y-59517628D01*
X95405984Y-59536780D01*
X95472865Y-59516564D01*
X95517382Y-59465189D01*
X95577349Y-59336590D01*
X95577466Y-59336339D01*
X95704174Y-59155380D01*
X95860380Y-58999174D01*
X95860384Y-58999171D01*
X95860385Y-58999170D01*
X96041334Y-58872468D01*
X96041338Y-58872466D01*
X96041340Y-58872465D01*
X96241550Y-58779106D01*
X96241553Y-58779105D01*
X96241555Y-58779104D01*
X96454930Y-58721930D01*
X96454938Y-58721929D01*
X96674998Y-58702677D01*
X96675002Y-58702677D01*
X96895063Y-58721929D01*
X96895071Y-58721930D01*
X97108446Y-58779104D01*
X97108452Y-58779107D01*
X97308660Y-58872465D01*
X97308662Y-58872466D01*
X97489623Y-58999175D01*
X97645825Y-59155377D01*
X97772534Y-59336338D01*
X97772535Y-59336340D01*
X97832618Y-59465189D01*
X97878791Y-59517628D01*
X97945984Y-59536780D01*
X98012865Y-59516564D01*
X98057382Y-59465189D01*
X98117349Y-59336590D01*
X98117466Y-59336339D01*
X98244174Y-59155380D01*
X98400380Y-58999174D01*
X98400384Y-58999171D01*
X98400385Y-58999170D01*
X98581334Y-58872468D01*
X98581338Y-58872466D01*
X98581340Y-58872465D01*
X98781550Y-58779106D01*
X98781553Y-58779105D01*
X98781555Y-58779104D01*
X98994930Y-58721930D01*
X98994938Y-58721929D01*
X99214998Y-58702677D01*
X99215002Y-58702677D01*
X99435063Y-58721929D01*
X99435071Y-58721930D01*
X99648446Y-58779104D01*
X99648452Y-58779107D01*
X99848660Y-58872465D01*
X99848662Y-58872466D01*
X100029623Y-58999175D01*
X100185825Y-59155377D01*
X100312534Y-59336338D01*
X100312535Y-59336340D01*
X100372618Y-59465189D01*
X100418791Y-59517628D01*
X100485984Y-59536780D01*
X100552865Y-59516564D01*
X100597382Y-59465189D01*
X100657349Y-59336590D01*
X100657466Y-59336339D01*
X100784174Y-59155380D01*
X100940380Y-58999174D01*
X100940384Y-58999171D01*
X100940385Y-58999170D01*
X101121334Y-58872468D01*
X101121338Y-58872466D01*
X101121340Y-58872465D01*
X101321550Y-58779106D01*
X101321553Y-58779105D01*
X101321555Y-58779104D01*
X101534930Y-58721930D01*
X101534938Y-58721929D01*
X101754998Y-58702677D01*
X101755002Y-58702677D01*
X101975063Y-58721929D01*
X101975071Y-58721930D01*
X102188446Y-58779104D01*
X102188452Y-58779107D01*
X102388660Y-58872465D01*
X102388662Y-58872466D01*
X102569623Y-58999175D01*
X102725825Y-59155377D01*
X102852534Y-59336338D01*
X102852535Y-59336340D01*
X102912618Y-59465189D01*
X102958791Y-59517628D01*
X103025984Y-59536780D01*
X103092865Y-59516564D01*
X103137382Y-59465189D01*
X103197349Y-59336590D01*
X103197466Y-59336339D01*
X103324174Y-59155380D01*
X103480380Y-58999174D01*
X103480384Y-58999171D01*
X103480385Y-58999170D01*
X103661334Y-58872468D01*
X103661338Y-58872466D01*
X103661340Y-58872465D01*
X103861550Y-58779106D01*
X103861553Y-58779105D01*
X103861555Y-58779104D01*
X104074930Y-58721930D01*
X104074938Y-58721929D01*
X104294998Y-58702677D01*
X104295002Y-58702677D01*
X104515063Y-58721929D01*
X104515071Y-58721930D01*
X104728446Y-58779104D01*
X104728452Y-58779107D01*
X104928660Y-58872465D01*
X104928662Y-58872466D01*
X105109623Y-58999175D01*
X105265825Y-59155377D01*
X105392533Y-59336337D01*
X105452895Y-59465782D01*
X105499068Y-59518221D01*
X105566262Y-59537372D01*
X105633143Y-59517156D01*
X105677659Y-59465780D01*
X105737902Y-59336589D01*
X105737903Y-59336587D01*
X105783259Y-59271811D01*
X105783260Y-59271810D01*
X106454000Y-59942551D01*
X106454000Y-59919840D01*
X106479964Y-59822939D01*
X106530124Y-59736060D01*
X106601060Y-59665124D01*
X106687939Y-59614964D01*
X106784840Y-59589000D01*
X106807552Y-59589000D01*
X106136812Y-58918259D01*
X106136813Y-58918258D01*
X106201589Y-58872901D01*
X106201595Y-58872898D01*
X106401716Y-58779580D01*
X106401730Y-58779575D01*
X106615014Y-58722426D01*
X106615024Y-58722424D01*
X106834999Y-58703179D01*
X106835001Y-58703179D01*
X107054977Y-58722424D01*
X107054987Y-58722426D01*
X107268271Y-58779575D01*
X107268280Y-58779579D01*
X107468410Y-58872901D01*
X107533189Y-58918258D01*
X106862447Y-59589000D01*
X106885160Y-59589000D01*
X106982061Y-59614964D01*
X107068940Y-59665124D01*
X107139876Y-59736060D01*
X107190036Y-59822939D01*
X107216000Y-59919840D01*
X107216000Y-59942553D01*
X107886742Y-59271811D01*
X107932099Y-59336590D01*
X107992342Y-59465781D01*
X108038515Y-59518220D01*
X108105708Y-59537372D01*
X108172589Y-59517156D01*
X108217106Y-59465781D01*
X108277349Y-59336590D01*
X108277466Y-59336339D01*
X108404174Y-59155380D01*
X108560380Y-58999174D01*
X108560384Y-58999171D01*
X108560385Y-58999170D01*
X108741334Y-58872468D01*
X108741338Y-58872466D01*
X108741340Y-58872465D01*
X108941550Y-58779106D01*
X108941553Y-58779105D01*
X108941555Y-58779104D01*
X109154930Y-58721930D01*
X109154938Y-58721929D01*
X109374998Y-58702677D01*
X109375002Y-58702677D01*
X109595063Y-58721929D01*
X109595071Y-58721930D01*
X109808446Y-58779104D01*
X109808452Y-58779107D01*
X110008660Y-58872465D01*
X110008662Y-58872466D01*
X110189623Y-58999175D01*
X110345825Y-59155377D01*
X110472534Y-59336338D01*
X110472535Y-59336340D01*
X110532618Y-59465189D01*
X110578791Y-59517628D01*
X110645984Y-59536780D01*
X110712865Y-59516564D01*
X110757382Y-59465189D01*
X110817349Y-59336590D01*
X110817466Y-59336339D01*
X110944174Y-59155380D01*
X111100380Y-58999174D01*
X111100384Y-58999171D01*
X111100385Y-58999170D01*
X111281334Y-58872468D01*
X111281338Y-58872466D01*
X111281340Y-58872465D01*
X111481550Y-58779106D01*
X111481553Y-58779105D01*
X111481555Y-58779104D01*
X111694930Y-58721930D01*
X111694938Y-58721929D01*
X111914998Y-58702677D01*
X111915002Y-58702677D01*
X112135063Y-58721929D01*
X112135071Y-58721930D01*
X112348446Y-58779104D01*
X112348452Y-58779107D01*
X112548660Y-58872465D01*
X112548662Y-58872466D01*
X112729623Y-58999175D01*
X112885825Y-59155377D01*
X113012534Y-59336338D01*
X113012535Y-59336340D01*
X113072618Y-59465189D01*
X113118791Y-59517628D01*
X113185984Y-59536780D01*
X113252865Y-59516564D01*
X113297382Y-59465189D01*
X113357349Y-59336590D01*
X113357466Y-59336339D01*
X113484174Y-59155380D01*
X113640380Y-58999174D01*
X113640384Y-58999171D01*
X113640385Y-58999170D01*
X113821334Y-58872468D01*
X113821338Y-58872466D01*
X113821340Y-58872465D01*
X114021550Y-58779106D01*
X114021553Y-58779105D01*
X114021555Y-58779104D01*
X114234930Y-58721930D01*
X114234938Y-58721929D01*
X114454998Y-58702677D01*
X114455002Y-58702677D01*
X114675063Y-58721929D01*
X114675071Y-58721930D01*
X114888446Y-58779104D01*
X114888452Y-58779107D01*
X115088660Y-58872465D01*
X115088662Y-58872466D01*
X115269623Y-58999175D01*
X115425825Y-59155377D01*
X115552533Y-59336337D01*
X115612895Y-59465782D01*
X115659068Y-59518221D01*
X115726262Y-59537372D01*
X115793143Y-59517156D01*
X115837659Y-59465780D01*
X115897902Y-59336589D01*
X115897903Y-59336587D01*
X115943259Y-59271811D01*
X115943260Y-59271810D01*
X116614000Y-59942551D01*
X116614000Y-59919840D01*
X116639964Y-59822939D01*
X116690124Y-59736060D01*
X116761060Y-59665124D01*
X116847939Y-59614964D01*
X116944840Y-59589000D01*
X116967552Y-59589000D01*
X116296812Y-58918259D01*
X116296813Y-58918258D01*
X116361589Y-58872901D01*
X116361595Y-58872898D01*
X116561716Y-58779580D01*
X116561730Y-58779575D01*
X116775014Y-58722426D01*
X116775024Y-58722424D01*
X116994999Y-58703179D01*
X116995001Y-58703179D01*
X117214977Y-58722424D01*
X117214987Y-58722426D01*
X117428271Y-58779575D01*
X117428280Y-58779579D01*
X117628410Y-58872901D01*
X117693189Y-58918258D01*
X117022447Y-59589000D01*
X117045160Y-59589000D01*
X117142061Y-59614964D01*
X117228940Y-59665124D01*
X117299876Y-59736060D01*
X117350036Y-59822939D01*
X117376000Y-59919840D01*
X117376000Y-59942553D01*
X118046742Y-59271811D01*
X118092099Y-59336590D01*
X118152342Y-59465781D01*
X118198515Y-59518220D01*
X118265708Y-59537372D01*
X118332589Y-59517156D01*
X118377106Y-59465781D01*
X118437349Y-59336590D01*
X118437466Y-59336339D01*
X118564174Y-59155380D01*
X118720380Y-58999174D01*
X118720384Y-58999171D01*
X118720385Y-58999170D01*
X118901334Y-58872468D01*
X118901338Y-58872466D01*
X118901340Y-58872465D01*
X119101550Y-58779106D01*
X119101553Y-58779105D01*
X119101555Y-58779104D01*
X119314930Y-58721930D01*
X119314938Y-58721929D01*
X119534998Y-58702677D01*
X119535002Y-58702677D01*
X119755063Y-58721929D01*
X119755071Y-58721930D01*
X119968446Y-58779104D01*
X119968452Y-58779107D01*
X120168660Y-58872465D01*
X120168662Y-58872466D01*
X120349623Y-58999175D01*
X120505825Y-59155377D01*
X120632534Y-59336338D01*
X120632535Y-59336340D01*
X120725893Y-59536548D01*
X120725896Y-59536554D01*
X120783070Y-59749929D01*
X120783071Y-59749937D01*
X120802323Y-59969997D01*
X121974500Y-59969997D01*
X121974500Y-30122982D01*
X121954815Y-30055943D01*
X121902011Y-30010188D01*
X121832853Y-30000244D01*
X121778745Y-30021853D01*
X121627174Y-30129399D01*
X121627169Y-30129402D01*
X121627166Y-30129403D01*
X121627164Y-30129405D01*
X121322376Y-30297855D01*
X121000644Y-30431121D01*
X120666013Y-30527527D01*
X120322693Y-30585859D01*
X120014440Y-30603170D01*
X119948610Y-30626583D01*
X119905888Y-30681869D01*
X119899838Y-30751476D01*
X119932381Y-30813304D01*
X119968988Y-30839357D01*
X120168660Y-30932465D01*
X120168662Y-30932466D01*
X120349623Y-31059175D01*
X120505825Y-31215377D01*
X120632534Y-31396338D01*
X120632535Y-31396340D01*
X120725893Y-31596548D01*
X120725896Y-31596554D01*
X120783070Y-31809929D01*
X120783071Y-31809937D01*
X120802323Y-32029997D01*
X120802323Y-32030002D01*
X120783071Y-32250062D01*
X120783070Y-32250070D01*
X120725896Y-32463445D01*
X120725895Y-32463447D01*
X120725894Y-32463450D01*
X120692894Y-32534218D01*
X120632534Y-32663662D01*
X120632532Y-32663666D01*
X120505830Y-32844615D01*
X120505825Y-32844621D01*
X120349622Y-33000824D01*
X120349616Y-33000829D01*
X120168667Y-33127531D01*
X120168665Y-33127532D01*
X120168662Y-33127534D01*
X119968450Y-33220894D01*
X119755068Y-33278070D01*
X119597877Y-33291822D01*
X119535002Y-33297323D01*
X119535000Y-33297323D01*
X119534998Y-33297323D01*
X119479983Y-33292509D01*
X119314932Y-33278070D01*
X119101550Y-33220894D01*
X118901338Y-33127534D01*
X118720380Y-33000826D01*
X118564174Y-32844620D01*
X118437466Y-32663662D01*
X118377106Y-32534218D01*
X118330934Y-32481779D01*
X118263741Y-32462627D01*
X118196859Y-32482843D01*
X118152342Y-32534219D01*
X118092102Y-32663405D01*
X118092099Y-32663411D01*
X118046742Y-32728187D01*
X118046741Y-32728188D01*
X117376000Y-32057447D01*
X117376000Y-32080160D01*
X117350036Y-32177061D01*
X117299876Y-32263940D01*
X117228940Y-32334876D01*
X117142061Y-32385036D01*
X117045160Y-32411000D01*
X117022447Y-32411000D01*
X117693190Y-33081740D01*
X117628410Y-33127099D01*
X117628408Y-33127100D01*
X117428285Y-33220419D01*
X117428271Y-33220424D01*
X117214987Y-33277573D01*
X117214977Y-33277575D01*
X116995001Y-33296821D01*
X116994999Y-33296821D01*
X116775024Y-33277575D01*
X116775014Y-33277573D01*
X116561730Y-33220424D01*
X116561716Y-33220419D01*
X116361593Y-33127100D01*
X116361583Y-33127094D01*
X116296812Y-33081741D01*
X116967552Y-32411000D01*
X116944840Y-32411000D01*
X116847939Y-32385036D01*
X116761060Y-32334876D01*
X116690124Y-32263940D01*
X116639964Y-32177061D01*
X116614000Y-32080160D01*
X116614000Y-32057447D01*
X115943259Y-32728188D01*
X115897906Y-32663417D01*
X115897905Y-32663416D01*
X115837660Y-32534219D01*
X115791488Y-32481780D01*
X115724294Y-32462627D01*
X115657413Y-32482842D01*
X115612895Y-32534218D01*
X115552534Y-32663662D01*
X115552532Y-32663666D01*
X115425830Y-32844615D01*
X115425825Y-32844621D01*
X115269622Y-33000824D01*
X115269616Y-33000829D01*
X115088667Y-33127531D01*
X115088665Y-33127532D01*
X115088662Y-33127534D01*
X114888450Y-33220894D01*
X114675068Y-33278070D01*
X114517877Y-33291822D01*
X114455002Y-33297323D01*
X114455000Y-33297323D01*
X114454998Y-33297323D01*
X114399983Y-33292509D01*
X114234932Y-33278070D01*
X114021550Y-33220894D01*
X113821338Y-33127534D01*
X113640380Y-33000826D01*
X113484174Y-32844620D01*
X113357466Y-32663662D01*
X113297382Y-32534811D01*
X113251210Y-32482371D01*
X113184017Y-32463219D01*
X113117135Y-32483435D01*
X113072618Y-32534811D01*
X113012536Y-32663658D01*
X113012532Y-32663666D01*
X112885830Y-32844615D01*
X112885825Y-32844621D01*
X112729622Y-33000824D01*
X112729616Y-33000829D01*
X112548667Y-33127531D01*
X112548665Y-33127532D01*
X112548662Y-33127534D01*
X112348450Y-33220894D01*
X112135068Y-33278070D01*
X111977877Y-33291822D01*
X111915002Y-33297323D01*
X111915000Y-33297323D01*
X111914998Y-33297323D01*
X111859983Y-33292509D01*
X111694932Y-33278070D01*
X111481550Y-33220894D01*
X111281338Y-33127534D01*
X111100380Y-33000826D01*
X110944174Y-32844620D01*
X110817466Y-32663662D01*
X110757382Y-32534811D01*
X110711210Y-32482371D01*
X110644017Y-32463219D01*
X110577135Y-32483435D01*
X110532618Y-32534811D01*
X110472536Y-32663658D01*
X110472532Y-32663666D01*
X110345830Y-32844615D01*
X110345825Y-32844621D01*
X110189622Y-33000824D01*
X110189616Y-33000829D01*
X110008667Y-33127531D01*
X110008665Y-33127532D01*
X110008662Y-33127534D01*
X109808450Y-33220894D01*
X109595068Y-33278070D01*
X109437877Y-33291822D01*
X109375002Y-33297323D01*
X109375000Y-33297323D01*
X109374998Y-33297323D01*
X109319983Y-33292509D01*
X109154932Y-33278070D01*
X108941550Y-33220894D01*
X108741338Y-33127534D01*
X108560380Y-33000826D01*
X108404174Y-32844620D01*
X108277466Y-32663662D01*
X108217382Y-32534811D01*
X108171210Y-32482371D01*
X108104017Y-32463219D01*
X108037135Y-32483435D01*
X107992618Y-32534811D01*
X107932536Y-32663658D01*
X107932532Y-32663666D01*
X107805830Y-32844615D01*
X107805825Y-32844621D01*
X107649622Y-33000824D01*
X107649616Y-33000829D01*
X107468667Y-33127531D01*
X107468665Y-33127532D01*
X107468662Y-33127534D01*
X107268450Y-33220894D01*
X107055068Y-33278070D01*
X106897877Y-33291822D01*
X106835002Y-33297323D01*
X106835000Y-33297323D01*
X106834998Y-33297323D01*
X106779983Y-33292509D01*
X106614932Y-33278070D01*
X106401550Y-33220894D01*
X106201338Y-33127534D01*
X106020380Y-33000826D01*
X105864174Y-32844620D01*
X105737466Y-32663662D01*
X105677382Y-32534811D01*
X105631210Y-32482371D01*
X105564017Y-32463219D01*
X105497135Y-32483435D01*
X105452618Y-32534811D01*
X105392536Y-32663658D01*
X105392532Y-32663666D01*
X105265830Y-32844615D01*
X105265825Y-32844621D01*
X105109622Y-33000824D01*
X105109616Y-33000829D01*
X104928667Y-33127531D01*
X104928665Y-33127532D01*
X104928662Y-33127534D01*
X104728450Y-33220894D01*
X104515068Y-33278070D01*
X104357877Y-33291822D01*
X104295002Y-33297323D01*
X104295000Y-33297323D01*
X104294998Y-33297323D01*
X104239983Y-33292509D01*
X104074932Y-33278070D01*
X103861550Y-33220894D01*
X103661338Y-33127534D01*
X103480380Y-33000826D01*
X103324174Y-32844620D01*
X103197466Y-32663662D01*
X103137382Y-32534811D01*
X103091210Y-32482371D01*
X103024017Y-32463219D01*
X102957135Y-32483435D01*
X102912618Y-32534811D01*
X102852536Y-32663658D01*
X102852532Y-32663666D01*
X102725830Y-32844615D01*
X102725825Y-32844621D01*
X102698219Y-32872227D01*
X102664734Y-32933550D01*
X102661900Y-32959908D01*
X102661900Y-47830678D01*
X102661900Y-48009322D01*
X102661900Y-48009324D01*
X102661901Y-48009324D01*
X102627050Y-48184527D01*
X102627048Y-48184533D01*
X102558686Y-48349575D01*
X102558681Y-48349584D01*
X102459436Y-48498114D01*
X102459433Y-48498118D01*
X96023121Y-54934431D01*
X96023118Y-54934434D01*
X96023115Y-54934436D01*
X95936755Y-54992139D01*
X95874578Y-55033684D01*
X95709533Y-55102048D01*
X95709529Y-55102048D01*
X95709528Y-55102049D01*
X95534325Y-55136900D01*
X95534322Y-55136900D01*
X95534321Y-55136900D01*
X95355678Y-55136900D01*
X71943231Y-55136900D01*
X71876192Y-55156585D01*
X71830437Y-55209389D01*
X71827049Y-55217567D01*
X71820798Y-55234328D01*
X71820794Y-55234335D01*
X71734548Y-55349544D01*
X71734545Y-55349547D01*
X71619336Y-55435793D01*
X71619329Y-55435797D01*
X71484483Y-55486091D01*
X71484484Y-55486091D01*
X71477556Y-55486835D01*
X71424873Y-55492500D01*
X69805128Y-55492499D01*
X69745517Y-55486091D01*
X69610669Y-55435796D01*
X69495454Y-55349546D01*
X69409204Y-55234331D01*
X69358909Y-55099483D01*
X69352500Y-55039873D01*
X69352501Y-53420128D01*
X69358909Y-53360517D01*
X69359673Y-53358469D01*
X69409203Y-53225671D01*
X69409207Y-53225664D01*
X69495453Y-53110455D01*
X69495456Y-53110452D01*
X69610665Y-53024206D01*
X69610672Y-53024202D01*
X69745518Y-52973908D01*
X69745517Y-52973908D01*
X69805117Y-52967501D01*
X69805119Y-52967500D01*
X69805127Y-52967500D01*
X69805135Y-52967500D01*
X69845079Y-52967500D01*
X69912118Y-52947815D01*
X69957873Y-52895011D01*
X69967817Y-52825853D01*
X69938792Y-52762297D01*
X69916202Y-52741925D01*
X69800380Y-52660826D01*
X69644174Y-52504620D01*
X69517466Y-52323662D01*
X69424106Y-52123450D01*
X69366930Y-51910068D01*
X69347677Y-51690000D01*
X69347678Y-51689994D01*
X69360183Y-51547049D01*
X69366930Y-51469932D01*
X69424106Y-51256550D01*
X69517466Y-51056339D01*
X69644174Y-50875380D01*
X69800380Y-50719174D01*
X69800384Y-50719171D01*
X69800385Y-50719170D01*
X69981334Y-50592468D01*
X69981342Y-50592464D01*
X70110189Y-50532382D01*
X70162629Y-50486210D01*
X70181781Y-50419017D01*
X70161565Y-50352135D01*
X70110189Y-50307618D01*
X70101197Y-50303425D01*
X69981338Y-50247534D01*
X69800380Y-50120826D01*
X69644174Y-49964620D01*
X69517466Y-49783662D01*
X69424106Y-49583450D01*
X69366930Y-49370068D01*
X69347677Y-49150000D01*
X69347678Y-49149994D01*
X69363648Y-48967449D01*
X69366930Y-48929932D01*
X69424106Y-48716550D01*
X69517466Y-48516339D01*
X69634228Y-48349584D01*
X69644173Y-48335381D01*
X69715957Y-48263597D01*
X69800380Y-48179174D01*
X69800384Y-48179171D01*
X69800385Y-48179170D01*
X69981334Y-48052468D01*
X69981338Y-48052466D01*
X70110782Y-47992105D01*
X70163221Y-47945932D01*
X70182373Y-47878739D01*
X70162157Y-47811858D01*
X70110781Y-47767340D01*
X69981584Y-47707095D01*
X69981583Y-47707094D01*
X69916812Y-47661741D01*
X70479058Y-47099494D01*
X70418919Y-47083381D01*
X70303080Y-47016502D01*
X70208498Y-46921920D01*
X70141619Y-46806081D01*
X70125505Y-46745942D01*
X69563259Y-47308188D01*
X69517906Y-47243417D01*
X69517900Y-47243407D01*
X69424581Y-47043284D01*
X69424576Y-47043270D01*
X69367427Y-46829986D01*
X69367425Y-46829976D01*
X69348179Y-46610000D01*
X69348179Y-46609999D01*
X69367425Y-46390023D01*
X69367427Y-46390013D01*
X69424576Y-46176729D01*
X69424580Y-46176720D01*
X69517904Y-45976586D01*
X69563259Y-45911811D01*
X69563260Y-45911810D01*
X70125506Y-46474056D01*
X70141619Y-46413919D01*
X70208498Y-46298080D01*
X70303080Y-46203498D01*
X70418919Y-46136619D01*
X70479058Y-46120505D01*
X69916812Y-45558259D01*
X69916813Y-45558258D01*
X69981589Y-45512901D01*
X69981595Y-45512898D01*
X70110781Y-45452658D01*
X70163221Y-45406486D01*
X70182373Y-45339293D01*
X70162157Y-45272411D01*
X70110781Y-45227894D01*
X69981338Y-45167534D01*
X69800380Y-45040826D01*
X69644174Y-44884620D01*
X69517466Y-44703662D01*
X69424106Y-44503450D01*
X69366930Y-44290068D01*
X69347677Y-44070000D01*
X69347678Y-44069994D01*
X69357241Y-43960678D01*
X69366930Y-43849932D01*
X69424106Y-43636550D01*
X69517466Y-43436339D01*
X69644174Y-43255380D01*
X69800380Y-43099174D01*
X69800384Y-43099171D01*
X69800385Y-43099170D01*
X69981334Y-42972468D01*
X69981342Y-42972464D01*
X70110189Y-42912382D01*
X70162629Y-42866210D01*
X70181781Y-42799017D01*
X70161565Y-42732135D01*
X70110189Y-42687618D01*
X70104198Y-42684824D01*
X69981338Y-42627534D01*
X69800380Y-42500826D01*
X69644174Y-42344620D01*
X69517466Y-42163662D01*
X69424106Y-41963450D01*
X69366930Y-41750068D01*
X69347677Y-41530000D01*
X69347678Y-41529994D01*
X69363772Y-41346027D01*
X69366930Y-41309932D01*
X69424106Y-41096550D01*
X69517466Y-40896339D01*
X69644174Y-40715380D01*
X69800380Y-40559174D01*
X69800384Y-40559171D01*
X69800385Y-40559170D01*
X69981334Y-40432468D01*
X69981338Y-40432466D01*
X69981340Y-40432465D01*
X70181550Y-40339106D01*
X70181553Y-40339105D01*
X70181555Y-40339104D01*
X70394930Y-40281930D01*
X70394938Y-40281929D01*
X70614998Y-40262677D01*
X70615002Y-40262677D01*
X70835063Y-40281929D01*
X70835071Y-40281930D01*
X71048446Y-40339104D01*
X71048452Y-40339107D01*
X71248660Y-40432465D01*
X71248662Y-40432466D01*
X71429623Y-40559175D01*
X71457228Y-40586781D01*
X71518551Y-40620266D01*
X71544909Y-40623100D01*
X78517988Y-40623100D01*
X78585027Y-40603415D01*
X78605669Y-40586781D01*
X79295463Y-39896987D01*
X79295473Y-39896969D01*
X79334658Y-39857784D01*
X79334657Y-39857784D01*
X79417947Y-39774493D01*
X79606538Y-39633313D01*
X79813301Y-39520410D01*
X80034028Y-39438082D01*
X80034031Y-39438081D01*
X80034037Y-39438079D01*
X80264220Y-39388006D01*
X80499206Y-39371200D01*
X80734181Y-39388006D01*
X80734185Y-39388006D01*
X80734186Y-39388007D01*
X80743802Y-39390099D01*
X80964389Y-39438085D01*
X80966637Y-39438746D01*
X80967423Y-39438745D01*
X80968710Y-39439026D01*
X80968771Y-39438745D01*
X81036507Y-39438742D01*
X81095283Y-39400964D01*
X81124304Y-39337407D01*
X81114356Y-39268249D01*
X81089249Y-39232089D01*
X80339243Y-38482085D01*
X80339243Y-38482084D01*
X80334794Y-38477636D01*
X80334634Y-38477459D01*
X80330917Y-38473741D01*
X80319150Y-38461977D01*
X80177963Y-38273388D01*
X80065053Y-38066626D01*
X79982719Y-37845898D01*
X79932638Y-37615700D01*
X79915828Y-37380717D01*
X79915829Y-37380710D01*
X79918863Y-37338273D01*
X79932633Y-37145734D01*
X79982709Y-36915535D01*
X80065038Y-36694806D01*
X80065041Y-36694800D01*
X80177943Y-36488042D01*
X80225351Y-36424715D01*
X80319127Y-36299450D01*
X80370444Y-36248136D01*
X80370444Y-36248135D01*
X80370447Y-36248133D01*
X80730306Y-35888275D01*
X80730315Y-35888267D01*
X80747315Y-35871266D01*
X80747332Y-35871251D01*
X80935911Y-35730083D01*
X80935919Y-35730078D01*
X81142669Y-35617184D01*
X81142673Y-35617182D01*
X81363403Y-35534854D01*
X81593584Y-35484782D01*
X81593591Y-35484781D01*
X81828567Y-35467975D01*
X81828569Y-35467975D01*
X82063546Y-35484781D01*
X82063553Y-35484782D01*
X82293734Y-35534854D01*
X82514464Y-35617182D01*
X82514468Y-35617184D01*
X82721218Y-35730078D01*
X82721226Y-35730083D01*
X82909800Y-35871247D01*
X82909820Y-35871265D01*
X82927936Y-35889380D01*
X82927983Y-35889425D01*
X83680031Y-36641474D01*
X83741354Y-36674959D01*
X83811046Y-36669975D01*
X83866979Y-36628103D01*
X83891396Y-36562639D01*
X83886902Y-36520859D01*
X83886944Y-36520850D01*
X83886859Y-36520458D01*
X83886685Y-36518843D01*
X83886006Y-36516529D01*
X83886003Y-36516523D01*
X83881512Y-36495885D01*
X83852094Y-36360675D01*
X83835921Y-36286342D01*
X83819106Y-36051376D01*
X83822972Y-35997284D01*
X83835899Y-35816416D01*
X83835900Y-35816409D01*
X83885961Y-35586221D01*
X83885961Y-35586220D01*
X83968268Y-35365507D01*
X83968271Y-35365502D01*
X83973424Y-35356064D01*
X84081152Y-35158744D01*
X84081154Y-35158741D01*
X84222298Y-34970166D01*
X84222316Y-34970145D01*
X84238108Y-34954351D01*
X84238192Y-34954258D01*
X84242476Y-34949974D01*
X84305588Y-34886862D01*
X84368744Y-34823697D01*
X84368746Y-34823695D01*
X84372847Y-34819594D01*
X84372947Y-34819503D01*
X85571781Y-33620669D01*
X85605266Y-33559346D01*
X85608100Y-33532988D01*
X85608100Y-32959908D01*
X85588415Y-32892869D01*
X85571781Y-32872227D01*
X85544174Y-32844620D01*
X85417466Y-32663662D01*
X85357382Y-32534811D01*
X85311210Y-32482371D01*
X85244017Y-32463219D01*
X85177135Y-32483435D01*
X85132618Y-32534811D01*
X85072536Y-32663658D01*
X85072532Y-32663666D01*
X84945830Y-32844615D01*
X84945825Y-32844621D01*
X84789622Y-33000824D01*
X84789616Y-33000829D01*
X84608667Y-33127531D01*
X84608665Y-33127532D01*
X84608662Y-33127534D01*
X84408450Y-33220894D01*
X84195068Y-33278070D01*
X84037877Y-33291822D01*
X83975002Y-33297323D01*
X83975000Y-33297323D01*
X83974998Y-33297323D01*
X83919983Y-33292509D01*
X83754932Y-33278070D01*
X83541550Y-33220894D01*
X83341338Y-33127534D01*
X83160380Y-33000826D01*
X83004174Y-32844620D01*
X82877466Y-32663662D01*
X82784106Y-32463450D01*
X82726930Y-32250068D01*
X82707677Y-32030000D01*
X82726930Y-31809932D01*
X82784106Y-31596550D01*
X82877466Y-31396339D01*
X83004174Y-31215380D01*
X83160380Y-31059174D01*
X83160384Y-31059171D01*
X83160385Y-31059170D01*
X83341334Y-30932468D01*
X83341338Y-30932466D01*
X83371756Y-30918282D01*
X83424195Y-30872109D01*
X83443347Y-30804916D01*
X83423131Y-30738035D01*
X83369966Y-30692700D01*
X83319351Y-30681900D01*
X45752012Y-30681900D01*
X45684973Y-30701585D01*
X45664331Y-30718219D01*
X39593219Y-36789331D01*
X39559734Y-36850654D01*
X39556900Y-36877012D01*
X39556900Y-46120678D01*
X39556900Y-46299322D01*
X39556900Y-46299324D01*
X39556901Y-46299324D01*
X39522050Y-46474527D01*
X39522048Y-46474533D01*
X39453686Y-46639575D01*
X39453681Y-46639584D01*
X39354436Y-46788114D01*
X39354433Y-46788118D01*
X37115665Y-49026886D01*
X37082180Y-49088209D01*
X37079817Y-49125365D01*
X37080659Y-49134997D01*
X37080659Y-49135000D01*
X37060064Y-49370403D01*
X37060062Y-49370413D01*
X36998906Y-49598655D01*
X36998904Y-49598659D01*
X36998903Y-49598663D01*
X36932137Y-49741842D01*
X36899035Y-49812830D01*
X36899033Y-49812834D01*
X36836927Y-49901530D01*
X36763515Y-50006373D01*
X36763499Y-50006395D01*
X36763494Y-50006402D01*
X36596403Y-50173493D01*
X36596397Y-50173498D01*
X36410842Y-50303425D01*
X36367217Y-50358002D01*
X36360023Y-50427500D01*
X36391546Y-50489855D01*
X36410842Y-50506575D01*
X36596403Y-50636505D01*
X36763495Y-50803597D01*
X36899035Y-50997169D01*
X36899036Y-50997171D01*
X36998902Y-51211335D01*
X36998906Y-51211344D01*
X37060062Y-51439586D01*
X37060064Y-51439596D01*
X37080659Y-51674999D01*
X37080659Y-51675000D01*
X37060064Y-51910403D01*
X37060062Y-51910413D01*
X36998906Y-52138655D01*
X36998904Y-52138659D01*
X36998903Y-52138663D01*
X36997013Y-52142716D01*
X36899035Y-52352830D01*
X36899033Y-52352834D01*
X36792754Y-52504615D01*
X36763515Y-52546373D01*
X36763499Y-52546395D01*
X36763494Y-52546402D01*
X36596403Y-52713493D01*
X36596397Y-52713498D01*
X36410842Y-52843425D01*
X36367217Y-52898002D01*
X36360023Y-52967500D01*
X36391546Y-53029855D01*
X36410842Y-53046575D01*
X36596403Y-53176505D01*
X36763495Y-53343597D01*
X36899035Y-53537169D01*
X36899036Y-53537171D01*
X36998902Y-53751335D01*
X36998906Y-53751344D01*
X37060062Y-53979586D01*
X37060064Y-53979596D01*
X37080659Y-54214999D01*
X37080659Y-54215000D01*
X37060064Y-54450403D01*
X37060062Y-54450413D01*
X36998906Y-54678655D01*
X36998904Y-54678659D01*
X36998903Y-54678663D01*
X36916976Y-54854355D01*
X36899035Y-54892830D01*
X36899033Y-54892834D01*
X36829498Y-54992139D01*
X36763499Y-55086396D01*
X36763494Y-55086402D01*
X36641182Y-55208714D01*
X36607697Y-55270037D01*
X36612681Y-55339729D01*
X36654553Y-55395662D01*
X36685529Y-55412577D01*
X36817088Y-55461646D01*
X36817094Y-55461649D01*
X36932188Y-55547809D01*
X36932191Y-55547812D01*
X37018351Y-55662906D01*
X37018355Y-55662913D01*
X37068597Y-55797620D01*
X37068599Y-55797627D01*
X37075000Y-55857155D01*
X37075000Y-56505000D01*
X36158012Y-56505000D01*
X36190925Y-56562007D01*
X36225000Y-56689174D01*
X36225000Y-56820826D01*
X36190925Y-56947993D01*
X36158012Y-57005000D01*
X37075000Y-57005000D01*
X37075000Y-57652844D01*
X37068599Y-57712372D01*
X37068597Y-57712379D01*
X37018355Y-57847086D01*
X37018351Y-57847093D01*
X36932191Y-57962187D01*
X36932188Y-57962190D01*
X36817094Y-58048350D01*
X36817087Y-58048354D01*
X36682380Y-58098596D01*
X36682373Y-58098598D01*
X36622845Y-58104999D01*
X36622828Y-58105000D01*
X35975000Y-58105000D01*
X35975000Y-57188012D01*
X35917993Y-57220925D01*
X35790826Y-57255000D01*
X35659174Y-57255000D01*
X35532007Y-57220925D01*
X35475000Y-57188012D01*
X35475000Y-58105000D01*
X34827172Y-58105000D01*
X34827156Y-58104999D01*
X34767628Y-58098598D01*
X34767621Y-58098596D01*
X34632914Y-58048354D01*
X34632907Y-58048350D01*
X34517813Y-57962190D01*
X34517810Y-57962187D01*
X34431650Y-57847093D01*
X34431646Y-57847086D01*
X34381404Y-57712379D01*
X34381402Y-57712372D01*
X34375001Y-57652844D01*
X34375000Y-57652827D01*
X34375000Y-57005000D01*
X35291988Y-57005000D01*
X35259075Y-56947993D01*
X35225000Y-56820826D01*
X35225000Y-56689174D01*
X35259075Y-56562007D01*
X35291988Y-56505000D01*
X34375000Y-56505000D01*
X34375000Y-55857172D01*
X34375001Y-55857155D01*
X34381402Y-55797627D01*
X34381404Y-55797620D01*
X34431646Y-55662913D01*
X34431650Y-55662906D01*
X34517810Y-55547812D01*
X34517813Y-55547809D01*
X34632907Y-55461649D01*
X34632912Y-55461646D01*
X34764472Y-55412577D01*
X34820405Y-55370705D01*
X34844822Y-55305241D01*
X34829970Y-55236968D01*
X34808825Y-55208720D01*
X34686505Y-55086401D01*
X34550965Y-54892830D01*
X34451097Y-54678663D01*
X34389937Y-54450408D01*
X34369341Y-54215000D01*
X34389937Y-53979592D01*
X34416623Y-53879999D01*
X30084211Y-53879999D01*
X30084210Y-53880000D01*
X29366237Y-53880000D01*
X29385000Y-53925299D01*
X29385000Y-54334701D01*
X29366237Y-54380000D01*
X30084211Y-54380000D01*
X30047534Y-54564389D01*
X30047532Y-54564397D01*
X29974036Y-54741833D01*
X29974031Y-54741842D01*
X29867333Y-54901526D01*
X29867330Y-54901530D01*
X29731531Y-55037329D01*
X29731527Y-55037332D01*
X29571843Y-55144030D01*
X29571833Y-55144035D01*
X29394401Y-55217530D01*
X29394394Y-55217533D01*
X29360000Y-55224373D01*
X29360000Y-54395056D01*
X29343134Y-54435775D01*
X29265775Y-54513134D01*
X29164701Y-54555000D01*
X29055299Y-54555000D01*
X28954225Y-54513134D01*
X28876866Y-54435775D01*
X28860000Y-54395056D01*
X28860000Y-55224372D01*
X28825607Y-55217533D01*
X28825600Y-55217530D01*
X28648168Y-55144035D01*
X28648158Y-55144030D01*
X28488474Y-55037332D01*
X28488470Y-55037329D01*
X28352671Y-54901530D01*
X28352668Y-54901526D01*
X28245970Y-54741842D01*
X28245965Y-54741833D01*
X28172469Y-54564397D01*
X28172467Y-54564389D01*
X28135790Y-54380000D01*
X28853763Y-54380000D01*
X28835000Y-54334701D01*
X28835000Y-53925299D01*
X28853763Y-53880000D01*
X28135790Y-53880000D01*
X28135790Y-53879999D01*
X28172467Y-53695610D01*
X28172469Y-53695602D01*
X28245965Y-53518166D01*
X28245970Y-53518157D01*
X28352668Y-53358473D01*
X28352671Y-53358469D01*
X28488470Y-53222670D01*
X28488474Y-53222667D01*
X28648158Y-53115969D01*
X28648167Y-53115964D01*
X28825603Y-53042468D01*
X28825611Y-53042466D01*
X28860000Y-53035625D01*
X28860000Y-53864943D01*
X28876866Y-53824225D01*
X28954225Y-53746866D01*
X29055299Y-53705000D01*
X29164701Y-53705000D01*
X29265775Y-53746866D01*
X29343134Y-53824225D01*
X29360000Y-53864943D01*
X29360000Y-53035625D01*
X29394390Y-53042466D01*
X29394398Y-53042468D01*
X29571834Y-53115964D01*
X29571843Y-53115969D01*
X29731527Y-53222667D01*
X29731531Y-53222670D01*
X29867330Y-53358469D01*
X29867333Y-53358473D01*
X29974031Y-53518157D01*
X29974036Y-53518166D01*
X30047532Y-53695602D01*
X30047534Y-53695610D01*
X30084211Y-53879999D01*
X34416623Y-53879999D01*
X34451097Y-53751337D01*
X34550965Y-53537171D01*
X34564278Y-53518157D01*
X34686506Y-53343597D01*
X34853598Y-53176506D01*
X34853604Y-53176501D01*
X35039158Y-53046575D01*
X35082783Y-52991998D01*
X35089977Y-52922500D01*
X35058454Y-52860145D01*
X35039158Y-52843425D01*
X34959338Y-52787534D01*
X34853599Y-52713495D01*
X34686505Y-52546401D01*
X34550965Y-52352830D01*
X34451097Y-52138663D01*
X34389937Y-51910408D01*
X34369341Y-51675000D01*
X34389937Y-51439592D01*
X34451097Y-51211337D01*
X34550965Y-50997171D01*
X34591327Y-50939527D01*
X34686506Y-50803597D01*
X34853598Y-50636506D01*
X34853604Y-50636501D01*
X35039158Y-50506575D01*
X35082783Y-50451998D01*
X35089977Y-50382500D01*
X35058454Y-50320145D01*
X35039158Y-50303425D01*
X34959336Y-50247533D01*
X34853599Y-50173495D01*
X34686505Y-50006401D01*
X34550965Y-49812830D01*
X34451097Y-49598663D01*
X34389937Y-49370408D01*
X34369341Y-49135000D01*
X34389937Y-48899592D01*
X34451097Y-48671337D01*
X34550965Y-48457171D01*
X34559091Y-48445565D01*
X34686506Y-48263597D01*
X34853598Y-48096506D01*
X34853604Y-48096501D01*
X35039158Y-47966575D01*
X35082783Y-47911998D01*
X35089977Y-47842500D01*
X35058454Y-47780145D01*
X35039158Y-47763425D01*
X34958709Y-47707094D01*
X34853599Y-47633495D01*
X34686505Y-47466401D01*
X34550965Y-47272830D01*
X34451097Y-47058663D01*
X34389937Y-46830408D01*
X34369341Y-46595000D01*
X34389937Y-46359592D01*
X34451097Y-46131337D01*
X34550965Y-45917171D01*
X34554718Y-45911810D01*
X34686506Y-45723597D01*
X34853598Y-45556506D01*
X34853605Y-45556501D01*
X35047166Y-45420967D01*
X35047170Y-45420965D01*
X35111544Y-45390947D01*
X35261337Y-45321097D01*
X35261341Y-45321096D01*
X35261345Y-45321094D01*
X35489587Y-45259938D01*
X35489597Y-45259936D01*
X35724999Y-45239341D01*
X35725001Y-45239341D01*
X35960404Y-45259936D01*
X35960414Y-45259938D01*
X36188656Y-45321094D01*
X36188665Y-45321098D01*
X36402829Y-45420964D01*
X36402831Y-45420965D01*
X36596403Y-45556505D01*
X36763495Y-45723597D01*
X36899035Y-45917169D01*
X36899036Y-45917171D01*
X36998902Y-46131335D01*
X36998905Y-46131341D01*
X37037822Y-46276584D01*
X37074187Y-46336244D01*
X37137034Y-46366773D01*
X37206410Y-46358478D01*
X37245278Y-46332171D01*
X37706781Y-45870668D01*
X37740266Y-45809345D01*
X37743100Y-45782987D01*
X37743100Y-36360675D01*
X37777951Y-36185472D01*
X37777952Y-36185471D01*
X37777952Y-36185467D01*
X37846316Y-36020422D01*
X37862313Y-35996480D01*
X37862315Y-35996477D01*
X37862315Y-35996476D01*
X37945561Y-35871889D01*
X37945567Y-35871881D01*
X44746882Y-29070567D01*
X44746886Y-29070564D01*
X44895416Y-28971319D01*
X44895423Y-28971315D01*
X44897484Y-28970462D01*
X44898398Y-28969725D01*
X44900792Y-28968446D01*
X44900550Y-28967991D01*
X44951888Y-28926621D01*
X44973954Y-28860328D01*
X44956676Y-28792628D01*
X44905539Y-28745017D01*
X44850033Y-28731900D01*
X42302012Y-28731900D01*
X42234973Y-28751585D01*
X42214331Y-28768219D01*
X32193219Y-38789331D01*
X32159734Y-38850654D01*
X32156900Y-38877012D01*
X32156900Y-50764322D01*
X32156900Y-50764324D01*
X32156901Y-50764324D01*
X32122050Y-50939527D01*
X32122048Y-50939533D01*
X32053686Y-51104575D01*
X32053681Y-51104584D01*
X31954436Y-51253114D01*
X31954433Y-51253118D01*
X31828119Y-51379432D01*
X31828115Y-51379435D01*
X31679585Y-51478680D01*
X31679579Y-51478683D01*
X31679578Y-51478684D01*
X31514533Y-51547048D01*
X31514529Y-51547048D01*
X31514528Y-51547049D01*
X31339325Y-51581900D01*
X31339322Y-51581900D01*
X31160676Y-51581900D01*
X31042802Y-51558452D01*
X30985467Y-51547048D01*
X30820422Y-51478684D01*
X30671885Y-51379435D01*
X30545565Y-51253115D01*
X30446316Y-51104578D01*
X30377952Y-50939533D01*
X30356886Y-50833627D01*
X30343100Y-50764324D01*
X30343100Y-48879999D01*
X30084211Y-48879999D01*
X30084210Y-48880000D01*
X29366237Y-48880000D01*
X29385000Y-48925299D01*
X29385000Y-49334701D01*
X29366237Y-49380000D01*
X30084211Y-49380000D01*
X30047534Y-49564389D01*
X30047532Y-49564397D01*
X29974036Y-49741833D01*
X29974031Y-49741842D01*
X29867333Y-49901526D01*
X29867330Y-49901530D01*
X29731531Y-50037329D01*
X29731527Y-50037332D01*
X29571843Y-50144030D01*
X29571833Y-50144035D01*
X29394401Y-50217530D01*
X29394394Y-50217533D01*
X29360000Y-50224373D01*
X29360000Y-49395056D01*
X29343134Y-49435775D01*
X29265775Y-49513134D01*
X29164701Y-49555000D01*
X29055299Y-49555000D01*
X28954225Y-49513134D01*
X28876866Y-49435775D01*
X28860000Y-49395056D01*
X28860000Y-50224372D01*
X28825607Y-50217533D01*
X28825600Y-50217530D01*
X28648168Y-50144035D01*
X28648158Y-50144030D01*
X28488474Y-50037332D01*
X28488470Y-50037329D01*
X28352671Y-49901530D01*
X28352668Y-49901526D01*
X28245970Y-49741842D01*
X28245965Y-49741833D01*
X28172469Y-49564397D01*
X28172467Y-49564389D01*
X28135790Y-49380000D01*
X28853763Y-49380000D01*
X28835000Y-49334701D01*
X28835000Y-48925299D01*
X28853763Y-48880000D01*
X28135790Y-48880000D01*
X28135790Y-48879999D01*
X28172467Y-48695610D01*
X28172469Y-48695602D01*
X28245965Y-48518166D01*
X28245970Y-48518157D01*
X28352668Y-48358473D01*
X28352671Y-48358469D01*
X28488470Y-48222670D01*
X28488474Y-48222667D01*
X28648158Y-48115969D01*
X28648167Y-48115964D01*
X28825603Y-48042468D01*
X28825611Y-48042466D01*
X28860000Y-48035625D01*
X28860000Y-48864943D01*
X28876866Y-48824225D01*
X28954225Y-48746866D01*
X29055299Y-48705000D01*
X29164701Y-48705000D01*
X29265775Y-48746866D01*
X29343134Y-48824225D01*
X29360000Y-48864943D01*
X29360000Y-48035625D01*
X29394390Y-48042466D01*
X29394398Y-48042468D01*
X29571834Y-48115964D01*
X29571843Y-48115969D01*
X29731527Y-48222667D01*
X29731531Y-48222670D01*
X29867330Y-48358469D01*
X29867333Y-48358473D01*
X29974031Y-48518157D01*
X29974036Y-48518166D01*
X30047532Y-48695602D01*
X30047534Y-48695610D01*
X30084211Y-48879999D01*
X30343100Y-48879999D01*
X30343100Y-38360675D01*
X30377951Y-38185472D01*
X30377952Y-38185471D01*
X30377952Y-38185467D01*
X30430829Y-38057812D01*
X30446315Y-38020424D01*
X30446320Y-38020415D01*
X30545564Y-37871886D01*
X30598621Y-37818829D01*
X30671885Y-37745565D01*
X35954823Y-32462627D01*
X41296882Y-27120567D01*
X41296886Y-27120564D01*
X41445416Y-27021319D01*
X41445425Y-27021314D01*
X41610467Y-26952952D01*
X41610473Y-26952950D01*
X41785676Y-26918100D01*
X41785678Y-26918100D01*
X102535678Y-26918100D01*
X102714322Y-26918100D01*
X102714324Y-26918100D01*
X102889528Y-26952950D01*
X102889534Y-26952952D01*
X103054576Y-27021314D01*
X103054585Y-27021319D01*
X103203115Y-27120564D01*
X103203119Y-27120567D01*
X106814295Y-30731743D01*
X106875618Y-30765228D01*
X106891168Y-30767590D01*
X107055064Y-30781929D01*
X107055071Y-30781930D01*
X107268446Y-30839104D01*
X107268452Y-30839107D01*
X107468660Y-30932465D01*
X107468662Y-30932466D01*
X107649623Y-31059175D01*
X107805825Y-31215377D01*
X107932534Y-31396338D01*
X107932535Y-31396340D01*
X107992618Y-31525189D01*
X108038791Y-31577628D01*
X108105984Y-31596780D01*
X108172865Y-31576564D01*
X108217382Y-31525189D01*
X108277349Y-31396590D01*
X108277466Y-31396339D01*
X108404174Y-31215380D01*
X108560380Y-31059174D01*
X108560384Y-31059171D01*
X108560385Y-31059170D01*
X108741334Y-30932468D01*
X108741338Y-30932466D01*
X108838620Y-30887103D01*
X108941550Y-30839106D01*
X108941553Y-30839105D01*
X108941555Y-30839104D01*
X109154930Y-30781930D01*
X109154938Y-30781929D01*
X109374998Y-30762677D01*
X109375002Y-30762677D01*
X109595063Y-30781929D01*
X109595071Y-30781930D01*
X109808446Y-30839104D01*
X109808452Y-30839107D01*
X110008660Y-30932465D01*
X110008662Y-30932466D01*
X110189623Y-31059175D01*
X110345825Y-31215377D01*
X110472534Y-31396338D01*
X110472535Y-31396340D01*
X110532618Y-31525189D01*
X110578791Y-31577628D01*
X110645984Y-31596780D01*
X110712865Y-31576564D01*
X110757382Y-31525189D01*
X110817349Y-31396590D01*
X110817466Y-31396339D01*
X110944174Y-31215380D01*
X111100380Y-31059174D01*
X111100384Y-31059171D01*
X111100385Y-31059170D01*
X111281334Y-30932468D01*
X111281338Y-30932466D01*
X111378620Y-30887103D01*
X111481550Y-30839106D01*
X111481553Y-30839105D01*
X111481555Y-30839104D01*
X111694930Y-30781930D01*
X111694938Y-30781929D01*
X111914998Y-30762677D01*
X111915002Y-30762677D01*
X112135063Y-30781929D01*
X112135071Y-30781930D01*
X112348446Y-30839104D01*
X112348452Y-30839107D01*
X112548660Y-30932465D01*
X112548662Y-30932466D01*
X112729623Y-31059175D01*
X112885825Y-31215377D01*
X113012534Y-31396338D01*
X113012535Y-31396340D01*
X113072618Y-31525189D01*
X113118791Y-31577628D01*
X113185984Y-31596780D01*
X113252865Y-31576564D01*
X113297382Y-31525189D01*
X113357349Y-31396590D01*
X113357466Y-31396339D01*
X113484174Y-31215380D01*
X113640380Y-31059174D01*
X113640384Y-31059171D01*
X113640385Y-31059170D01*
X113821334Y-30932468D01*
X113821338Y-30932466D01*
X113918620Y-30887103D01*
X114021550Y-30839106D01*
X114021553Y-30839105D01*
X114021555Y-30839104D01*
X114234930Y-30781930D01*
X114234938Y-30781929D01*
X114454998Y-30762677D01*
X114455002Y-30762677D01*
X114675063Y-30781929D01*
X114675071Y-30781930D01*
X114888446Y-30839104D01*
X114888452Y-30839107D01*
X115088660Y-30932465D01*
X115088662Y-30932466D01*
X115269623Y-31059175D01*
X115425825Y-31215377D01*
X115552533Y-31396337D01*
X115612895Y-31525782D01*
X115659068Y-31578221D01*
X115726262Y-31597372D01*
X115793143Y-31577156D01*
X115837659Y-31525780D01*
X115897902Y-31396589D01*
X115897903Y-31396587D01*
X115943259Y-31331811D01*
X115943260Y-31331810D01*
X116614000Y-32002551D01*
X116614000Y-31979840D01*
X116639964Y-31882939D01*
X116690124Y-31796060D01*
X116761060Y-31725124D01*
X116847939Y-31674964D01*
X116944840Y-31649000D01*
X116967552Y-31649000D01*
X116296812Y-30978259D01*
X116296813Y-30978258D01*
X116361589Y-30932901D01*
X116361595Y-30932898D01*
X116561716Y-30839580D01*
X116561730Y-30839575D01*
X116775014Y-30782426D01*
X116775024Y-30782424D01*
X116994999Y-30763179D01*
X116995001Y-30763179D01*
X117214977Y-30782424D01*
X117214987Y-30782426D01*
X117428271Y-30839575D01*
X117428280Y-30839579D01*
X117628410Y-30932901D01*
X117693189Y-30978258D01*
X117022447Y-31649000D01*
X117045160Y-31649000D01*
X117142061Y-31674964D01*
X117228940Y-31725124D01*
X117299876Y-31796060D01*
X117350036Y-31882939D01*
X117376000Y-31979840D01*
X117376000Y-32002553D01*
X118046742Y-31331811D01*
X118092099Y-31396590D01*
X118152342Y-31525781D01*
X118198515Y-31578220D01*
X118265708Y-31597372D01*
X118332589Y-31577156D01*
X118377106Y-31525781D01*
X118437349Y-31396590D01*
X118437466Y-31396339D01*
X118564174Y-31215380D01*
X118720380Y-31059174D01*
X118720384Y-31059171D01*
X118720385Y-31059170D01*
X118901334Y-30932468D01*
X118901338Y-30932466D01*
X118998620Y-30887103D01*
X119101550Y-30839106D01*
X119101553Y-30839105D01*
X119101555Y-30839104D01*
X119314930Y-30781930D01*
X119314937Y-30781929D01*
X119320796Y-30781417D01*
X119321449Y-30781359D01*
X119386517Y-30755906D01*
X119427494Y-30699315D01*
X119431371Y-30629553D01*
X119396917Y-30568769D01*
X119335069Y-30536262D01*
X119331427Y-30535587D01*
X119283987Y-30527527D01*
X118949356Y-30431121D01*
X118627624Y-30297855D01*
X118322836Y-30129405D01*
X118038824Y-29927888D01*
X117779161Y-29695839D01*
X117547112Y-29436176D01*
X117345595Y-29152164D01*
X117177145Y-28847376D01*
X117043879Y-28525644D01*
X116947473Y-28191013D01*
X116889141Y-27847693D01*
X116869615Y-27500000D01*
X116889141Y-27152307D01*
X116947473Y-26808987D01*
X117043879Y-26474356D01*
X117177145Y-26152624D01*
X117345595Y-25847836D01*
X117453147Y-25696255D01*
X117475886Y-25630189D01*
X117459298Y-25562317D01*
X117408649Y-25514188D01*
X117352017Y-25500500D01*
X30097983Y-25500500D01*
X30030944Y-25520185D01*
G37*
%TD.AperFunction*%
%TA.AperFunction,Conductor*%
G36*
X98163259Y-32728188D02*
G01*
X98117906Y-32663417D01*
X98117905Y-32663416D01*
X98057660Y-32534219D01*
X98011488Y-32481780D01*
X97944294Y-32462627D01*
X97877413Y-32482842D01*
X97832895Y-32534218D01*
X97772534Y-32663662D01*
X97772532Y-32663666D01*
X97645830Y-32844615D01*
X97645825Y-32844621D01*
X97618219Y-32872227D01*
X97584734Y-32933550D01*
X97581900Y-32959908D01*
X97581900Y-43960678D01*
X97581900Y-44139322D01*
X97581900Y-44139324D01*
X97581901Y-44139324D01*
X97547050Y-44314527D01*
X97547048Y-44314533D01*
X97478686Y-44479575D01*
X97478681Y-44479584D01*
X97379436Y-44628114D01*
X97379433Y-44628118D01*
X92279435Y-49728115D01*
X92194720Y-49812830D01*
X92153114Y-49854436D01*
X92004585Y-49953680D01*
X92004579Y-49953683D01*
X92004578Y-49953684D01*
X91839533Y-50022048D01*
X91839529Y-50022048D01*
X91839528Y-50022049D01*
X91664325Y-50056900D01*
X91664322Y-50056900D01*
X71544908Y-50056900D01*
X71477869Y-50076585D01*
X71457227Y-50093219D01*
X71429622Y-50120824D01*
X71429616Y-50120829D01*
X71248667Y-50247531D01*
X71248665Y-50247532D01*
X71248662Y-50247534D01*
X71129252Y-50303215D01*
X71119811Y-50307618D01*
X71067372Y-50353790D01*
X71048220Y-50420984D01*
X71068436Y-50487865D01*
X71119811Y-50532382D01*
X71248660Y-50592465D01*
X71248662Y-50592466D01*
X71429623Y-50719175D01*
X71585825Y-50875377D01*
X71712534Y-51056338D01*
X71712535Y-51056340D01*
X71805893Y-51256548D01*
X71805896Y-51256554D01*
X71863070Y-51469929D01*
X71863071Y-51469937D01*
X71882323Y-51689997D01*
X71882323Y-51690002D01*
X71863071Y-51910062D01*
X71863070Y-51910070D01*
X71805896Y-52123445D01*
X71805895Y-52123447D01*
X71805894Y-52123450D01*
X71796911Y-52142714D01*
X71712534Y-52323662D01*
X71712532Y-52323666D01*
X71691575Y-52353595D01*
X71585826Y-52504620D01*
X71429620Y-52660826D01*
X71354404Y-52713493D01*
X71313798Y-52741925D01*
X71270173Y-52796502D01*
X71262979Y-52866000D01*
X71294502Y-52928355D01*
X71354731Y-52963769D01*
X71384918Y-52967500D01*
X71424869Y-52967500D01*
X71424877Y-52967501D01*
X71484484Y-52973908D01*
X71619329Y-53024202D01*
X71619336Y-53024206D01*
X71734545Y-53110452D01*
X71734548Y-53110455D01*
X71820794Y-53225664D01*
X71820798Y-53225671D01*
X71827049Y-53242433D01*
X71868920Y-53298367D01*
X71934384Y-53322784D01*
X71943231Y-53323100D01*
X95017987Y-53323100D01*
X95085026Y-53303415D01*
X95105668Y-53286781D01*
X100811781Y-47580668D01*
X100845266Y-47519345D01*
X100848100Y-47492987D01*
X100848100Y-32959908D01*
X100828415Y-32892869D01*
X100811781Y-32872227D01*
X100784174Y-32844620D01*
X100657466Y-32663662D01*
X100597106Y-32534218D01*
X100550934Y-32481779D01*
X100483741Y-32462627D01*
X100416859Y-32482843D01*
X100372342Y-32534219D01*
X100312102Y-32663405D01*
X100312099Y-32663411D01*
X100266742Y-32728187D01*
X100266741Y-32728188D01*
X99596000Y-32057447D01*
X99596000Y-32080160D01*
X99570036Y-32177061D01*
X99519876Y-32263940D01*
X99448940Y-32334876D01*
X99362061Y-32385036D01*
X99265160Y-32411000D01*
X99242447Y-32411000D01*
X99913190Y-33081740D01*
X99848410Y-33127099D01*
X99848408Y-33127100D01*
X99648285Y-33220419D01*
X99648271Y-33220424D01*
X99434987Y-33277573D01*
X99434977Y-33277575D01*
X99215001Y-33296821D01*
X99214999Y-33296821D01*
X98995024Y-33277575D01*
X98995014Y-33277573D01*
X98781730Y-33220424D01*
X98781716Y-33220419D01*
X98581593Y-33127100D01*
X98581583Y-33127094D01*
X98516812Y-33081741D01*
X99187552Y-32411000D01*
X99164840Y-32411000D01*
X99067939Y-32385036D01*
X98981060Y-32334876D01*
X98910124Y-32263940D01*
X98859964Y-32177061D01*
X98834000Y-32080160D01*
X98834000Y-32057447D01*
X98163259Y-32728188D01*
G37*
%TD.AperFunction*%
%TA.AperFunction,Conductor*%
G36*
X90257135Y-32483435D02*
G01*
X90212618Y-32534811D01*
X90152536Y-32663658D01*
X90152532Y-32663666D01*
X90025830Y-32844615D01*
X90025825Y-32844621D01*
X89998219Y-32872227D01*
X89964734Y-32933550D01*
X89961900Y-32959908D01*
X89961900Y-41980678D01*
X89961900Y-42159322D01*
X89961900Y-42159324D01*
X89961901Y-42159324D01*
X89927050Y-42334527D01*
X89927048Y-42334533D01*
X89858686Y-42499575D01*
X89858681Y-42499584D01*
X89759436Y-42648114D01*
X89759433Y-42648118D01*
X87759435Y-44648115D01*
X87673956Y-44733594D01*
X87633114Y-44774436D01*
X87484585Y-44873680D01*
X87484579Y-44873683D01*
X87484578Y-44873684D01*
X87319533Y-44942048D01*
X87319529Y-44942048D01*
X87319528Y-44942049D01*
X87144325Y-44976900D01*
X87144322Y-44976900D01*
X71544908Y-44976900D01*
X71477869Y-44996585D01*
X71457227Y-45013219D01*
X71429622Y-45040824D01*
X71429616Y-45040829D01*
X71248667Y-45167531D01*
X71248665Y-45167532D01*
X71248662Y-45167534D01*
X71119219Y-45227894D01*
X71066780Y-45274066D01*
X71047628Y-45341260D01*
X71067844Y-45408141D01*
X71119219Y-45452658D01*
X71248410Y-45512901D01*
X71313189Y-45558258D01*
X70750943Y-46120504D01*
X70811081Y-46136619D01*
X70926920Y-46203498D01*
X71021502Y-46298080D01*
X71088381Y-46413919D01*
X71104496Y-46474057D01*
X71666742Y-45911811D01*
X71712099Y-45976590D01*
X71805421Y-46176720D01*
X71805425Y-46176729D01*
X71862574Y-46390013D01*
X71862576Y-46390023D01*
X71881821Y-46609999D01*
X71881821Y-46610000D01*
X71862576Y-46829976D01*
X71862574Y-46829986D01*
X71805425Y-47043270D01*
X71805420Y-47043284D01*
X71712102Y-47243405D01*
X71712099Y-47243411D01*
X71666742Y-47308187D01*
X71666741Y-47308188D01*
X71104496Y-46745942D01*
X71088381Y-46806081D01*
X71021502Y-46921920D01*
X70926920Y-47016502D01*
X70811081Y-47083381D01*
X70750943Y-47099494D01*
X71313190Y-47661740D01*
X71248411Y-47707098D01*
X71119219Y-47767342D01*
X71066780Y-47813514D01*
X71047628Y-47880708D01*
X71067844Y-47947589D01*
X71119219Y-47992106D01*
X71248660Y-48052465D01*
X71248662Y-48052466D01*
X71429623Y-48179175D01*
X71457228Y-48206781D01*
X71518551Y-48240266D01*
X71544909Y-48243100D01*
X91147988Y-48243100D01*
X91215027Y-48223415D01*
X91235669Y-48206781D01*
X95731781Y-43710669D01*
X95765266Y-43649346D01*
X95768100Y-43622988D01*
X95768100Y-32959908D01*
X95748415Y-32892869D01*
X95731781Y-32872227D01*
X95704174Y-32844620D01*
X95577466Y-32663662D01*
X95517382Y-32534811D01*
X95471210Y-32482371D01*
X95404017Y-32463219D01*
X95337135Y-32483435D01*
X95292618Y-32534811D01*
X95232536Y-32663658D01*
X95232532Y-32663666D01*
X95105830Y-32844615D01*
X95105825Y-32844621D01*
X94949622Y-33000824D01*
X94949616Y-33000829D01*
X94768667Y-33127531D01*
X94768665Y-33127532D01*
X94768662Y-33127534D01*
X94568450Y-33220894D01*
X94355068Y-33278070D01*
X94197877Y-33291822D01*
X94135002Y-33297323D01*
X94135000Y-33297323D01*
X94134998Y-33297323D01*
X94079983Y-33292509D01*
X93914932Y-33278070D01*
X93701550Y-33220894D01*
X93501338Y-33127534D01*
X93320380Y-33000826D01*
X93164174Y-32844620D01*
X93037466Y-32663662D01*
X92977382Y-32534811D01*
X92931210Y-32482371D01*
X92864017Y-32463219D01*
X92797135Y-32483435D01*
X92752618Y-32534811D01*
X92692536Y-32663658D01*
X92692532Y-32663666D01*
X92565830Y-32844615D01*
X92565825Y-32844621D01*
X92409622Y-33000824D01*
X92409616Y-33000829D01*
X92228667Y-33127531D01*
X92228665Y-33127532D01*
X92228662Y-33127534D01*
X92028450Y-33220894D01*
X91815068Y-33278070D01*
X91657877Y-33291822D01*
X91595002Y-33297323D01*
X91595000Y-33297323D01*
X91594998Y-33297323D01*
X91539983Y-33292509D01*
X91374932Y-33278070D01*
X91161550Y-33220894D01*
X90961338Y-33127534D01*
X90780380Y-33000826D01*
X90624174Y-32844620D01*
X90497466Y-32663662D01*
X90437382Y-32534811D01*
X90391210Y-32482371D01*
X90324017Y-32463219D01*
X90257135Y-32483435D01*
G37*
%TD.AperFunction*%
%TA.AperFunction,Conductor*%
G36*
X99802425Y-30701585D02*
G01*
X99756670Y-30754389D01*
X99746726Y-30823547D01*
X99775751Y-30887103D01*
X99817059Y-30918282D01*
X99848410Y-30932901D01*
X99913189Y-30978258D01*
X99242447Y-31649000D01*
X99265160Y-31649000D01*
X99362061Y-31674964D01*
X99448940Y-31725124D01*
X99519876Y-31796060D01*
X99570036Y-31882939D01*
X99596000Y-31979840D01*
X99596000Y-32002553D01*
X100266742Y-31331811D01*
X100312099Y-31396590D01*
X100372342Y-31525781D01*
X100418515Y-31578220D01*
X100485708Y-31597372D01*
X100552589Y-31577156D01*
X100597106Y-31525781D01*
X100657349Y-31396590D01*
X100657466Y-31396339D01*
X100784174Y-31215380D01*
X100940380Y-31059174D01*
X100940384Y-31059171D01*
X100940385Y-31059170D01*
X101121334Y-30932468D01*
X101121338Y-30932466D01*
X101151756Y-30918282D01*
X101204195Y-30872109D01*
X101223347Y-30804916D01*
X101203131Y-30738035D01*
X101149966Y-30692700D01*
X101099351Y-30681900D01*
X99869464Y-30681900D01*
X99802425Y-30701585D01*
G37*
%TD.AperFunction*%
%TA.AperFunction,Conductor*%
G36*
X97263609Y-30701585D02*
G01*
X97217854Y-30754389D01*
X97207910Y-30823547D01*
X97236935Y-30887103D01*
X97278243Y-30918282D01*
X97308660Y-30932465D01*
X97308662Y-30932466D01*
X97489623Y-31059175D01*
X97645825Y-31215377D01*
X97772533Y-31396337D01*
X97832895Y-31525782D01*
X97879068Y-31578221D01*
X97946262Y-31597372D01*
X98013143Y-31577156D01*
X98057659Y-31525780D01*
X98117902Y-31396589D01*
X98117903Y-31396587D01*
X98163259Y-31331811D01*
X98163260Y-31331810D01*
X98834000Y-32002551D01*
X98834000Y-31979840D01*
X98859964Y-31882939D01*
X98910124Y-31796060D01*
X98981060Y-31725124D01*
X99067939Y-31674964D01*
X99164840Y-31649000D01*
X99187552Y-31649000D01*
X98516812Y-30978259D01*
X98516813Y-30978258D01*
X98581589Y-30932901D01*
X98581591Y-30932900D01*
X98612940Y-30918282D01*
X98665379Y-30872110D01*
X98684531Y-30804916D01*
X98664315Y-30738035D01*
X98611150Y-30692700D01*
X98560535Y-30681900D01*
X97330648Y-30681900D01*
X97263609Y-30701585D01*
G37*
%TD.AperFunction*%
%TD*%
M02*
