M48
; DRILL file {KiCad 8.0.4} date 2024-08-26T16:43:09+0800
; FORMAT={-:-/ absolute / inch / decimal}
; #@! TF.CreationDate,2024-08-26T16:43:09+08:00
; #@! TF.GenerationSoftware,Kicad,Pcbnew,8.0.4
; #@! TF.FileFunction,Plated,1,2,PTH
FMAT,2
INCH
; #@! TA.AperFunction,Plated,PTH,ViaDrill
T1C0.0118
; #@! TA.AperFunction,Plated,PTH,ComponentDrill
T2C0.0197
; #@! TA.AperFunction,Plated,PTH,ComponentDrill
T3C0.0217
; #@! TA.AperFunction,Plated,PTH,ComponentDrill
T4C0.0300
; #@! TA.AperFunction,Plated,PTH,ComponentDrill
T5C0.0394
; #@! TA.AperFunction,Plated,PTH,ComponentDrill
T6C0.0400
; #@! TA.AperFunction,Plated,PTH,ComponentDrill
T7C0.0984
%
G90
G05
T1
X1.2303Y-1.9951
T4
X3.3061Y-1.261
X3.3061Y-2.361
X3.4061Y-1.261
X3.4061Y-2.361
X3.5061Y-1.261
X3.5061Y-2.361
X3.6061Y-1.261
X3.6061Y-2.361
X3.7061Y-1.261
X3.7061Y-2.361
X3.8061Y-1.261
X3.8061Y-2.361
X3.9061Y-1.261
X3.9061Y-2.361
X4.0061Y-1.261
X4.0061Y-2.361
X4.1061Y-1.261
X4.1061Y-2.361
X4.2061Y-1.261
X4.2061Y-2.361
X4.3061Y-1.261
X4.3061Y-2.361
X4.4061Y-1.261
X4.4061Y-2.361
X4.5061Y-1.261
X4.5061Y-2.361
X4.6061Y-1.261
X4.6061Y-2.361
X4.7061Y-1.261
X4.7061Y-2.361
T5
X1.4065Y-1.8344
X1.4065Y-1.9344
X1.4065Y-2.0344
X1.4065Y-2.1344
X1.4065Y-2.2344
X1.6779Y-1.435
X1.6779Y-1.535
X1.6779Y-1.635
X1.6779Y-1.735
X1.6779Y-1.835
X1.6779Y-1.935
X1.6779Y-2.035
X1.6779Y-2.135
X1.6779Y-2.235
X1.6779Y-2.335
T6
X2.3801Y-1.635
X2.3801Y-1.735
X2.3801Y-1.835
X2.3801Y-1.935
X2.3801Y-2.035
X2.3801Y-2.135
X2.7801Y-1.635
X2.7801Y-1.735
X2.7801Y-1.835
X2.7801Y-1.935
X2.7801Y-2.035
X2.7801Y-2.135
T7
X2.1779Y-1.435
X2.1779Y-2.335
T2
G00X1.0526Y-1.8949
M15
G01X1.027Y-1.8949
M16
G05
G00X1.0526Y-2.1705
M15
G01X1.027Y-2.1705
M16
G05
T3
G00X1.1461Y-1.9283
M15
G01X1.1461Y-1.9402
M16
G05
G00X1.1461Y-2.1252
M15
G01X1.1461Y-2.137
M16
G05
M30
