<?xml version="1.0" standalone="no"?>
 <!DOCTYPE svg PUBLIC "-//W3C//DTD SVG 1.1//EN" 
 "http://www.w3.org/Graphics/SVG/1.1/DTD/svg11.dtd"> 
<svg
  xmlns:svg="http://www.w3.org/2000/svg"
  xmlns="http://www.w3.org/2000/svg"
  xmlns:xlink="http://www.w3.org/1999/xlink"
  version="1.1"
  width="107.1118mm" height="46.4312mm" viewBox="0.0000 0.0000 107.1118 46.4312">
<title>SVG Image created as ESP8266_Calib_Module-brd.svg date 2024/08/19 19:07:06 </title>
  <desc>Image generated by PCBNEW </desc>
<g style="fill:#000000; fill-opacity:1.0000;stroke:#000000; stroke-opacity:1.0000;
stroke-linecap:round; stroke-linejoin:round;"
 transform="translate(0 0) scale(1 1)">
</g>
<g style="fill:none; 
stroke:#000000; stroke-width:0.2500; stroke-opacity:1; 
stroke-linecap:round; stroke-linejoin:round;">
<text x="97.4168" y="45.4250"
transform="scale(-1 1) translate(-194.833600 0)"
textLength="93.4610" font-size="4.0000" lengthAdjust="spacingAndGlyphs"
text-anchor="start" opacity="0" stroke-opacity="0">AQUA - THINGS : CALIBRATION MODULE</text>
<g class="stroked-text"><desc>AQUA - THINGS : CALIBRATION MODULE</desc>
<path style="fill:#000000; fill-opacity:1.0000; stroke:none;fill-rule:evenodd;"
d="M 94.1239,44.9150
95.1006,44.9150
95.2487,44.3992
96.3118,44.3992
96.4584,44.9150
97.4124,44.9150
96.9690,43.7426
96.1103,43.7426
95.4443,43.7426
95.7784,42.6802
96.1103,43.7426
96.9690,43.7426
96.2774,41.9137
95.2589,41.9137
Z" /> 
<path style="fill:#000000; fill-opacity:1.0000; stroke:none;fill-rule:evenodd;"
d="M 92.2964,41.8731
92.1245,41.8918
91.9633,41.9230
91.8129,41.9667
91.6732,42.0228
91.5136,42.1106
91.3707,42.2178
91.3183,42.2662
91.2003,42.3992
91.1023,42.5489
91.0383,42.6809
90.9871,42.8236
90.9487,42.9770
90.9231,43.1413
90.9103,43.3162
90.9087,43.4078
90.9139,43.5689
90.9293,43.7218
90.9551,43.8664
91.0018,44.0356
91.0646,44.1919
91.1434,44.3353
91.2384,44.4658
91.1162,44.5503
91.0098,44.6197
90.8730,44.6891
90.7937,44.7252
91.0531,45.2433
91.1871,45.1750
91.3203,45.0983
91.4407,45.0212
91.5679,44.9335
91.6873,44.8444
91.7081,44.8271
91.8509,44.8796
92.0087,44.9192
92.1559,44.9429
92.3141,44.9572
92.4833,44.9619
92.6508,44.9563
92.8092,44.9397
92.9586,44.9119
93.1325,44.8616
93.2922,44.7939
93.4378,44.7089
93.5692,44.6065
93.6793,44.4961
93.7747,44.3749
93.8555,44.2432
93.9215,44.1008
93.9729,43.9477
94.0096,43.7840
94.0316,43.6096
94.0389,43.4246
94.0373,43.3799
93.1054,43.3799
93.0995,43.5519
93.0817,43.7036
93.0460,43.8548
92.9854,43.9937
92.9369,44.0621
92.8189,44.1657
92.6764,44.2309
92.5272,44.2567
92.4731,44.2585
92.3255,44.2464
92.2936,44.2402
92.4113,44.1517
92.5461,44.0801
92.6643,44.0299
92.5185,43.7001
92.3742,43.7356
92.3258,43.7551
92.1978,43.8303
92.0693,43.9159
92.0569,43.9244
91.9536,43.9910
91.8948,43.8493
91.8606,43.6894
91.8449,43.5214
91.8422,43.4041
91.8482,43.2447
91.8703,43.0816
91.9154,42.9253
91.9916,42.7880
92.0122,42.7630
92.1310,42.6614
92.2751,42.5974
92.4262,42.5720
92.4811,42.5703
92.6294,42.5858
92.7746,42.6395
92.8992,42.7315
92.9325,42.7666
93.0161,42.8945
93.0674,43.0375
93.0946,43.1853
93.1053,43.3541
93.1054,43.3799
94.0373,43.3799
94.0325,43.2450
94.0132,43.0756
93.9811,42.9166
93.9362,42.7679
93.8784,42.6296
93.7880,42.4711
93.6776,42.3288
93.6279,42.2764
93.4914,42.1584
93.3390,42.0604
93.2056,41.9964
93.0620,41.9452
92.9082,41.9068
92.7442,41.8812
92.5699,41.8684
92.4789,41.8668
Z" /> 
<path style="fill:#000000; fill-opacity:1.0000; stroke:none;fill-rule:evenodd;"
d="M 88.4592,41.9137
87.5279,41.9137
87.5279,43.6994
87.5345,43.8463
87.5573,44.0041
87.5965,44.1561
87.6114,44.2006
87.6729,44.3423
87.7528,44.4726
87.8511,44.5915
87.8730,44.6138
87.9860,44.7139
88.1143,44.8002
88.2467,44.8615
88.3898,44.9054
88.5464,44.9368
88.6946,44.9540
88.8531,44.9615
88.9003,44.9619
89.0567,44.9583
89.2071,44.9486
89.3654,44.9330
89.3817,44.9311
89.5360,44.9060
89.6865,44.8649
89.8169,44.8095
89.9442,44.7306
90.0631,44.6303
90.1379,44.5516
90.2268,44.4350
90.2991,44.3051
90.3364,44.2057
90.3782,44.0501
90.4064,43.9049
90.4216,43.7556
90.4229,43.6994
90.4229,41.9137
89.4916,41.9137
89.4916,43.7382
89.4754,43.8938
89.4208,44.0348
89.3546,44.1207
89.2257,44.2099
89.0756,44.2519
88.9743,44.2585
88.8209,44.2425
88.6815,44.1884
88.5962,44.1229
88.5075,43.9940
88.4658,43.8418
88.4592,43.7382
Z" /> 
<path style="fill:#000000; fill-opacity:1.0000; stroke:none;fill-rule:evenodd;"
d="M 84.0885,44.9150
85.0652,44.9150
85.2132,44.3992
86.2764,44.3992
86.4229,44.9150
87.3770,44.9150
86.9336,43.7426
86.0749,43.7426
85.4088,43.7426
85.7430,42.6802
86.0749,43.7426
86.9336,43.7426
86.2420,41.9137
85.2235,41.9137
Z" /> 
<path style="fill:#000000; fill-opacity:1.0000; stroke:none;fill-rule:evenodd;"
d="M 82.6223,43.4613
81.4023,43.4613
81.4023,44.1178
82.6223,44.1178
Z" /> 
<path style="fill:#000000; fill-opacity:1.0000; stroke:none;fill-rule:evenodd;"
d="M 79.8196,41.9137
76.9817,41.9137
76.9817,42.6172
77.9335,42.6172
77.9335,44.9150
78.8670,44.9150
78.8670,42.6172
79.8196,42.6172
Z" /> 
<path style="fill:#000000; fill-opacity:1.0000; stroke:none;fill-rule:evenodd;"
d="M 76.5721,41.9137
75.6386,41.9137
75.6386,42.9454
74.6187,42.9454
74.6187,41.9137
73.6815,41.9137
73.6815,44.9150
74.6187,44.9150
74.6187,43.6957
75.6386,43.6957
75.6386,44.9150
76.5721,44.9150
Z" /> 
<path style="fill:#000000; fill-opacity:1.0000; stroke:none;fill-rule:evenodd;"
d="M 73.0426,41.9137
72.1076,41.9137
72.1076,44.9150
73.0426,44.9150
Z" /> 
<path style="fill:#000000; fill-opacity:1.0000; stroke:none;fill-rule:evenodd;"
d="M 71.4416,41.9137
70.5696,41.9137
69.4317,43.6049
69.4317,41.9137
68.5524,41.9137
68.5524,44.9150
69.4317,44.9150
70.5638,43.2327
70.5638,44.9150
71.4416,44.9150
Z" /> 
<path style="fill:#000000; fill-opacity:1.0000; stroke:none;fill-rule:evenodd;"
d="M 66.4319,43.9302
66.4319,43.2268
64.9899,43.2268
64.9899,44.4446
65.1169,44.5338
65.2633,44.6284
65.4029,44.7096
65.5358,44.7773
65.6824,44.8391
65.7226,44.8534
65.8675,44.8957
66.0237,44.9276
66.1914,44.9491
66.3443,44.9592
66.4781,44.9619
66.6413,44.9575
66.7948,44.9441
66.9663,44.9165
67.1237,44.8760
67.2672,44.8228
67.3551,44.7802
67.4960,44.6922
67.6223,44.5872
67.7341,44.4653
67.8314,44.3264
67.8805,44.2394
67.9438,44.1008
67.9939,43.9548
68.0310,43.8013
68.0550,43.6404
68.0659,43.4721
68.0666,43.4144
68.0617,43.2643
68.0426,43.0925
68.0091,42.9297
67.9614,42.7760
67.8993,42.6312
67.8629,42.5622
67.7796,42.4324
67.6830,42.3148
67.5731,42.2096
67.4499,42.1167
67.3135,42.0361
67.2650,42.0119
67.1205,41.9554
66.9557,41.9128
66.7982,41.8873
66.6258,41.8719
66.4708,41.8670
66.4385,41.8668
66.2883,41.8691
66.1242,41.8779
65.9779,41.8933
65.8296,41.9196
65.6897,41.9606
65.5427,42.0290
65.4124,42.1176
65.2986,42.2266
65.2779,42.2508
65.1920,42.3696
65.1189,42.5051
65.0588,42.6573
65.0309,42.7491
65.9315,42.8985
66.0007,42.7659
66.1122,42.6606
66.1205,42.6553
66.2609,42.5943
66.4087,42.5716
66.4590,42.5703
66.6219,42.5861
66.7650,42.6336
66.8884,42.7127
66.9485,42.7703
67.0367,42.9013
67.0908,43.0486
67.1195,43.2014
67.1302,43.3502
67.1309,43.4034
67.1244,43.5669
67.1005,43.7343
67.0588,43.8764
66.9896,44.0080
66.9463,44.0614
66.8309,44.1567
66.6927,44.2207
66.5314,44.2537
66.4319,44.2585
66.2793,44.2508
66.1337,44.2277
65.9909,44.1893
65.8416,44.1364
65.8076,44.1229
65.8076,43.9302
Z" /> 
<path style="fill:#000000; fill-opacity:1.0000; stroke:none;fill-rule:evenodd;"
d="M 64.6169,43.8943
63.7289,43.8364
63.6990,43.9896
63.6428,44.1306
63.6116,44.1786
63.4978,44.2867
63.3546,44.3499
63.1991,44.3684
63.0518,44.3531
62.9124,44.2926
62.8914,44.2761
62.8008,44.1558
62.7829,44.0614
62.8274,43.9201
62.8862,43.8547
63.0146,43.7820
63.1561,43.7337
63.3181,43.6920
63.3640,43.6818
63.5120,43.6465
63.6815,43.5984
63.8339,43.5458
63.9691,43.4888
64.1087,43.4146
64.2403,43.3198
64.3431,43.2148
64.4297,43.0802
64.4832,42.9300
64.5038,42.7643
64.5041,42.7425
64.4882,42.5868
64.4404,42.4372
64.3693,42.3065
64.2717,42.1868
64.1475,42.0844
64.0130,42.0068
63.9633,41.9841
63.8152,41.9328
63.6651,41.8999
63.4957,41.8783
63.3352,41.8687
63.2204,41.8668
63.0460,41.8720
62.8851,41.8876
62.7377,41.9135
62.5786,41.9584
62.4390,42.0181
62.3374,42.0793
62.2162,42.1843
62.1185,42.3132
62.0443,42.4662
61.9996,42.6163
61.9755,42.7549
62.8555,42.8047
62.8967,42.6628
62.9824,42.5367
63.0027,42.5190
63.1363,42.4519
63.2883,42.4299
63.3127,42.4296
63.4630,42.4488
63.5581,42.4977
63.6363,42.6221
63.6402,42.6633
63.5721,42.7916
63.4300,42.8583
63.2744,42.8976
63.2592,42.9007
63.1117,42.9332
62.9425,42.9740
62.7903,43.0151
62.6301,43.0646
62.4740,43.1227
62.3829,43.1645
62.2451,43.2446
62.1190,43.3456
62.0212,43.4592
61.9974,43.4957
61.9286,43.6373
61.8883,43.7899
61.8765,43.9383
61.8893,44.0964
61.9275,44.2475
61.9913,44.3917
62.0377,44.4688
62.1381,44.5959
62.2588,44.7045
62.3831,44.7855
62.4869,44.8366
62.6403,44.8914
62.7900,44.9265
62.9542,44.9497
63.1064,44.9599
63.2138,44.9619
63.3991,44.9572
63.5695,44.9431
63.7252,44.9195
63.8990,44.8769
64.0496,44.8196
64.1998,44.7313
64.2814,44.6607
64.3836,44.5418
64.4676,44.4115
64.5336,44.2697
64.5814,44.1164
64.6111,43.9517
Z" /> 
<path style="fill:#000000; fill-opacity:1.0000; stroke:none;fill-rule:evenodd;"
d="M 60.0762,42.7110
59.1801,42.7110
59.1801,43.5551
60.0762,43.5551
Z" /> 
<path style="fill:#000000; fill-opacity:1.0000; stroke:none;fill-rule:evenodd;"
d="M 60.0762,44.0709
59.1801,44.0709
59.1801,44.9150
60.0762,44.9150
Z" /> 
<path style="fill:#000000; fill-opacity:1.0000; stroke:none;fill-rule:evenodd;"
d="M 55.2124,43.6957
54.3946,43.9324
54.4351,44.0761
54.4925,44.2272
54.5618,44.3643
54.6430,44.4873
54.6540,44.5017
54.7606,44.6211
54.8806,44.7229
55.0143,44.8070
55.0944,44.8461
55.2345,44.8968
55.3926,44.9330
55.5457,44.9527
55.7125,44.9614
55.7626,44.9619
55.9121,44.9584
56.0799,44.9452
56.2349,44.9220
56.3998,44.8823
56.5475,44.8292
56.5672,44.8205
56.6997,44.7480
56.8240,44.6550
56.9403,44.5414
57.0334,44.4278
57.1065,44.3215
57.1834,44.1804
57.2444,44.0253
57.2895,43.8562
57.3150,43.7045
57.3293,43.5431
57.3329,43.4070
57.3267,43.2268
57.3080,43.0574
57.2768,42.8987
57.2332,42.7507
57.1772,42.6135
57.0896,42.4570
56.9825,42.3174
56.9343,42.2662
56.8016,42.1511
56.6528,42.0556
56.4878,41.9796
56.3442,41.9328
56.1902,41.8984
56.0259,41.8766
55.8512,41.8672
55.8059,41.8668
55.6335,41.8725
55.4730,41.8895
55.3245,41.9177
55.1621,41.9666
55.0169,42.0317
54.9090,42.0984
54.7924,42.1940
54.6875,42.3070
54.5945,42.4375
54.5132,42.5854
54.4545,42.7221
54.4232,42.8099
55.2475,42.9923
55.3004,42.8554
55.3384,42.7916
55.4439,42.6827
55.5304,42.6282
55.6739,42.5798
55.7832,42.5703
55.9325,42.5859
56.0785,42.6408
56.2010,42.7352
56.2697,42.8201
56.3369,42.9567
56.3761,43.1149
56.3927,43.2612
56.3972,43.4026
56.3918,43.5759
56.3758,43.7275
56.3435,43.8769
56.2805,44.0256
56.2448,44.0760
56.1254,44.1799
55.9767,44.2407
55.8161,44.2585
55.6613,44.2445
55.5206,44.1966
55.4109,44.1149
55.3188,43.9883
55.2582,43.8547
55.2163,43.7128
Z" /> 
<path style="fill:#000000; fill-opacity:1.0000; stroke:none;fill-rule:evenodd;"
d="M 50.9750,44.9150
51.9517,44.9150
52.0997,44.3992
53.1629,44.3992
53.3095,44.9150
54.2635,44.9150
53.8201,43.7426
52.9614,43.7426
52.2954,43.7426
52.6295,42.6802
52.9614,43.7426
53.8201,43.7426
53.1285,41.9137
52.1100,41.9137
Z" /> 
<path style="fill:#000000; fill-opacity:1.0000; stroke:none;fill-rule:evenodd;"
d="M 50.6936,41.9137
49.7601,41.9137
49.7601,44.1647
48.3035,44.1647
48.3035,44.9150
50.6936,44.9150
Z" /> 
<path style="fill:#000000; fill-opacity:1.0000; stroke:none;fill-rule:evenodd;"
d="M 47.8572,41.9137
46.9223,41.9137
46.9223,44.9150
47.8572,44.9150
Z" /> 
<path style="fill:#000000; fill-opacity:1.0000; stroke:none;fill-rule:evenodd;"
d="M 44.3557,41.9210
44.1910,41.9478
44.0457,41.9945
43.9035,42.0719
43.8419,42.1204
43.7396,42.2298
43.6595,42.3676
43.6164,42.5210
43.6081,42.6318
43.6245,42.7846
43.6734,42.9231
43.7550,43.0475
43.7752,43.0707
43.8923,43.1675
44.0239,43.2350
44.1005,43.2634
43.9483,43.3109
43.8029,43.3815
43.6848,43.4703
43.6213,43.5397
43.5402,43.6718
43.4891,43.8237
43.4688,43.9773
43.4675,44.0321
43.4804,44.1921
43.5191,44.3407
43.5766,44.4658
43.6612,44.5888
43.7649,44.6927
43.8756,44.7707
44.0119,44.8281
44.1590,44.8617
44.2302,44.8725
44.3907,44.8930
44.5414,44.9090
44.6486,44.9150
46.2599,44.9150
46.2599,44.2116
45.3183,44.2116
44.8421,44.2116
44.6931,44.2015
44.5522,44.1597
44.5021,44.1266
44.4195,44.0044
44.4032,43.8972
44.4415,43.7512
44.5013,43.6833
44.6358,43.6223
44.7852,43.6032
44.8443,43.6019
45.3183,43.6019
45.3183,44.2116
46.2599,44.2116
46.2599,43.0392
45.3183,43.0392
44.9124,43.0392
44.7569,43.0281
44.6138,42.9760
44.6083,42.9718
44.5294,42.8428
44.5226,42.7754
44.5669,42.6317
44.6083,42.5901
44.7446,42.5361
44.8927,42.5234
44.9058,42.5234
45.3183,42.5234
45.3183,43.0392
46.2599,43.0392
46.2599,41.9137
44.5123,41.9137
Z" /> 
<path style="fill:#000000; fill-opacity:1.0000; stroke:none;fill-rule:evenodd;"
d="M 41.2738,41.9163
41.1109,41.9260
40.9487,41.9456
40.7967,41.9788
40.7674,41.9877
40.6207,42.0531
40.4949,42.1484
40.3988,42.2611
40.3246,42.3941
40.2779,42.5442
40.2593,42.6939
40.2581,42.7469
40.2686,42.8963
40.3045,43.0451
40.3658,43.1777
40.4574,43.3039
40.5716,43.4108
40.6604,43.4715
40.8020,43.5371
40.9497,43.5812
40.9879,43.5902
40.8436,43.6465
40.7446,43.7023
40.6417,43.8073
40.5959,43.8635
40.5061,43.9836
40.4647,44.0526
40.0134,44.9150
41.0685,44.9150
41.5668,43.9969
41.6460,43.8649
41.7360,43.7653
41.8727,43.7055
41.9646,43.6957
42.0474,43.6957
42.0474,44.9150
42.9846,44.9150
42.9846,43.1330
42.0474,43.1330
41.6540,43.1330
41.4999,43.1118
41.4063,43.0920
41.2738,43.0204
41.2546,42.9982
41.1981,42.8598
41.1960,42.8238
41.2288,42.6753
41.2891,42.6010
41.4333,42.5404
41.5906,42.5241
41.6371,42.5234
42.0474,42.5234
42.0474,43.1330
42.9846,43.1330
42.9846,41.9137
41.4290,41.9137
Z" /> 
<path style="fill:#000000; fill-opacity:1.0000; stroke:none;fill-rule:evenodd;"
d="M 36.7483,44.9150
37.7251,44.9150
37.8731,44.3992
38.9363,44.3992
39.0828,44.9150
40.0368,44.9150
39.5935,43.7426
38.7348,43.7426
38.0687,43.7426
38.4028,42.6802
38.7348,43.7426
39.5935,43.7426
38.9018,41.9137
37.8833,41.9137
Z" /> 
<path style="fill:#000000; fill-opacity:1.0000; stroke:none;fill-rule:evenodd;"
d="M 36.9667,41.9137
34.1288,41.9137
34.1288,42.6172
35.0807,42.6172
35.0807,44.9150
36.0141,44.9150
36.0141,42.6172
36.9667,42.6172
Z" /> 
<path style="fill:#000000; fill-opacity:1.0000; stroke:none;fill-rule:evenodd;"
d="M 33.6863,41.9137
32.7513,41.9137
32.7513,44.9150
33.6863,44.9150
Z" /> 
<path style="fill:#000000; fill-opacity:1.0000; stroke:none;fill-rule:evenodd;"
d="M 30.4653,41.8731
30.2930,41.8919
30.1315,41.9233
29.9809,41.9672
29.8410,42.0237
29.6814,42.1119
29.5386,42.2198
29.4863,42.2684
29.3687,42.4015
29.2710,42.5503
29.1933,42.7148
29.1455,42.8577
29.1104,43.0107
29.0881,43.1737
29.0785,43.3468
29.0781,43.3917
29.0825,43.5510
29.0956,43.7012
29.1228,43.8692
29.1626,44.0240
29.2150,44.1656
29.2569,44.2526
29.3424,44.3923
29.4432,44.5178
29.5591,44.6290
29.6903,44.7260
29.7720,44.7750
29.9271,44.8479
30.0727,44.8960
30.2301,44.9311
30.3991,44.9530
30.5488,44.9612
30.6110,44.9619
30.7665,44.9580
30.9134,44.9462
31.0783,44.9216
31.2308,44.8857
31.3708,44.8385
31.4573,44.8007
31.5977,44.7212
31.7260,44.6237
31.8422,44.5083
31.9463,44.3750
32.0003,44.2907
32.0710,44.1535
32.1271,44.0040
32.1685,43.8421
32.1954,43.6679
32.2065,43.5134
32.2084,43.4166
31.2749,43.4166
31.2689,43.5761
31.2468,43.7398
31.2017,43.8972
31.1255,44.0366
31.1049,44.0621
30.9867,44.1657
30.8446,44.2309
30.6963,44.2567
30.6425,44.2585
30.4839,44.2433
30.3329,44.1908
30.2086,44.1008
30.1765,44.0665
30.0968,43.9340
30.0479,43.7757
30.0219,43.6060
30.0123,43.4373
30.0116,43.3763
30.0177,43.2270
30.0401,43.0730
30.0858,42.9234
30.1630,42.7888
30.1838,42.7637
30.3034,42.6617
30.4469,42.5975
30.5964,42.5720
30.6506,42.5703
30.8005,42.5858
30.9466,42.6395
31.0710,42.7315
31.1041,42.7666
31.1867,42.8974
31.2373,43.0479
31.2642,43.2059
31.2742,43.3609
31.2749,43.4166
32.2084,43.4166
32.2019,43.2385
32.1826,43.0705
32.1504,42.9127
32.1054,42.7650
32.0475,42.6275
31.9570,42.4698
31.8464,42.3280
31.7966,42.2757
31.6598,42.1579
31.5072,42.0601
31.3738,41.9962
31.2302,41.9451
31.0766,41.9068
30.9129,41.8812
30.7391,41.8684
30.6484,41.8668
Z" /> 
<path style="fill:#000000; fill-opacity:1.0000; stroke:none;fill-rule:evenodd;"
d="M 28.5887,41.9137
27.7167,41.9137
26.5788,43.6049
26.5788,41.9137
25.6995,41.9137
25.6995,44.9150
26.5788,44.9150
27.7109,43.2327
27.7109,44.9150
28.5887,44.9150
Z" /> 
<path style="fill:#000000; fill-opacity:1.0000; stroke:none;fill-rule:evenodd;"
d="M 23.7072,41.9137
22.4792,41.9137
22.0051,43.7324
21.5332,41.9137
20.3088,41.9137
20.3088,44.9150
21.0716,44.9150
21.0716,42.6113
21.6629,44.9150
22.3532,44.9150
22.9430,42.6113
22.9430,44.9150
23.7072,44.9150
Z" /> 
<path style="fill:#000000; fill-opacity:1.0000; stroke:none;fill-rule:evenodd;"
d="M 18.1086,41.8731
17.9363,41.8919
17.7748,41.9233
17.6241,41.9672
17.4843,42.0237
17.3246,42.1119
17.1819,42.2198
17.1295,42.2684
17.0120,42.4015
16.9143,42.5503
16.8366,42.7148
16.7888,42.8577
16.7537,43.0107
16.7314,43.1737
16.7218,43.3468
16.7214,43.3917
16.7258,43.5510
16.7389,43.7012
16.7661,43.8692
16.8059,44.0240
16.8583,44.1656
16.9002,44.2526
16.9857,44.3923
17.0864,44.5178
17.2024,44.6290
17.3335,44.7260
17.4153,44.7750
17.5704,44.8479
17.7160,44.8960
17.8733,44.9311
18.0423,44.9530
18.1921,44.9612
18.2543,44.9619
18.4098,44.9580
18.5567,44.9462
18.7216,44.9216
18.8740,44.8857
19.0141,44.8385
19.1006,44.8007
19.2410,44.7212
19.3693,44.6237
19.4855,44.5083
19.5895,44.3750
19.6435,44.2907
19.7142,44.1535
19.7703,44.0040
19.8118,43.8421
19.8386,43.6679
19.8498,43.5134
19.8516,43.4166
18.9181,43.4166
18.9122,43.5761
18.8901,43.7398
18.8449,43.8972
18.7687,44.0366
18.7481,44.0621
18.6299,44.1657
18.4878,44.2309
18.3395,44.2567
18.2858,44.2585
18.1272,44.2433
17.9762,44.1908
17.8519,44.1008
17.8198,44.0665
17.7401,43.9340
17.6911,43.7757
17.6652,43.6060
17.6555,43.4373
17.6549,43.3763
17.6610,43.2270
17.6833,43.0730
17.7291,42.9234
17.8062,42.7888
17.8271,42.7637
17.9467,42.6617
18.0901,42.5975
18.2397,42.5720
18.2938,42.5703
18.4438,42.5858
18.5898,42.6395
18.7143,42.7315
18.7474,42.7666
18.8299,42.8974
18.8806,43.0479
18.9075,43.2059
18.9175,43.3609
18.9181,43.4166
19.8516,43.4166
19.8452,43.2385
19.8259,43.0705
19.7937,42.9127
19.7487,42.7650
19.6908,42.6275
19.6003,42.4698
19.4897,42.3280
19.4398,42.2757
19.3030,42.1579
19.1504,42.0601
19.0170,41.9962
18.8735,41.9451
18.7199,41.9068
18.5562,41.8812
18.3823,41.8684
18.2916,41.8668
Z" /> 
<path style="fill:#000000; fill-opacity:1.0000; stroke:none;fill-rule:evenodd;"
d="M 14.6902,41.9176
14.5314,41.9320
14.3682,41.9614
14.2247,42.0046
14.1759,42.0244
14.0407,42.0942
13.9193,42.1792
13.8119,42.2794
13.7583,42.3417
13.6727,42.4633
13.6015,42.5957
13.5447,42.7389
13.5194,42.8231
13.4836,42.9798
13.4595,43.1418
13.4480,43.2901
13.4454,43.4041
13.4493,43.5770
13.4609,43.7348
13.4844,43.8996
13.5184,44.0437
13.5560,44.1508
13.6246,44.2928
13.7068,44.4215
13.8025,44.5366
13.8616,44.5948
13.9867,44.6949
14.1176,44.7716
14.2541,44.8250
14.2822,44.8329
14.4320,44.8688
14.5920,44.8970
14.7428,44.9121
14.8383,44.9150
16.2253,44.9150
16.2253,44.2116
15.2919,44.2116
15.0632,44.2116
14.9121,44.2067
14.7636,44.1873
14.6471,44.1493
14.5308,44.0561
14.4536,43.9302
14.4107,43.7854
14.3901,43.6232
14.3835,43.4662
14.3833,43.4232
14.3888,43.2595
14.4091,43.0947
14.4508,42.9406
14.5211,42.8111
14.5401,42.7886
14.6578,42.6982
14.7983,42.6455
14.9505,42.6213
15.0588,42.6172
15.2919,42.6172
15.2919,44.2116
16.2253,44.2116
16.2253,41.9137
14.8383,41.9137
Z" /> 
<path style="fill:#000000; fill-opacity:1.0000; stroke:none;fill-rule:evenodd;"
d="M 11.0069,41.9137
10.0756,41.9137
10.0756,43.6994
10.0822,43.8463
10.1050,44.0041
10.1442,44.1561
10.1591,44.2006
10.2205,44.3423
10.3004,44.4726
10.3988,44.5915
10.4207,44.6138
10.5337,44.7139
10.6619,44.8002
10.7944,44.8615
10.9374,44.9054
11.0941,44.9368
11.2422,44.9540
11.4008,44.9615
11.4480,44.9619
11.6044,44.9583
11.7548,44.9486
11.9131,44.9330
11.9294,44.9311
12.0836,44.9060
12.2342,44.8649
12.3646,44.8095
12.4918,44.7306
12.6108,44.6303
12.6855,44.5516
12.7745,44.4350
12.8468,44.3051
12.8841,44.2057
12.9259,44.0501
12.9540,43.9049
12.9692,43.7556
12.9706,43.6994
12.9706,41.9137
12.0393,41.9137
12.0393,43.7382
12.0231,43.8938
11.9685,44.0348
11.9023,44.1207
11.7734,44.2099
11.6233,44.2519
11.5220,44.2585
11.3685,44.2425
11.2292,44.1884
11.1439,44.1229
11.0552,43.9940
11.0134,43.8418
11.0069,43.7382
Z" /> 
<path style="fill:#000000; fill-opacity:1.0000; stroke:none;fill-rule:evenodd;"
d="M 9.4762,41.9137
8.5427,41.9137
8.5427,44.1647
7.0860,44.1647
7.0860,44.9150
9.4762,44.9150
Z" /> 
<path style="fill:#000000; fill-opacity:1.0000; stroke:none;fill-rule:evenodd;"
d="M 6.6794,41.9137
4.1778,41.9137
4.1778,42.6172
5.7437,42.6172
5.7437,43.0392
4.2907,43.0392
4.2907,43.6488
5.7437,43.6488
5.7437,44.2116
4.1324,44.2116
4.1324,44.9150
6.6794,44.9150
Z" /> 
</g><path style="fill:none; 
stroke:#000000; stroke-width:0.0500; stroke-opacity:1; 
stroke-linecap:round; stroke-linejoin:round;fill:none"
d="M 98.7168,0.0250
1.2418,0.0250
1.2418,40.0250
98.7168,40.0250
Z" /> 
</g>
<g style="fill:none; 
stroke:#000000; stroke-width:0.8900; stroke-opacity:1; 
stroke-linecap:round; stroke-linejoin:round;">
<path d="M2.9818 23.1550
L2.3218 23.1550
" />
<path style="fill:#000000; fill-opacity:1.0000; stroke:none;fill-rule:evenodd;"
d="M 1.8768,24.3550
3.4268,24.3550
3.4268,23.1550
1.8768,23.1550
Z" /> 
</g>
<g style="fill:none; 
stroke:#000000; stroke-width:0.9500; stroke-opacity:1; 
stroke-linecap:round; stroke-linejoin:round;">
<path d="M5.3518 24.3050
L5.3518 24.0050
" />
<path style="fill:#000000; fill-opacity:1.0000; stroke:none;fill-rule:evenodd;"
d="M 1.8768,26.4050
3.4268,26.4050
3.4268,24.9050
1.8768,24.9050
Z" /> 
<path style="fill:#000000; fill-opacity:1.0000; stroke:none;fill-rule:evenodd;"
d="M 1.8768,28.4050
3.4268,28.4050
3.4268,26.9050
1.8768,26.9050
Z" /> 
</g>
<g style="fill:none; 
stroke:#000000; stroke-width:0.9500; stroke-opacity:1; 
stroke-linecap:round; stroke-linejoin:round;">
<path d="M5.3518 29.3050
L5.3518 29.0050
" />
<path style="fill:#000000; fill-opacity:1.0000; stroke:none;fill-rule:evenodd;"
d="M 1.8768,30.1550
3.4268,30.1550
3.4268,28.9550
1.8768,28.9550
Z" /> 
</g>
<g style="fill:none; 
stroke:#000000; stroke-width:0.8900; stroke-opacity:1; 
stroke-linecap:round; stroke-linejoin:round;">
<path d="M2.9818 30.1550
L2.3218 30.1550
" />
<path style="fill:#000000; fill-opacity:1.0000; stroke:none;fill-rule:evenodd;"
d="M 4.6768,25.5550
6.0268,25.5550
6.0268,25.1550
4.6768,25.1550
Z" /> 
<path style="fill:#000000; fill-opacity:1.0000; stroke:none;fill-rule:evenodd;"
d="M 4.6768,26.2050
6.0268,26.2050
6.0268,25.8050
4.6768,25.8050
Z" /> 
<path style="fill:#000000; fill-opacity:1.0000; stroke:none;fill-rule:evenodd;"
d="M 4.6768,26.8550
6.0268,26.8550
6.0268,26.4550
4.6768,26.4550
Z" /> 
<path style="fill:#000000; fill-opacity:1.0000; stroke:none;fill-rule:evenodd;"
d="M 4.6768,27.5050
6.0268,27.5050
6.0268,27.1050
4.6768,27.1050
Z" /> 
<path style="fill:#000000; fill-opacity:1.0000; stroke:none;fill-rule:evenodd;"
d="M 4.6768,28.1550
6.0268,28.1550
6.0268,27.7550
4.6768,27.7550
Z" /> 
<path style="fill:#000000; fill-opacity:1.0000; stroke:none;fill-rule:evenodd;"
d="M 8.6518,28.3050
8.6518,30.0050
10.3518,30.0050
10.3518,28.3050
Z" /> 
</g>
<g style="fill:#000000; fill-opacity:1.0000; stroke:none;">
<circle cx="46.8568" cy="16.5550" r="0.7620" /> 
</g>
<g style="fill:#000000; fill-opacity:1.0000; stroke:none;">
<circle cx="46.8568" cy="19.0950" r="0.7620" /> 
</g>
<g style="fill:#000000; fill-opacity:1.0000; stroke:none;">
<circle cx="46.8568" cy="26.7150" r="0.7620" /> 
<path style="fill:#000000; fill-opacity:1.0000; stroke:none;fill-rule:evenodd;"
d="M 47.6188,30.0170
47.6188,28.4930
46.0948,28.4930
46.0948,30.0170
Z" /> 
</g>
<g style="fill:#000000; fill-opacity:1.0000; stroke:none;">
<circle cx="46.8568" cy="24.1750" r="0.7620" /> 
</g>
<g style="fill:#000000; fill-opacity:1.0000; stroke:none;">
<circle cx="36.6968" cy="16.5550" r="0.7620" /> 
</g>
<g style="fill:#000000; fill-opacity:1.0000; stroke:none;">
<circle cx="36.6968" cy="19.0950" r="0.7620" /> 
</g>
<g style="fill:#000000; fill-opacity:1.0000; stroke:none;">
<circle cx="36.6968" cy="26.7150" r="0.7620" /> 
<path style="fill:#000000; fill-opacity:1.0000; stroke:none;fill-rule:evenodd;"
d="M 37.4588,30.0170
37.4588,28.4930
35.9348,28.4930
35.9348,30.0170
Z" /> 
</g>
<g style="fill:#000000; fill-opacity:1.0000; stroke:none;">
<circle cx="36.6968" cy="24.1750" r="0.7620" /> 
</g>
<g style="fill:#000000; fill-opacity:1.0000; stroke:none;">
<circle cx="46.8568" cy="21.6350" r="0.7620" /> 
</g>
<g style="fill:#000000; fill-opacity:1.0000; stroke:none;">
<circle cx="36.6968" cy="21.6350" r="0.7620" /> 
</g>
<g style="fill:#000000; fill-opacity:1.0000; stroke:none;">
<circle cx="31.5593" cy="34.3350" r="1.6000" /> 
</g>
<g style="fill:#000000; fill-opacity:1.0000; stroke:none;">
<circle cx="31.5593" cy="11.4750" r="1.6000" /> 
</g>
<g style="fill:#000000; fill-opacity:1.0000; stroke:none;">
<circle cx="18.8593" cy="11.4750" r="0.8890" /> 
</g>
<g style="fill:#000000; fill-opacity:1.0000; stroke:none;">
<circle cx="18.8593" cy="14.0150" r="0.8890" /> 
</g>
<g style="fill:#000000; fill-opacity:1.0000; stroke:none;">
<circle cx="18.8593" cy="16.5550" r="0.8890" /> 
</g>
<g style="fill:#000000; fill-opacity:1.0000; stroke:none;">
<circle cx="18.8593" cy="19.0950" r="0.8890" /> 
</g>
<g style="fill:#000000; fill-opacity:1.0000; stroke:none;">
<circle cx="18.8593" cy="21.6350" r="0.8890" /> 
</g>
<g style="fill:#000000; fill-opacity:1.0000; stroke:none;">
<circle cx="18.8593" cy="24.1750" r="0.8890" /> 
</g>
<g style="fill:#000000; fill-opacity:1.0000; stroke:none;">
<circle cx="18.8593" cy="26.7150" r="0.8890" /> 
</g>
<g style="fill:#000000; fill-opacity:1.0000; stroke:none;">
<circle cx="18.8593" cy="29.2550" r="0.8890" /> 
</g>
<g style="fill:#000000; fill-opacity:1.0000; stroke:none;">
<circle cx="18.8593" cy="31.7950" r="0.8890" /> 
<path style="fill:#000000; fill-opacity:1.0000; stroke:none;fill-rule:evenodd;"
d="M 19.7483,33.4460
17.9703,33.4460
17.9703,35.2240
19.7483,35.2240
Z" /> 
<path style="fill:#000000; fill-opacity:1.0000; stroke:none;fill-rule:evenodd;"
d="M 8.6518,20.1050
8.6518,21.8050
10.3518,21.8050
10.3518,20.1050
Z" /> 
</g>
<g style="fill:#000000; fill-opacity:1.0000; stroke:none;">
<circle cx="13.5268" cy="34.3150" r="0.8500" /> 
<circle cx="13.5268" cy="31.7750" r="0.8500" /> 
<circle cx="13.5268" cy="29.2350" r="0.8500" /> 
<circle cx="13.5268" cy="26.6950" r="0.8500" /> 
<path style="fill:#000000; fill-opacity:1.0000; stroke:none;fill-rule:evenodd;"
d="M 12.6768,23.3050
12.6768,25.0050
14.3768,25.0050
14.3768,23.3050
Z" /> 
<circle cx="60.2168" cy="34.6950" r="0.7620" /> 
</g>
<g style="fill:#000000; fill-opacity:1.0000; stroke:none;">
<circle cx="62.7568" cy="34.6950" r="0.7620" /> 
</g>
<g style="fill:#000000; fill-opacity:1.0000; stroke:none;">
<circle cx="65.2968" cy="34.6950" r="0.7620" /> 
</g>
<g style="fill:#000000; fill-opacity:1.0000; stroke:none;">
<circle cx="67.8368" cy="34.6950" r="0.7620" /> 
</g>
<g style="fill:#000000; fill-opacity:1.0000; stroke:none;">
<circle cx="70.3768" cy="34.6950" r="0.7620" /> 
</g>
<g style="fill:#000000; fill-opacity:1.0000; stroke:none;">
<circle cx="72.9168" cy="34.6950" r="0.7620" /> 
</g>
<g style="fill:#000000; fill-opacity:1.0000; stroke:none;">
<circle cx="75.4568" cy="34.6950" r="0.7620" /> 
</g>
<g style="fill:#000000; fill-opacity:1.0000; stroke:none;">
<circle cx="77.9968" cy="34.6950" r="0.7620" /> 
</g>
<g style="fill:#000000; fill-opacity:1.0000; stroke:none;">
<circle cx="80.5368" cy="34.6950" r="0.7620" /> 
</g>
<g style="fill:#000000; fill-opacity:1.0000; stroke:none;">
<circle cx="83.0768" cy="34.6950" r="0.7620" /> 
</g>
<g style="fill:#000000; fill-opacity:1.0000; stroke:none;">
<circle cx="85.6168" cy="34.6950" r="0.7620" /> 
</g>
<g style="fill:#000000; fill-opacity:1.0000; stroke:none;">
<circle cx="88.1568" cy="34.6950" r="0.7620" /> 
</g>
<g style="fill:#000000; fill-opacity:1.0000; stroke:none;">
<circle cx="90.6968" cy="34.6950" r="0.7620" /> 
</g>
<g style="fill:#000000; fill-opacity:1.0000; stroke:none;">
<circle cx="93.2368" cy="34.6950" r="0.7620" /> 
</g>
<g style="fill:#000000; fill-opacity:1.0000; stroke:none;">
<circle cx="95.7768" cy="34.6950" r="0.7620" /> 
</g>
<g style="fill:#000000; fill-opacity:1.0000; stroke:none;">
<circle cx="95.7768" cy="6.7550" r="0.7620" /> 
</g>
<g style="fill:#000000; fill-opacity:1.0000; stroke:none;">
<circle cx="93.2368" cy="6.7550" r="0.7620" /> 
</g>
<g style="fill:#000000; fill-opacity:1.0000; stroke:none;">
<circle cx="90.6968" cy="6.7550" r="0.7620" /> 
</g>
<g style="fill:#000000; fill-opacity:1.0000; stroke:none;">
<circle cx="88.1568" cy="6.7550" r="0.7620" /> 
</g>
<g style="fill:#000000; fill-opacity:1.0000; stroke:none;">
<circle cx="85.6168" cy="6.7550" r="0.7620" /> 
</g>
<g style="fill:#000000; fill-opacity:1.0000; stroke:none;">
<circle cx="83.0768" cy="6.7550" r="0.7620" /> 
</g>
<g style="fill:#000000; fill-opacity:1.0000; stroke:none;">
<circle cx="80.5368" cy="6.7550" r="0.7620" /> 
</g>
<g style="fill:#000000; fill-opacity:1.0000; stroke:none;">
<circle cx="77.9968" cy="6.7550" r="0.7620" /> 
</g>
<g style="fill:#000000; fill-opacity:1.0000; stroke:none;">
<circle cx="75.4568" cy="6.7550" r="0.7620" /> 
</g>
<g style="fill:#000000; fill-opacity:1.0000; stroke:none;">
<circle cx="72.9168" cy="6.7550" r="0.7620" /> 
</g>
<g style="fill:#000000; fill-opacity:1.0000; stroke:none;">
<circle cx="70.3768" cy="6.7550" r="0.7620" /> 
</g>
<g style="fill:#000000; fill-opacity:1.0000; stroke:none;">
<circle cx="67.8368" cy="6.7550" r="0.7620" /> 
</g>
<g style="fill:#000000; fill-opacity:1.0000; stroke:none;">
<circle cx="65.2968" cy="6.7550" r="0.7620" /> 
</g>
<g style="fill:#000000; fill-opacity:1.0000; stroke:none;">
<circle cx="62.7568" cy="6.7550" r="0.7620" /> 
</g>
<g style="fill:#000000; fill-opacity:1.0000; stroke:none;">
<circle cx="60.2168" cy="6.7550" r="0.7620" /> 
</g>
<g style="fill:none; 
stroke:#000000; stroke-width:0.8128; stroke-opacity:1; 
stroke-linecap:round; stroke-linejoin:round;">
<path d="M61.1675 13.1482
L61.4291 12.8865
" />
<path d="M57.2855 11.8825
L57.5471 11.6208
" />
<path d="M58.5936 11.6208
L59.3573 12.3845
" />
<path d="M58.5512 15.7645
L58.8128 15.5028
" />
<path d="M58.0492 13.6926
L57.2855 12.9290
" />
<path d="M59.8806 12.9078
L60.1210 13.1482
" />
<path d="M61.1887 10.5531
L61.4503 10.2915
" />
<path d="M62.7568 8.9850
L62.7568 6.7550
" />
<path d="M58.5724 14.2159
L58.0492 13.6926
" />
<path d="M62.1043 9.6375
L62.7568 8.9850
" />
<path d="M57.2643 15.5241
L57.5047 15.7645
" />
<path d="M61.4503 10.2915
L62.1043 9.6375
" />
<path d="M58.8128 14.4563
L58.5724 14.2159
" />
<path d="M55.1868 16.5550
L56.2177 15.5241
" />
<path d="M58.0492 13.6926
L58.0492 13.6926
" />
<path d="M46.8568 16.5550
L55.1868 16.5550
" />
<path d="M59.3573 12.3845
L59.8806 12.9078
" />
<path d="M61.4291 11.8400
L61.1887 11.5996
" />
<path d="M58.5936 11.6208 A0.7400 0.7400 0.0 0 0 57.5471 11.6208" />
<path d="M61.4291 12.8865 A0.7400 0.7400 0.0 0 0 61.4291 11.8400" />
<path d="M57.2855 11.8824 A0.7400 0.7400 0.0 0 0 57.2855 12.9290" />
<path d="M61.1887 10.5530 A0.7401 0.7401 0.0 0 0 61.1887 11.5996" />
<path d="M60.1210 13.1482 A0.7400 0.7400 0.0 0 0 61.1675 13.1482" />
<path d="M58.8128 15.5028 A0.7400 0.7400 0.0 0 0 58.8128 14.4563" />
<path d="M57.5047 15.7645 A0.7400 0.7400 0.0 0 0 58.5512 15.7645" />
<path d="M57.2643 15.5241 A0.7400 0.7400 0.0 0 0 56.2177 15.5241" />
<path d="M65.2968 17.0950
L65.2968 6.7550
" />
<path d="M63.2968 19.0950
L65.2968 17.0950
" />
<path d="M46.8568 19.0950
L63.2968 19.0950
" />
<path d="M67.8168 24.1750
L72.9168 19.0750
" />
<path d="M46.8568 24.1750
L67.8168 24.1750
" />
<path d="M72.9168 19.0750
L72.9168 6.7550
" />
<path d="M71.6868 29.2550
L46.8568 29.2550
" />
<path d="M77.9968 22.9450
L71.6868 29.2550
" />
<path d="M77.9968 6.7550
L77.9968 22.9450
" />
<path d="M75.4568 4.0888
L75.4568 6.7550
" />
<path d="M73.4030 2.0350
L75.4568 4.0888
" />
<path d="M2.6518 12.0400
L12.6568 2.0350
" />
<path d="M12.6568 2.0350
L73.4030 2.0350
" />
<path d="M2.6518 23.7550
L2.6518 12.0400
" />
<path d="M71.8618 4.1800
L72.9168 5.2350
" />
<path d="M9.5018 15.3900
L20.7118 4.1800
" />
<path d="M72.9168 5.2350
L72.9168 6.7550
" />
<path d="M9.5018 20.9550
L9.5018 15.3900
" />
<path d="M20.7118 4.1800
L71.8618 4.1800
" />
<path d="M39.8018 12.2950
L39.8018 26.1450
" />
<path d="M36.0368 8.5300
L39.8018 12.2950
" />
<path d="M18.8593 11.4750
L21.8043 8.5300
" />
<path d="M21.8043 8.5300
L36.0368 8.5300
" />
<path d="M65.2968 34.6950
L65.2968 36.4200
" />
<path d="M65.2968 36.4200
L64.1368 37.5800
" />
<path d="M64.1368 37.5800
L38.1518 37.5800
" />
<path d="M45.5068 21.6350
L46.8568 21.6350
" />
<path d="M43.9618 30.5800
L43.9618 23.1800
" />
<path d="M43.9618 23.1800
L45.5068 21.6350
" />
<path d="M61.7368 32.2300
L45.6118 32.2300
" />
<path d="M62.7568 34.6950
L62.7568 33.2500
" />
<path d="M62.7568 33.2500
L61.7368 32.2300
" />
<path d="M45.6118 32.2300
L43.9618 30.5800
" />
<path d="M9.5368 26.0050
L10.2268 26.6950
" />
</g>
<g style="fill:none; 
stroke:#000000; stroke-width:0.4064; stroke-opacity:1; 
stroke-linecap:round; stroke-linejoin:round;">
<path d="M5.3518 26.0050
L9.5368 26.0050
" />
</g>
<g style="fill:none; 
stroke:#000000; stroke-width:0.8128; stroke-opacity:1; 
stroke-linecap:round; stroke-linejoin:round;">
<path d="M10.2268 26.6950
L13.5268 26.6950
" />
</g>
<g style="fill:none; 
stroke:#000000; stroke-width:0.4064; stroke-opacity:1; 
stroke-linecap:round; stroke-linejoin:round;">
<path d="M7.2018 29.0800
L7.2018 32.6300
" />
</g>
<g style="fill:none; 
stroke:#000000; stroke-width:0.8128; stroke-opacity:1; 
stroke-linecap:round; stroke-linejoin:round;">
<path d="M36.6968 24.1750
L37.8318 24.1750
" />
<path d="M8.8868 34.3150
L7.2018 32.6300
" />
<path d="M37.8318 24.1750
L39.8018 26.1450
" />
<path d="M13.5268 34.3150
L8.8868 34.3150
" />
</g>
<g style="fill:none; 
stroke:#000000; stroke-width:0.4064; stroke-opacity:1; 
stroke-linecap:round; stroke-linejoin:round;">
<path d="M5.3518 27.9550
L6.0768 27.9550
" />
</g>
<g style="fill:none; 
stroke:#000000; stroke-width:0.8128; stroke-opacity:1; 
stroke-linecap:round; stroke-linejoin:round;">
<path d="M39.8018 35.9300
L38.1518 37.5800
" />
</g>
<g style="fill:none; 
stroke:#000000; stroke-width:0.4064; stroke-opacity:1; 
stroke-linecap:round; stroke-linejoin:round;">
<path d="M6.0768 27.9550
L7.2018 29.0800
" />
</g>
<g style="fill:none; 
stroke:#000000; stroke-width:0.8128; stroke-opacity:1; 
stroke-linecap:round; stroke-linejoin:round;">
<path d="M39.8018 26.1450
L39.8018 35.9300
" />
<path d="M38.1518 37.5800
L16.8268 37.5800
" />
<path d="M16.8268 37.5800
L13.5618 34.3150
" />
<path d="M13.5618 34.3150
L13.5268 34.3150
" />
<path d="M36.4468 16.5550
L18.8843 16.5550
" />
<path d="M36.4468 19.0950
L18.8843 19.0950
" />
<path d="M18.8593 14.0150
L17.0918 14.0150
" />
<path d="M5.3518 24.1550
L13.5268 24.1550
" />
<path d="M2.6518 30.1550
L4.3518 30.1550
" />
<path d="M15.9768 20.6550
L16.9568 21.6350
" />
<path d="M13.5268 24.1550
L15.9768 21.7050
" />
<path d="M18.8593 21.6350
L36.6968 21.6350
" />
<path d="M16.9568 21.6350
L18.8593 21.6350
" />
<path d="M2.6518 25.6550
L2.6518 27.6550
" />
<path d="M2.6518 23.1550
L4.3518 23.1550
" />
<path d="M63.1168 6.7550
L63.1168 6.7100
" />
<path d="M2.6518 27.6550
L2.6518 29.5550
" />
<path d="M15.9768 21.7050
L15.9768 20.6550
" />
<path d="M2.6518 23.7550
L2.6518 25.6550
" />
<path d="M4.3518 23.1550
L5.3518 24.1550
" />
<path d="M15.9768 15.1300
L15.9768 20.6550
" />
<path d="M4.3518 30.1550
L5.3518 29.1550
" />
<path d="M17.0918 14.0150
L15.9768 15.1300
" />
</g>
<g style="fill:none; 
stroke:#000000; stroke-width:0.4064; stroke-opacity:1; 
stroke-linecap:round; stroke-linejoin:round;">
<path d="M5.3518 25.3550
L5.3518 24.1550
" />
</g>
<g style="fill:none; 
stroke:#000000; stroke-width:0.8128; stroke-opacity:1; 
stroke-linecap:round; stroke-linejoin:round;">
<path d="M28.9018 29.2550
L36.6968 29.2550
" />
<path d="M18.8593 24.1750
L23.8218 24.1750
" />
<path d="M23.8218 24.1750
L28.9018 29.2550
" />
<path d="M18.8593 29.2550
L13.5468 29.2550
" />
<path d="M13.5468 29.2550
L13.5268 29.2350
" />
<path d="M18.8393 29.2350
L18.8593 29.2550
" />
</g>
<g style="fill:none; 
stroke:#000000; stroke-width:0.4064; stroke-opacity:1; 
stroke-linecap:round; stroke-linejoin:round;">
<path d="M5.3518 26.6550
L7.0018 26.6550
" />
<path d="M7.0018 26.6550
L9.5018 29.1550
" />
</g>
<g style="fill:none; 
stroke:#FFFFFF; stroke-width:0.5000; stroke-opacity:1; 
stroke-linecap:round; stroke-linejoin:round;">
<path d="M2.9768 23.1550
L2.3268 23.1550
" />
</g>
<g style="fill:none; 
stroke:#FFFFFF; stroke-width:0.5500; stroke-opacity:1; 
stroke-linecap:round; stroke-linejoin:round;">
<path d="M5.3518 24.3050
L5.3518 24.0050
" />
<path d="M5.3518 29.3050
L5.3518 29.0050
" />
</g>
<g style="fill:none; 
stroke:#FFFFFF; stroke-width:0.5000; stroke-opacity:1; 
stroke-linecap:round; stroke-linejoin:round;">
<path d="M2.9768 30.1550
L2.3268 30.1550
" />
</g>
<g style="fill:#FFFFFF; fill-opacity:1.0000; stroke:none;">
<circle cx="9.5018" cy="29.1550" r="0.5000" /> 
</g>
<g style="fill:#FFFFFF; fill-opacity:1.0000; stroke:none;">
<circle cx="46.8568" cy="16.5550" r="0.5080" /> 
</g>
<g style="fill:#FFFFFF; fill-opacity:1.0000; stroke:none;">
<circle cx="46.8568" cy="19.0950" r="0.5080" /> 
</g>
<g style="fill:#FFFFFF; fill-opacity:1.0000; stroke:none;">
<circle cx="46.8568" cy="26.7150" r="0.5080" /> 
</g>
<g style="fill:#FFFFFF; fill-opacity:1.0000; stroke:none;">
<circle cx="46.8568" cy="29.2550" r="0.5080" /> 
</g>
<g style="fill:#FFFFFF; fill-opacity:1.0000; stroke:none;">
<circle cx="46.8568" cy="24.1750" r="0.5080" /> 
</g>
<g style="fill:#FFFFFF; fill-opacity:1.0000; stroke:none;">
<circle cx="36.6968" cy="16.5550" r="0.5080" /> 
</g>
<g style="fill:#FFFFFF; fill-opacity:1.0000; stroke:none;">
<circle cx="36.6968" cy="19.0950" r="0.5080" /> 
</g>
<g style="fill:#FFFFFF; fill-opacity:1.0000; stroke:none;">
<circle cx="36.6968" cy="26.7150" r="0.5080" /> 
</g>
<g style="fill:#FFFFFF; fill-opacity:1.0000; stroke:none;">
<circle cx="36.6968" cy="29.2550" r="0.5080" /> 
</g>
<g style="fill:#FFFFFF; fill-opacity:1.0000; stroke:none;">
<circle cx="36.6968" cy="24.1750" r="0.5080" /> 
</g>
<g style="fill:#FFFFFF; fill-opacity:1.0000; stroke:none;">
<circle cx="46.8568" cy="21.6350" r="0.5080" /> 
</g>
<g style="fill:#FFFFFF; fill-opacity:1.0000; stroke:none;">
<circle cx="36.6968" cy="21.6350" r="0.5080" /> 
</g>
<g style="fill:#FFFFFF; fill-opacity:1.0000; stroke:none;">
<circle cx="31.5593" cy="34.3350" r="1.2500" /> 
</g>
<g style="fill:#FFFFFF; fill-opacity:1.0000; stroke:none;">
<circle cx="31.5593" cy="11.4750" r="1.2500" /> 
</g>
<g style="fill:#FFFFFF; fill-opacity:1.0000; stroke:none;">
<circle cx="18.8593" cy="11.4750" r="0.5000" /> 
</g>
<g style="fill:#FFFFFF; fill-opacity:1.0000; stroke:none;">
<circle cx="18.8593" cy="14.0150" r="0.5000" /> 
</g>
<g style="fill:#FFFFFF; fill-opacity:1.0000; stroke:none;">
<circle cx="18.8593" cy="16.5550" r="0.5000" /> 
</g>
<g style="fill:#FFFFFF; fill-opacity:1.0000; stroke:none;">
<circle cx="18.8593" cy="19.0950" r="0.5000" /> 
</g>
<g style="fill:#FFFFFF; fill-opacity:1.0000; stroke:none;">
<circle cx="18.8593" cy="21.6350" r="0.5000" /> 
</g>
<g style="fill:#FFFFFF; fill-opacity:1.0000; stroke:none;">
<circle cx="18.8593" cy="24.1750" r="0.5000" /> 
</g>
<g style="fill:#FFFFFF; fill-opacity:1.0000; stroke:none;">
<circle cx="18.8593" cy="26.7150" r="0.5000" /> 
</g>
<g style="fill:#FFFFFF; fill-opacity:1.0000; stroke:none;">
<circle cx="18.8593" cy="29.2550" r="0.5000" /> 
</g>
<g style="fill:#FFFFFF; fill-opacity:1.0000; stroke:none;">
<circle cx="18.8593" cy="31.7950" r="0.5000" /> 
</g>
<g style="fill:#FFFFFF; fill-opacity:1.0000; stroke:none;">
<circle cx="18.8593" cy="34.3350" r="0.5000" /> 
</g>
<g style="fill:#FFFFFF; fill-opacity:1.0000; stroke:none;">
<circle cx="9.5018" cy="20.9550" r="0.5000" /> 
</g>
<g style="fill:#FFFFFF; fill-opacity:1.0000; stroke:none;">
<circle cx="13.5268" cy="34.3150" r="0.5000" /> 
</g>
<g style="fill:#FFFFFF; fill-opacity:1.0000; stroke:none;">
<circle cx="13.5268" cy="31.7750" r="0.5000" /> 
</g>
<g style="fill:#FFFFFF; fill-opacity:1.0000; stroke:none;">
<circle cx="13.5268" cy="29.2350" r="0.5000" /> 
</g>
<g style="fill:#FFFFFF; fill-opacity:1.0000; stroke:none;">
<circle cx="13.5268" cy="26.6950" r="0.5000" /> 
</g>
<g style="fill:#FFFFFF; fill-opacity:1.0000; stroke:none;">
<circle cx="13.5268" cy="24.1550" r="0.5000" /> 
</g>
<g style="fill:#FFFFFF; fill-opacity:1.0000; stroke:none;">
<circle cx="60.2168" cy="34.6950" r="0.3810" /> 
</g>
<g style="fill:#FFFFFF; fill-opacity:1.0000; stroke:none;">
<circle cx="62.7568" cy="34.6950" r="0.3810" /> 
</g>
<g style="fill:#FFFFFF; fill-opacity:1.0000; stroke:none;">
<circle cx="65.2968" cy="34.6950" r="0.3810" /> 
</g>
<g style="fill:#FFFFFF; fill-opacity:1.0000; stroke:none;">
<circle cx="67.8368" cy="34.6950" r="0.3810" /> 
</g>
<g style="fill:#FFFFFF; fill-opacity:1.0000; stroke:none;">
<circle cx="70.3768" cy="34.6950" r="0.3810" /> 
</g>
<g style="fill:#FFFFFF; fill-opacity:1.0000; stroke:none;">
<circle cx="72.9168" cy="34.6950" r="0.3810" /> 
</g>
<g style="fill:#FFFFFF; fill-opacity:1.0000; stroke:none;">
<circle cx="75.4568" cy="34.6950" r="0.3810" /> 
</g>
<g style="fill:#FFFFFF; fill-opacity:1.0000; stroke:none;">
<circle cx="77.9968" cy="34.6950" r="0.3810" /> 
</g>
<g style="fill:#FFFFFF; fill-opacity:1.0000; stroke:none;">
<circle cx="80.5368" cy="34.6950" r="0.3810" /> 
</g>
<g style="fill:#FFFFFF; fill-opacity:1.0000; stroke:none;">
<circle cx="83.0768" cy="34.6950" r="0.3810" /> 
</g>
<g style="fill:#FFFFFF; fill-opacity:1.0000; stroke:none;">
<circle cx="85.6168" cy="34.6950" r="0.3810" /> 
</g>
<g style="fill:#FFFFFF; fill-opacity:1.0000; stroke:none;">
<circle cx="88.1568" cy="34.6950" r="0.3810" /> 
</g>
<g style="fill:#FFFFFF; fill-opacity:1.0000; stroke:none;">
<circle cx="90.6968" cy="34.6950" r="0.3810" /> 
</g>
<g style="fill:#FFFFFF; fill-opacity:1.0000; stroke:none;">
<circle cx="93.2368" cy="34.6950" r="0.3810" /> 
</g>
<g style="fill:#FFFFFF; fill-opacity:1.0000; stroke:none;">
<circle cx="95.7768" cy="34.6950" r="0.3810" /> 
</g>
<g style="fill:#FFFFFF; fill-opacity:1.0000; stroke:none;">
<circle cx="95.7768" cy="6.7550" r="0.3810" /> 
</g>
<g style="fill:#FFFFFF; fill-opacity:1.0000; stroke:none;">
<circle cx="93.2368" cy="6.7550" r="0.3810" /> 
</g>
<g style="fill:#FFFFFF; fill-opacity:1.0000; stroke:none;">
<circle cx="90.6968" cy="6.7550" r="0.3810" /> 
</g>
<g style="fill:#FFFFFF; fill-opacity:1.0000; stroke:none;">
<circle cx="88.1568" cy="6.7550" r="0.3810" /> 
</g>
<g style="fill:#FFFFFF; fill-opacity:1.0000; stroke:none;">
<circle cx="85.6168" cy="6.7550" r="0.3810" /> 
</g>
<g style="fill:#FFFFFF; fill-opacity:1.0000; stroke:none;">
<circle cx="83.0768" cy="6.7550" r="0.3810" /> 
</g>
<g style="fill:#FFFFFF; fill-opacity:1.0000; stroke:none;">
<circle cx="80.5368" cy="6.7550" r="0.3810" /> 
</g>
<g style="fill:#FFFFFF; fill-opacity:1.0000; stroke:none;">
<circle cx="77.9968" cy="6.7550" r="0.3810" /> 
</g>
<g style="fill:#FFFFFF; fill-opacity:1.0000; stroke:none;">
<circle cx="75.4568" cy="6.7550" r="0.3810" /> 
</g>
<g style="fill:#FFFFFF; fill-opacity:1.0000; stroke:none;">
<circle cx="72.9168" cy="6.7550" r="0.3810" /> 
</g>
<g style="fill:#FFFFFF; fill-opacity:1.0000; stroke:none;">
<circle cx="70.3768" cy="6.7550" r="0.3810" /> 
</g>
<g style="fill:#FFFFFF; fill-opacity:1.0000; stroke:none;">
<circle cx="67.8368" cy="6.7550" r="0.3810" /> 
</g>
<g style="fill:#FFFFFF; fill-opacity:1.0000; stroke:none;">
<circle cx="65.2968" cy="6.7550" r="0.3810" /> 
</g>
<g style="fill:#FFFFFF; fill-opacity:1.0000; stroke:none;">
<circle cx="62.7568" cy="6.7550" r="0.3810" /> 
</g>
<g style="fill:#FFFFFF; fill-opacity:1.0000; stroke:none;">
<circle cx="60.2168" cy="6.7550" r="0.3810" /> 
</g> 
</svg>
