<?xml version="1.0" standalone="no"?>
 <!DOCTYPE svg PUBLIC "-//W3C//DTD SVG 1.1//EN" 
 "http://www.w3.org/Graphics/SVG/1.1/DTD/svg11.dtd"> 
<svg
  xmlns:svg="http://www.w3.org/2000/svg"
  xmlns="http://www.w3.org/2000/svg"
  xmlns:xlink="http://www.w3.org/1999/xlink"
  version="1.1"
  width="107.1118mm" height="46.4312mm" viewBox="0.0000 0.0000 107.1118 46.4312">
<title>SVG Image created as ESP8266_Calib_Module-brd.svg date 2024/08/19 19:07:26 </title>
  <desc>Image generated by PCBNEW </desc>
<g style="fill:#000000; fill-opacity:1.0000;stroke:#000000; stroke-opacity:1.0000;
stroke-linecap:round; stroke-linejoin:round;"
 transform="translate(0 0) scale(1 1)">
</g>
<g style="fill:none; 
stroke:#000000; stroke-width:0.2500; stroke-opacity:1; 
stroke-linecap:round; stroke-linejoin:round;">
<text x="9.6950" y="45.4250"
textLength="93.4610" font-size="4.0000" lengthAdjust="spacingAndGlyphs"
text-anchor="start" opacity="0" stroke-opacity="0">AQUA - THINGS : CALIBRATION MODULE</text>
<g class="stroked-text"><desc>AQUA - THINGS : CALIBRATION MODULE</desc>
<path style="fill:#000000; fill-opacity:1.0000; stroke:none;fill-rule:evenodd;"
d="M 12.9879,44.9150
12.0112,44.9150
11.8631,44.3992
10.8000,44.3992
10.6534,44.9150
9.6994,44.9150
10.1428,43.7426
11.0015,43.7426
11.6675,43.7426
11.3334,42.6802
11.0015,43.7426
10.1428,43.7426
10.8344,41.9137
11.8529,41.9137
Z" /> 
<path style="fill:#000000; fill-opacity:1.0000; stroke:none;fill-rule:evenodd;"
d="M 14.8154,41.8731
14.9873,41.8918
15.1485,41.9230
15.2989,41.9667
15.4386,42.0228
15.5982,42.1106
15.7411,42.2178
15.7935,42.2662
15.9115,42.3992
16.0095,42.5489
16.0735,42.6809
16.1247,42.8236
16.1631,42.9770
16.1887,43.1413
16.2015,43.3162
16.2031,43.4078
16.1979,43.5689
16.1825,43.7218
16.1567,43.8664
16.1100,44.0356
16.0472,44.1919
15.9684,44.3353
15.8734,44.4658
15.9956,44.5503
16.1020,44.6197
16.2388,44.6891
16.3181,44.7252
16.0587,45.2433
15.9247,45.1750
15.7915,45.0983
15.6711,45.0212
15.5439,44.9335
15.4245,44.8444
15.4037,44.8271
15.2609,44.8796
15.1031,44.9192
14.9559,44.9429
14.7977,44.9572
14.6285,44.9619
14.4610,44.9563
14.3026,44.9397
14.1532,44.9119
13.9793,44.8616
13.8196,44.7939
13.6740,44.7089
13.5426,44.6065
13.4325,44.4961
13.3371,44.3749
13.2563,44.2432
13.1903,44.1008
13.1389,43.9477
13.1022,43.7840
13.0802,43.6096
13.0729,43.4246
13.0745,43.3799
14.0064,43.3799
14.0123,43.5519
14.0301,43.7036
14.0658,43.8548
14.1264,43.9937
14.1749,44.0621
14.2929,44.1657
14.4354,44.2309
14.5846,44.2567
14.6387,44.2585
14.7863,44.2464
14.8182,44.2402
14.7005,44.1517
14.5657,44.0801
14.4475,44.0299
14.5933,43.7001
14.7376,43.7356
14.7860,43.7551
14.9140,43.8303
15.0425,43.9159
15.0549,43.9244
15.1582,43.9910
15.2170,43.8493
15.2512,43.6894
15.2669,43.5214
15.2696,43.4041
15.2636,43.2447
15.2415,43.0816
15.1964,42.9253
15.1202,42.7880
15.0996,42.7630
14.9808,42.6614
14.8367,42.5974
14.6856,42.5720
14.6307,42.5703
14.4824,42.5858
14.3372,42.6395
14.2126,42.7315
14.1793,42.7666
14.0957,42.8945
14.0444,43.0375
14.0172,43.1853
14.0065,43.3541
14.0064,43.3799
13.0745,43.3799
13.0793,43.2450
13.0986,43.0756
13.1307,42.9166
13.1756,42.7679
13.2334,42.6296
13.3238,42.4711
13.4342,42.3288
13.4839,42.2764
13.6204,42.1584
13.7728,42.0604
13.9062,41.9964
14.0498,41.9452
14.2036,41.9068
14.3676,41.8812
14.5419,41.8684
14.6329,41.8668
Z" /> 
<path style="fill:#000000; fill-opacity:1.0000; stroke:none;fill-rule:evenodd;"
d="M 18.6526,41.9137
19.5839,41.9137
19.5839,43.6994
19.5773,43.8463
19.5545,44.0041
19.5153,44.1561
19.5004,44.2006
19.4389,44.3423
19.3590,44.4726
19.2607,44.5915
19.2388,44.6138
19.1258,44.7139
18.9975,44.8002
18.8651,44.8615
18.7220,44.9054
18.5654,44.9368
18.4172,44.9540
18.2587,44.9615
18.2115,44.9619
18.0551,44.9583
17.9047,44.9486
17.7464,44.9330
17.7301,44.9311
17.5758,44.9060
17.4253,44.8649
17.2949,44.8095
17.1676,44.7306
17.0487,44.6303
16.9739,44.5516
16.8850,44.4350
16.8127,44.3051
16.7754,44.2057
16.7336,44.0501
16.7054,43.9049
16.6902,43.7556
16.6889,43.6994
16.6889,41.9137
17.6202,41.9137
17.6202,43.7382
17.6364,43.8938
17.6910,44.0348
17.7572,44.1207
17.8861,44.2099
18.0362,44.2519
18.1375,44.2585
18.2909,44.2425
18.4303,44.1884
18.5156,44.1229
18.6043,43.9940
18.6460,43.8418
18.6526,43.7382
Z" /> 
<path style="fill:#000000; fill-opacity:1.0000; stroke:none;fill-rule:evenodd;"
d="M 23.0233,44.9150
22.0466,44.9150
21.8986,44.3992
20.8354,44.3992
20.6889,44.9150
19.7348,44.9150
20.1782,43.7426
21.0369,43.7426
21.7030,43.7426
21.3688,42.6802
21.0369,43.7426
20.1782,43.7426
20.8698,41.9137
21.8883,41.9137
Z" /> 
<path style="fill:#000000; fill-opacity:1.0000; stroke:none;fill-rule:evenodd;"
d="M 24.4895,43.4613
25.7095,43.4613
25.7095,44.1178
24.4895,44.1178
Z" /> 
<path style="fill:#000000; fill-opacity:1.0000; stroke:none;fill-rule:evenodd;"
d="M 27.2922,41.9137
30.1301,41.9137
30.1301,42.6172
29.1783,42.6172
29.1783,44.9150
28.2448,44.9150
28.2448,42.6172
27.2922,42.6172
Z" /> 
<path style="fill:#000000; fill-opacity:1.0000; stroke:none;fill-rule:evenodd;"
d="M 30.5397,41.9137
31.4732,41.9137
31.4732,42.9454
32.4931,42.9454
32.4931,41.9137
33.4303,41.9137
33.4303,44.9150
32.4931,44.9150
32.4931,43.6957
31.4732,43.6957
31.4732,44.9150
30.5397,44.9150
Z" /> 
<path style="fill:#000000; fill-opacity:1.0000; stroke:none;fill-rule:evenodd;"
d="M 34.0692,41.9137
35.0042,41.9137
35.0042,44.9150
34.0692,44.9150
Z" /> 
<path style="fill:#000000; fill-opacity:1.0000; stroke:none;fill-rule:evenodd;"
d="M 35.6702,41.9137
36.5422,41.9137
37.6801,43.6049
37.6801,41.9137
38.5594,41.9137
38.5594,44.9150
37.6801,44.9150
36.5480,43.2327
36.5480,44.9150
35.6702,44.9150
Z" /> 
<path style="fill:#000000; fill-opacity:1.0000; stroke:none;fill-rule:evenodd;"
d="M 40.6799,43.9302
40.6799,43.2268
42.1219,43.2268
42.1219,44.4446
41.9949,44.5338
41.8485,44.6284
41.7089,44.7096
41.5760,44.7773
41.4294,44.8391
41.3892,44.8534
41.2443,44.8957
41.0881,44.9276
40.9204,44.9491
40.7675,44.9592
40.6337,44.9619
40.4705,44.9575
40.3170,44.9441
40.1455,44.9165
39.9881,44.8760
39.8446,44.8228
39.7567,44.7802
39.6158,44.6922
39.4895,44.5872
39.3777,44.4653
39.2804,44.3264
39.2313,44.2394
39.1680,44.1008
39.1179,43.9548
39.0808,43.8013
39.0568,43.6404
39.0459,43.4721
39.0452,43.4144
39.0501,43.2643
39.0692,43.0925
39.1027,42.9297
39.1504,42.7760
39.2125,42.6312
39.2489,42.5622
39.3322,42.4324
39.4288,42.3148
39.5387,42.2096
39.6619,42.1167
39.7983,42.0361
39.8468,42.0119
39.9913,41.9554
40.1561,41.9128
40.3135,41.8873
40.4860,41.8719
40.6410,41.8670
40.6733,41.8668
40.8235,41.8691
40.9876,41.8779
41.1339,41.8933
41.2822,41.9196
41.4221,41.9606
41.5691,42.0290
41.6994,42.1176
41.8132,42.2266
41.8339,42.2508
41.9198,42.3696
41.9929,42.5051
42.0530,42.6573
42.0809,42.7491
41.1803,42.8985
41.1111,42.7659
40.9996,42.6606
40.9913,42.6553
40.8509,42.5943
40.7031,42.5716
40.6528,42.5703
40.4899,42.5861
40.3468,42.6336
40.2234,42.7127
40.1633,42.7703
40.0751,42.9013
40.0210,43.0486
39.9923,43.2014
39.9816,43.3502
39.9809,43.4034
39.9874,43.5669
40.0113,43.7343
40.0530,43.8764
40.1222,44.0080
40.1655,44.0614
40.2809,44.1567
40.4191,44.2207
40.5804,44.2537
40.6799,44.2585
40.8325,44.2508
40.9781,44.2277
41.1209,44.1893
41.2702,44.1364
41.3042,44.1229
41.3042,43.9302
Z" /> 
<path style="fill:#000000; fill-opacity:1.0000; stroke:none;fill-rule:evenodd;"
d="M 42.4949,43.8943
43.3829,43.8364
43.4128,43.9896
43.4690,44.1306
43.5002,44.1786
43.6140,44.2867
43.7572,44.3499
43.9127,44.3684
44.0600,44.3531
44.1994,44.2926
44.2204,44.2761
44.3110,44.1558
44.3289,44.0614
44.2844,43.9201
44.2256,43.8547
44.0972,43.7820
43.9557,43.7337
43.7937,43.6920
43.7478,43.6818
43.5998,43.6465
43.4303,43.5984
43.2779,43.5458
43.1427,43.4888
43.0031,43.4146
42.8715,43.3198
42.7687,43.2148
42.6821,43.0802
42.6286,42.9300
42.6080,42.7643
42.6077,42.7425
42.6236,42.5868
42.6714,42.4372
42.7425,42.3065
42.8401,42.1868
42.9643,42.0844
43.0988,42.0068
43.1485,41.9841
43.2966,41.9328
43.4467,41.8999
43.6161,41.8783
43.7766,41.8687
43.8914,41.8668
44.0658,41.8720
44.2267,41.8876
44.3741,41.9135
44.5332,41.9584
44.6728,42.0181
44.7744,42.0793
44.8956,42.1843
44.9933,42.3132
45.0675,42.4662
45.1122,42.6163
45.1363,42.7549
44.2563,42.8047
44.2151,42.6628
44.1294,42.5367
44.1091,42.5190
43.9755,42.4519
43.8235,42.4299
43.7991,42.4296
43.6488,42.4488
43.5537,42.4977
43.4755,42.6221
43.4716,42.6633
43.5397,42.7916
43.6818,42.8583
43.8374,42.8976
43.8526,42.9007
44.0001,42.9332
44.1693,42.9740
44.3215,43.0151
44.4817,43.0646
44.6378,43.1227
44.7289,43.1645
44.8667,43.2446
44.9928,43.3456
45.0906,43.4592
45.1144,43.4957
45.1832,43.6373
45.2235,43.7899
45.2353,43.9383
45.2225,44.0964
45.1843,44.2475
45.1205,44.3917
45.0741,44.4688
44.9737,44.5959
44.8530,44.7045
44.7287,44.7855
44.6249,44.8366
44.4715,44.8914
44.3218,44.9265
44.1576,44.9497
44.0054,44.9599
43.8980,44.9619
43.7127,44.9572
43.5422,44.9431
43.3866,44.9195
43.2128,44.8769
43.0622,44.8196
42.9120,44.7313
42.8304,44.6607
42.7282,44.5418
42.6442,44.4115
42.5782,44.2697
42.5304,44.1164
42.5007,43.9517
Z" /> 
<path style="fill:#000000; fill-opacity:1.0000; stroke:none;fill-rule:evenodd;"
d="M 47.0356,42.7110
47.9317,42.7110
47.9317,43.5551
47.0356,43.5551
Z" /> 
<path style="fill:#000000; fill-opacity:1.0000; stroke:none;fill-rule:evenodd;"
d="M 47.0356,44.0709
47.9317,44.0709
47.9317,44.9150
47.0356,44.9150
Z" /> 
<path style="fill:#000000; fill-opacity:1.0000; stroke:none;fill-rule:evenodd;"
d="M 51.8994,43.6957
52.7172,43.9324
52.6767,44.0761
52.6193,44.2272
52.5500,44.3643
52.4688,44.4873
52.4578,44.5017
52.3512,44.6211
52.2312,44.7229
52.0975,44.8070
52.0174,44.8461
51.8773,44.8968
51.7192,44.9330
51.5661,44.9527
51.3993,44.9614
51.3492,44.9619
51.1997,44.9584
51.0319,44.9452
50.8769,44.9220
50.7120,44.8823
50.5643,44.8292
50.5446,44.8205
50.4121,44.7480
50.2878,44.6550
50.1715,44.5414
50.0784,44.4278
50.0053,44.3215
49.9284,44.1804
49.8674,44.0253
49.8223,43.8562
49.7968,43.7045
49.7825,43.5431
49.7789,43.4070
49.7851,43.2268
49.8038,43.0574
49.8350,42.8987
49.8786,42.7507
49.9346,42.6135
50.0222,42.4570
50.1292,42.3174
50.1775,42.2662
50.3102,42.1511
50.4590,42.0556
50.6240,41.9796
50.7676,41.9328
50.9216,41.8984
51.0859,41.8766
51.2606,41.8672
51.3059,41.8668
51.4783,41.8725
51.6388,41.8895
51.7873,41.9177
51.9497,41.9666
52.0949,42.0317
52.2028,42.0984
52.3194,42.1940
52.4243,42.3070
52.5173,42.4375
52.5986,42.5854
52.6573,42.7221
52.6886,42.8099
51.8643,42.9923
51.8114,42.8554
51.7734,42.7916
51.6679,42.6827
51.5814,42.6282
51.4379,42.5798
51.3286,42.5703
51.1792,42.5859
51.0333,42.6408
50.9108,42.7352
50.8421,42.8201
50.7749,42.9567
50.7356,43.1149
50.7191,43.2612
50.7146,43.4026
50.7200,43.5759
50.7360,43.7275
50.7683,43.8769
50.8313,44.0256
50.8670,44.0760
50.9864,44.1799
51.1351,44.2407
51.2957,44.2585
51.4505,44.2445
51.5912,44.1966
51.7009,44.1149
51.7930,43.9883
51.8536,43.8547
51.8955,43.7128
Z" /> 
<path style="fill:#000000; fill-opacity:1.0000; stroke:none;fill-rule:evenodd;"
d="M 56.1368,44.9150
55.1601,44.9150
55.0121,44.3992
53.9489,44.3992
53.8023,44.9150
52.8483,44.9150
53.2917,43.7426
54.1504,43.7426
54.8164,43.7426
54.4823,42.6802
54.1504,43.7426
53.2917,43.7426
53.9833,41.9137
55.0018,41.9137
Z" /> 
<path style="fill:#000000; fill-opacity:1.0000; stroke:none;fill-rule:evenodd;"
d="M 56.4182,41.9137
57.3517,41.9137
57.3517,44.1647
58.8083,44.1647
58.8083,44.9150
56.4182,44.9150
Z" /> 
<path style="fill:#000000; fill-opacity:1.0000; stroke:none;fill-rule:evenodd;"
d="M 59.2546,41.9137
60.1895,41.9137
60.1895,44.9150
59.2546,44.9150
Z" /> 
<path style="fill:#000000; fill-opacity:1.0000; stroke:none;fill-rule:evenodd;"
d="M 62.7561,41.9210
62.9208,41.9478
63.0661,41.9945
63.2083,42.0719
63.2699,42.1204
63.3722,42.2298
63.4523,42.3676
63.4954,42.5210
63.5037,42.6318
63.4873,42.7846
63.4384,42.9231
63.3568,43.0475
63.3366,43.0707
63.2195,43.1675
63.0879,43.2350
63.0113,43.2634
63.1635,43.3109
63.3089,43.3815
63.4270,43.4703
63.4905,43.5397
63.5716,43.6718
63.6227,43.8237
63.6430,43.9773
63.6443,44.0321
63.6314,44.1921
63.5927,44.3407
63.5352,44.4658
63.4506,44.5888
63.3469,44.6927
63.2362,44.7707
63.0999,44.8281
62.9528,44.8617
62.8816,44.8725
62.7211,44.8930
62.5704,44.9090
62.4632,44.9150
60.8519,44.9150
60.8519,44.2116
61.7935,44.2116
62.2697,44.2116
62.4187,44.2015
62.5596,44.1597
62.6097,44.1266
62.6923,44.0044
62.7086,43.8972
62.6703,43.7512
62.6105,43.6833
62.4760,43.6223
62.3266,43.6032
62.2675,43.6019
61.7935,43.6019
61.7935,44.2116
60.8519,44.2116
60.8519,43.0392
61.7935,43.0392
62.1994,43.0392
62.3549,43.0281
62.4980,42.9760
62.5035,42.9718
62.5824,42.8428
62.5892,42.7754
62.5449,42.6317
62.5035,42.5901
62.3672,42.5361
62.2191,42.5234
62.2060,42.5234
61.7935,42.5234
61.7935,43.0392
60.8519,43.0392
60.8519,41.9137
62.5995,41.9137
Z" /> 
<path style="fill:#000000; fill-opacity:1.0000; stroke:none;fill-rule:evenodd;"
d="M 65.8380,41.9163
66.0009,41.9260
66.1631,41.9456
66.3151,41.9788
66.3444,41.9877
66.4911,42.0531
66.6169,42.1484
66.7130,42.2611
66.7872,42.3941
66.8339,42.5442
66.8525,42.6939
66.8537,42.7469
66.8432,42.8963
66.8073,43.0451
66.7460,43.1777
66.6544,43.3039
66.5402,43.4108
66.4514,43.4715
66.3098,43.5371
66.1621,43.5812
66.1239,43.5902
66.2682,43.6465
66.3672,43.7023
66.4701,43.8073
66.5159,43.8635
66.6057,43.9836
66.6471,44.0526
67.0984,44.9150
66.0433,44.9150
65.5450,43.9969
65.4658,43.8649
65.3758,43.7653
65.2391,43.7055
65.1472,43.6957
65.0644,43.6957
65.0644,44.9150
64.1272,44.9150
64.1272,43.1330
65.0644,43.1330
65.4578,43.1330
65.6119,43.1118
65.7055,43.0920
65.8380,43.0204
65.8572,42.9982
65.9137,42.8598
65.9158,42.8238
65.8830,42.6753
65.8227,42.6010
65.6785,42.5404
65.5212,42.5241
65.4747,42.5234
65.0644,42.5234
65.0644,43.1330
64.1272,43.1330
64.1272,41.9137
65.6828,41.9137
Z" /> 
<path style="fill:#000000; fill-opacity:1.0000; stroke:none;fill-rule:evenodd;"
d="M 70.3635,44.9150
69.3867,44.9150
69.2387,44.3992
68.1755,44.3992
68.0290,44.9150
67.0750,44.9150
67.5183,43.7426
68.3770,43.7426
69.0431,43.7426
68.7090,42.6802
68.3770,43.7426
67.5183,43.7426
68.2100,41.9137
69.2285,41.9137
Z" /> 
<path style="fill:#000000; fill-opacity:1.0000; stroke:none;fill-rule:evenodd;"
d="M 70.1451,41.9137
72.9830,41.9137
72.9830,42.6172
72.0311,42.6172
72.0311,44.9150
71.0977,44.9150
71.0977,42.6172
70.1451,42.6172
Z" /> 
<path style="fill:#000000; fill-opacity:1.0000; stroke:none;fill-rule:evenodd;"
d="M 73.4255,41.9137
74.3605,41.9137
74.3605,44.9150
73.4255,44.9150
Z" /> 
<path style="fill:#000000; fill-opacity:1.0000; stroke:none;fill-rule:evenodd;"
d="M 76.6465,41.8731
76.8188,41.8919
76.9803,41.9233
77.1309,41.9672
77.2708,42.0237
77.4304,42.1119
77.5732,42.2198
77.6255,42.2684
77.7431,42.4015
77.8408,42.5503
77.9185,42.7148
77.9663,42.8577
78.0014,43.0107
78.0237,43.1737
78.0333,43.3468
78.0337,43.3917
78.0293,43.5510
78.0162,43.7012
77.9890,43.8692
77.9492,44.0240
77.8968,44.1656
77.8549,44.2526
77.7694,44.3923
77.6686,44.5178
77.5527,44.6290
77.4215,44.7260
77.3398,44.7750
77.1847,44.8479
77.0391,44.8960
76.8817,44.9311
76.7127,44.9530
76.5630,44.9612
76.5008,44.9619
76.3453,44.9580
76.1984,44.9462
76.0335,44.9216
75.8810,44.8857
75.7410,44.8385
75.6545,44.8007
75.5141,44.7212
75.3858,44.6237
75.2696,44.5083
75.1655,44.3750
75.1115,44.2907
75.0408,44.1535
74.9847,44.0040
74.9433,43.8421
74.9164,43.6679
74.9053,43.5134
74.9034,43.4166
75.8369,43.4166
75.8429,43.5761
75.8650,43.7398
75.9101,43.8972
75.9863,44.0366
76.0069,44.0621
76.1251,44.1657
76.2672,44.2309
76.4155,44.2567
76.4693,44.2585
76.6279,44.2433
76.7789,44.1908
76.9032,44.1008
76.9353,44.0665
77.0150,43.9340
77.0639,43.7757
77.0899,43.6060
77.0995,43.4373
77.1002,43.3763
77.0941,43.2270
77.0717,43.0730
77.0260,42.9234
76.9488,42.7888
76.9280,42.7637
76.8084,42.6617
76.6649,42.5975
76.5154,42.5720
76.4612,42.5703
76.3113,42.5858
76.1652,42.6395
76.0408,42.7315
76.0077,42.7666
75.9251,42.8974
75.8745,43.0479
75.8476,43.2059
75.8376,43.3609
75.8369,43.4166
74.9034,43.4166
74.9099,43.2385
74.9292,43.0705
74.9614,42.9127
75.0064,42.7650
75.0643,42.6275
75.1548,42.4698
75.2654,42.3280
75.3152,42.2757
75.4520,42.1579
75.6046,42.0601
75.7380,41.9962
75.8816,41.9451
76.0352,41.9068
76.1989,41.8812
76.3727,41.8684
76.4634,41.8668
Z" /> 
<path style="fill:#000000; fill-opacity:1.0000; stroke:none;fill-rule:evenodd;"
d="M 78.5231,41.9137
79.3951,41.9137
80.5330,43.6049
80.5330,41.9137
81.4123,41.9137
81.4123,44.9150
80.5330,44.9150
79.4009,43.2327
79.4009,44.9150
78.5231,44.9150
Z" /> 
<path style="fill:#000000; fill-opacity:1.0000; stroke:none;fill-rule:evenodd;"
d="M 83.4046,41.9137
84.6326,41.9137
85.1067,43.7324
85.5786,41.9137
86.8030,41.9137
86.8030,44.9150
86.0402,44.9150
86.0402,42.6113
85.4489,44.9150
84.7586,44.9150
84.1688,42.6113
84.1688,44.9150
83.4046,44.9150
Z" /> 
<path style="fill:#000000; fill-opacity:1.0000; stroke:none;fill-rule:evenodd;"
d="M 89.0032,41.8731
89.1755,41.8919
89.3370,41.9233
89.4877,41.9672
89.6275,42.0237
89.7872,42.1119
89.9299,42.2198
89.9823,42.2684
90.0998,42.4015
90.1975,42.5503
90.2752,42.7148
90.3230,42.8577
90.3581,43.0107
90.3804,43.1737
90.3900,43.3468
90.3904,43.3917
90.3860,43.5510
90.3729,43.7012
90.3457,43.8692
90.3059,44.0240
90.2535,44.1656
90.2116,44.2526
90.1261,44.3923
90.0254,44.5178
89.9094,44.6290
89.7783,44.7260
89.6965,44.7750
89.5414,44.8479
89.3958,44.8960
89.2385,44.9311
89.0695,44.9530
88.9197,44.9612
88.8575,44.9619
88.7020,44.9580
88.5551,44.9462
88.3902,44.9216
88.2378,44.8857
88.0977,44.8385
88.0112,44.8007
87.8708,44.7212
87.7425,44.6237
87.6263,44.5083
87.5223,44.3750
87.4683,44.2907
87.3976,44.1535
87.3415,44.0040
87.3000,43.8421
87.2732,43.6679
87.2620,43.5134
87.2602,43.4166
88.1937,43.4166
88.1996,43.5761
88.2217,43.7398
88.2669,43.8972
88.3431,44.0366
88.3637,44.0621
88.4819,44.1657
88.6240,44.2309
88.7723,44.2567
88.8260,44.2585
88.9846,44.2433
89.1356,44.1908
89.2599,44.1008
89.2920,44.0665
89.3717,43.9340
89.4207,43.7757
89.4466,43.6060
89.4563,43.4373
89.4569,43.3763
89.4508,43.2270
89.4285,43.0730
89.3827,42.9234
89.3056,42.7888
89.2847,42.7637
89.1651,42.6617
89.0217,42.5975
88.8721,42.5720
88.8180,42.5703
88.6680,42.5858
88.5220,42.6395
88.3975,42.7315
88.3644,42.7666
88.2819,42.8974
88.2312,43.0479
88.2043,43.2059
88.1943,43.3609
88.1937,43.4166
87.2602,43.4166
87.2666,43.2385
87.2859,43.0705
87.3181,42.9127
87.3631,42.7650
87.4210,42.6275
87.5115,42.4698
87.6221,42.3280
87.6720,42.2757
87.8088,42.1579
87.9614,42.0601
88.0948,41.9962
88.2383,41.9451
88.3919,41.9068
88.5556,41.8812
88.7295,41.8684
88.8202,41.8668
Z" /> 
<path style="fill:#000000; fill-opacity:1.0000; stroke:none;fill-rule:evenodd;"
d="M 92.4216,41.9176
92.5804,41.9320
92.7436,41.9614
92.8871,42.0046
92.9359,42.0244
93.0711,42.0942
93.1925,42.1792
93.2999,42.2794
93.3535,42.3417
93.4391,42.4633
93.5103,42.5957
93.5671,42.7389
93.5924,42.8231
93.6282,42.9798
93.6523,43.1418
93.6638,43.2901
93.6664,43.4041
93.6625,43.5770
93.6509,43.7348
93.6274,43.8996
93.5934,44.0437
93.5558,44.1508
93.4872,44.2928
93.4050,44.4215
93.3093,44.5366
93.2502,44.5948
93.1251,44.6949
92.9942,44.7716
92.8577,44.8250
92.8296,44.8329
92.6798,44.8688
92.5198,44.8970
92.3690,44.9121
92.2735,44.9150
90.8865,44.9150
90.8865,44.2116
91.8199,44.2116
92.0486,44.2116
92.1997,44.2067
92.3482,44.1873
92.4647,44.1493
92.5810,44.0561
92.6582,43.9302
92.7011,43.7854
92.7217,43.6232
92.7283,43.4662
92.7285,43.4232
92.7230,43.2595
92.7027,43.0947
92.6610,42.9406
92.5907,42.8111
92.5717,42.7886
92.4540,42.6982
92.3135,42.6455
92.1613,42.6213
92.0530,42.6172
91.8199,42.6172
91.8199,44.2116
90.8865,44.2116
90.8865,41.9137
92.2735,41.9137
Z" /> 
<path style="fill:#000000; fill-opacity:1.0000; stroke:none;fill-rule:evenodd;"
d="M 96.1049,41.9137
97.0362,41.9137
97.0362,43.6994
97.0296,43.8463
97.0068,44.0041
96.9676,44.1561
96.9527,44.2006
96.8913,44.3423
96.8114,44.4726
96.7130,44.5915
96.6911,44.6138
96.5781,44.7139
96.4499,44.8002
96.3174,44.8615
96.1744,44.9054
96.0177,44.9368
95.8696,44.9540
95.7110,44.9615
95.6638,44.9619
95.5074,44.9583
95.3570,44.9486
95.1987,44.9330
95.1824,44.9311
95.0282,44.9060
94.8776,44.8649
94.7472,44.8095
94.6200,44.7306
94.5010,44.6303
94.4263,44.5516
94.3373,44.4350
94.2650,44.3051
94.2277,44.2057
94.1859,44.0501
94.1578,43.9049
94.1426,43.7556
94.1412,43.6994
94.1412,41.9137
95.0725,41.9137
95.0725,43.7382
95.0887,43.8938
95.1433,44.0348
95.2095,44.1207
95.3384,44.2099
95.4885,44.2519
95.5898,44.2585
95.7433,44.2425
95.8826,44.1884
95.9679,44.1229
96.0566,43.9940
96.0984,43.8418
96.1049,43.7382
Z" /> 
<path style="fill:#000000; fill-opacity:1.0000; stroke:none;fill-rule:evenodd;"
d="M 97.6356,41.9137
98.5691,41.9137
98.5691,44.1647
100.0258,44.1647
100.0258,44.9150
97.6356,44.9150
Z" /> 
<path style="fill:#000000; fill-opacity:1.0000; stroke:none;fill-rule:evenodd;"
d="M 100.4324,41.9137
102.9340,41.9137
102.9340,42.6172
101.3681,42.6172
101.3681,43.0392
102.8211,43.0392
102.8211,43.6488
101.3681,43.6488
101.3681,44.2116
102.9794,44.2116
102.9794,44.9150
100.4324,44.9150
Z" /> 
</g><path style="fill:none; 
stroke:#000000; stroke-width:0.0500; stroke-opacity:1; 
stroke-linecap:round; stroke-linejoin:round;fill:none"
d="M 8.3950,0.0250
105.8700,0.0250
105.8700,40.0250
8.3950,40.0250
Z" /> 
</g>
<g style="fill:none; 
stroke:#000000; stroke-width:0.8900; stroke-opacity:1; 
stroke-linecap:round; stroke-linejoin:round;">
<path d="M104.1300 23.1550
L104.7900 23.1550
" />
<path style="fill:#000000; fill-opacity:1.0000; stroke:none;fill-rule:evenodd;"
d="M 105.2350,24.3550
103.6850,24.3550
103.6850,23.1550
105.2350,23.1550
Z" /> 
</g>
<g style="fill:none; 
stroke:#000000; stroke-width:0.9500; stroke-opacity:1; 
stroke-linecap:round; stroke-linejoin:round;">
<path d="M101.7600 24.3050
L101.7600 24.0050
" />
<path style="fill:#000000; fill-opacity:1.0000; stroke:none;fill-rule:evenodd;"
d="M 105.2350,26.4050
103.6850,26.4050
103.6850,24.9050
105.2350,24.9050
Z" /> 
<path style="fill:#000000; fill-opacity:1.0000; stroke:none;fill-rule:evenodd;"
d="M 105.2350,28.4050
103.6850,28.4050
103.6850,26.9050
105.2350,26.9050
Z" /> 
</g>
<g style="fill:none; 
stroke:#000000; stroke-width:0.9500; stroke-opacity:1; 
stroke-linecap:round; stroke-linejoin:round;">
<path d="M101.7600 29.3050
L101.7600 29.0050
" />
<path style="fill:#000000; fill-opacity:1.0000; stroke:none;fill-rule:evenodd;"
d="M 105.2350,30.1550
103.6850,30.1550
103.6850,28.9550
105.2350,28.9550
Z" /> 
</g>
<g style="fill:none; 
stroke:#000000; stroke-width:0.8900; stroke-opacity:1; 
stroke-linecap:round; stroke-linejoin:round;">
<path d="M104.1300 30.1550
L104.7900 30.1550
" />
<path style="fill:#000000; fill-opacity:1.0000; stroke:none;fill-rule:evenodd;"
d="M 102.4350,25.5550
101.0850,25.5550
101.0850,25.1550
102.4350,25.1550
Z" /> 
<path style="fill:#000000; fill-opacity:1.0000; stroke:none;fill-rule:evenodd;"
d="M 102.4350,26.2050
101.0850,26.2050
101.0850,25.8050
102.4350,25.8050
Z" /> 
<path style="fill:#000000; fill-opacity:1.0000; stroke:none;fill-rule:evenodd;"
d="M 102.4350,26.8550
101.0850,26.8550
101.0850,26.4550
102.4350,26.4550
Z" /> 
<path style="fill:#000000; fill-opacity:1.0000; stroke:none;fill-rule:evenodd;"
d="M 102.4350,27.5050
101.0850,27.5050
101.0850,27.1050
102.4350,27.1050
Z" /> 
<path style="fill:#000000; fill-opacity:1.0000; stroke:none;fill-rule:evenodd;"
d="M 102.4350,28.1550
101.0850,28.1550
101.0850,27.7550
102.4350,27.7550
Z" /> 
<path style="fill:#000000; fill-opacity:1.0000; stroke:none;fill-rule:evenodd;"
d="M 98.4600,28.3050
98.4600,30.0050
96.7600,30.0050
96.7600,28.3050
Z" /> 
</g>
<g style="fill:#000000; fill-opacity:1.0000; stroke:none;">
<circle cx="60.2550" cy="16.5550" r="0.7620" /> 
</g>
<g style="fill:#000000; fill-opacity:1.0000; stroke:none;">
<circle cx="60.2550" cy="19.0950" r="0.7620" /> 
</g>
<g style="fill:#000000; fill-opacity:1.0000; stroke:none;">
<circle cx="60.2550" cy="26.7150" r="0.7620" /> 
<path style="fill:#000000; fill-opacity:1.0000; stroke:none;fill-rule:evenodd;"
d="M 59.4930,30.0170
59.4930,28.4930
61.0170,28.4930
61.0170,30.0170
Z" /> 
</g>
<g style="fill:#000000; fill-opacity:1.0000; stroke:none;">
<circle cx="60.2550" cy="24.1750" r="0.7620" /> 
</g>
<g style="fill:#000000; fill-opacity:1.0000; stroke:none;">
<circle cx="70.4150" cy="16.5550" r="0.7620" /> 
</g>
<g style="fill:#000000; fill-opacity:1.0000; stroke:none;">
<circle cx="70.4150" cy="19.0950" r="0.7620" /> 
</g>
<g style="fill:#000000; fill-opacity:1.0000; stroke:none;">
<circle cx="70.4150" cy="26.7150" r="0.7620" /> 
<path style="fill:#000000; fill-opacity:1.0000; stroke:none;fill-rule:evenodd;"
d="M 69.6530,30.0170
69.6530,28.4930
71.1770,28.4930
71.1770,30.0170
Z" /> 
</g>
<g style="fill:#000000; fill-opacity:1.0000; stroke:none;">
<circle cx="70.4150" cy="24.1750" r="0.7620" /> 
</g>
<g style="fill:#000000; fill-opacity:1.0000; stroke:none;">
<circle cx="60.2550" cy="21.6350" r="0.7620" /> 
</g>
<g style="fill:#000000; fill-opacity:1.0000; stroke:none;">
<circle cx="70.4150" cy="21.6350" r="0.7620" /> 
</g>
<g style="fill:#000000; fill-opacity:1.0000; stroke:none;">
<circle cx="75.5525" cy="34.3350" r="1.6000" /> 
</g>
<g style="fill:#000000; fill-opacity:1.0000; stroke:none;">
<circle cx="75.5525" cy="11.4750" r="1.6000" /> 
</g>
<g style="fill:#000000; fill-opacity:1.0000; stroke:none;">
<circle cx="88.2525" cy="11.4750" r="0.8890" /> 
</g>
<g style="fill:#000000; fill-opacity:1.0000; stroke:none;">
<circle cx="88.2525" cy="14.0150" r="0.8890" /> 
</g>
<g style="fill:#000000; fill-opacity:1.0000; stroke:none;">
<circle cx="88.2525" cy="16.5550" r="0.8890" /> 
</g>
<g style="fill:#000000; fill-opacity:1.0000; stroke:none;">
<circle cx="88.2525" cy="19.0950" r="0.8890" /> 
</g>
<g style="fill:#000000; fill-opacity:1.0000; stroke:none;">
<circle cx="88.2525" cy="21.6350" r="0.8890" /> 
</g>
<g style="fill:#000000; fill-opacity:1.0000; stroke:none;">
<circle cx="88.2525" cy="24.1750" r="0.8890" /> 
</g>
<g style="fill:#000000; fill-opacity:1.0000; stroke:none;">
<circle cx="88.2525" cy="26.7150" r="0.8890" /> 
</g>
<g style="fill:#000000; fill-opacity:1.0000; stroke:none;">
<circle cx="88.2525" cy="29.2550" r="0.8890" /> 
</g>
<g style="fill:#000000; fill-opacity:1.0000; stroke:none;">
<circle cx="88.2525" cy="31.7950" r="0.8890" /> 
<path style="fill:#000000; fill-opacity:1.0000; stroke:none;fill-rule:evenodd;"
d="M 87.3635,33.4460
89.1415,33.4460
89.1415,35.2240
87.3635,35.2240
Z" /> 
<path style="fill:#000000; fill-opacity:1.0000; stroke:none;fill-rule:evenodd;"
d="M 98.4600,20.1050
98.4600,21.8050
96.7600,21.8050
96.7600,20.1050
Z" /> 
</g>
<g style="fill:#000000; fill-opacity:1.0000; stroke:none;">
<circle cx="93.5850" cy="34.3150" r="0.8500" /> 
<circle cx="93.5850" cy="31.7750" r="0.8500" /> 
<circle cx="93.5850" cy="29.2350" r="0.8500" /> 
<circle cx="93.5850" cy="26.6950" r="0.8500" /> 
<path style="fill:#000000; fill-opacity:1.0000; stroke:none;fill-rule:evenodd;"
d="M 94.4350,23.3050
94.4350,25.0050
92.7350,25.0050
92.7350,23.3050
Z" /> 
<circle cx="46.8950" cy="34.6950" r="0.7620" /> 
</g>
<g style="fill:#000000; fill-opacity:1.0000; stroke:none;">
<circle cx="44.3550" cy="34.6950" r="0.7620" /> 
</g>
<g style="fill:#000000; fill-opacity:1.0000; stroke:none;">
<circle cx="41.8150" cy="34.6950" r="0.7620" /> 
</g>
<g style="fill:#000000; fill-opacity:1.0000; stroke:none;">
<circle cx="39.2750" cy="34.6950" r="0.7620" /> 
</g>
<g style="fill:#000000; fill-opacity:1.0000; stroke:none;">
<circle cx="36.7350" cy="34.6950" r="0.7620" /> 
</g>
<g style="fill:#000000; fill-opacity:1.0000; stroke:none;">
<circle cx="34.1950" cy="34.6950" r="0.7620" /> 
</g>
<g style="fill:#000000; fill-opacity:1.0000; stroke:none;">
<circle cx="31.6550" cy="34.6950" r="0.7620" /> 
</g>
<g style="fill:#000000; fill-opacity:1.0000; stroke:none;">
<circle cx="29.1150" cy="34.6950" r="0.7620" /> 
</g>
<g style="fill:#000000; fill-opacity:1.0000; stroke:none;">
<circle cx="26.5750" cy="34.6950" r="0.7620" /> 
</g>
<g style="fill:#000000; fill-opacity:1.0000; stroke:none;">
<circle cx="24.0350" cy="34.6950" r="0.7620" /> 
</g>
<g style="fill:#000000; fill-opacity:1.0000; stroke:none;">
<circle cx="21.4950" cy="34.6950" r="0.7620" /> 
</g>
<g style="fill:#000000; fill-opacity:1.0000; stroke:none;">
<circle cx="18.9550" cy="34.6950" r="0.7620" /> 
</g>
<g style="fill:#000000; fill-opacity:1.0000; stroke:none;">
<circle cx="16.4150" cy="34.6950" r="0.7620" /> 
</g>
<g style="fill:#000000; fill-opacity:1.0000; stroke:none;">
<circle cx="13.8750" cy="34.6950" r="0.7620" /> 
</g>
<g style="fill:#000000; fill-opacity:1.0000; stroke:none;">
<circle cx="11.3350" cy="34.6950" r="0.7620" /> 
</g>
<g style="fill:#000000; fill-opacity:1.0000; stroke:none;">
<circle cx="11.3350" cy="6.7550" r="0.7620" /> 
</g>
<g style="fill:#000000; fill-opacity:1.0000; stroke:none;">
<circle cx="13.8750" cy="6.7550" r="0.7620" /> 
</g>
<g style="fill:#000000; fill-opacity:1.0000; stroke:none;">
<circle cx="16.4150" cy="6.7550" r="0.7620" /> 
</g>
<g style="fill:#000000; fill-opacity:1.0000; stroke:none;">
<circle cx="18.9550" cy="6.7550" r="0.7620" /> 
</g>
<g style="fill:#000000; fill-opacity:1.0000; stroke:none;">
<circle cx="21.4950" cy="6.7550" r="0.7620" /> 
</g>
<g style="fill:#000000; fill-opacity:1.0000; stroke:none;">
<circle cx="24.0350" cy="6.7550" r="0.7620" /> 
</g>
<g style="fill:#000000; fill-opacity:1.0000; stroke:none;">
<circle cx="26.5750" cy="6.7550" r="0.7620" /> 
</g>
<g style="fill:#000000; fill-opacity:1.0000; stroke:none;">
<circle cx="29.1150" cy="6.7550" r="0.7620" /> 
</g>
<g style="fill:#000000; fill-opacity:1.0000; stroke:none;">
<circle cx="31.6550" cy="6.7550" r="0.7620" /> 
</g>
<g style="fill:#000000; fill-opacity:1.0000; stroke:none;">
<circle cx="34.1950" cy="6.7550" r="0.7620" /> 
</g>
<g style="fill:#000000; fill-opacity:1.0000; stroke:none;">
<circle cx="36.7350" cy="6.7550" r="0.7620" /> 
</g>
<g style="fill:#000000; fill-opacity:1.0000; stroke:none;">
<circle cx="39.2750" cy="6.7550" r="0.7620" /> 
</g>
<g style="fill:#000000; fill-opacity:1.0000; stroke:none;">
<circle cx="41.8150" cy="6.7550" r="0.7620" /> 
</g>
<g style="fill:#000000; fill-opacity:1.0000; stroke:none;">
<circle cx="44.3550" cy="6.7550" r="0.7620" /> 
</g>
<g style="fill:#000000; fill-opacity:1.0000; stroke:none;">
<circle cx="46.8950" cy="6.7550" r="0.7620" /> 
</g>
<g style="fill:none; 
stroke:#000000; stroke-width:0.8128; stroke-opacity:1; 
stroke-linecap:round; stroke-linejoin:round;">
<path d="M45.9443 13.1482
L45.6827 12.8865
" />
<path d="M49.8263 11.8825
L49.5647 11.6208
" />
<path d="M48.5182 11.6208
L47.7545 12.3845
" />
<path d="M48.5606 15.7645
L48.2990 15.5028
" />
<path d="M49.0626 13.6926
L49.8263 12.9290
" />
<path d="M47.2312 12.9078
L46.9908 13.1482
" />
<path d="M45.9231 10.5531
L45.6615 10.2915
" />
<path d="M44.3550 8.9850
L44.3550 6.7550
" />
<path d="M48.5394 14.2159
L49.0626 13.6926
" />
<path d="M45.0075 9.6375
L44.3550 8.9850
" />
<path d="M49.8475 15.5241
L49.6071 15.7645
" />
<path d="M45.6615 10.2915
L45.0075 9.6375
" />
<path d="M48.2990 14.4563
L48.5394 14.2159
" />
<path d="M51.9250 16.5550
L50.8941 15.5241
" />
<path d="M49.0626 13.6926
L49.0626 13.6926
" />
<path d="M60.2550 16.5550
L51.9250 16.5550
" />
<path d="M47.7545 12.3845
L47.2312 12.9078
" />
<path d="M45.6827 11.8400
L45.9231 11.5996
" />
<path d="M49.5647 11.6208 A0.7400 0.7400 0.0 0 0 48.5182 11.6208" />
<path d="M45.6827 11.8400 A0.7400 0.7400 0.0 0 0 45.6827 12.8865" />
<path d="M49.8263 12.9290 A0.7400 0.7400 0.0 0 0 49.8263 11.8824" />
<path d="M45.9231 11.5996 A0.7401 0.7401 0.0 0 0 45.9231 10.5530" />
<path d="M45.9443 13.1482 A0.7400 0.7400 0.0 0 0 46.9908 13.1482" />
<path d="M48.2990 14.4563 A0.7400 0.7400 0.0 0 0 48.2990 15.5028" />
<path d="M48.5606 15.7645 A0.7400 0.7400 0.0 0 0 49.6071 15.7645" />
<path d="M50.8941 15.5241 A0.7400 0.7400 0.0 0 0 49.8475 15.5241" />
<path d="M41.8150 17.0950
L41.8150 6.7550
" />
<path d="M43.8150 19.0950
L41.8150 17.0950
" />
<path d="M60.2550 19.0950
L43.8150 19.0950
" />
<path d="M39.2950 24.1750
L34.1950 19.0750
" />
<path d="M60.2550 24.1750
L39.2950 24.1750
" />
<path d="M34.1950 19.0750
L34.1950 6.7550
" />
<path d="M35.4250 29.2550
L60.2550 29.2550
" />
<path d="M29.1150 22.9450
L35.4250 29.2550
" />
<path d="M29.1150 6.7550
L29.1150 22.9450
" />
<path d="M31.6550 4.0888
L31.6550 6.7550
" />
<path d="M33.7088 2.0350
L31.6550 4.0888
" />
<path d="M104.4600 12.0400
L94.4550 2.0350
" />
<path d="M94.4550 2.0350
L33.7088 2.0350
" />
<path d="M104.4600 23.7550
L104.4600 12.0400
" />
<path d="M35.2500 4.1800
L34.1950 5.2350
" />
<path d="M97.6100 15.3900
L86.4000 4.1800
" />
<path d="M34.1950 5.2350
L34.1950 6.7550
" />
<path d="M97.6100 20.9550
L97.6100 15.3900
" />
<path d="M86.4000 4.1800
L35.2500 4.1800
" />
<path d="M67.3100 12.2950
L67.3100 26.1450
" />
<path d="M71.0750 8.5300
L67.3100 12.2950
" />
<path d="M88.2525 11.4750
L85.3075 8.5300
" />
<path d="M85.3075 8.5300
L71.0750 8.5300
" />
<path d="M41.8150 34.6950
L41.8150 36.4200
" />
<path d="M41.8150 36.4200
L42.9750 37.5800
" />
<path d="M42.9750 37.5800
L68.9600 37.5800
" />
<path d="M61.6050 21.6350
L60.2550 21.6350
" />
<path d="M63.1500 30.5800
L63.1500 23.1800
" />
<path d="M63.1500 23.1800
L61.6050 21.6350
" />
<path d="M45.3750 32.2300
L61.5000 32.2300
" />
<path d="M44.3550 34.6950
L44.3550 33.2500
" />
<path d="M44.3550 33.2500
L45.3750 32.2300
" />
<path d="M61.5000 32.2300
L63.1500 30.5800
" />
<path d="M97.5750 26.0050
L96.8850 26.6950
" />
</g>
<g style="fill:none; 
stroke:#000000; stroke-width:0.4064; stroke-opacity:1; 
stroke-linecap:round; stroke-linejoin:round;">
<path d="M101.7600 26.0050
L97.5750 26.0050
" />
</g>
<g style="fill:none; 
stroke:#000000; stroke-width:0.8128; stroke-opacity:1; 
stroke-linecap:round; stroke-linejoin:round;">
<path d="M96.8850 26.6950
L93.5850 26.6950
" />
</g>
<g style="fill:none; 
stroke:#000000; stroke-width:0.4064; stroke-opacity:1; 
stroke-linecap:round; stroke-linejoin:round;">
<path d="M99.9100 29.0800
L99.9100 32.6300
" />
</g>
<g style="fill:none; 
stroke:#000000; stroke-width:0.8128; stroke-opacity:1; 
stroke-linecap:round; stroke-linejoin:round;">
<path d="M70.4150 24.1750
L69.2800 24.1750
" />
<path d="M98.2250 34.3150
L99.9100 32.6300
" />
<path d="M69.2800 24.1750
L67.3100 26.1450
" />
<path d="M93.5850 34.3150
L98.2250 34.3150
" />
</g>
<g style="fill:none; 
stroke:#000000; stroke-width:0.4064; stroke-opacity:1; 
stroke-linecap:round; stroke-linejoin:round;">
<path d="M101.7600 27.9550
L101.0350 27.9550
" />
</g>
<g style="fill:none; 
stroke:#000000; stroke-width:0.8128; stroke-opacity:1; 
stroke-linecap:round; stroke-linejoin:round;">
<path d="M67.3100 35.9300
L68.9600 37.5800
" />
</g>
<g style="fill:none; 
stroke:#000000; stroke-width:0.4064; stroke-opacity:1; 
stroke-linecap:round; stroke-linejoin:round;">
<path d="M101.0350 27.9550
L99.9100 29.0800
" />
</g>
<g style="fill:none; 
stroke:#000000; stroke-width:0.8128; stroke-opacity:1; 
stroke-linecap:round; stroke-linejoin:round;">
<path d="M67.3100 26.1450
L67.3100 35.9300
" />
<path d="M68.9600 37.5800
L90.2850 37.5800
" />
<path d="M90.2850 37.5800
L93.5500 34.3150
" />
<path d="M93.5500 34.3150
L93.5850 34.3150
" />
<path d="M70.6650 16.5550
L88.2275 16.5550
" />
<path d="M70.6650 19.0950
L88.2275 19.0950
" />
<path d="M88.2525 14.0150
L90.0200 14.0150
" />
<path d="M101.7600 24.1550
L93.5850 24.1550
" />
<path d="M104.4600 30.1550
L102.7600 30.1550
" />
<path d="M91.1350 20.6550
L90.1550 21.6350
" />
<path d="M93.5850 24.1550
L91.1350 21.7050
" />
<path d="M88.2525 21.6350
L70.4150 21.6350
" />
<path d="M90.1550 21.6350
L88.2525 21.6350
" />
<path d="M104.4600 25.6550
L104.4600 27.6550
" />
<path d="M104.4600 23.1550
L102.7600 23.1550
" />
<path d="M43.9950 6.7550
L43.9950 6.7100
" />
<path d="M104.4600 27.6550
L104.4600 29.5550
" />
<path d="M91.1350 21.7050
L91.1350 20.6550
" />
<path d="M104.4600 23.7550
L104.4600 25.6550
" />
<path d="M102.7600 23.1550
L101.7600 24.1550
" />
<path d="M91.1350 15.1300
L91.1350 20.6550
" />
<path d="M102.7600 30.1550
L101.7600 29.1550
" />
<path d="M90.0200 14.0150
L91.1350 15.1300
" />
</g>
<g style="fill:none; 
stroke:#000000; stroke-width:0.4064; stroke-opacity:1; 
stroke-linecap:round; stroke-linejoin:round;">
<path d="M101.7600 25.3550
L101.7600 24.1550
" />
</g>
<g style="fill:none; 
stroke:#000000; stroke-width:0.8128; stroke-opacity:1; 
stroke-linecap:round; stroke-linejoin:round;">
<path d="M78.2100 29.2550
L70.4150 29.2550
" />
<path d="M88.2525 24.1750
L83.2900 24.1750
" />
<path d="M83.2900 24.1750
L78.2100 29.2550
" />
<path d="M88.2525 29.2550
L93.5650 29.2550
" />
<path d="M93.5650 29.2550
L93.5850 29.2350
" />
<path d="M88.2725 29.2350
L88.2525 29.2550
" />
</g>
<g style="fill:none; 
stroke:#000000; stroke-width:0.4064; stroke-opacity:1; 
stroke-linecap:round; stroke-linejoin:round;">
<path d="M101.7600 26.6550
L100.1100 26.6550
" />
<path d="M100.1100 26.6550
L97.6100 29.1550
" />
</g>
<g style="fill:none; 
stroke:#FFFFFF; stroke-width:0.5000; stroke-opacity:1; 
stroke-linecap:round; stroke-linejoin:round;">
<path d="M104.1350 23.1550
L104.7850 23.1550
" />
</g>
<g style="fill:none; 
stroke:#FFFFFF; stroke-width:0.5500; stroke-opacity:1; 
stroke-linecap:round; stroke-linejoin:round;">
<path d="M101.7600 24.3050
L101.7600 24.0050
" />
<path d="M101.7600 29.3050
L101.7600 29.0050
" />
</g>
<g style="fill:none; 
stroke:#FFFFFF; stroke-width:0.5000; stroke-opacity:1; 
stroke-linecap:round; stroke-linejoin:round;">
<path d="M104.1350 30.1550
L104.7850 30.1550
" />
</g>
<g style="fill:#FFFFFF; fill-opacity:1.0000; stroke:none;">
<circle cx="97.6100" cy="29.1550" r="0.5000" /> 
</g>
<g style="fill:#FFFFFF; fill-opacity:1.0000; stroke:none;">
<circle cx="60.2550" cy="16.5550" r="0.5080" /> 
</g>
<g style="fill:#FFFFFF; fill-opacity:1.0000; stroke:none;">
<circle cx="60.2550" cy="19.0950" r="0.5080" /> 
</g>
<g style="fill:#FFFFFF; fill-opacity:1.0000; stroke:none;">
<circle cx="60.2550" cy="26.7150" r="0.5080" /> 
</g>
<g style="fill:#FFFFFF; fill-opacity:1.0000; stroke:none;">
<circle cx="60.2550" cy="29.2550" r="0.5080" /> 
</g>
<g style="fill:#FFFFFF; fill-opacity:1.0000; stroke:none;">
<circle cx="60.2550" cy="24.1750" r="0.5080" /> 
</g>
<g style="fill:#FFFFFF; fill-opacity:1.0000; stroke:none;">
<circle cx="70.4150" cy="16.5550" r="0.5080" /> 
</g>
<g style="fill:#FFFFFF; fill-opacity:1.0000; stroke:none;">
<circle cx="70.4150" cy="19.0950" r="0.5080" /> 
</g>
<g style="fill:#FFFFFF; fill-opacity:1.0000; stroke:none;">
<circle cx="70.4150" cy="26.7150" r="0.5080" /> 
</g>
<g style="fill:#FFFFFF; fill-opacity:1.0000; stroke:none;">
<circle cx="70.4150" cy="29.2550" r="0.5080" /> 
</g>
<g style="fill:#FFFFFF; fill-opacity:1.0000; stroke:none;">
<circle cx="70.4150" cy="24.1750" r="0.5080" /> 
</g>
<g style="fill:#FFFFFF; fill-opacity:1.0000; stroke:none;">
<circle cx="60.2550" cy="21.6350" r="0.5080" /> 
</g>
<g style="fill:#FFFFFF; fill-opacity:1.0000; stroke:none;">
<circle cx="70.4150" cy="21.6350" r="0.5080" /> 
</g>
<g style="fill:#FFFFFF; fill-opacity:1.0000; stroke:none;">
<circle cx="75.5525" cy="34.3350" r="1.2500" /> 
</g>
<g style="fill:#FFFFFF; fill-opacity:1.0000; stroke:none;">
<circle cx="75.5525" cy="11.4750" r="1.2500" /> 
</g>
<g style="fill:#FFFFFF; fill-opacity:1.0000; stroke:none;">
<circle cx="88.2525" cy="11.4750" r="0.5000" /> 
</g>
<g style="fill:#FFFFFF; fill-opacity:1.0000; stroke:none;">
<circle cx="88.2525" cy="14.0150" r="0.5000" /> 
</g>
<g style="fill:#FFFFFF; fill-opacity:1.0000; stroke:none;">
<circle cx="88.2525" cy="16.5550" r="0.5000" /> 
</g>
<g style="fill:#FFFFFF; fill-opacity:1.0000; stroke:none;">
<circle cx="88.2525" cy="19.0950" r="0.5000" /> 
</g>
<g style="fill:#FFFFFF; fill-opacity:1.0000; stroke:none;">
<circle cx="88.2525" cy="21.6350" r="0.5000" /> 
</g>
<g style="fill:#FFFFFF; fill-opacity:1.0000; stroke:none;">
<circle cx="88.2525" cy="24.1750" r="0.5000" /> 
</g>
<g style="fill:#FFFFFF; fill-opacity:1.0000; stroke:none;">
<circle cx="88.2525" cy="26.7150" r="0.5000" /> 
</g>
<g style="fill:#FFFFFF; fill-opacity:1.0000; stroke:none;">
<circle cx="88.2525" cy="29.2550" r="0.5000" /> 
</g>
<g style="fill:#FFFFFF; fill-opacity:1.0000; stroke:none;">
<circle cx="88.2525" cy="31.7950" r="0.5000" /> 
</g>
<g style="fill:#FFFFFF; fill-opacity:1.0000; stroke:none;">
<circle cx="88.2525" cy="34.3350" r="0.5000" /> 
</g>
<g style="fill:#FFFFFF; fill-opacity:1.0000; stroke:none;">
<circle cx="97.6100" cy="20.9550" r="0.5000" /> 
</g>
<g style="fill:#FFFFFF; fill-opacity:1.0000; stroke:none;">
<circle cx="93.5850" cy="34.3150" r="0.5000" /> 
</g>
<g style="fill:#FFFFFF; fill-opacity:1.0000; stroke:none;">
<circle cx="93.5850" cy="31.7750" r="0.5000" /> 
</g>
<g style="fill:#FFFFFF; fill-opacity:1.0000; stroke:none;">
<circle cx="93.5850" cy="29.2350" r="0.5000" /> 
</g>
<g style="fill:#FFFFFF; fill-opacity:1.0000; stroke:none;">
<circle cx="93.5850" cy="26.6950" r="0.5000" /> 
</g>
<g style="fill:#FFFFFF; fill-opacity:1.0000; stroke:none;">
<circle cx="93.5850" cy="24.1550" r="0.5000" /> 
</g>
<g style="fill:#FFFFFF; fill-opacity:1.0000; stroke:none;">
<circle cx="46.8950" cy="34.6950" r="0.3810" /> 
</g>
<g style="fill:#FFFFFF; fill-opacity:1.0000; stroke:none;">
<circle cx="44.3550" cy="34.6950" r="0.3810" /> 
</g>
<g style="fill:#FFFFFF; fill-opacity:1.0000; stroke:none;">
<circle cx="41.8150" cy="34.6950" r="0.3810" /> 
</g>
<g style="fill:#FFFFFF; fill-opacity:1.0000; stroke:none;">
<circle cx="39.2750" cy="34.6950" r="0.3810" /> 
</g>
<g style="fill:#FFFFFF; fill-opacity:1.0000; stroke:none;">
<circle cx="36.7350" cy="34.6950" r="0.3810" /> 
</g>
<g style="fill:#FFFFFF; fill-opacity:1.0000; stroke:none;">
<circle cx="34.1950" cy="34.6950" r="0.3810" /> 
</g>
<g style="fill:#FFFFFF; fill-opacity:1.0000; stroke:none;">
<circle cx="31.6550" cy="34.6950" r="0.3810" /> 
</g>
<g style="fill:#FFFFFF; fill-opacity:1.0000; stroke:none;">
<circle cx="29.1150" cy="34.6950" r="0.3810" /> 
</g>
<g style="fill:#FFFFFF; fill-opacity:1.0000; stroke:none;">
<circle cx="26.5750" cy="34.6950" r="0.3810" /> 
</g>
<g style="fill:#FFFFFF; fill-opacity:1.0000; stroke:none;">
<circle cx="24.0350" cy="34.6950" r="0.3810" /> 
</g>
<g style="fill:#FFFFFF; fill-opacity:1.0000; stroke:none;">
<circle cx="21.4950" cy="34.6950" r="0.3810" /> 
</g>
<g style="fill:#FFFFFF; fill-opacity:1.0000; stroke:none;">
<circle cx="18.9550" cy="34.6950" r="0.3810" /> 
</g>
<g style="fill:#FFFFFF; fill-opacity:1.0000; stroke:none;">
<circle cx="16.4150" cy="34.6950" r="0.3810" /> 
</g>
<g style="fill:#FFFFFF; fill-opacity:1.0000; stroke:none;">
<circle cx="13.8750" cy="34.6950" r="0.3810" /> 
</g>
<g style="fill:#FFFFFF; fill-opacity:1.0000; stroke:none;">
<circle cx="11.3350" cy="34.6950" r="0.3810" /> 
</g>
<g style="fill:#FFFFFF; fill-opacity:1.0000; stroke:none;">
<circle cx="11.3350" cy="6.7550" r="0.3810" /> 
</g>
<g style="fill:#FFFFFF; fill-opacity:1.0000; stroke:none;">
<circle cx="13.8750" cy="6.7550" r="0.3810" /> 
</g>
<g style="fill:#FFFFFF; fill-opacity:1.0000; stroke:none;">
<circle cx="16.4150" cy="6.7550" r="0.3810" /> 
</g>
<g style="fill:#FFFFFF; fill-opacity:1.0000; stroke:none;">
<circle cx="18.9550" cy="6.7550" r="0.3810" /> 
</g>
<g style="fill:#FFFFFF; fill-opacity:1.0000; stroke:none;">
<circle cx="21.4950" cy="6.7550" r="0.3810" /> 
</g>
<g style="fill:#FFFFFF; fill-opacity:1.0000; stroke:none;">
<circle cx="24.0350" cy="6.7550" r="0.3810" /> 
</g>
<g style="fill:#FFFFFF; fill-opacity:1.0000; stroke:none;">
<circle cx="26.5750" cy="6.7550" r="0.3810" /> 
</g>
<g style="fill:#FFFFFF; fill-opacity:1.0000; stroke:none;">
<circle cx="29.1150" cy="6.7550" r="0.3810" /> 
</g>
<g style="fill:#FFFFFF; fill-opacity:1.0000; stroke:none;">
<circle cx="31.6550" cy="6.7550" r="0.3810" /> 
</g>
<g style="fill:#FFFFFF; fill-opacity:1.0000; stroke:none;">
<circle cx="34.1950" cy="6.7550" r="0.3810" /> 
</g>
<g style="fill:#FFFFFF; fill-opacity:1.0000; stroke:none;">
<circle cx="36.7350" cy="6.7550" r="0.3810" /> 
</g>
<g style="fill:#FFFFFF; fill-opacity:1.0000; stroke:none;">
<circle cx="39.2750" cy="6.7550" r="0.3810" /> 
</g>
<g style="fill:#FFFFFF; fill-opacity:1.0000; stroke:none;">
<circle cx="41.8150" cy="6.7550" r="0.3810" /> 
</g>
<g style="fill:#FFFFFF; fill-opacity:1.0000; stroke:none;">
<circle cx="44.3550" cy="6.7550" r="0.3810" /> 
</g>
<g style="fill:#FFFFFF; fill-opacity:1.0000; stroke:none;">
<circle cx="46.8950" cy="6.7550" r="0.3810" /> 
</g> 
</svg>
