<?xml version="1.0" standalone="no"?>
 <!DOCTYPE svg PUBLIC "-//W3C//DTD SVG 1.1//EN" 
 "http://www.w3.org/Graphics/SVG/1.1/DTD/svg11.dtd"> 
<svg
  xmlns:svg="http://www.w3.org/2000/svg"
  xmlns="http://www.w3.org/2000/svg"
  xmlns:xlink="http://www.w3.org/1999/xlink"
  version="1.1"
  width="107.1118mm" height="50.0888mm" viewBox="0.0000 0.0000 107.1118 50.0888">
<title>SVG Image created as ESP8266_Calib_Module-brd.svg date 2024/08/19 23:31:57 </title>
  <desc>Image generated by PCBNEW </desc>
<g style="fill:#000000; fill-opacity:1.0000;stroke:#000000; stroke-opacity:1.0000;
stroke-linecap:round; stroke-linejoin:round;"
 transform="translate(0 0) scale(1 1)">
<path style="fill:none; 
stroke:#000000; stroke-width:0.1000; stroke-opacity:1; 
stroke-linecap:round; stroke-linejoin:round;fill:none"
d="M 8.3950,40.0500
105.8950,40.0500
105.8950,50.0500
8.3950,50.0500
Z" /> 
<path style="fill:none; 
stroke:#000000; stroke-width:0.1000; stroke-opacity:1; 
stroke-linecap:round; stroke-linejoin:round;fill:none"
d="M 8.3950,0.0500
105.8700,0.0500
105.8700,40.0500
8.3950,40.0500
Z" /> 
</g>
<g style="fill:none; 
stroke:#000000; stroke-width:0.2500; stroke-opacity:1; 
stroke-linecap:round; stroke-linejoin:round;">
<text x="10.0450" y="47.3750"
textLength="79.1992" font-size="4.0000" lengthAdjust="spacingAndGlyphs"
text-anchor="start" opacity="0" stroke-opacity="0">AQUA - THINGS : CALIBRATION MODULE</text>
<g class="stroked-text"><desc>AQUA - THINGS : CALIBRATION MODULE</desc>
<path style="fill:#000000; fill-opacity:1.0000; stroke:none;fill-rule:evenodd;"
d="M 12.5649,46.8650
12.2373,46.8650
11.9347,45.9396
10.7887,45.9396
10.5030,46.8650
10.1791,46.8650
10.5670,45.6926
10.8679,45.6926
11.8512,45.6926
11.3551,44.1839
10.8679,45.6926
10.5670,45.6926
11.1412,43.9575
11.5735,43.9575
Z" /> 
<path style="fill:#000000; fill-opacity:1.0000; stroke:none;fill-rule:evenodd;"
d="M 14.3159,43.9184
14.4746,43.9418
14.6193,43.9808
14.7744,44.0482
14.9093,44.1381
15.0063,44.2301
15.1042,44.3578
15.1818,44.5011
15.2391,44.6602
15.2715,44.8048
15.2898,44.9603
15.2943,45.0925
15.2943,45.7688
15.2871,45.9208
15.2622,46.0798
15.2196,46.2282
15.2034,46.2708
15.1386,46.4032
15.0479,46.5322
14.9367,46.6437
15.3236,47.1215
15.1089,47.2856
14.7183,46.7932
14.5795,46.8506
14.4227,46.8892
14.2683,46.9077
14.1431,46.9119
13.9717,46.9041
13.8140,46.8808
13.6702,46.8419
13.5158,46.7746
13.3813,46.6850
13.2844,46.5932
13.1865,46.4658
13.1089,46.3233
13.0515,46.1656
13.0192,46.0226
13.0009,45.8692
12.9964,45.7388
12.9964,45.0918
12.9969,45.0808
13.3115,45.0808
13.3115,45.7586
13.3187,45.9098
13.3455,46.0706
13.3919,46.2144
13.4691,46.3581
13.5174,46.4217
13.6337,46.5281
13.7768,46.6041
13.9239,46.6457
14.0915,46.6640
14.1431,46.6650
14.3028,46.6567
14.4587,46.6290
14.5630,46.5954
14.2648,46.2253
14.4751,46.0729
14.7814,46.4517
14.8770,46.3179
14.9357,46.1707
14.9668,46.0201
14.9790,45.8491
14.9792,45.8231
14.9792,45.0815
14.9720,44.9272
14.9452,44.7631
14.8988,44.6164
14.8216,44.4700
14.7733,44.4052
14.6567,44.2969
14.5128,44.2195
14.3645,44.1772
14.1953,44.1585
14.1431,44.1576
13.9932,44.1662
13.8373,44.1981
13.6842,44.2633
13.5579,44.3592
13.5174,44.4030
13.4273,44.5374
13.3696,44.6742
13.3316,44.8289
13.3147,44.9756
13.3115,45.0808
12.9969,45.0808
13.0035,44.9266
13.0247,44.7726
13.0600,44.6297
13.1211,44.4731
13.2025,44.3327
13.2859,44.2279
13.4044,44.1201
13.5424,44.0346
13.6999,43.9714
13.8460,43.9357
14.0057,43.9156
14.1431,43.9106
Z" /> 
<path style="fill:#000000; fill-opacity:1.0000; stroke:none;fill-rule:evenodd;"
d="M 18.1798,45.9242
18.1704,46.0820
18.1422,46.2287
18.0857,46.3856
18.0037,46.5272
17.9130,46.6364
17.7836,46.7437
17.6523,46.8148
17.5023,46.8664
17.3335,46.8987
17.1785,46.9108
17.1129,46.9119
16.9538,46.9052
16.8075,46.8850
16.6489,46.8430
16.5088,46.7817
16.3687,46.6856
16.3164,46.6364
16.2125,46.5079
16.1341,46.3641
16.0812,46.2050
16.0562,46.0565
16.0497,45.9242
16.0497,43.9575
16.3648,43.9575
16.3648,45.9330
16.3762,46.0910
16.4163,46.2490
16.4852,46.3860
16.5472,46.4657
16.6660,46.5620
16.8164,46.6268
16.9765,46.6580
17.1129,46.6650
17.2721,46.6554
17.4302,46.6212
17.5775,46.5529
17.6815,46.4657
17.7700,46.3427
17.8296,46.1987
17.8582,46.0531
17.8647,45.9330
17.8647,43.9575
18.1798,43.9575
Z" /> 
<path style="fill:#000000; fill-opacity:1.0000; stroke:none;fill-rule:evenodd;"
d="M 21.0733,46.8650
20.7458,46.8650
20.4431,45.9396
19.2972,45.9396
19.0114,46.8650
18.6875,46.8650
19.0755,45.6926
19.3763,45.6926
20.3596,45.6926
19.8636,44.1839
19.3763,45.6926
19.0755,45.6926
19.6496,43.9575
20.0819,43.9575
Z" /> 
<path style="fill:#000000; fill-opacity:1.0000; stroke:none;fill-rule:evenodd;"
d="M 23.8328,45.5519
22.6274,45.5519
22.6274,45.3050
23.8328,45.3050
Z" /> 
<path style="fill:#000000; fill-opacity:1.0000; stroke:none;fill-rule:evenodd;"
d="M 27.4165,44.2045
26.5387,44.2045
26.5387,46.8650
26.2236,46.8650
26.2236,44.2045
25.3502,44.2045
25.3502,43.9575
27.4165,43.9575
Z" /> 
<path style="fill:#000000; fill-opacity:1.0000; stroke:none;fill-rule:evenodd;"
d="M 30.1218,46.8650
29.8067,46.8650
29.8067,45.4706
28.3449,45.4706
28.3449,46.8650
28.0298,46.8650
28.0298,43.9575
28.3449,43.9575
28.3449,45.2237
29.8067,45.2237
29.8067,43.9575
30.1218,43.9575
Z" /> 
<path style="fill:#000000; fill-opacity:1.0000; stroke:none;fill-rule:evenodd;"
d="M 31.6568,44.2045
31.6568,46.6181
32.0100,46.6181
32.0100,46.8650
30.9930,46.8650
30.9930,46.6181
31.3418,46.6181
31.3418,44.2045
30.9930,44.2045
30.9930,43.9575
32.0100,43.9575
32.0100,44.2045
Z" /> 
<path style="fill:#000000; fill-opacity:1.0000; stroke:none;fill-rule:evenodd;"
d="M 34.9534,43.9575
34.9534,46.8650
34.5753,46.8650
33.1604,44.3730
33.1604,46.8650
32.8746,46.8650
32.8746,43.9575
33.2608,43.9575
33.2571,43.9619
34.6683,46.4708
34.6683,43.9575
Z" /> 
<path style="fill:#000000; fill-opacity:1.0000; stroke:none;fill-rule:evenodd;"
d="M 37.8997,46.8650
37.6432,46.8650
37.6139,46.5609
37.5080,46.6650
37.3866,46.7527
37.2629,46.8181
37.1141,46.8715
36.9677,46.9008
36.8110,46.9118
36.7947,46.9119
36.6370,46.9021
36.4895,46.8727
36.3376,46.8171
36.2803,46.7881
36.1496,46.6997
36.0387,46.5903
35.9474,46.4598
35.9316,46.4312
35.8717,46.2937
35.8314,46.1423
35.8121,45.9962
35.8077,45.8795
35.8077,45.0881
35.8140,44.9395
35.8367,44.7792
35.8759,44.6292
35.9315,44.4894
35.9396,44.4726
36.0237,44.3317
36.1266,44.2098
36.2485,44.1069
36.3243,44.0579
36.4564,43.9935
36.6005,43.9475
36.7568,43.9198
36.9034,43.9108
36.9251,43.9106
37.0860,43.9176
37.2323,43.9385
37.3795,43.9786
37.4813,44.0220
37.6128,44.1009
37.7318,44.1982
37.8381,44.3139
37.8579,44.3393
37.6476,44.4910
37.5471,44.3775
37.4248,44.2814
37.3531,44.2411
37.2142,44.1902
37.0642,44.1642
36.9251,44.1576
36.7615,44.1693
36.6162,44.2047
36.4725,44.2739
36.3527,44.3740
36.3265,44.4038
36.2374,44.5379
36.1803,44.6741
36.1427,44.8279
36.1260,44.9736
36.1228,45.0779
36.1228,45.8692
36.1320,46.0239
36.1648,46.1820
36.2216,46.3204
36.3141,46.4525
36.4344,46.5552
36.5802,46.6243
36.7312,46.6575
36.8577,46.6650
37.0064,46.6546
37.1557,46.6192
37.2900,46.5587
37.4195,46.4659
37.5213,46.3588
37.5927,46.2554
37.5927,45.5519
36.8160,45.5519
36.8160,45.3050
37.8997,45.3050
Z" /> 
<path style="fill:#000000; fill-opacity:1.0000; stroke:none;fill-rule:evenodd;"
d="M 39.4809,46.9119
39.3224,46.9064
39.1726,46.8900
38.9975,46.8540
38.8359,46.8008
38.6880,46.7306
38.5536,46.6432
38.4558,46.5609
38.6236,46.3638
38.7460,46.4524
38.8669,46.5294
39.0074,46.5930
39.1211,46.6276
39.2746,46.6544
39.4293,46.6644
39.4809,46.6650
39.6390,46.6559
39.7905,46.6252
39.8898,46.5880
40.0188,46.5122
40.1256,46.4063
40.1360,46.3917
40.2005,46.2560
40.2158,46.1477
40.2158,46.0810
40.1956,45.9300
40.1221,45.7933
40.0935,45.7637
39.9648,45.6741
39.8251,45.6079
39.6692,45.5505
39.2494,45.4127
39.1010,45.3573
38.9550,45.2880
38.8209,45.2021
38.7284,45.1189
38.6379,44.9920
38.5849,44.8500
38.5694,44.7078
38.5694,44.6163
38.5906,44.4649
38.6482,44.3289
38.6800,44.2777
38.7792,44.1643
38.8977,44.0753
39.0142,44.0132
39.1624,43.9591
39.3112,43.9276
39.4747,43.9122
39.5520,43.9106
39.7295,43.9199
39.8972,43.9475
40.0550,43.9936
40.2030,44.0580
40.3410,44.1410
40.4692,44.2423
40.5177,44.2880
40.3499,44.4726
40.2347,44.3777
40.1082,44.2941
39.9821,44.2323
39.8367,44.1868
39.6884,44.1635
39.5564,44.1576
39.4091,44.1657
39.2581,44.1963
39.1776,44.2264
39.0466,44.3030
38.9555,44.3964
38.8929,44.5326
38.8845,44.6060
38.8845,44.6932
38.9204,44.8386
39.0120,44.9511
39.1429,45.0388
39.2799,45.1017
39.4303,45.1548
39.8121,45.2750
39.9568,45.3268
40.1030,45.3930
40.2429,45.4761
40.3455,45.5578
40.4433,45.6771
40.5048,45.8224
40.5293,45.9754
40.5309,46.0312
40.5309,46.1352
40.5132,46.2894
40.4600,46.4343
40.4049,46.5257
40.3051,46.6398
40.1789,46.7363
40.0414,46.8086
39.9011,46.8585
39.7472,46.8921
39.5991,46.9083
Z" /> 
<path style="fill:#000000; fill-opacity:1.0000; stroke:none;fill-rule:evenodd;"
d="M 42.4536,46.9119
42.3103,46.8631
42.2982,46.8525
42.2358,46.7197
42.2352,46.7031
42.2888,46.5632
42.3004,46.5514
42.4373,46.4904
42.4536,46.4898
42.5950,46.5404
42.6067,46.5514
42.6677,46.6864
42.6683,46.7031
42.6177,46.8411
42.6067,46.8525
42.4706,46.9114
Z" /> 
<path style="fill:#000000; fill-opacity:1.0000; stroke:none;fill-rule:evenodd;"
d="M 42.4536,45.1768
42.3103,45.1280
42.2982,45.1174
42.2358,44.9846
42.2352,44.9680
42.2888,44.8281
42.3004,44.8163
42.4373,44.7553
42.4536,44.7547
42.5950,44.8053
42.6067,44.8163
42.6677,44.9513
42.6683,44.9680
42.6177,45.1060
42.6067,45.1174
42.4706,45.1763
Z" /> 
<path style="fill:#000000; fill-opacity:1.0000; stroke:none;fill-rule:evenodd;"
d="M 45.5157,46.9119
45.3599,46.9047
45.1878,46.8772
45.0319,46.8290
44.8923,46.7601
44.7689,46.6706
44.7133,46.6181
44.6162,46.5006
44.5392,46.3691
44.4823,46.2236
44.4454,46.0641
44.4287,45.8906
44.4276,45.8297
44.4276,45.0632
44.4339,44.9152
44.4565,44.7564
44.4957,44.6087
44.5513,44.4721
44.5594,44.4558
44.6433,44.3191
44.7457,44.2008
44.8667,44.1010
44.9419,44.0535
45.0903,43.9845
45.2347,43.9420
45.3907,43.9175
45.5369,43.9106
45.6841,43.9176
45.8332,43.9416
45.9797,43.9879
46.0044,43.9986
46.1361,44.0673
46.2623,44.1538
46.3722,44.2477
46.2044,44.4323
46.0866,44.3360
45.9560,44.2540
45.9084,44.2301
45.7635,44.1805
45.6093,44.1593
45.5450,44.1576
45.3859,44.1689
45.2432,44.2030
45.1004,44.2698
44.9791,44.3662
44.9522,44.3950
44.8605,44.5251
44.7950,44.6782
44.7592,44.8309
44.7434,45.0011
44.7426,45.0530
44.7426,45.8238
44.7522,45.9900
44.7808,46.1391
44.8368,46.2887
44.9178,46.4161
44.9419,46.4444
45.0531,46.5409
45.1865,46.6098
45.3421,46.6512
45.4966,46.6647
45.5201,46.6650
45.6734,46.6563
45.8235,46.6274
45.8974,46.6034
46.0370,46.5409
46.1684,46.4609
46.2044,46.4349
46.3429,46.6320
46.2190,46.7172
46.0802,46.7905
45.9795,46.8328
45.8311,46.8778
45.6862,46.9025
45.5316,46.9118
Z" /> 
<path style="fill:#000000; fill-opacity:1.0000; stroke:none;fill-rule:evenodd;"
d="M 49.0430,46.8650
48.7155,46.8650
48.4129,45.9396
47.2669,45.9396
46.9811,46.8650
46.6572,46.8650
47.0452,45.6926
47.3460,45.6926
48.3293,45.6926
47.8333,44.1839
47.3460,45.6926
47.0452,45.6926
47.6193,43.9575
48.0516,43.9575
Z" /> 
<path style="fill:#000000; fill-opacity:1.0000; stroke:none;fill-rule:evenodd;"
d="M 51.2800,46.6181
51.2800,46.8650
49.6922,46.8650
49.6922,43.9575
50.0073,43.9575
50.0073,46.6181
Z" /> 
<path style="fill:#000000; fill-opacity:1.0000; stroke:none;fill-rule:evenodd;"
d="M 52.3462,44.2045
52.3462,46.6181
52.6993,46.6181
52.6993,46.8650
51.6823,46.8650
51.6823,46.6181
52.0311,46.6181
52.0311,44.2045
51.6823,44.2045
51.6823,43.9575
52.6993,43.9575
52.6993,44.2045
Z" /> 
<path style="fill:#000000; fill-opacity:1.0000; stroke:none;fill-rule:evenodd;"
d="M 54.5350,43.9639
54.6827,43.9829
54.8388,44.0211
54.9774,44.0765
55.0822,44.1378
55.1969,44.2374
55.2868,44.3721
55.3319,44.5120
55.3445,44.6500
55.3445,44.8317
55.3241,44.9881
55.2559,45.1310
55.1994,45.1966
55.0819,45.2864
54.9458,45.3450
54.8448,45.3666
54.8492,45.3666
55.0017,45.3985
55.1419,45.4600
55.2587,45.5417
55.3605,45.6598
55.4201,45.8085
55.4375,45.9703
55.4375,46.1491
55.4193,46.3051
55.3644,46.4442
55.2731,46.5664
55.1452,46.6716
55.0072,46.7469
54.8485,46.8038
54.6959,46.8378
54.5281,46.8582
54.3766,46.8648
54.3450,46.8650
53.5639,46.8650
53.5639,46.6181
53.8834,46.6181
54.3538,46.6181
54.5089,46.6122
54.6654,46.5912
54.8150,46.5492
54.9246,46.4957
55.0373,46.3981
55.1068,46.2608
55.1225,46.1367
55.1225,45.9703
55.0991,45.8244
55.0209,45.6954
54.9561,45.6384
54.8174,45.5647
54.6647,45.5271
54.5216,45.5175
53.8834,45.5175
53.8834,46.6181
53.5639,46.6181
53.5639,45.2706
53.8834,45.2706
54.5048,45.2706
54.6581,45.2567
54.7992,45.2100
54.8873,45.1533
54.9849,45.0332
55.0266,44.8912
55.0301,44.8287
55.0301,44.6675
55.0056,44.5122
54.9237,44.3790
54.8557,44.3224
54.7212,44.2553
54.5735,44.2184
54.4199,44.2049
54.3831,44.2045
53.8834,44.2045
53.8834,45.2706
53.5639,45.2706
53.5639,43.9575
54.3743,43.9575
Z" /> 
<path style="fill:#000000; fill-opacity:1.0000; stroke:none;fill-rule:evenodd;"
d="M 57.3026,43.9645
57.4546,43.9855
57.6152,44.0275
57.7578,44.0886
57.8658,44.1561
57.9844,44.2643
58.0691,44.3902
58.1200,44.5339
58.1369,44.6954
58.1369,44.8837
58.1215,45.0304
58.0691,45.1762
57.9794,45.3058
57.8692,45.4057
57.7358,45.4858
57.5957,45.5408
57.5449,45.5556
58.2505,46.8650
57.9017,46.8650
57.2298,45.6113
57.1455,45.6113
56.5872,45.6113
56.5872,46.8650
56.2721,46.8650
56.2721,45.3644
56.5872,45.3644
57.1419,45.3644
57.2924,45.3564
57.4408,45.3284
57.5796,45.2736
57.6386,45.2369
57.7476,45.1262
57.8063,44.9855
57.8174,44.8749
57.8174,44.7020
57.7956,44.5530
57.7220,44.4183
57.6328,44.3364
57.4904,44.2613
57.3343,44.2200
57.1719,44.2050
57.1331,44.2045
56.5872,44.2045
56.5872,45.3644
56.2721,45.3644
56.2721,43.9575
57.1375,43.9575
Z" /> 
<path style="fill:#000000; fill-opacity:1.0000; stroke:none;fill-rule:evenodd;"
d="M 61.0334,46.8650
60.7059,46.8650
60.4032,45.9396
59.2572,45.9396
58.9715,46.8650
58.6476,46.8650
59.0355,45.6926
59.3364,45.6926
60.3197,45.6926
59.8236,44.1839
59.3364,45.6926
59.0355,45.6926
59.6097,43.9575
60.0420,43.9575
Z" /> 
<path style="fill:#000000; fill-opacity:1.0000; stroke:none;fill-rule:evenodd;"
d="M 63.1825,44.2045
62.3047,44.2045
62.3047,46.8650
61.9896,46.8650
61.9896,44.2045
61.1162,44.2045
61.1162,43.9575
63.1825,43.9575
Z" /> 
<path style="fill:#000000; fill-opacity:1.0000; stroke:none;fill-rule:evenodd;"
d="M 64.2955,44.2045
64.2955,46.6181
64.6487,46.6181
64.6487,46.8650
63.6316,46.8650
63.6316,46.6181
63.9804,46.6181
63.9804,44.2045
63.6316,44.2045
63.6316,43.9575
64.6487,43.9575
64.6487,44.2045
Z" /> 
<path style="fill:#000000; fill-opacity:1.0000; stroke:none;fill-rule:evenodd;"
d="M 66.6506,43.9186
66.8082,43.9426
66.9519,43.9826
67.1058,44.0517
67.2395,44.1438
67.3356,44.2382
67.4327,44.3683
67.5097,44.5130
67.5666,44.6722
67.5987,44.8161
67.6169,44.9701
67.6213,45.1006
67.6213,45.7388
67.6136,45.9022
67.5904,46.0568
67.5517,46.2026
67.4975,46.3396
67.4174,46.4800
67.3162,46.6028
67.1941,46.7079
67.1172,46.7588
66.9814,46.8258
66.8298,46.8736
66.6841,46.8998
66.5263,46.9113
66.4790,46.9119
66.3180,46.9046
66.1690,46.8826
66.0133,46.8395
65.8734,46.7773
65.8408,46.7588
65.7070,46.6634
65.5943,46.5504
65.5025,46.4198
65.4605,46.3396
65.4064,46.2026
65.3677,46.0568
65.3444,45.9022
65.3367,45.7388
65.3367,45.1006
65.3369,45.0947
65.6518,45.0947
65.6518,45.7483
65.6590,45.8962
65.6857,46.0550
65.7322,46.1990
65.8094,46.3455
65.8577,46.4114
65.9737,46.5224
66.1160,46.6016
66.2619,46.6449
66.4279,46.6640
66.4790,46.6650
66.6277,46.6561
66.7825,46.6231
66.9347,46.5558
67.0607,46.4567
67.1011,46.4114
67.1912,46.2746
67.2489,46.1391
67.2869,45.9888
67.3052,45.8236
67.3070,45.7483
67.3070,45.0947
67.2998,44.9413
67.2734,44.7774
67.2274,44.6296
67.1620,44.4981
67.1033,44.4140
66.9879,44.3018
66.8454,44.2217
66.6984,44.1779
66.5307,44.1586
66.4790,44.1576
66.3306,44.1665
66.1760,44.1995
66.0240,44.2671
65.8981,44.3664
65.8577,44.4118
65.7676,44.5496
65.7099,44.6881
65.6719,44.8435
65.6550,44.9901
65.6518,45.0947
65.3369,45.0947
65.3437,44.9373
65.3648,44.7844
65.4000,44.6420
65.4607,44.4849
65.5417,44.3429
65.6247,44.2360
65.7424,44.1254
65.8798,44.0377
66.0367,43.9729
66.1824,43.9364
66.3418,43.9157
66.4790,43.9106
Z" /> 
<path style="fill:#000000; fill-opacity:1.0000; stroke:none;fill-rule:evenodd;"
d="M 70.5552,43.9575
70.5552,46.8650
70.1771,46.8650
68.7622,44.3730
68.7622,46.8650
68.4764,46.8650
68.4764,43.9575
68.8626,43.9575
68.8589,43.9619
70.2702,46.4708
70.2702,43.9575
Z" /> 
<path style="fill:#000000; fill-opacity:1.0000; stroke:none;fill-rule:evenodd;"
d="M 75.3260,43.9575
75.3260,46.8650
75.0241,46.8650
75.0241,44.4463
74.1837,46.4473
74.1881,46.4473
73.8312,46.4473
72.9871,44.4133
72.9871,46.8650
72.6970,46.8650
72.6970,43.9575
73.1131,43.9575
74.0203,46.1909
74.9310,43.9575
Z" /> 
<path style="fill:#000000; fill-opacity:1.0000; stroke:none;fill-rule:evenodd;"
d="M 77.5009,43.9186
77.6585,43.9426
77.8021,43.9826
77.9560,44.0517
78.0898,44.1438
78.1858,44.2382
78.2829,44.3683
78.3600,44.5130
78.4169,44.6722
78.4490,44.8161
78.4671,44.9701
78.4716,45.1006
78.4716,45.7388
78.4638,45.9022
78.4406,46.0568
78.4019,46.2026
78.3478,46.3396
78.2676,46.4800
78.1665,46.6028
78.0444,46.7079
77.9675,46.7588
77.8317,46.8258
77.6801,46.8736
77.5344,46.8998
77.3766,46.9113
77.3293,46.9119
77.1682,46.9046
77.0192,46.8826
76.8636,46.8395
76.7236,46.7773
76.6911,46.7588
76.5573,46.6634
76.4445,46.5504
76.3527,46.4198
76.3108,46.3396
76.2566,46.2026
76.2179,46.0568
76.1947,45.9022
76.1869,45.7388
76.1869,45.1006
76.1872,45.0947
76.5020,45.0947
76.5020,45.7483
76.5093,45.8962
76.5360,46.0550
76.5824,46.1990
76.6597,46.3455
76.7079,46.4114
76.8240,46.5224
76.9662,46.6016
77.1121,46.6449
77.2781,46.6640
77.3293,46.6650
77.4779,46.6561
77.6327,46.6231
77.7849,46.5558
77.9109,46.4567
77.9513,46.4114
78.0414,46.2746
78.0991,46.1391
78.1371,45.9888
78.1554,45.8236
78.1572,45.7483
78.1572,45.0947
78.1501,44.9413
78.1236,44.7774
78.0777,44.6296
78.0122,44.4981
77.9535,44.4140
77.8381,44.3018
77.6956,44.2217
77.5487,44.1779
77.3810,44.1586
77.3293,44.1576
77.1808,44.1665
77.0263,44.1995
76.8742,44.2671
76.7484,44.3664
76.7079,44.4118
76.6178,44.5496
76.5601,44.6881
76.5221,44.8435
76.5052,44.9901
76.5020,45.0947
76.1872,45.0947
76.1940,44.9373
76.2151,44.7844
76.2502,44.6420
76.3110,44.4849
76.3919,44.3429
76.4749,44.2360
76.5927,44.1254
76.7300,44.0377
76.8870,43.9729
77.0327,43.9364
77.1920,43.9157
77.3293,43.9106
Z" /> 
<path style="fill:#000000; fill-opacity:1.0000; stroke:none;fill-rule:evenodd;"
d="M 80.3371,43.9652
80.4981,43.9882
80.6456,44.0264
80.8048,44.0926
80.9446,44.1808
81.0464,44.2711
81.1500,44.3965
81.2321,44.5376
81.2929,44.6942
81.3322,44.8664
81.3485,45.0219
81.3512,45.1204
81.3512,45.6274
81.3430,45.8018
81.3184,45.9642
81.2773,46.1145
81.2198,46.2527
81.1292,46.4027
81.0149,46.5353
80.9030,46.6303
80.7772,46.7092
80.6373,46.7719
80.4835,46.8186
80.3157,46.8492
80.1339,46.8637
80.0572,46.8650
79.3267,46.8650
79.3267,46.6181
79.6418,46.6181
80.0572,46.6181
80.2303,46.6093
80.3867,46.5828
80.5266,46.5388
80.6688,46.4651
80.7885,46.3675
80.8850,46.2469
80.9578,46.1043
81.0069,45.9398
81.0301,45.7813
81.0361,45.6369
81.0361,45.1108
81.0282,44.9575
80.9986,44.7952
80.9474,44.6508
80.8622,44.5076
80.8090,44.4448
80.6826,44.3397
80.5505,44.2723
80.3983,44.2279
80.2518,44.2082
80.1459,44.2045
79.6418,44.2045
79.6418,46.6181
79.3267,46.6181
79.3267,43.9575
80.1627,43.9575
Z" /> 
<path style="fill:#000000; fill-opacity:1.0000; stroke:none;fill-rule:evenodd;"
d="M 84.2308,45.9242
84.2215,46.0820
84.1933,46.2287
84.1368,46.3856
84.0548,46.5272
83.9641,46.6364
83.8347,46.7437
83.7034,46.8148
83.5534,46.8664
83.3846,46.8987
83.2296,46.9108
83.1640,46.9119
83.0049,46.9052
82.8586,46.8850
82.7000,46.8430
82.5599,46.7817
82.4198,46.6856
82.3675,46.6364
82.2636,46.5079
82.1852,46.3641
82.1323,46.2050
82.1073,46.0565
82.1008,45.9242
82.1008,43.9575
82.4159,43.9575
82.4159,45.9330
82.4273,46.0910
82.4674,46.2490
82.5363,46.3860
82.5983,46.4657
82.7171,46.5620
82.8675,46.6268
83.0276,46.6580
83.1640,46.6650
83.3232,46.6554
83.4812,46.6212
83.6286,46.5529
83.7326,46.4657
83.8211,46.3427
83.8807,46.1987
83.9093,46.0531
83.9158,45.9330
83.9158,43.9575
84.2308,43.9575
Z" /> 
<path style="fill:#000000; fill-opacity:1.0000; stroke:none;fill-rule:evenodd;"
d="M 86.7500,46.6181
86.7500,46.8650
85.1621,46.8650
85.1621,43.9575
85.4772,43.9575
85.4772,46.6181
Z" /> 
<path style="fill:#000000; fill-opacity:1.0000; stroke:none;fill-rule:evenodd;"
d="M 87.6314,44.2045
87.6314,45.2237
88.8155,45.2237
88.8155,45.4706
87.6314,45.4706
87.6314,46.6181
88.9078,46.6181
88.9078,46.8650
87.3164,46.8650
87.3164,43.9575
88.9078,43.9575
88.9078,44.2045
Z" /> 
</g><path style="fill:#000000; fill-opacity:1.0000; stroke:none;fill-rule:evenodd;"
d="M 102.4350,28.1800
101.0850,28.1800
101.0850,27.7800
102.4350,27.7800
Z" /> 
<path style="fill:#000000; fill-opacity:1.0000; stroke:none;fill-rule:evenodd;"
d="M 102.4350,27.5300
101.0850,27.5300
101.0850,27.1300
102.4350,27.1300
Z" /> 
<path style="fill:#000000; fill-opacity:1.0000; stroke:none;fill-rule:evenodd;"
d="M 102.4350,26.8800
101.0850,26.8800
101.0850,26.4800
102.4350,26.4800
Z" /> 
<path style="fill:#000000; fill-opacity:1.0000; stroke:none;fill-rule:evenodd;"
d="M 102.4350,26.2300
101.0850,26.2300
101.0850,25.8300
102.4350,25.8300
Z" /> 
<path style="fill:#000000; fill-opacity:1.0000; stroke:none;fill-rule:evenodd;"
d="M 102.4350,25.5800
101.0850,25.5800
101.0850,25.1800
102.4350,25.1800
Z" /> 
</g>
<g style="fill:none; 
stroke:#000000; stroke-width:0.8900; stroke-opacity:1; 
stroke-linecap:round; stroke-linejoin:round;">
<path d="M104.1300 30.1800
L104.7900 30.1800
" />
<path style="fill:#000000; fill-opacity:1.0000; stroke:none;fill-rule:evenodd;"
d="M 105.2350,30.1800
103.6850,30.1800
103.6850,28.9800
105.2350,28.9800
Z" /> 
</g>
<g style="fill:none; 
stroke:#000000; stroke-width:0.9500; stroke-opacity:1; 
stroke-linecap:round; stroke-linejoin:round;">
<path d="M101.7600 29.3300
L101.7600 29.0300
" />
<path style="fill:#000000; fill-opacity:1.0000; stroke:none;fill-rule:evenodd;"
d="M 105.2350,28.4300
103.6850,28.4300
103.6850,26.9300
105.2350,26.9300
Z" /> 
<path style="fill:#000000; fill-opacity:1.0000; stroke:none;fill-rule:evenodd;"
d="M 105.2350,26.4300
103.6850,26.4300
103.6850,24.9300
105.2350,24.9300
Z" /> 
</g>
<g style="fill:none; 
stroke:#000000; stroke-width:0.9500; stroke-opacity:1; 
stroke-linecap:round; stroke-linejoin:round;">
<path d="M101.7600 24.3300
L101.7600 24.0300
" />
<path style="fill:#000000; fill-opacity:1.0000; stroke:none;fill-rule:evenodd;"
d="M 105.2350,24.3800
103.6850,24.3800
103.6850,23.1800
105.2350,23.1800
Z" /> 
</g>
<g style="fill:none; 
stroke:#000000; stroke-width:0.8900; stroke-opacity:1; 
stroke-linecap:round; stroke-linejoin:round;">
<path d="M104.1300 23.1800
L104.7900 23.1800
" />
<path style="fill:#000000; fill-opacity:1.0000; stroke:none;fill-rule:evenodd;"
d="M 98.4600,28.3300
98.4600,30.0300
96.7600,30.0300
96.7600,28.3300
Z" /> 
</g>
<g style="fill:#000000; fill-opacity:1.0000; stroke:none;">
<circle cx="46.8950" cy="34.7200" r="0.7620" /> 
</g>
<g style="fill:#000000; fill-opacity:1.0000; stroke:none;">
<circle cx="44.3550" cy="34.7200" r="0.7620" /> 
</g>
<g style="fill:#000000; fill-opacity:1.0000; stroke:none;">
<circle cx="41.8150" cy="34.7200" r="0.7620" /> 
</g>
<g style="fill:#000000; fill-opacity:1.0000; stroke:none;">
<circle cx="39.2750" cy="34.7200" r="0.7620" /> 
</g>
<g style="fill:#000000; fill-opacity:1.0000; stroke:none;">
<circle cx="36.7350" cy="34.7200" r="0.7620" /> 
</g>
<g style="fill:#000000; fill-opacity:1.0000; stroke:none;">
<circle cx="34.1950" cy="34.7200" r="0.7620" /> 
</g>
<g style="fill:#000000; fill-opacity:1.0000; stroke:none;">
<circle cx="31.6550" cy="34.7200" r="0.7620" /> 
</g>
<g style="fill:#000000; fill-opacity:1.0000; stroke:none;">
<circle cx="29.1150" cy="34.7200" r="0.7620" /> 
</g>
<g style="fill:#000000; fill-opacity:1.0000; stroke:none;">
<circle cx="26.5750" cy="34.7200" r="0.7620" /> 
</g>
<g style="fill:#000000; fill-opacity:1.0000; stroke:none;">
<circle cx="24.0350" cy="34.7200" r="0.7620" /> 
</g>
<g style="fill:#000000; fill-opacity:1.0000; stroke:none;">
<circle cx="21.4950" cy="34.7200" r="0.7620" /> 
</g>
<g style="fill:#000000; fill-opacity:1.0000; stroke:none;">
<circle cx="18.9550" cy="34.7200" r="0.7620" /> 
</g>
<g style="fill:#000000; fill-opacity:1.0000; stroke:none;">
<circle cx="16.4150" cy="34.7200" r="0.7620" /> 
</g>
<g style="fill:#000000; fill-opacity:1.0000; stroke:none;">
<circle cx="13.8750" cy="34.7200" r="0.7620" /> 
</g>
<g style="fill:#000000; fill-opacity:1.0000; stroke:none;">
<circle cx="11.3350" cy="34.7200" r="0.7620" /> 
</g>
<g style="fill:#000000; fill-opacity:1.0000; stroke:none;">
<circle cx="11.3350" cy="6.7800" r="0.7620" /> 
</g>
<g style="fill:#000000; fill-opacity:1.0000; stroke:none;">
<circle cx="13.8750" cy="6.7800" r="0.7620" /> 
</g>
<g style="fill:#000000; fill-opacity:1.0000; stroke:none;">
<circle cx="16.4150" cy="6.7800" r="0.7620" /> 
</g>
<g style="fill:#000000; fill-opacity:1.0000; stroke:none;">
<circle cx="18.9550" cy="6.7800" r="0.7620" /> 
</g>
<g style="fill:#000000; fill-opacity:1.0000; stroke:none;">
<circle cx="21.4950" cy="6.7800" r="0.7620" /> 
</g>
<g style="fill:#000000; fill-opacity:1.0000; stroke:none;">
<circle cx="24.0350" cy="6.7800" r="0.7620" /> 
</g>
<g style="fill:#000000; fill-opacity:1.0000; stroke:none;">
<circle cx="26.5750" cy="6.7800" r="0.7620" /> 
</g>
<g style="fill:#000000; fill-opacity:1.0000; stroke:none;">
<circle cx="29.1150" cy="6.7800" r="0.7620" /> 
</g>
<g style="fill:#000000; fill-opacity:1.0000; stroke:none;">
<circle cx="31.6550" cy="6.7800" r="0.7620" /> 
</g>
<g style="fill:#000000; fill-opacity:1.0000; stroke:none;">
<circle cx="34.1950" cy="6.7800" r="0.7620" /> 
</g>
<g style="fill:#000000; fill-opacity:1.0000; stroke:none;">
<circle cx="36.7350" cy="6.7800" r="0.7620" /> 
</g>
<g style="fill:#000000; fill-opacity:1.0000; stroke:none;">
<circle cx="39.2750" cy="6.7800" r="0.7620" /> 
</g>
<g style="fill:#000000; fill-opacity:1.0000; stroke:none;">
<circle cx="41.8150" cy="6.7800" r="0.7620" /> 
</g>
<g style="fill:#000000; fill-opacity:1.0000; stroke:none;">
<circle cx="44.3550" cy="6.7800" r="0.7620" /> 
</g>
<g style="fill:#000000; fill-opacity:1.0000; stroke:none;">
<circle cx="46.8950" cy="6.7800" r="0.7620" /> 
</g>
<g style="fill:#000000; fill-opacity:1.0000; stroke:none;">
<circle cx="70.4150" cy="21.6600" r="0.7620" /> 
</g>
<g style="fill:#000000; fill-opacity:1.0000; stroke:none;">
<circle cx="60.2550" cy="21.6600" r="0.7620" /> 
</g>
<g style="fill:#000000; fill-opacity:1.0000; stroke:none;">
<circle cx="70.4150" cy="24.2000" r="0.7620" /> 
<path style="fill:#000000; fill-opacity:1.0000; stroke:none;fill-rule:evenodd;"
d="M 69.6530,30.0420
69.6530,28.5180
71.1770,28.5180
71.1770,30.0420
Z" /> 
</g>
<g style="fill:#000000; fill-opacity:1.0000; stroke:none;">
<circle cx="70.4150" cy="26.7400" r="0.7620" /> 
</g>
<g style="fill:#000000; fill-opacity:1.0000; stroke:none;">
<circle cx="70.4150" cy="19.1200" r="0.7620" /> 
</g>
<g style="fill:#000000; fill-opacity:1.0000; stroke:none;">
<circle cx="70.4150" cy="16.5800" r="0.7620" /> 
</g>
<g style="fill:#000000; fill-opacity:1.0000; stroke:none;">
<circle cx="60.2550" cy="24.2000" r="0.7620" /> 
<path style="fill:#000000; fill-opacity:1.0000; stroke:none;fill-rule:evenodd;"
d="M 59.4930,30.0420
59.4930,28.5180
61.0170,28.5180
61.0170,30.0420
Z" /> 
</g>
<g style="fill:#000000; fill-opacity:1.0000; stroke:none;">
<circle cx="60.2550" cy="26.7400" r="0.7620" /> 
</g>
<g style="fill:#000000; fill-opacity:1.0000; stroke:none;">
<circle cx="60.2550" cy="19.1200" r="0.7620" /> 
</g>
<g style="fill:#000000; fill-opacity:1.0000; stroke:none;">
<circle cx="60.2550" cy="16.5800" r="0.7620" /> 
<path style="fill:#000000; fill-opacity:1.0000; stroke:none;fill-rule:evenodd;"
d="M 87.3635,33.4710
89.1415,33.4710
89.1415,35.2490
87.3635,35.2490
Z" /> 
</g>
<g style="fill:#000000; fill-opacity:1.0000; stroke:none;">
<circle cx="88.2525" cy="31.8200" r="0.8890" /> 
</g>
<g style="fill:#000000; fill-opacity:1.0000; stroke:none;">
<circle cx="88.2525" cy="29.2800" r="0.8890" /> 
</g>
<g style="fill:#000000; fill-opacity:1.0000; stroke:none;">
<circle cx="88.2525" cy="26.7400" r="0.8890" /> 
</g>
<g style="fill:#000000; fill-opacity:1.0000; stroke:none;">
<circle cx="88.2525" cy="24.2000" r="0.8890" /> 
</g>
<g style="fill:#000000; fill-opacity:1.0000; stroke:none;">
<circle cx="88.2525" cy="21.6600" r="0.8890" /> 
</g>
<g style="fill:#000000; fill-opacity:1.0000; stroke:none;">
<circle cx="88.2525" cy="19.1200" r="0.8890" /> 
</g>
<g style="fill:#000000; fill-opacity:1.0000; stroke:none;">
<circle cx="88.2525" cy="16.5800" r="0.8890" /> 
</g>
<g style="fill:#000000; fill-opacity:1.0000; stroke:none;">
<circle cx="88.2525" cy="14.0400" r="0.8890" /> 
</g>
<g style="fill:#000000; fill-opacity:1.0000; stroke:none;">
<circle cx="88.2525" cy="11.5000" r="0.8890" /> 
</g>
<g style="fill:#000000; fill-opacity:1.0000; stroke:none;">
<circle cx="75.5525" cy="11.5000" r="1.6000" /> 
</g>
<g style="fill:#000000; fill-opacity:1.0000; stroke:none;">
<circle cx="75.5525" cy="34.3600" r="1.6000" /> 
<path style="fill:#000000; fill-opacity:1.0000; stroke:none;fill-rule:evenodd;"
d="M 98.4600,20.1300
98.4600,21.8300
96.7600,21.8300
96.7600,20.1300
Z" /> 
<path style="fill:#000000; fill-opacity:1.0000; stroke:none;fill-rule:evenodd;"
d="M 94.4350,23.3300
94.4350,25.0300
92.7350,25.0300
92.7350,23.3300
Z" /> 
</g>
<g style="fill:#000000; fill-opacity:1.0000; stroke:none;">
<circle cx="93.5850" cy="26.7200" r="0.8500" /> 
<circle cx="93.5850" cy="29.2600" r="0.8500" /> 
<circle cx="93.5850" cy="31.8000" r="0.8500" /> 
<circle cx="93.5850" cy="34.3400" r="0.8500" /> 
</g>
<g style="fill:none; 
stroke:#000000; stroke-width:0.8128; stroke-opacity:1; 
stroke-linecap:round; stroke-linejoin:round;">
<path d="M60.2550 16.5800
L51.9250 16.5800
" />
<path d="M48.5182 11.6458
L47.7545 12.4095
" />
<path d="M47.2312 12.9328
L46.9908 13.1732
" />
<path d="M49.8263 11.9075
L49.5647 11.6458
" />
<path d="M45.6827 11.8650
L45.9231 11.6246
" />
<path d="M47.7545 12.4095
L47.2312 12.9328
" />
<path d="M49.0626 13.7176
L49.0626 13.7176
" />
<path d="M43.9950 6.7800
L43.9950 6.7350
" />
<path d="M48.5394 14.2409
L49.0626 13.7176
" />
<path d="M49.8475 15.5491
L49.6071 15.7895
" />
<path d="M45.9443 13.1732
L45.6827 12.9115
" />
<path d="M44.3550 9.0100
L44.3550 6.7800
" />
<path d="M45.9231 10.5781
L45.6615 10.3165
" />
<path d="M45.0075 9.6625
L44.3550 9.0100
" />
<path d="M51.9250 16.5800
L50.8941 15.5491
" />
<path d="M49.0626 13.7176
L49.8263 12.9540
" />
<path d="M48.5606 15.7895
L48.2990 15.5278
" />
<path d="M45.6615 10.3165
L45.0075 9.6625
" />
<path d="M48.2990 14.4813
L48.5394 14.2409
" />
<path d="M45.9231 11.6246 A0.7401 0.7401 0.0 0 0 45.9231 10.5780" />
<path d="M48.5606 15.7895 A0.7400 0.7400 0.0 0 0 49.6071 15.7895" />
<path d="M45.9443 13.1732 A0.7400 0.7400 0.0 0 0 46.9908 13.1732" />
<path d="M49.5647 11.6458 A0.7400 0.7400 0.0 0 0 48.5182 11.6458" />
<path d="M45.6827 11.8650 A0.7400 0.7400 0.0 0 0 45.6827 12.9115" />
<path d="M48.2990 14.4813 A0.7400 0.7400 0.0 0 0 48.2990 15.5278" />
<path d="M50.8941 15.5491 A0.7400 0.7400 0.0 0 0 49.8475 15.5491" />
<path d="M49.8263 12.9540 A0.7400 0.7400 0.0 0 0 49.8263 11.9074" />
<path d="M97.5750 26.0300
L96.8850 26.7200
" />
<path d="M86.4000 4.2050
L35.2500 4.2050
" />
</g>
<g style="fill:none; 
stroke:#000000; stroke-width:0.4064; stroke-opacity:1; 
stroke-linecap:round; stroke-linejoin:round;">
<path d="M101.7600 26.0300
L97.5750 26.0300
" />
</g>
<g style="fill:none; 
stroke:#000000; stroke-width:0.8128; stroke-opacity:1; 
stroke-linecap:round; stroke-linejoin:round;">
<path d="M97.6100 20.9800
L97.6100 15.4150
" />
<path d="M34.1950 19.1000
L34.1950 6.7800
" />
<path d="M34.1950 5.2600
L34.1950 6.7800
" />
<path d="M96.8850 26.7200
L93.5850 26.7200
" />
<path d="M97.6100 15.4150
L86.4000 4.2050
" />
<path d="M60.2550 24.2000
L39.2950 24.2000
" />
<path d="M39.2950 24.2000
L34.1950 19.1000
" />
<path d="M35.2500 4.2050
L34.1950 5.2600
" />
<path d="M29.1150 6.7800
L29.1150 22.9700
" />
<path d="M29.1150 22.9700
L35.4250 29.2800
" />
<path d="M35.4250 29.2800
L60.2550 29.2800
" />
</g>
<g style="fill:none; 
stroke:#000000; stroke-width:0.4064; stroke-opacity:1; 
stroke-linecap:round; stroke-linejoin:round;">
<path d="M99.9100 29.1050
L99.9100 32.6550
" />
</g>
<g style="fill:none; 
stroke:#000000; stroke-width:0.8128; stroke-opacity:1; 
stroke-linecap:round; stroke-linejoin:round;">
<path d="M41.8150 34.7200
L41.8150 36.4450
" />
<path d="M67.3100 12.3200
L67.3100 26.1700
" />
<path d="M70.4150 24.2000
L69.2800 24.2000
" />
<path d="M98.2250 34.3400
L99.9100 32.6550
" />
<path d="M69.2800 24.2000
L67.3100 26.1700
" />
<path d="M42.9750 37.6050
L68.9600 37.6050
" />
<path d="M93.5850 34.3400
L98.2250 34.3400
" />
<path d="M71.0750 8.5550
L67.3100 12.3200
" />
</g>
<g style="fill:none; 
stroke:#000000; stroke-width:0.4064; stroke-opacity:1; 
stroke-linecap:round; stroke-linejoin:round;">
<path d="M101.7600 27.9800
L101.0350 27.9800
" />
</g>
<g style="fill:none; 
stroke:#000000; stroke-width:0.8128; stroke-opacity:1; 
stroke-linecap:round; stroke-linejoin:round;">
<path d="M67.3100 35.9550
L68.9600 37.6050
" />
</g>
<g style="fill:none; 
stroke:#000000; stroke-width:0.4064; stroke-opacity:1; 
stroke-linecap:round; stroke-linejoin:round;">
<path d="M101.0350 27.9800
L99.9100 29.1050
" />
</g>
<g style="fill:none; 
stroke:#000000; stroke-width:0.8128; stroke-opacity:1; 
stroke-linecap:round; stroke-linejoin:round;">
<path d="M41.8150 36.4450
L42.9750 37.6050
" />
<path d="M88.2525 11.5000
L85.3075 8.5550
" />
<path d="M67.3100 26.1700
L67.3100 35.9550
" />
<path d="M68.9600 37.6050
L90.2850 37.6050
" />
<path d="M90.2850 37.6050
L93.5500 34.3400
" />
<path d="M85.3075 8.5550
L71.0750 8.5550
" />
<path d="M93.5500 34.3400
L93.5850 34.3400
" />
<path d="M60.2550 19.1200
L43.8150 19.1200
" />
<path d="M43.8150 19.1200
L41.8150 17.1200
" />
<path d="M41.8150 17.1200
L41.8150 6.7800
" />
<path d="M70.6650 16.5800
L88.2275 16.5800
" />
<path d="M70.6650 19.1200
L88.2275 19.1200
" />
<path d="M61.5000 32.2550
L63.1500 30.6050
" />
<path d="M88.2525 14.0400
L90.0200 14.0400
" />
<path d="M101.7600 24.1800
L93.5850 24.1800
" />
<path d="M104.4600 30.1800
L102.7600 30.1800
" />
<path d="M91.1350 20.6800
L90.1550 21.6600
" />
<path d="M93.5850 24.1800
L91.1350 21.7300
" />
<path d="M88.2525 21.6600
L70.4150 21.6600
" />
<path d="M44.3550 34.7200
L44.3550 33.2750
" />
<path d="M90.1550 21.6600
L88.2525 21.6600
" />
<path d="M104.4600 25.6800
L104.4600 27.6800
" />
<path d="M94.4550 2.0600
L33.7088 2.0600
" />
<path d="M104.4600 23.1800
L102.7600 23.1800
" />
<path d="M104.4600 27.6800
L104.4600 29.5800
" />
<path d="M63.1500 30.6050
L63.1500 23.2050
" />
<path d="M104.4600 23.7800
L104.4600 12.0650
" />
<path d="M91.1350 21.7300
L91.1350 20.6800
" />
<path d="M63.1500 23.2050
L61.6050 21.6600
" />
<path d="M104.4600 23.7800
L104.4600 25.6800
" />
<path d="M31.6550 4.1137
L31.6550 6.7800
" />
<path d="M44.3550 33.2750
L45.3750 32.2550
" />
<path d="M45.3750 32.2550
L61.5000 32.2550
" />
<path d="M102.7600 23.1800
L101.7600 24.1800
" />
<path d="M33.7088 2.0600
L31.6550 4.1137
" />
<path d="M104.4600 12.0650
L94.4550 2.0600
" />
<path d="M61.6050 21.6600
L60.2550 21.6600
" />
<path d="M91.1350 15.1550
L91.1350 20.6800
" />
<path d="M102.7600 30.1800
L101.7600 29.1800
" />
<path d="M90.0200 14.0400
L91.1350 15.1550
" />
</g>
<g style="fill:none; 
stroke:#000000; stroke-width:0.4064; stroke-opacity:1; 
stroke-linecap:round; stroke-linejoin:round;">
<path d="M101.7600 25.3800
L101.7600 24.1800
" />
</g>
<g style="fill:none; 
stroke:#000000; stroke-width:0.8128; stroke-opacity:1; 
stroke-linecap:round; stroke-linejoin:round;">
<path d="M78.2100 29.2800
L70.4150 29.2800
" />
<path d="M88.2525 24.2000
L83.2900 24.2000
" />
<path d="M83.2900 24.2000
L78.2100 29.2800
" />
<path d="M88.2525 29.2800
L93.5650 29.2800
" />
<path d="M93.5650 29.2800
L93.5850 29.2600
" />
<path d="M88.2725 29.2600
L88.2525 29.2800
" />
</g>
<g style="fill:none; 
stroke:#000000; stroke-width:0.4064; stroke-opacity:1; 
stroke-linecap:round; stroke-linejoin:round;">
<path d="M101.7600 26.6800
L100.1100 26.6800
" />
<path d="M100.1100 26.6800
L97.6100 29.1800
" />
</g>
<g style="fill:none; 
stroke:#FFFFFF; stroke-width:0.5000; stroke-opacity:1; 
stroke-linecap:round; stroke-linejoin:round;">
<path d="M104.1350 30.1800
L104.7850 30.1800
" />
</g>
<g style="fill:none; 
stroke:#FFFFFF; stroke-width:0.5500; stroke-opacity:1; 
stroke-linecap:round; stroke-linejoin:round;">
<path d="M101.7600 29.3300
L101.7600 29.0300
" />
<path d="M101.7600 24.3300
L101.7600 24.0300
" />
</g>
<g style="fill:none; 
stroke:#FFFFFF; stroke-width:0.5000; stroke-opacity:1; 
stroke-linecap:round; stroke-linejoin:round;">
<path d="M104.1350 23.1800
L104.7850 23.1800
" />
</g>
<g style="fill:#FFFFFF; fill-opacity:1.0000; stroke:none;">
<circle cx="97.6100" cy="29.1800" r="0.5000" /> 
</g>
<g style="fill:#FFFFFF; fill-opacity:1.0000; stroke:none;">
<circle cx="46.8950" cy="34.7200" r="0.3810" /> 
</g>
<g style="fill:#FFFFFF; fill-opacity:1.0000; stroke:none;">
<circle cx="44.3550" cy="34.7200" r="0.3810" /> 
</g>
<g style="fill:#FFFFFF; fill-opacity:1.0000; stroke:none;">
<circle cx="41.8150" cy="34.7200" r="0.3810" /> 
</g>
<g style="fill:#FFFFFF; fill-opacity:1.0000; stroke:none;">
<circle cx="39.2750" cy="34.7200" r="0.3810" /> 
</g>
<g style="fill:#FFFFFF; fill-opacity:1.0000; stroke:none;">
<circle cx="36.7350" cy="34.7200" r="0.3810" /> 
</g>
<g style="fill:#FFFFFF; fill-opacity:1.0000; stroke:none;">
<circle cx="34.1950" cy="34.7200" r="0.3810" /> 
</g>
<g style="fill:#FFFFFF; fill-opacity:1.0000; stroke:none;">
<circle cx="31.6550" cy="34.7200" r="0.3810" /> 
</g>
<g style="fill:#FFFFFF; fill-opacity:1.0000; stroke:none;">
<circle cx="29.1150" cy="34.7200" r="0.3810" /> 
</g>
<g style="fill:#FFFFFF; fill-opacity:1.0000; stroke:none;">
<circle cx="26.5750" cy="34.7200" r="0.3810" /> 
</g>
<g style="fill:#FFFFFF; fill-opacity:1.0000; stroke:none;">
<circle cx="24.0350" cy="34.7200" r="0.3810" /> 
</g>
<g style="fill:#FFFFFF; fill-opacity:1.0000; stroke:none;">
<circle cx="21.4950" cy="34.7200" r="0.3810" /> 
</g>
<g style="fill:#FFFFFF; fill-opacity:1.0000; stroke:none;">
<circle cx="18.9550" cy="34.7200" r="0.3810" /> 
</g>
<g style="fill:#FFFFFF; fill-opacity:1.0000; stroke:none;">
<circle cx="16.4150" cy="34.7200" r="0.3810" /> 
</g>
<g style="fill:#FFFFFF; fill-opacity:1.0000; stroke:none;">
<circle cx="13.8750" cy="34.7200" r="0.3810" /> 
</g>
<g style="fill:#FFFFFF; fill-opacity:1.0000; stroke:none;">
<circle cx="11.3350" cy="34.7200" r="0.3810" /> 
</g>
<g style="fill:#FFFFFF; fill-opacity:1.0000; stroke:none;">
<circle cx="11.3350" cy="6.7800" r="0.3810" /> 
</g>
<g style="fill:#FFFFFF; fill-opacity:1.0000; stroke:none;">
<circle cx="13.8750" cy="6.7800" r="0.3810" /> 
</g>
<g style="fill:#FFFFFF; fill-opacity:1.0000; stroke:none;">
<circle cx="16.4150" cy="6.7800" r="0.3810" /> 
</g>
<g style="fill:#FFFFFF; fill-opacity:1.0000; stroke:none;">
<circle cx="18.9550" cy="6.7800" r="0.3810" /> 
</g>
<g style="fill:#FFFFFF; fill-opacity:1.0000; stroke:none;">
<circle cx="21.4950" cy="6.7800" r="0.3810" /> 
</g>
<g style="fill:#FFFFFF; fill-opacity:1.0000; stroke:none;">
<circle cx="24.0350" cy="6.7800" r="0.3810" /> 
</g>
<g style="fill:#FFFFFF; fill-opacity:1.0000; stroke:none;">
<circle cx="26.5750" cy="6.7800" r="0.3810" /> 
</g>
<g style="fill:#FFFFFF; fill-opacity:1.0000; stroke:none;">
<circle cx="29.1150" cy="6.7800" r="0.3810" /> 
</g>
<g style="fill:#FFFFFF; fill-opacity:1.0000; stroke:none;">
<circle cx="31.6550" cy="6.7800" r="0.3810" /> 
</g>
<g style="fill:#FFFFFF; fill-opacity:1.0000; stroke:none;">
<circle cx="34.1950" cy="6.7800" r="0.3810" /> 
</g>
<g style="fill:#FFFFFF; fill-opacity:1.0000; stroke:none;">
<circle cx="36.7350" cy="6.7800" r="0.3810" /> 
</g>
<g style="fill:#FFFFFF; fill-opacity:1.0000; stroke:none;">
<circle cx="39.2750" cy="6.7800" r="0.3810" /> 
</g>
<g style="fill:#FFFFFF; fill-opacity:1.0000; stroke:none;">
<circle cx="41.8150" cy="6.7800" r="0.3810" /> 
</g>
<g style="fill:#FFFFFF; fill-opacity:1.0000; stroke:none;">
<circle cx="44.3550" cy="6.7800" r="0.3810" /> 
</g>
<g style="fill:#FFFFFF; fill-opacity:1.0000; stroke:none;">
<circle cx="46.8950" cy="6.7800" r="0.3810" /> 
</g>
<g style="fill:#FFFFFF; fill-opacity:1.0000; stroke:none;">
<circle cx="70.4150" cy="21.6600" r="0.5080" /> 
</g>
<g style="fill:#FFFFFF; fill-opacity:1.0000; stroke:none;">
<circle cx="60.2550" cy="21.6600" r="0.5080" /> 
</g>
<g style="fill:#FFFFFF; fill-opacity:1.0000; stroke:none;">
<circle cx="70.4150" cy="24.2000" r="0.5080" /> 
</g>
<g style="fill:#FFFFFF; fill-opacity:1.0000; stroke:none;">
<circle cx="70.4150" cy="29.2800" r="0.5080" /> 
</g>
<g style="fill:#FFFFFF; fill-opacity:1.0000; stroke:none;">
<circle cx="70.4150" cy="26.7400" r="0.5080" /> 
</g>
<g style="fill:#FFFFFF; fill-opacity:1.0000; stroke:none;">
<circle cx="70.4150" cy="19.1200" r="0.5080" /> 
</g>
<g style="fill:#FFFFFF; fill-opacity:1.0000; stroke:none;">
<circle cx="70.4150" cy="16.5800" r="0.5080" /> 
</g>
<g style="fill:#FFFFFF; fill-opacity:1.0000; stroke:none;">
<circle cx="60.2550" cy="24.2000" r="0.5080" /> 
</g>
<g style="fill:#FFFFFF; fill-opacity:1.0000; stroke:none;">
<circle cx="60.2550" cy="29.2800" r="0.5080" /> 
</g>
<g style="fill:#FFFFFF; fill-opacity:1.0000; stroke:none;">
<circle cx="60.2550" cy="26.7400" r="0.5080" /> 
</g>
<g style="fill:#FFFFFF; fill-opacity:1.0000; stroke:none;">
<circle cx="60.2550" cy="19.1200" r="0.5080" /> 
</g>
<g style="fill:#FFFFFF; fill-opacity:1.0000; stroke:none;">
<circle cx="60.2550" cy="16.5800" r="0.5080" /> 
</g>
<g style="fill:#FFFFFF; fill-opacity:1.0000; stroke:none;">
<circle cx="88.2525" cy="34.3600" r="0.5000" /> 
</g>
<g style="fill:#FFFFFF; fill-opacity:1.0000; stroke:none;">
<circle cx="88.2525" cy="31.8200" r="0.5000" /> 
</g>
<g style="fill:#FFFFFF; fill-opacity:1.0000; stroke:none;">
<circle cx="88.2525" cy="29.2800" r="0.5000" /> 
</g>
<g style="fill:#FFFFFF; fill-opacity:1.0000; stroke:none;">
<circle cx="88.2525" cy="26.7400" r="0.5000" /> 
</g>
<g style="fill:#FFFFFF; fill-opacity:1.0000; stroke:none;">
<circle cx="88.2525" cy="24.2000" r="0.5000" /> 
</g>
<g style="fill:#FFFFFF; fill-opacity:1.0000; stroke:none;">
<circle cx="88.2525" cy="21.6600" r="0.5000" /> 
</g>
<g style="fill:#FFFFFF; fill-opacity:1.0000; stroke:none;">
<circle cx="88.2525" cy="19.1200" r="0.5000" /> 
</g>
<g style="fill:#FFFFFF; fill-opacity:1.0000; stroke:none;">
<circle cx="88.2525" cy="16.5800" r="0.5000" /> 
</g>
<g style="fill:#FFFFFF; fill-opacity:1.0000; stroke:none;">
<circle cx="88.2525" cy="14.0400" r="0.5000" /> 
</g>
<g style="fill:#FFFFFF; fill-opacity:1.0000; stroke:none;">
<circle cx="88.2525" cy="11.5000" r="0.5000" /> 
</g>
<g style="fill:#FFFFFF; fill-opacity:1.0000; stroke:none;">
<circle cx="75.5525" cy="11.5000" r="1.2500" /> 
</g>
<g style="fill:#FFFFFF; fill-opacity:1.0000; stroke:none;">
<circle cx="75.5525" cy="34.3600" r="1.2500" /> 
</g>
<g style="fill:#FFFFFF; fill-opacity:1.0000; stroke:none;">
<circle cx="97.6100" cy="20.9800" r="0.5000" /> 
</g>
<g style="fill:#FFFFFF; fill-opacity:1.0000; stroke:none;">
<circle cx="93.5850" cy="24.1800" r="0.5000" /> 
</g>
<g style="fill:#FFFFFF; fill-opacity:1.0000; stroke:none;">
<circle cx="93.5850" cy="26.7200" r="0.5000" /> 
</g>
<g style="fill:#FFFFFF; fill-opacity:1.0000; stroke:none;">
<circle cx="93.5850" cy="29.2600" r="0.5000" /> 
</g>
<g style="fill:#FFFFFF; fill-opacity:1.0000; stroke:none;">
<circle cx="93.5850" cy="31.8000" r="0.5000" /> 
</g>
<g style="fill:#FFFFFF; fill-opacity:1.0000; stroke:none;">
<circle cx="93.5850" cy="34.3400" r="0.5000" /> 
</g> 
</svg>
