<?xml version="1.0" standalone="no"?>
 <!DOCTYPE svg PUBLIC "-//W3C//DTD SVG 1.1//EN" 
 "http://www.w3.org/Graphics/SVG/1.1/DTD/svg11.dtd"> 
<svg
  xmlns:svg="http://www.w3.org/2000/svg"
  xmlns="http://www.w3.org/2000/svg"
  xmlns:xlink="http://www.w3.org/1999/xlink"
  version="1.1"
  width="107.1118mm" height="50.0888mm" viewBox="0.0000 0.0000 107.1118 50.0888">
<title>SVG Image created as ESP8266_Calib_Module-brd.svg date 2024/08/19 23:32:20 </title>
  <desc>Image generated by PCBNEW </desc>
<g style="fill:#000000; fill-opacity:1.0000;stroke:#000000; stroke-opacity:1.0000;
stroke-linecap:round; stroke-linejoin:round;"
 transform="translate(0 0) scale(1 1)">
<path style="fill:none; 
stroke:#000000; stroke-width:0.1000; stroke-opacity:1; 
stroke-linecap:round; stroke-linejoin:round;fill:none"
d="M 98.7168,40.0500
1.2168,40.0500
1.2168,50.0500
98.7168,50.0500
Z" /> 
<path style="fill:none; 
stroke:#000000; stroke-width:0.1000; stroke-opacity:1; 
stroke-linecap:round; stroke-linejoin:round;fill:none"
d="M 98.7168,0.0500
1.2418,0.0500
1.2418,40.0500
98.7168,40.0500
Z" /> 
</g>
<g style="fill:none; 
stroke:#000000; stroke-width:0.2500; stroke-opacity:1; 
stroke-linecap:round; stroke-linejoin:round;">
<text x="97.0668" y="47.3750"
transform="scale(-1 1) translate(-194.133600 0)"
textLength="79.1992" font-size="4.0000" lengthAdjust="spacingAndGlyphs"
text-anchor="start" opacity="0" stroke-opacity="0">AQUA - THINGS : CALIBRATION MODULE</text>
<g class="stroked-text"><desc>AQUA - THINGS : CALIBRATION MODULE</desc>
<path style="fill:#000000; fill-opacity:1.0000; stroke:none;fill-rule:evenodd;"
d="M 94.5469,46.8650
94.8745,46.8650
95.1771,45.9396
96.3231,45.9396
96.6088,46.8650
96.9327,46.8650
96.5448,45.6926
96.2439,45.6926
95.2606,45.6926
95.7567,44.1839
96.2439,45.6926
96.5448,45.6926
95.9706,43.9575
95.5383,43.9575
Z" /> 
<path style="fill:#000000; fill-opacity:1.0000; stroke:none;fill-rule:evenodd;"
d="M 92.7959,43.9184
92.6372,43.9418
92.4925,43.9808
92.3374,44.0482
92.2025,44.1381
92.1055,44.2301
92.0076,44.3578
91.9300,44.5011
91.8727,44.6602
91.8403,44.8048
91.8220,44.9603
91.8175,45.0925
91.8175,45.7688
91.8247,45.9208
91.8496,46.0798
91.8922,46.2282
91.9084,46.2708
91.9732,46.4032
92.0639,46.5322
92.1751,46.6437
91.7882,47.1215
92.0029,47.2856
92.3935,46.7932
92.5323,46.8506
92.6891,46.8892
92.8435,46.9077
92.9686,46.9119
93.1401,46.9041
93.2978,46.8808
93.4416,46.8419
93.5960,46.7746
93.7305,46.6850
93.8274,46.5932
93.9253,46.4658
94.0029,46.3233
94.0603,46.1656
94.0926,46.0226
94.1109,45.8692
94.1154,45.7388
94.1154,45.0918
94.1149,45.0808
93.8003,45.0808
93.8003,45.7586
93.7931,45.9098
93.7663,46.0706
93.7199,46.2144
93.6427,46.3581
93.5944,46.4217
93.4781,46.5281
93.3350,46.6041
93.1879,46.6457
93.0203,46.6640
92.9686,46.6650
92.8090,46.6567
92.6531,46.6290
92.5488,46.5954
92.8470,46.2253
92.6367,46.0729
92.3304,46.4517
92.2348,46.3179
92.1761,46.1707
92.1450,46.0201
92.1328,45.8491
92.1326,45.8231
92.1326,45.0815
92.1398,44.9272
92.1666,44.7631
92.2130,44.6164
92.2902,44.4700
92.3385,44.4052
92.4551,44.2969
92.5990,44.2195
92.7473,44.1772
92.9165,44.1585
92.9686,44.1576
93.1186,44.1662
93.2745,44.1981
93.4276,44.2633
93.5539,44.3592
93.5944,44.4030
93.6845,44.5374
93.7422,44.6742
93.7802,44.8289
93.7971,44.9756
93.8003,45.0808
94.1149,45.0808
94.1083,44.9266
94.0871,44.7726
94.0518,44.6297
93.9907,44.4731
93.9093,44.3327
93.8259,44.2279
93.7074,44.1201
93.5694,44.0346
93.4119,43.9714
93.2658,43.9357
93.1061,43.9156
92.9686,43.9106
Z" /> 
<path style="fill:#000000; fill-opacity:1.0000; stroke:none;fill-rule:evenodd;"
d="M 88.9320,45.9242
88.9414,46.0820
88.9696,46.2287
89.0261,46.3856
89.1081,46.5272
89.1988,46.6364
89.3282,46.7437
89.4595,46.8148
89.6095,46.8664
89.7783,46.8987
89.9333,46.9108
89.9989,46.9119
90.1580,46.9052
90.3043,46.8850
90.4629,46.8430
90.6030,46.7817
90.7431,46.6856
90.7954,46.6364
90.8993,46.5079
90.9777,46.3641
91.0306,46.2050
91.0556,46.0565
91.0621,45.9242
91.0621,43.9575
90.7470,43.9575
90.7470,45.9330
90.7356,46.0910
90.6955,46.2490
90.6266,46.3860
90.5646,46.4657
90.4458,46.5620
90.2954,46.6268
90.1353,46.6580
89.9989,46.6650
89.8397,46.6554
89.6816,46.6212
89.5343,46.5529
89.4303,46.4657
89.3418,46.3427
89.2822,46.1987
89.2536,46.0531
89.2471,45.9330
89.2471,43.9575
88.9320,43.9575
Z" /> 
<path style="fill:#000000; fill-opacity:1.0000; stroke:none;fill-rule:evenodd;"
d="M 86.0385,46.8650
86.3660,46.8650
86.6686,45.9396
87.8146,45.9396
88.1004,46.8650
88.4243,46.8650
88.0363,45.6926
87.7355,45.6926
86.7522,45.6926
87.2482,44.1839
87.7355,45.6926
88.0363,45.6926
87.4622,43.9575
87.0299,43.9575
Z" /> 
<path style="fill:#000000; fill-opacity:1.0000; stroke:none;fill-rule:evenodd;"
d="M 83.2790,45.5519
84.4844,45.5519
84.4844,45.3050
83.2790,45.3050
Z" /> 
<path style="fill:#000000; fill-opacity:1.0000; stroke:none;fill-rule:evenodd;"
d="M 79.6953,44.2045
80.5731,44.2045
80.5731,46.8650
80.8882,46.8650
80.8882,44.2045
81.7616,44.2045
81.7616,43.9575
79.6953,43.9575
Z" /> 
<path style="fill:#000000; fill-opacity:1.0000; stroke:none;fill-rule:evenodd;"
d="M 76.9900,46.8650
77.3051,46.8650
77.3051,45.4706
78.7669,45.4706
78.7669,46.8650
79.0820,46.8650
79.0820,43.9575
78.7669,43.9575
78.7669,45.2237
77.3051,45.2237
77.3051,43.9575
76.9900,43.9575
Z" /> 
<path style="fill:#000000; fill-opacity:1.0000; stroke:none;fill-rule:evenodd;"
d="M 75.4550,44.2045
75.4550,46.6181
75.1018,46.6181
75.1018,46.8650
76.1188,46.8650
76.1188,46.6181
75.7700,46.6181
75.7700,44.2045
76.1188,44.2045
76.1188,43.9575
75.1018,43.9575
75.1018,44.2045
Z" /> 
<path style="fill:#000000; fill-opacity:1.0000; stroke:none;fill-rule:evenodd;"
d="M 72.1584,43.9575
72.1584,46.8650
72.5365,46.8650
73.9514,44.3730
73.9514,46.8650
74.2372,46.8650
74.2372,43.9575
73.8510,43.9575
73.8547,43.9619
72.4435,46.4708
72.4435,43.9575
Z" /> 
<path style="fill:#000000; fill-opacity:1.0000; stroke:none;fill-rule:evenodd;"
d="M 69.2121,46.8650
69.4686,46.8650
69.4979,46.5609
69.6038,46.6650
69.7252,46.7527
69.8489,46.8181
69.9977,46.8715
70.1441,46.9008
70.3008,46.9118
70.3171,46.9119
70.4748,46.9021
70.6223,46.8727
70.7742,46.8171
70.8315,46.7881
70.9622,46.6997
71.0731,46.5903
71.1644,46.4598
71.1802,46.4312
71.2401,46.2937
71.2804,46.1423
71.2997,45.9962
71.3041,45.8795
71.3041,45.0881
71.2978,44.9395
71.2751,44.7792
71.2359,44.6292
71.1803,44.4894
71.1722,44.4726
71.0881,44.3317
70.9852,44.2098
70.8633,44.1069
70.7875,44.0579
70.6554,43.9935
70.5113,43.9475
70.3550,43.9198
70.2084,43.9108
70.1867,43.9106
70.0258,43.9176
69.8795,43.9385
69.7323,43.9786
69.6305,44.0220
69.4990,44.1009
69.3800,44.1982
69.2737,44.3139
69.2539,44.3393
69.4642,44.4910
69.5647,44.3775
69.6870,44.2814
69.7587,44.2411
69.8976,44.1902
70.0476,44.1642
70.1867,44.1576
70.3503,44.1693
70.4956,44.2047
70.6393,44.2739
70.7591,44.3740
70.7853,44.4038
70.8744,44.5379
70.9315,44.6741
70.9691,44.8279
70.9858,44.9736
70.9890,45.0779
70.9890,45.8692
70.9798,46.0239
70.9470,46.1820
70.8902,46.3204
70.7977,46.4525
70.6774,46.5552
70.5316,46.6243
70.3806,46.6575
70.2541,46.6650
70.1054,46.6546
69.9561,46.6192
69.8218,46.5587
69.6923,46.4659
69.5905,46.3588
69.5191,46.2554
69.5191,45.5519
70.2958,45.5519
70.2958,45.3050
69.2121,45.3050
Z" /> 
<path style="fill:#000000; fill-opacity:1.0000; stroke:none;fill-rule:evenodd;"
d="M 67.6309,46.9119
67.7894,46.9064
67.9392,46.8900
68.1143,46.8540
68.2758,46.8008
68.4238,46.7306
68.5582,46.6432
68.6560,46.5609
68.4882,46.3638
68.3658,46.4524
68.2449,46.5294
68.1044,46.5930
67.9907,46.6276
67.8372,46.6544
67.6825,46.6644
67.6309,46.6650
67.4728,46.6559
67.3213,46.6252
67.2220,46.5880
67.0930,46.5122
66.9862,46.4063
66.9758,46.3917
66.9113,46.2560
66.8960,46.1477
66.8960,46.0810
66.9162,45.9300
66.9897,45.7933
67.0183,45.7637
67.1470,45.6741
67.2867,45.6079
67.4426,45.5505
67.8624,45.4127
68.0108,45.3573
68.1568,45.2880
68.2909,45.2021
68.3834,45.1189
68.4739,44.9920
68.5269,44.8500
68.5424,44.7078
68.5424,44.6163
68.5212,44.4649
68.4636,44.3289
68.4318,44.2777
68.3326,44.1643
68.2141,44.0753
68.0976,44.0132
67.9494,43.9591
67.8006,43.9276
67.6371,43.9122
67.5598,43.9106
67.3823,43.9199
67.2146,43.9475
67.0568,43.9936
66.9088,44.0580
66.7708,44.1410
66.6426,44.2423
66.5941,44.2880
66.7619,44.4726
66.8771,44.3777
67.0036,44.2941
67.1297,44.2323
67.2751,44.1868
67.4234,44.1635
67.5554,44.1576
67.7027,44.1657
67.8537,44.1963
67.9342,44.2264
68.0652,44.3030
68.1563,44.3964
68.2189,44.5326
68.2273,44.6060
68.2273,44.6932
68.1914,44.8386
68.0998,44.9511
67.9689,45.0388
67.8319,45.1017
67.6815,45.1548
67.2997,45.2750
67.1550,45.3268
67.0088,45.3930
66.8689,45.4761
66.7663,45.5578
66.6685,45.6771
66.6070,45.8224
66.5825,45.9754
66.5809,46.0312
66.5809,46.1352
66.5986,46.2894
66.6518,46.4343
66.7069,46.5257
66.8067,46.6398
66.9329,46.7363
67.0704,46.8086
67.2107,46.8585
67.3646,46.8921
67.5127,46.9083
Z" /> 
<path style="fill:#000000; fill-opacity:1.0000; stroke:none;fill-rule:evenodd;"
d="M 64.6582,46.9119
64.8015,46.8631
64.8136,46.8525
64.8760,46.7197
64.8766,46.7031
64.8230,46.5632
64.8114,46.5514
64.6745,46.4904
64.6582,46.4898
64.5168,46.5404
64.5051,46.5514
64.4441,46.6864
64.4435,46.7031
64.4941,46.8411
64.5051,46.8525
64.6412,46.9114
Z" /> 
<path style="fill:#000000; fill-opacity:1.0000; stroke:none;fill-rule:evenodd;"
d="M 64.6582,45.1768
64.8015,45.1280
64.8136,45.1174
64.8760,44.9846
64.8766,44.9680
64.8230,44.8281
64.8114,44.8163
64.6745,44.7553
64.6582,44.7547
64.5168,44.8053
64.5051,44.8163
64.4441,44.9513
64.4435,44.9680
64.4941,45.1060
64.5051,45.1174
64.6412,45.1763
Z" /> 
<path style="fill:#000000; fill-opacity:1.0000; stroke:none;fill-rule:evenodd;"
d="M 61.5961,46.9119
61.7519,46.9047
61.9240,46.8772
62.0799,46.8290
62.2195,46.7601
62.3429,46.6706
62.3985,46.6181
62.4956,46.5006
62.5726,46.3691
62.6295,46.2236
62.6664,46.0641
62.6831,45.8906
62.6842,45.8297
62.6842,45.0632
62.6779,44.9152
62.6553,44.7564
62.6161,44.6087
62.5605,44.4721
62.5524,44.4558
62.4685,44.3191
62.3661,44.2008
62.2451,44.1010
62.1699,44.0535
62.0215,43.9845
61.8771,43.9420
61.7211,43.9175
61.5749,43.9106
61.4277,43.9176
61.2786,43.9416
61.1321,43.9879
61.1074,43.9986
60.9757,44.0673
60.8495,44.1538
60.7396,44.2477
60.9074,44.4323
61.0252,44.3360
61.1558,44.2540
61.2034,44.2301
61.3483,44.1805
61.5025,44.1593
61.5668,44.1576
61.7259,44.1689
61.8686,44.2030
62.0114,44.2698
62.1327,44.3662
62.1596,44.3950
62.2513,44.5251
62.3168,44.6782
62.3526,44.8309
62.3684,45.0011
62.3692,45.0530
62.3692,45.8238
62.3596,45.9900
62.3310,46.1391
62.2750,46.2887
62.1940,46.4161
62.1699,46.4444
62.0587,46.5409
61.9253,46.6098
61.7697,46.6512
61.6152,46.6647
61.5917,46.6650
61.4384,46.6563
61.2883,46.6274
61.2144,46.6034
61.0748,46.5409
60.9434,46.4609
60.9074,46.4349
60.7689,46.6320
60.8928,46.7172
61.0316,46.7905
61.1323,46.8328
61.2807,46.8778
61.4256,46.9025
61.5802,46.9118
Z" /> 
<path style="fill:#000000; fill-opacity:1.0000; stroke:none;fill-rule:evenodd;"
d="M 58.0688,46.8650
58.3963,46.8650
58.6989,45.9396
59.8449,45.9396
60.1307,46.8650
60.4546,46.8650
60.0666,45.6926
59.7658,45.6926
58.7825,45.6926
59.2785,44.1839
59.7658,45.6926
60.0666,45.6926
59.4925,43.9575
59.0602,43.9575
Z" /> 
<path style="fill:#000000; fill-opacity:1.0000; stroke:none;fill-rule:evenodd;"
d="M 55.8318,46.6181
55.8318,46.8650
57.4196,46.8650
57.4196,43.9575
57.1045,43.9575
57.1045,46.6181
Z" /> 
<path style="fill:#000000; fill-opacity:1.0000; stroke:none;fill-rule:evenodd;"
d="M 54.7656,44.2045
54.7656,46.6181
54.4125,46.6181
54.4125,46.8650
55.4295,46.8650
55.4295,46.6181
55.0807,46.6181
55.0807,44.2045
55.4295,44.2045
55.4295,43.9575
54.4125,43.9575
54.4125,44.2045
Z" /> 
<path style="fill:#000000; fill-opacity:1.0000; stroke:none;fill-rule:evenodd;"
d="M 52.5768,43.9639
52.4291,43.9829
52.2730,44.0211
52.1344,44.0765
52.0296,44.1378
51.9149,44.2374
51.8250,44.3721
51.7799,44.5120
51.7673,44.6500
51.7673,44.8317
51.7877,44.9881
51.8559,45.1310
51.9124,45.1966
52.0299,45.2864
52.1660,45.3450
52.2670,45.3666
52.2626,45.3666
52.1101,45.3985
51.9699,45.4600
51.8531,45.5417
51.7513,45.6598
51.6917,45.8085
51.6743,45.9703
51.6743,46.1491
51.6925,46.3051
51.7474,46.4442
51.8387,46.5664
51.9666,46.6716
52.1046,46.7469
52.2633,46.8038
52.4159,46.8378
52.5837,46.8582
52.7352,46.8648
52.7668,46.8650
53.5479,46.8650
53.5479,46.6181
53.2284,46.6181
52.7580,46.6181
52.6029,46.6122
52.4464,46.5912
52.2968,46.5492
52.1872,46.4957
52.0745,46.3981
52.0050,46.2608
51.9893,46.1367
51.9893,45.9703
52.0127,45.8244
52.0909,45.6954
52.1557,45.6384
52.2944,45.5647
52.4471,45.5271
52.5902,45.5175
53.2284,45.5175
53.2284,46.6181
53.5479,46.6181
53.5479,45.2706
53.2284,45.2706
52.6070,45.2706
52.4537,45.2567
52.3126,45.2100
52.2245,45.1533
52.1269,45.0332
52.0852,44.8912
52.0817,44.8287
52.0817,44.6675
52.1062,44.5122
52.1881,44.3790
52.2561,44.3224
52.3906,44.2553
52.5383,44.2184
52.6919,44.2049
52.7287,44.2045
53.2284,44.2045
53.2284,45.2706
53.5479,45.2706
53.5479,43.9575
52.7375,43.9575
Z" /> 
<path style="fill:#000000; fill-opacity:1.0000; stroke:none;fill-rule:evenodd;"
d="M 49.8092,43.9645
49.6572,43.9855
49.4966,44.0275
49.3540,44.0886
49.2460,44.1561
49.1274,44.2643
49.0427,44.3902
48.9918,44.5339
48.9749,44.6954
48.9749,44.8837
48.9903,45.0304
49.0427,45.1762
49.1324,45.3058
49.2426,45.4057
49.3760,45.4858
49.5161,45.5408
49.5669,45.5556
48.8613,46.8650
49.2101,46.8650
49.8820,45.6113
49.9663,45.6113
50.5246,45.6113
50.5246,46.8650
50.8397,46.8650
50.8397,45.3644
50.5246,45.3644
49.9699,45.3644
49.8194,45.3564
49.6710,45.3284
49.5322,45.2736
49.4732,45.2369
49.3642,45.1262
49.3055,44.9855
49.2944,44.8749
49.2944,44.7020
49.3162,44.5530
49.3898,44.4183
49.4790,44.3364
49.6214,44.2613
49.7775,44.2200
49.9399,44.2050
49.9787,44.2045
50.5246,44.2045
50.5246,45.3644
50.8397,45.3644
50.8397,43.9575
49.9743,43.9575
Z" /> 
<path style="fill:#000000; fill-opacity:1.0000; stroke:none;fill-rule:evenodd;"
d="M 46.0784,46.8650
46.4059,46.8650
46.7086,45.9396
47.8546,45.9396
48.1403,46.8650
48.4642,46.8650
48.0763,45.6926
47.7754,45.6926
46.7921,45.6926
47.2882,44.1839
47.7754,45.6926
48.0763,45.6926
47.5021,43.9575
47.0698,43.9575
Z" /> 
<path style="fill:#000000; fill-opacity:1.0000; stroke:none;fill-rule:evenodd;"
d="M 43.9293,44.2045
44.8071,44.2045
44.8071,46.8650
45.1222,46.8650
45.1222,44.2045
45.9956,44.2045
45.9956,43.9575
43.9293,43.9575
Z" /> 
<path style="fill:#000000; fill-opacity:1.0000; stroke:none;fill-rule:evenodd;"
d="M 42.8163,44.2045
42.8163,46.6181
42.4631,46.6181
42.4631,46.8650
43.4802,46.8650
43.4802,46.6181
43.1314,46.6181
43.1314,44.2045
43.4802,44.2045
43.4802,43.9575
42.4631,43.9575
42.4631,44.2045
Z" /> 
<path style="fill:#000000; fill-opacity:1.0000; stroke:none;fill-rule:evenodd;"
d="M 40.4612,43.9186
40.3036,43.9426
40.1599,43.9826
40.0060,44.0517
39.8723,44.1438
39.7762,44.2382
39.6791,44.3683
39.6021,44.5130
39.5452,44.6722
39.5131,44.8161
39.4949,44.9701
39.4905,45.1006
39.4905,45.7388
39.4982,45.9022
39.5214,46.0568
39.5601,46.2026
39.6143,46.3396
39.6944,46.4800
39.7956,46.6028
39.9177,46.7079
39.9946,46.7588
40.1304,46.8258
40.2820,46.8736
40.4277,46.8998
40.5855,46.9113
40.6328,46.9119
40.7938,46.9046
40.9428,46.8826
41.0985,46.8395
41.2384,46.7773
41.2710,46.7588
41.4048,46.6634
41.5175,46.5504
41.6093,46.4198
41.6513,46.3396
41.7054,46.2026
41.7441,46.0568
41.7674,45.9022
41.7751,45.7388
41.7751,45.1006
41.7749,45.0947
41.4600,45.0947
41.4600,45.7483
41.4528,45.8962
41.4260,46.0550
41.3796,46.1990
41.3024,46.3455
41.2541,46.4114
41.1381,46.5224
40.9958,46.6016
40.8499,46.6449
40.6839,46.6640
40.6328,46.6650
40.4841,46.6561
40.3293,46.6231
40.1771,46.5558
40.0511,46.4567
40.0107,46.4114
39.9206,46.2746
39.8629,46.1391
39.8249,45.9888
39.8066,45.8236
39.8048,45.7483
39.8048,45.0947
39.8120,44.9413
39.8384,44.7774
39.8844,44.6296
39.9498,44.4981
40.0085,44.4140
40.1239,44.3018
40.2664,44.2217
40.4134,44.1779
40.5811,44.1586
40.6328,44.1576
40.7812,44.1665
40.9358,44.1995
41.0878,44.2671
41.2137,44.3664
41.2541,44.4118
41.3442,44.5496
41.4019,44.6881
41.4399,44.8435
41.4568,44.9901
41.4600,45.0947
41.7749,45.0947
41.7681,44.9373
41.7470,44.7844
41.7118,44.6420
41.6511,44.4849
41.5701,44.3429
41.4871,44.2360
41.3694,44.1254
41.2320,44.0377
41.0751,43.9729
40.9294,43.9364
40.7700,43.9157
40.6328,43.9106
Z" /> 
<path style="fill:#000000; fill-opacity:1.0000; stroke:none;fill-rule:evenodd;"
d="M 36.5566,43.9575
36.5566,46.8650
36.9347,46.8650
38.3496,44.3730
38.3496,46.8650
38.6354,46.8650
38.6354,43.9575
38.2492,43.9575
38.2529,43.9619
36.8416,46.4708
36.8416,43.9575
Z" /> 
<path style="fill:#000000; fill-opacity:1.0000; stroke:none;fill-rule:evenodd;"
d="M 31.7858,43.9575
31.7858,46.8650
32.0877,46.8650
32.0877,44.4463
32.9281,46.4473
32.9237,46.4473
33.2806,46.4473
34.1247,44.4133
34.1247,46.8650
34.4148,46.8650
34.4148,43.9575
33.9987,43.9575
33.0915,46.1909
32.1808,43.9575
Z" /> 
<path style="fill:#000000; fill-opacity:1.0000; stroke:none;fill-rule:evenodd;"
d="M 29.6109,43.9186
29.4533,43.9426
29.3097,43.9826
29.1558,44.0517
29.0220,44.1438
28.9260,44.2382
28.8289,44.3683
28.7518,44.5130
28.6949,44.6722
28.6628,44.8161
28.6447,44.9701
28.6402,45.1006
28.6402,45.7388
28.6480,45.9022
28.6712,46.0568
28.7099,46.2026
28.7640,46.3396
28.8442,46.4800
28.9453,46.6028
29.0674,46.7079
29.1443,46.7588
29.2801,46.8258
29.4317,46.8736
29.5774,46.8998
29.7352,46.9113
29.7825,46.9119
29.9436,46.9046
30.0926,46.8826
30.2482,46.8395
30.3882,46.7773
30.4207,46.7588
30.5545,46.6634
30.6673,46.5504
30.7591,46.4198
30.8010,46.3396
30.8552,46.2026
30.8939,46.0568
30.9171,45.9022
30.9249,45.7388
30.9249,45.1006
30.9246,45.0947
30.6098,45.0947
30.6098,45.7483
30.6025,45.8962
30.5758,46.0550
30.5294,46.1990
30.4521,46.3455
30.4039,46.4114
30.2878,46.5224
30.1456,46.6016
29.9997,46.6449
29.8336,46.6640
29.7825,46.6650
29.6339,46.6561
29.4791,46.6231
29.3269,46.5558
29.2009,46.4567
29.1604,46.4114
29.0704,46.2746
29.0127,46.1391
28.9747,45.9888
28.9564,45.8236
28.9546,45.7483
28.9546,45.0947
28.9617,44.9413
28.9882,44.7774
29.0341,44.6296
29.0996,44.4981
29.1583,44.4140
29.2737,44.3018
29.4162,44.2217
29.5631,44.1779
29.7308,44.1586
29.7825,44.1576
29.9310,44.1665
30.0855,44.1995
30.2376,44.2671
30.3634,44.3664
30.4039,44.4118
30.4940,44.5496
30.5517,44.6881
30.5897,44.8435
30.6066,44.9901
30.6098,45.0947
30.9246,45.0947
30.9178,44.9373
30.8967,44.7844
30.8616,44.6420
30.8008,44.4849
30.7199,44.3429
30.6369,44.2360
30.5191,44.1254
30.3818,44.0377
30.2248,43.9729
30.0791,43.9364
29.9198,43.9157
29.7825,43.9106
Z" /> 
<path style="fill:#000000; fill-opacity:1.0000; stroke:none;fill-rule:evenodd;"
d="M 26.7747,43.9652
26.6137,43.9882
26.4662,44.0264
26.3070,44.0926
26.1672,44.1808
26.0654,44.2711
25.9618,44.3965
25.8797,44.5376
25.8189,44.6942
25.7796,44.8664
25.7633,45.0219
25.7606,45.1204
25.7606,45.6274
25.7688,45.8018
25.7934,45.9642
25.8345,46.1145
25.8920,46.2527
25.9826,46.4027
26.0969,46.5353
26.2088,46.6303
26.3346,46.7092
26.4745,46.7719
26.6283,46.8186
26.7961,46.8492
26.9779,46.8637
27.0546,46.8650
27.7851,46.8650
27.7851,46.6181
27.4700,46.6181
27.0546,46.6181
26.8815,46.6093
26.7251,46.5828
26.5852,46.5388
26.4430,46.4651
26.3233,46.3675
26.2268,46.2469
26.1540,46.1043
26.1049,45.9398
26.0817,45.7813
26.0757,45.6369
26.0757,45.1108
26.0836,44.9575
26.1132,44.7952
26.1644,44.6508
26.2496,44.5076
26.3028,44.4448
26.4292,44.3397
26.5613,44.2723
26.7135,44.2279
26.8600,44.2082
26.9659,44.2045
27.4700,44.2045
27.4700,46.6181
27.7851,46.6181
27.7851,43.9575
26.9491,43.9575
Z" /> 
<path style="fill:#000000; fill-opacity:1.0000; stroke:none;fill-rule:evenodd;"
d="M 22.8810,45.9242
22.8903,46.0820
22.9185,46.2287
22.9750,46.3856
23.0570,46.5272
23.1477,46.6364
23.2771,46.7437
23.4084,46.8148
23.5584,46.8664
23.7272,46.8987
23.8822,46.9108
23.9478,46.9119
24.1069,46.9052
24.2532,46.8850
24.4118,46.8430
24.5519,46.7817
24.6920,46.6856
24.7443,46.6364
24.8482,46.5079
24.9266,46.3641
24.9795,46.2050
25.0045,46.0565
25.0110,45.9242
25.0110,43.9575
24.6959,43.9575
24.6959,45.9330
24.6845,46.0910
24.6444,46.2490
24.5755,46.3860
24.5135,46.4657
24.3947,46.5620
24.2443,46.6268
24.0842,46.6580
23.9478,46.6650
23.7886,46.6554
23.6306,46.6212
23.4832,46.5529
23.3792,46.4657
23.2907,46.3427
23.2311,46.1987
23.2025,46.0531
23.1960,45.9330
23.1960,43.9575
22.8810,43.9575
Z" /> 
<path style="fill:#000000; fill-opacity:1.0000; stroke:none;fill-rule:evenodd;"
d="M 20.3618,46.6181
20.3618,46.8650
21.9497,46.8650
21.9497,43.9575
21.6346,43.9575
21.6346,46.6181
Z" /> 
<path style="fill:#000000; fill-opacity:1.0000; stroke:none;fill-rule:evenodd;"
d="M 19.4804,44.2045
19.4804,45.2237
18.2963,45.2237
18.2963,45.4706
19.4804,45.4706
19.4804,46.6181
18.2040,46.6181
18.2040,46.8650
19.7954,46.8650
19.7954,43.9575
18.2040,43.9575
18.2040,44.2045
Z" /> 
</g><path style="fill:#000000; fill-opacity:1.0000; stroke:none;fill-rule:evenodd;"
d="M 4.6768,28.1800
6.0268,28.1800
6.0268,27.7800
4.6768,27.7800
Z" /> 
<path style="fill:#000000; fill-opacity:1.0000; stroke:none;fill-rule:evenodd;"
d="M 4.6768,27.5300
6.0268,27.5300
6.0268,27.1300
4.6768,27.1300
Z" /> 
<path style="fill:#000000; fill-opacity:1.0000; stroke:none;fill-rule:evenodd;"
d="M 4.6768,26.8800
6.0268,26.8800
6.0268,26.4800
4.6768,26.4800
Z" /> 
<path style="fill:#000000; fill-opacity:1.0000; stroke:none;fill-rule:evenodd;"
d="M 4.6768,26.2300
6.0268,26.2300
6.0268,25.8300
4.6768,25.8300
Z" /> 
<path style="fill:#000000; fill-opacity:1.0000; stroke:none;fill-rule:evenodd;"
d="M 4.6768,25.5800
6.0268,25.5800
6.0268,25.1800
4.6768,25.1800
Z" /> 
</g>
<g style="fill:none; 
stroke:#000000; stroke-width:0.8900; stroke-opacity:1; 
stroke-linecap:round; stroke-linejoin:round;">
<path d="M2.9818 30.1800
L2.3218 30.1800
" />
<path style="fill:#000000; fill-opacity:1.0000; stroke:none;fill-rule:evenodd;"
d="M 1.8768,30.1800
3.4268,30.1800
3.4268,28.9800
1.8768,28.9800
Z" /> 
</g>
<g style="fill:none; 
stroke:#000000; stroke-width:0.9500; stroke-opacity:1; 
stroke-linecap:round; stroke-linejoin:round;">
<path d="M5.3518 29.3300
L5.3518 29.0300
" />
<path style="fill:#000000; fill-opacity:1.0000; stroke:none;fill-rule:evenodd;"
d="M 1.8768,28.4300
3.4268,28.4300
3.4268,26.9300
1.8768,26.9300
Z" /> 
<path style="fill:#000000; fill-opacity:1.0000; stroke:none;fill-rule:evenodd;"
d="M 1.8768,26.4300
3.4268,26.4300
3.4268,24.9300
1.8768,24.9300
Z" /> 
</g>
<g style="fill:none; 
stroke:#000000; stroke-width:0.9500; stroke-opacity:1; 
stroke-linecap:round; stroke-linejoin:round;">
<path d="M5.3518 24.3300
L5.3518 24.0300
" />
<path style="fill:#000000; fill-opacity:1.0000; stroke:none;fill-rule:evenodd;"
d="M 1.8768,24.3800
3.4268,24.3800
3.4268,23.1800
1.8768,23.1800
Z" /> 
</g>
<g style="fill:none; 
stroke:#000000; stroke-width:0.8900; stroke-opacity:1; 
stroke-linecap:round; stroke-linejoin:round;">
<path d="M2.9818 23.1800
L2.3218 23.1800
" />
<path style="fill:#000000; fill-opacity:1.0000; stroke:none;fill-rule:evenodd;"
d="M 8.6518,28.3300
8.6518,30.0300
10.3518,30.0300
10.3518,28.3300
Z" /> 
</g>
<g style="fill:#000000; fill-opacity:1.0000; stroke:none;">
<circle cx="60.2168" cy="34.7200" r="0.7620" /> 
</g>
<g style="fill:#000000; fill-opacity:1.0000; stroke:none;">
<circle cx="62.7568" cy="34.7200" r="0.7620" /> 
</g>
<g style="fill:#000000; fill-opacity:1.0000; stroke:none;">
<circle cx="65.2968" cy="34.7200" r="0.7620" /> 
</g>
<g style="fill:#000000; fill-opacity:1.0000; stroke:none;">
<circle cx="67.8368" cy="34.7200" r="0.7620" /> 
</g>
<g style="fill:#000000; fill-opacity:1.0000; stroke:none;">
<circle cx="70.3768" cy="34.7200" r="0.7620" /> 
</g>
<g style="fill:#000000; fill-opacity:1.0000; stroke:none;">
<circle cx="72.9168" cy="34.7200" r="0.7620" /> 
</g>
<g style="fill:#000000; fill-opacity:1.0000; stroke:none;">
<circle cx="75.4568" cy="34.7200" r="0.7620" /> 
</g>
<g style="fill:#000000; fill-opacity:1.0000; stroke:none;">
<circle cx="77.9968" cy="34.7200" r="0.7620" /> 
</g>
<g style="fill:#000000; fill-opacity:1.0000; stroke:none;">
<circle cx="80.5368" cy="34.7200" r="0.7620" /> 
</g>
<g style="fill:#000000; fill-opacity:1.0000; stroke:none;">
<circle cx="83.0768" cy="34.7200" r="0.7620" /> 
</g>
<g style="fill:#000000; fill-opacity:1.0000; stroke:none;">
<circle cx="85.6168" cy="34.7200" r="0.7620" /> 
</g>
<g style="fill:#000000; fill-opacity:1.0000; stroke:none;">
<circle cx="88.1568" cy="34.7200" r="0.7620" /> 
</g>
<g style="fill:#000000; fill-opacity:1.0000; stroke:none;">
<circle cx="90.6968" cy="34.7200" r="0.7620" /> 
</g>
<g style="fill:#000000; fill-opacity:1.0000; stroke:none;">
<circle cx="93.2368" cy="34.7200" r="0.7620" /> 
</g>
<g style="fill:#000000; fill-opacity:1.0000; stroke:none;">
<circle cx="95.7768" cy="34.7200" r="0.7620" /> 
</g>
<g style="fill:#000000; fill-opacity:1.0000; stroke:none;">
<circle cx="95.7768" cy="6.7800" r="0.7620" /> 
</g>
<g style="fill:#000000; fill-opacity:1.0000; stroke:none;">
<circle cx="93.2368" cy="6.7800" r="0.7620" /> 
</g>
<g style="fill:#000000; fill-opacity:1.0000; stroke:none;">
<circle cx="90.6968" cy="6.7800" r="0.7620" /> 
</g>
<g style="fill:#000000; fill-opacity:1.0000; stroke:none;">
<circle cx="88.1568" cy="6.7800" r="0.7620" /> 
</g>
<g style="fill:#000000; fill-opacity:1.0000; stroke:none;">
<circle cx="85.6168" cy="6.7800" r="0.7620" /> 
</g>
<g style="fill:#000000; fill-opacity:1.0000; stroke:none;">
<circle cx="83.0768" cy="6.7800" r="0.7620" /> 
</g>
<g style="fill:#000000; fill-opacity:1.0000; stroke:none;">
<circle cx="80.5368" cy="6.7800" r="0.7620" /> 
</g>
<g style="fill:#000000; fill-opacity:1.0000; stroke:none;">
<circle cx="77.9968" cy="6.7800" r="0.7620" /> 
</g>
<g style="fill:#000000; fill-opacity:1.0000; stroke:none;">
<circle cx="75.4568" cy="6.7800" r="0.7620" /> 
</g>
<g style="fill:#000000; fill-opacity:1.0000; stroke:none;">
<circle cx="72.9168" cy="6.7800" r="0.7620" /> 
</g>
<g style="fill:#000000; fill-opacity:1.0000; stroke:none;">
<circle cx="70.3768" cy="6.7800" r="0.7620" /> 
</g>
<g style="fill:#000000; fill-opacity:1.0000; stroke:none;">
<circle cx="67.8368" cy="6.7800" r="0.7620" /> 
</g>
<g style="fill:#000000; fill-opacity:1.0000; stroke:none;">
<circle cx="65.2968" cy="6.7800" r="0.7620" /> 
</g>
<g style="fill:#000000; fill-opacity:1.0000; stroke:none;">
<circle cx="62.7568" cy="6.7800" r="0.7620" /> 
</g>
<g style="fill:#000000; fill-opacity:1.0000; stroke:none;">
<circle cx="60.2168" cy="6.7800" r="0.7620" /> 
</g>
<g style="fill:#000000; fill-opacity:1.0000; stroke:none;">
<circle cx="36.6968" cy="21.6600" r="0.7620" /> 
</g>
<g style="fill:#000000; fill-opacity:1.0000; stroke:none;">
<circle cx="46.8568" cy="21.6600" r="0.7620" /> 
</g>
<g style="fill:#000000; fill-opacity:1.0000; stroke:none;">
<circle cx="36.6968" cy="24.2000" r="0.7620" /> 
<path style="fill:#000000; fill-opacity:1.0000; stroke:none;fill-rule:evenodd;"
d="M 37.4588,30.0420
37.4588,28.5180
35.9348,28.5180
35.9348,30.0420
Z" /> 
</g>
<g style="fill:#000000; fill-opacity:1.0000; stroke:none;">
<circle cx="36.6968" cy="26.7400" r="0.7620" /> 
</g>
<g style="fill:#000000; fill-opacity:1.0000; stroke:none;">
<circle cx="36.6968" cy="19.1200" r="0.7620" /> 
</g>
<g style="fill:#000000; fill-opacity:1.0000; stroke:none;">
<circle cx="36.6968" cy="16.5800" r="0.7620" /> 
</g>
<g style="fill:#000000; fill-opacity:1.0000; stroke:none;">
<circle cx="46.8568" cy="24.2000" r="0.7620" /> 
<path style="fill:#000000; fill-opacity:1.0000; stroke:none;fill-rule:evenodd;"
d="M 47.6188,30.0420
47.6188,28.5180
46.0948,28.5180
46.0948,30.0420
Z" /> 
</g>
<g style="fill:#000000; fill-opacity:1.0000; stroke:none;">
<circle cx="46.8568" cy="26.7400" r="0.7620" /> 
</g>
<g style="fill:#000000; fill-opacity:1.0000; stroke:none;">
<circle cx="46.8568" cy="19.1200" r="0.7620" /> 
</g>
<g style="fill:#000000; fill-opacity:1.0000; stroke:none;">
<circle cx="46.8568" cy="16.5800" r="0.7620" /> 
<path style="fill:#000000; fill-opacity:1.0000; stroke:none;fill-rule:evenodd;"
d="M 19.7483,33.4710
17.9703,33.4710
17.9703,35.2490
19.7483,35.2490
Z" /> 
</g>
<g style="fill:#000000; fill-opacity:1.0000; stroke:none;">
<circle cx="18.8593" cy="31.8200" r="0.8890" /> 
</g>
<g style="fill:#000000; fill-opacity:1.0000; stroke:none;">
<circle cx="18.8593" cy="29.2800" r="0.8890" /> 
</g>
<g style="fill:#000000; fill-opacity:1.0000; stroke:none;">
<circle cx="18.8593" cy="26.7400" r="0.8890" /> 
</g>
<g style="fill:#000000; fill-opacity:1.0000; stroke:none;">
<circle cx="18.8593" cy="24.2000" r="0.8890" /> 
</g>
<g style="fill:#000000; fill-opacity:1.0000; stroke:none;">
<circle cx="18.8593" cy="21.6600" r="0.8890" /> 
</g>
<g style="fill:#000000; fill-opacity:1.0000; stroke:none;">
<circle cx="18.8593" cy="19.1200" r="0.8890" /> 
</g>
<g style="fill:#000000; fill-opacity:1.0000; stroke:none;">
<circle cx="18.8593" cy="16.5800" r="0.8890" /> 
</g>
<g style="fill:#000000; fill-opacity:1.0000; stroke:none;">
<circle cx="18.8593" cy="14.0400" r="0.8890" /> 
</g>
<g style="fill:#000000; fill-opacity:1.0000; stroke:none;">
<circle cx="18.8593" cy="11.5000" r="0.8890" /> 
</g>
<g style="fill:#000000; fill-opacity:1.0000; stroke:none;">
<circle cx="31.5593" cy="11.5000" r="1.6000" /> 
</g>
<g style="fill:#000000; fill-opacity:1.0000; stroke:none;">
<circle cx="31.5593" cy="34.3600" r="1.6000" /> 
<path style="fill:#000000; fill-opacity:1.0000; stroke:none;fill-rule:evenodd;"
d="M 8.6518,20.1300
8.6518,21.8300
10.3518,21.8300
10.3518,20.1300
Z" /> 
<path style="fill:#000000; fill-opacity:1.0000; stroke:none;fill-rule:evenodd;"
d="M 12.6768,23.3300
12.6768,25.0300
14.3768,25.0300
14.3768,23.3300
Z" /> 
</g>
<g style="fill:#000000; fill-opacity:1.0000; stroke:none;">
<circle cx="13.5268" cy="26.7200" r="0.8500" /> 
<circle cx="13.5268" cy="29.2600" r="0.8500" /> 
<circle cx="13.5268" cy="31.8000" r="0.8500" /> 
<circle cx="13.5268" cy="34.3400" r="0.8500" /> 
</g>
<g style="fill:none; 
stroke:#000000; stroke-width:0.8128; stroke-opacity:1; 
stroke-linecap:round; stroke-linejoin:round;">
<path d="M46.8568 16.5800
L55.1868 16.5800
" />
<path d="M58.5936 11.6458
L59.3573 12.4095
" />
<path d="M59.8806 12.9328
L60.1210 13.1732
" />
<path d="M57.2855 11.9075
L57.5471 11.6458
" />
<path d="M61.4291 11.8650
L61.1887 11.6246
" />
<path d="M59.3573 12.4095
L59.8806 12.9328
" />
<path d="M58.0492 13.7176
L58.0492 13.7176
" />
<path d="M63.1168 6.7800
L63.1168 6.7350
" />
<path d="M58.5724 14.2409
L58.0492 13.7176
" />
<path d="M57.2643 15.5491
L57.5047 15.7895
" />
<path d="M61.1675 13.1732
L61.4291 12.9115
" />
<path d="M62.7568 9.0100
L62.7568 6.7800
" />
<path d="M61.1887 10.5781
L61.4503 10.3165
" />
<path d="M62.1043 9.6625
L62.7568 9.0100
" />
<path d="M55.1868 16.5800
L56.2177 15.5491
" />
<path d="M58.0492 13.7176
L57.2855 12.9540
" />
<path d="M58.5512 15.7895
L58.8128 15.5278
" />
<path d="M61.4503 10.3165
L62.1043 9.6625
" />
<path d="M58.8128 14.4813
L58.5724 14.2409
" />
<path d="M61.1887 10.5780 A0.7401 0.7401 0.0 0 0 61.1887 11.6246" />
<path d="M57.5047 15.7895 A0.7400 0.7400 0.0 0 0 58.5512 15.7895" />
<path d="M60.1210 13.1732 A0.7400 0.7400 0.0 0 0 61.1675 13.1732" />
<path d="M58.5936 11.6458 A0.7400 0.7400 0.0 0 0 57.5471 11.6458" />
<path d="M61.4291 12.9115 A0.7400 0.7400 0.0 0 0 61.4291 11.8650" />
<path d="M58.8128 15.5278 A0.7400 0.7400 0.0 0 0 58.8128 14.4813" />
<path d="M57.2643 15.5491 A0.7400 0.7400 0.0 0 0 56.2177 15.5491" />
<path d="M57.2855 11.9074 A0.7400 0.7400 0.0 0 0 57.2855 12.9540" />
<path d="M9.5368 26.0300
L10.2268 26.7200
" />
<path d="M20.7118 4.2050
L71.8618 4.2050
" />
</g>
<g style="fill:none; 
stroke:#000000; stroke-width:0.4064; stroke-opacity:1; 
stroke-linecap:round; stroke-linejoin:round;">
<path d="M5.3518 26.0300
L9.5368 26.0300
" />
</g>
<g style="fill:none; 
stroke:#000000; stroke-width:0.8128; stroke-opacity:1; 
stroke-linecap:round; stroke-linejoin:round;">
<path d="M9.5018 20.9800
L9.5018 15.4150
" />
<path d="M72.9168 19.1000
L72.9168 6.7800
" />
<path d="M72.9168 5.2600
L72.9168 6.7800
" />
<path d="M10.2268 26.7200
L13.5268 26.7200
" />
<path d="M9.5018 15.4150
L20.7118 4.2050
" />
<path d="M46.8568 24.2000
L67.8168 24.2000
" />
<path d="M67.8168 24.2000
L72.9168 19.1000
" />
<path d="M71.8618 4.2050
L72.9168 5.2600
" />
<path d="M77.9968 6.7800
L77.9968 22.9700
" />
<path d="M77.9968 22.9700
L71.6868 29.2800
" />
<path d="M71.6868 29.2800
L46.8568 29.2800
" />
</g>
<g style="fill:none; 
stroke:#000000; stroke-width:0.4064; stroke-opacity:1; 
stroke-linecap:round; stroke-linejoin:round;">
<path d="M7.2018 29.1050
L7.2018 32.6550
" />
</g>
<g style="fill:none; 
stroke:#000000; stroke-width:0.8128; stroke-opacity:1; 
stroke-linecap:round; stroke-linejoin:round;">
<path d="M65.2968 34.7200
L65.2968 36.4450
" />
<path d="M39.8018 12.3200
L39.8018 26.1700
" />
<path d="M36.6968 24.2000
L37.8318 24.2000
" />
<path d="M8.8868 34.3400
L7.2018 32.6550
" />
<path d="M37.8318 24.2000
L39.8018 26.1700
" />
<path d="M64.1368 37.6050
L38.1518 37.6050
" />
<path d="M13.5268 34.3400
L8.8868 34.3400
" />
<path d="M36.0368 8.5550
L39.8018 12.3200
" />
</g>
<g style="fill:none; 
stroke:#000000; stroke-width:0.4064; stroke-opacity:1; 
stroke-linecap:round; stroke-linejoin:round;">
<path d="M5.3518 27.9800
L6.0768 27.9800
" />
</g>
<g style="fill:none; 
stroke:#000000; stroke-width:0.8128; stroke-opacity:1; 
stroke-linecap:round; stroke-linejoin:round;">
<path d="M39.8018 35.9550
L38.1518 37.6050
" />
</g>
<g style="fill:none; 
stroke:#000000; stroke-width:0.4064; stroke-opacity:1; 
stroke-linecap:round; stroke-linejoin:round;">
<path d="M6.0768 27.9800
L7.2018 29.1050
" />
</g>
<g style="fill:none; 
stroke:#000000; stroke-width:0.8128; stroke-opacity:1; 
stroke-linecap:round; stroke-linejoin:round;">
<path d="M65.2968 36.4450
L64.1368 37.6050
" />
<path d="M18.8593 11.5000
L21.8043 8.5550
" />
<path d="M39.8018 26.1700
L39.8018 35.9550
" />
<path d="M38.1518 37.6050
L16.8268 37.6050
" />
<path d="M16.8268 37.6050
L13.5618 34.3400
" />
<path d="M21.8043 8.5550
L36.0368 8.5550
" />
<path d="M13.5618 34.3400
L13.5268 34.3400
" />
<path d="M46.8568 19.1200
L63.2968 19.1200
" />
<path d="M63.2968 19.1200
L65.2968 17.1200
" />
<path d="M65.2968 17.1200
L65.2968 6.7800
" />
<path d="M36.4468 16.5800
L18.8843 16.5800
" />
<path d="M36.4468 19.1200
L18.8843 19.1200
" />
<path d="M45.6118 32.2550
L43.9618 30.6050
" />
<path d="M18.8593 14.0400
L17.0918 14.0400
" />
<path d="M5.3518 24.1800
L13.5268 24.1800
" />
<path d="M2.6518 30.1800
L4.3518 30.1800
" />
<path d="M15.9768 20.6800
L16.9568 21.6600
" />
<path d="M13.5268 24.1800
L15.9768 21.7300
" />
<path d="M18.8593 21.6600
L36.6968 21.6600
" />
<path d="M62.7568 34.7200
L62.7568 33.2750
" />
<path d="M16.9568 21.6600
L18.8593 21.6600
" />
<path d="M2.6518 25.6800
L2.6518 27.6800
" />
<path d="M12.6568 2.0600
L73.4030 2.0600
" />
<path d="M2.6518 23.1800
L4.3518 23.1800
" />
<path d="M2.6518 27.6800
L2.6518 29.5800
" />
<path d="M43.9618 30.6050
L43.9618 23.2050
" />
<path d="M2.6518 23.7800
L2.6518 12.0650
" />
<path d="M15.9768 21.7300
L15.9768 20.6800
" />
<path d="M43.9618 23.2050
L45.5068 21.6600
" />
<path d="M2.6518 23.7800
L2.6518 25.6800
" />
<path d="M75.4568 4.1137
L75.4568 6.7800
" />
<path d="M62.7568 33.2750
L61.7368 32.2550
" />
<path d="M61.7368 32.2550
L45.6118 32.2550
" />
<path d="M4.3518 23.1800
L5.3518 24.1800
" />
<path d="M73.4030 2.0600
L75.4568 4.1137
" />
<path d="M2.6518 12.0650
L12.6568 2.0600
" />
<path d="M45.5068 21.6600
L46.8568 21.6600
" />
<path d="M15.9768 15.1550
L15.9768 20.6800
" />
<path d="M4.3518 30.1800
L5.3518 29.1800
" />
<path d="M17.0918 14.0400
L15.9768 15.1550
" />
</g>
<g style="fill:none; 
stroke:#000000; stroke-width:0.4064; stroke-opacity:1; 
stroke-linecap:round; stroke-linejoin:round;">
<path d="M5.3518 25.3800
L5.3518 24.1800
" />
</g>
<g style="fill:none; 
stroke:#000000; stroke-width:0.8128; stroke-opacity:1; 
stroke-linecap:round; stroke-linejoin:round;">
<path d="M28.9018 29.2800
L36.6968 29.2800
" />
<path d="M18.8593 24.2000
L23.8218 24.2000
" />
<path d="M23.8218 24.2000
L28.9018 29.2800
" />
<path d="M18.8593 29.2800
L13.5468 29.2800
" />
<path d="M13.5468 29.2800
L13.5268 29.2600
" />
<path d="M18.8393 29.2600
L18.8593 29.2800
" />
</g>
<g style="fill:none; 
stroke:#000000; stroke-width:0.4064; stroke-opacity:1; 
stroke-linecap:round; stroke-linejoin:round;">
<path d="M5.3518 26.6800
L7.0018 26.6800
" />
<path d="M7.0018 26.6800
L9.5018 29.1800
" />
</g>
<g style="fill:none; 
stroke:#FFFFFF; stroke-width:0.5000; stroke-opacity:1; 
stroke-linecap:round; stroke-linejoin:round;">
<path d="M2.9768 30.1800
L2.3268 30.1800
" />
</g>
<g style="fill:none; 
stroke:#FFFFFF; stroke-width:0.5500; stroke-opacity:1; 
stroke-linecap:round; stroke-linejoin:round;">
<path d="M5.3518 29.3300
L5.3518 29.0300
" />
<path d="M5.3518 24.3300
L5.3518 24.0300
" />
</g>
<g style="fill:none; 
stroke:#FFFFFF; stroke-width:0.5000; stroke-opacity:1; 
stroke-linecap:round; stroke-linejoin:round;">
<path d="M2.9768 23.1800
L2.3268 23.1800
" />
</g>
<g style="fill:#FFFFFF; fill-opacity:1.0000; stroke:none;">
<circle cx="9.5018" cy="29.1800" r="0.5000" /> 
</g>
<g style="fill:#FFFFFF; fill-opacity:1.0000; stroke:none;">
<circle cx="60.2168" cy="34.7200" r="0.3810" /> 
</g>
<g style="fill:#FFFFFF; fill-opacity:1.0000; stroke:none;">
<circle cx="62.7568" cy="34.7200" r="0.3810" /> 
</g>
<g style="fill:#FFFFFF; fill-opacity:1.0000; stroke:none;">
<circle cx="65.2968" cy="34.7200" r="0.3810" /> 
</g>
<g style="fill:#FFFFFF; fill-opacity:1.0000; stroke:none;">
<circle cx="67.8368" cy="34.7200" r="0.3810" /> 
</g>
<g style="fill:#FFFFFF; fill-opacity:1.0000; stroke:none;">
<circle cx="70.3768" cy="34.7200" r="0.3810" /> 
</g>
<g style="fill:#FFFFFF; fill-opacity:1.0000; stroke:none;">
<circle cx="72.9168" cy="34.7200" r="0.3810" /> 
</g>
<g style="fill:#FFFFFF; fill-opacity:1.0000; stroke:none;">
<circle cx="75.4568" cy="34.7200" r="0.3810" /> 
</g>
<g style="fill:#FFFFFF; fill-opacity:1.0000; stroke:none;">
<circle cx="77.9968" cy="34.7200" r="0.3810" /> 
</g>
<g style="fill:#FFFFFF; fill-opacity:1.0000; stroke:none;">
<circle cx="80.5368" cy="34.7200" r="0.3810" /> 
</g>
<g style="fill:#FFFFFF; fill-opacity:1.0000; stroke:none;">
<circle cx="83.0768" cy="34.7200" r="0.3810" /> 
</g>
<g style="fill:#FFFFFF; fill-opacity:1.0000; stroke:none;">
<circle cx="85.6168" cy="34.7200" r="0.3810" /> 
</g>
<g style="fill:#FFFFFF; fill-opacity:1.0000; stroke:none;">
<circle cx="88.1568" cy="34.7200" r="0.3810" /> 
</g>
<g style="fill:#FFFFFF; fill-opacity:1.0000; stroke:none;">
<circle cx="90.6968" cy="34.7200" r="0.3810" /> 
</g>
<g style="fill:#FFFFFF; fill-opacity:1.0000; stroke:none;">
<circle cx="93.2368" cy="34.7200" r="0.3810" /> 
</g>
<g style="fill:#FFFFFF; fill-opacity:1.0000; stroke:none;">
<circle cx="95.7768" cy="34.7200" r="0.3810" /> 
</g>
<g style="fill:#FFFFFF; fill-opacity:1.0000; stroke:none;">
<circle cx="95.7768" cy="6.7800" r="0.3810" /> 
</g>
<g style="fill:#FFFFFF; fill-opacity:1.0000; stroke:none;">
<circle cx="93.2368" cy="6.7800" r="0.3810" /> 
</g>
<g style="fill:#FFFFFF; fill-opacity:1.0000; stroke:none;">
<circle cx="90.6968" cy="6.7800" r="0.3810" /> 
</g>
<g style="fill:#FFFFFF; fill-opacity:1.0000; stroke:none;">
<circle cx="88.1568" cy="6.7800" r="0.3810" /> 
</g>
<g style="fill:#FFFFFF; fill-opacity:1.0000; stroke:none;">
<circle cx="85.6168" cy="6.7800" r="0.3810" /> 
</g>
<g style="fill:#FFFFFF; fill-opacity:1.0000; stroke:none;">
<circle cx="83.0768" cy="6.7800" r="0.3810" /> 
</g>
<g style="fill:#FFFFFF; fill-opacity:1.0000; stroke:none;">
<circle cx="80.5368" cy="6.7800" r="0.3810" /> 
</g>
<g style="fill:#FFFFFF; fill-opacity:1.0000; stroke:none;">
<circle cx="77.9968" cy="6.7800" r="0.3810" /> 
</g>
<g style="fill:#FFFFFF; fill-opacity:1.0000; stroke:none;">
<circle cx="75.4568" cy="6.7800" r="0.3810" /> 
</g>
<g style="fill:#FFFFFF; fill-opacity:1.0000; stroke:none;">
<circle cx="72.9168" cy="6.7800" r="0.3810" /> 
</g>
<g style="fill:#FFFFFF; fill-opacity:1.0000; stroke:none;">
<circle cx="70.3768" cy="6.7800" r="0.3810" /> 
</g>
<g style="fill:#FFFFFF; fill-opacity:1.0000; stroke:none;">
<circle cx="67.8368" cy="6.7800" r="0.3810" /> 
</g>
<g style="fill:#FFFFFF; fill-opacity:1.0000; stroke:none;">
<circle cx="65.2968" cy="6.7800" r="0.3810" /> 
</g>
<g style="fill:#FFFFFF; fill-opacity:1.0000; stroke:none;">
<circle cx="62.7568" cy="6.7800" r="0.3810" /> 
</g>
<g style="fill:#FFFFFF; fill-opacity:1.0000; stroke:none;">
<circle cx="60.2168" cy="6.7800" r="0.3810" /> 
</g>
<g style="fill:#FFFFFF; fill-opacity:1.0000; stroke:none;">
<circle cx="36.6968" cy="21.6600" r="0.5080" /> 
</g>
<g style="fill:#FFFFFF; fill-opacity:1.0000; stroke:none;">
<circle cx="46.8568" cy="21.6600" r="0.5080" /> 
</g>
<g style="fill:#FFFFFF; fill-opacity:1.0000; stroke:none;">
<circle cx="36.6968" cy="24.2000" r="0.5080" /> 
</g>
<g style="fill:#FFFFFF; fill-opacity:1.0000; stroke:none;">
<circle cx="36.6968" cy="29.2800" r="0.5080" /> 
</g>
<g style="fill:#FFFFFF; fill-opacity:1.0000; stroke:none;">
<circle cx="36.6968" cy="26.7400" r="0.5080" /> 
</g>
<g style="fill:#FFFFFF; fill-opacity:1.0000; stroke:none;">
<circle cx="36.6968" cy="19.1200" r="0.5080" /> 
</g>
<g style="fill:#FFFFFF; fill-opacity:1.0000; stroke:none;">
<circle cx="36.6968" cy="16.5800" r="0.5080" /> 
</g>
<g style="fill:#FFFFFF; fill-opacity:1.0000; stroke:none;">
<circle cx="46.8568" cy="24.2000" r="0.5080" /> 
</g>
<g style="fill:#FFFFFF; fill-opacity:1.0000; stroke:none;">
<circle cx="46.8568" cy="29.2800" r="0.5080" /> 
</g>
<g style="fill:#FFFFFF; fill-opacity:1.0000; stroke:none;">
<circle cx="46.8568" cy="26.7400" r="0.5080" /> 
</g>
<g style="fill:#FFFFFF; fill-opacity:1.0000; stroke:none;">
<circle cx="46.8568" cy="19.1200" r="0.5080" /> 
</g>
<g style="fill:#FFFFFF; fill-opacity:1.0000; stroke:none;">
<circle cx="46.8568" cy="16.5800" r="0.5080" /> 
</g>
<g style="fill:#FFFFFF; fill-opacity:1.0000; stroke:none;">
<circle cx="18.8593" cy="34.3600" r="0.5000" /> 
</g>
<g style="fill:#FFFFFF; fill-opacity:1.0000; stroke:none;">
<circle cx="18.8593" cy="31.8200" r="0.5000" /> 
</g>
<g style="fill:#FFFFFF; fill-opacity:1.0000; stroke:none;">
<circle cx="18.8593" cy="29.2800" r="0.5000" /> 
</g>
<g style="fill:#FFFFFF; fill-opacity:1.0000; stroke:none;">
<circle cx="18.8593" cy="26.7400" r="0.5000" /> 
</g>
<g style="fill:#FFFFFF; fill-opacity:1.0000; stroke:none;">
<circle cx="18.8593" cy="24.2000" r="0.5000" /> 
</g>
<g style="fill:#FFFFFF; fill-opacity:1.0000; stroke:none;">
<circle cx="18.8593" cy="21.6600" r="0.5000" /> 
</g>
<g style="fill:#FFFFFF; fill-opacity:1.0000; stroke:none;">
<circle cx="18.8593" cy="19.1200" r="0.5000" /> 
</g>
<g style="fill:#FFFFFF; fill-opacity:1.0000; stroke:none;">
<circle cx="18.8593" cy="16.5800" r="0.5000" /> 
</g>
<g style="fill:#FFFFFF; fill-opacity:1.0000; stroke:none;">
<circle cx="18.8593" cy="14.0400" r="0.5000" /> 
</g>
<g style="fill:#FFFFFF; fill-opacity:1.0000; stroke:none;">
<circle cx="18.8593" cy="11.5000" r="0.5000" /> 
</g>
<g style="fill:#FFFFFF; fill-opacity:1.0000; stroke:none;">
<circle cx="31.5593" cy="11.5000" r="1.2500" /> 
</g>
<g style="fill:#FFFFFF; fill-opacity:1.0000; stroke:none;">
<circle cx="31.5593" cy="34.3600" r="1.2500" /> 
</g>
<g style="fill:#FFFFFF; fill-opacity:1.0000; stroke:none;">
<circle cx="9.5018" cy="20.9800" r="0.5000" /> 
</g>
<g style="fill:#FFFFFF; fill-opacity:1.0000; stroke:none;">
<circle cx="13.5268" cy="24.1800" r="0.5000" /> 
</g>
<g style="fill:#FFFFFF; fill-opacity:1.0000; stroke:none;">
<circle cx="13.5268" cy="26.7200" r="0.5000" /> 
</g>
<g style="fill:#FFFFFF; fill-opacity:1.0000; stroke:none;">
<circle cx="13.5268" cy="29.2600" r="0.5000" /> 
</g>
<g style="fill:#FFFFFF; fill-opacity:1.0000; stroke:none;">
<circle cx="13.5268" cy="31.8000" r="0.5000" /> 
</g>
<g style="fill:#FFFFFF; fill-opacity:1.0000; stroke:none;">
<circle cx="13.5268" cy="34.3400" r="0.5000" /> 
</g> 
</svg>
