<?xml version="1.0" standalone="no"?>
 <!DOCTYPE svg PUBLIC "-//W3C//DTD SVG 1.1//EN" 
 "http://www.w3.org/Graphics/SVG/1.1/DTD/svg11.dtd"> 
<svg
  xmlns:svg="http://www.w3.org/2000/svg"
  xmlns="http://www.w3.org/2000/svg"
  xmlns:xlink="http://www.w3.org/1999/xlink"
  version="1.1"
  width="106.4006mm" height="40.0304mm" viewBox="0.0000 0.0000 106.4006 40.0304">
<title>SVG Image created as ESP8266_Calib_Module-brd.svg date 2024/08/19 15:04:15 </title>
  <desc>Image generated by PCBNEW </desc>
<g style="fill:#000000; fill-opacity:1.0000;stroke:#000000; stroke-opacity:1.0000;
stroke-linecap:round; stroke-linejoin:round;"
 transform="translate(0 0) scale(1 1)">
<path style="fill:none; 
stroke:#000000; stroke-width:0.0500; stroke-opacity:1; 
stroke-linecap:round; stroke-linejoin:round;fill:none"
d="M 100.9956,0.0250
1.2456,0.0250
1.2456,40.0250
100.9956,40.0250
Z" /> 
</g>
<g style="fill:none; 
stroke:#000000; stroke-width:0.5000; stroke-opacity:1; 
stroke-linecap:round; stroke-linejoin:round;">
<path d="M2.9856 29.0250
L2.3356 29.0250
" />
</g>
<g style="fill:none; 
stroke:#000000; stroke-width:0.5500; stroke-opacity:1; 
stroke-linecap:round; stroke-linejoin:round;">
<path d="M5.3606 28.1750
L5.3606 27.8750
" />
<path d="M5.3606 23.1750
L5.3606 22.8750
" />
</g>
<g style="fill:none; 
stroke:#000000; stroke-width:0.5000; stroke-opacity:1; 
stroke-linecap:round; stroke-linejoin:round;">
<path d="M2.9856 22.0250
L2.3356 22.0250
" />
</g>
<g style="fill:#000000; fill-opacity:1.0000; stroke:none;">
<circle cx="9.5106" cy="28.0250" r="0.5000" /> 
</g>
<g style="fill:#000000; fill-opacity:1.0000; stroke:none;">
<circle cx="96.1456" cy="33.5650" r="0.3810" /> 
</g>
<g style="fill:#000000; fill-opacity:1.0000; stroke:none;">
<circle cx="93.6056" cy="33.5650" r="0.3810" /> 
</g>
<g style="fill:#000000; fill-opacity:1.0000; stroke:none;">
<circle cx="91.0656" cy="33.5650" r="0.3810" /> 
</g>
<g style="fill:#000000; fill-opacity:1.0000; stroke:none;">
<circle cx="88.5256" cy="33.5650" r="0.3810" /> 
</g>
<g style="fill:#000000; fill-opacity:1.0000; stroke:none;">
<circle cx="85.9856" cy="33.5650" r="0.3810" /> 
</g>
<g style="fill:#000000; fill-opacity:1.0000; stroke:none;">
<circle cx="83.4456" cy="33.5650" r="0.3810" /> 
</g>
<g style="fill:#000000; fill-opacity:1.0000; stroke:none;">
<circle cx="80.9056" cy="33.5650" r="0.3810" /> 
</g>
<g style="fill:#000000; fill-opacity:1.0000; stroke:none;">
<circle cx="78.3656" cy="33.5650" r="0.3810" /> 
</g>
<g style="fill:#000000; fill-opacity:1.0000; stroke:none;">
<circle cx="75.8256" cy="33.5650" r="0.3810" /> 
</g>
<g style="fill:#000000; fill-opacity:1.0000; stroke:none;">
<circle cx="73.2856" cy="33.5650" r="0.3810" /> 
</g>
<g style="fill:#000000; fill-opacity:1.0000; stroke:none;">
<circle cx="70.7456" cy="33.5650" r="0.3810" /> 
</g>
<g style="fill:#000000; fill-opacity:1.0000; stroke:none;">
<circle cx="68.2056" cy="33.5650" r="0.3810" /> 
</g>
<g style="fill:#000000; fill-opacity:1.0000; stroke:none;">
<circle cx="65.6656" cy="33.5650" r="0.3810" /> 
</g>
<g style="fill:#000000; fill-opacity:1.0000; stroke:none;">
<circle cx="63.1256" cy="33.5650" r="0.3810" /> 
</g>
<g style="fill:#000000; fill-opacity:1.0000; stroke:none;">
<circle cx="60.5856" cy="33.5650" r="0.3810" /> 
</g>
<g style="fill:#000000; fill-opacity:1.0000; stroke:none;">
<circle cx="60.5856" cy="5.6250" r="0.3810" /> 
</g>
<g style="fill:#000000; fill-opacity:1.0000; stroke:none;">
<circle cx="63.1256" cy="5.6250" r="0.3810" /> 
</g>
<g style="fill:#000000; fill-opacity:1.0000; stroke:none;">
<circle cx="65.6656" cy="5.6250" r="0.3810" /> 
</g>
<g style="fill:#000000; fill-opacity:1.0000; stroke:none;">
<circle cx="68.2056" cy="5.6250" r="0.3810" /> 
</g>
<g style="fill:#000000; fill-opacity:1.0000; stroke:none;">
<circle cx="70.7456" cy="5.6250" r="0.3810" /> 
</g>
<g style="fill:#000000; fill-opacity:1.0000; stroke:none;">
<circle cx="73.2856" cy="5.6250" r="0.3810" /> 
</g>
<g style="fill:#000000; fill-opacity:1.0000; stroke:none;">
<circle cx="75.8256" cy="5.6250" r="0.3810" /> 
</g>
<g style="fill:#000000; fill-opacity:1.0000; stroke:none;">
<circle cx="78.3656" cy="5.6250" r="0.3810" /> 
</g>
<g style="fill:#000000; fill-opacity:1.0000; stroke:none;">
<circle cx="80.9056" cy="5.6250" r="0.3810" /> 
</g>
<g style="fill:#000000; fill-opacity:1.0000; stroke:none;">
<circle cx="83.4456" cy="5.6250" r="0.3810" /> 
</g>
<g style="fill:#000000; fill-opacity:1.0000; stroke:none;">
<circle cx="85.9856" cy="5.6250" r="0.3810" /> 
</g>
<g style="fill:#000000; fill-opacity:1.0000; stroke:none;">
<circle cx="88.5256" cy="5.6250" r="0.3810" /> 
</g>
<g style="fill:#000000; fill-opacity:1.0000; stroke:none;">
<circle cx="91.0656" cy="5.6250" r="0.3810" /> 
</g>
<g style="fill:#000000; fill-opacity:1.0000; stroke:none;">
<circle cx="93.6056" cy="5.6250" r="0.3810" /> 
</g>
<g style="fill:#000000; fill-opacity:1.0000; stroke:none;">
<circle cx="96.1456" cy="5.6250" r="0.3810" /> 
</g>
<g style="fill:#000000; fill-opacity:1.0000; stroke:none;">
<circle cx="36.7056" cy="20.5050" r="0.5080" /> 
</g>
<g style="fill:#000000; fill-opacity:1.0000; stroke:none;">
<circle cx="46.8656" cy="20.5050" r="0.5080" /> 
</g>
<g style="fill:#000000; fill-opacity:1.0000; stroke:none;">
<circle cx="36.7056" cy="23.0450" r="0.5080" /> 
</g>
<g style="fill:#000000; fill-opacity:1.0000; stroke:none;">
<circle cx="36.7056" cy="28.1250" r="0.5080" /> 
</g>
<g style="fill:#000000; fill-opacity:1.0000; stroke:none;">
<circle cx="36.7056" cy="25.5850" r="0.5080" /> 
</g>
<g style="fill:#000000; fill-opacity:1.0000; stroke:none;">
<circle cx="36.7056" cy="17.9650" r="0.5080" /> 
</g>
<g style="fill:#000000; fill-opacity:1.0000; stroke:none;">
<circle cx="36.7056" cy="15.4250" r="0.5080" /> 
</g>
<g style="fill:#000000; fill-opacity:1.0000; stroke:none;">
<circle cx="46.8656" cy="23.0450" r="0.5080" /> 
</g>
<g style="fill:#000000; fill-opacity:1.0000; stroke:none;">
<circle cx="46.8656" cy="28.1250" r="0.5080" /> 
</g>
<g style="fill:#000000; fill-opacity:1.0000; stroke:none;">
<circle cx="46.8656" cy="25.5850" r="0.5080" /> 
</g>
<g style="fill:#000000; fill-opacity:1.0000; stroke:none;">
<circle cx="46.8656" cy="17.9650" r="0.5080" /> 
</g>
<g style="fill:#000000; fill-opacity:1.0000; stroke:none;">
<circle cx="46.8656" cy="15.4250" r="0.5080" /> 
</g>
<g style="fill:#000000; fill-opacity:1.0000; stroke:none;">
<circle cx="18.8681" cy="33.2050" r="0.5000" /> 
</g>
<g style="fill:#000000; fill-opacity:1.0000; stroke:none;">
<circle cx="18.8681" cy="30.6650" r="0.5000" /> 
</g>
<g style="fill:#000000; fill-opacity:1.0000; stroke:none;">
<circle cx="18.8681" cy="28.1250" r="0.5000" /> 
</g>
<g style="fill:#000000; fill-opacity:1.0000; stroke:none;">
<circle cx="18.8681" cy="25.5850" r="0.5000" /> 
</g>
<g style="fill:#000000; fill-opacity:1.0000; stroke:none;">
<circle cx="18.8681" cy="23.0450" r="0.5000" /> 
</g>
<g style="fill:#000000; fill-opacity:1.0000; stroke:none;">
<circle cx="18.8681" cy="20.5050" r="0.5000" /> 
</g>
<g style="fill:#000000; fill-opacity:1.0000; stroke:none;">
<circle cx="18.8681" cy="17.9650" r="0.5000" /> 
</g>
<g style="fill:#000000; fill-opacity:1.0000; stroke:none;">
<circle cx="18.8681" cy="15.4250" r="0.5000" /> 
</g>
<g style="fill:#000000; fill-opacity:1.0000; stroke:none;">
<circle cx="18.8681" cy="12.8850" r="0.5000" /> 
</g>
<g style="fill:#000000; fill-opacity:1.0000; stroke:none;">
<circle cx="18.8681" cy="10.3450" r="0.5000" /> 
</g>
<g style="fill:#000000; fill-opacity:1.0000; stroke:none;">
<circle cx="31.5681" cy="10.3450" r="1.2500" /> 
</g>
<g style="fill:#000000; fill-opacity:1.0000; stroke:none;">
<circle cx="31.5681" cy="33.2050" r="1.2500" /> 
</g>
<g style="fill:#000000; fill-opacity:1.0000; stroke:none;">
<circle cx="9.5106" cy="19.8250" r="0.5000" /> 
</g>
<g style="fill:#000000; fill-opacity:1.0000; stroke:none;">
<circle cx="13.5356" cy="23.0250" r="0.5000" /> 
</g>
<g style="fill:#000000; fill-opacity:1.0000; stroke:none;">
<circle cx="13.5356" cy="25.5650" r="0.5000" /> 
</g>
<g style="fill:#000000; fill-opacity:1.0000; stroke:none;">
<circle cx="13.5356" cy="28.1050" r="0.5000" /> 
</g>
<g style="fill:#000000; fill-opacity:1.0000; stroke:none;">
<circle cx="13.5356" cy="30.6450" r="0.5000" /> 
</g>
<g style="fill:#000000; fill-opacity:1.0000; stroke:none;">
<circle cx="13.5356" cy="33.1850" r="0.5000" /> 
<path style="fill:#000000; fill-opacity:1.0000; stroke:none;fill-rule:evenodd;"
d="M 4.6856,27.0250
6.0356,27.0250
6.0356,26.6250
4.6856,26.6250
Z" /> 
<path style="fill:#000000; fill-opacity:1.0000; stroke:none;fill-rule:evenodd;"
d="M 4.6856,26.3750
6.0356,26.3750
6.0356,25.9750
4.6856,25.9750
Z" /> 
<path style="fill:#000000; fill-opacity:1.0000; stroke:none;fill-rule:evenodd;"
d="M 4.6856,25.7250
6.0356,25.7250
6.0356,25.3250
4.6856,25.3250
Z" /> 
<path style="fill:#000000; fill-opacity:1.0000; stroke:none;fill-rule:evenodd;"
d="M 4.6856,25.0750
6.0356,25.0750
6.0356,24.6750
4.6856,24.6750
Z" /> 
<path style="fill:#000000; fill-opacity:1.0000; stroke:none;fill-rule:evenodd;"
d="M 4.6856,24.4250
6.0356,24.4250
6.0356,24.0250
4.6856,24.0250
Z" /> 
</g>
<g style="fill:none; 
stroke:#000000; stroke-width:0.8900; stroke-opacity:1; 
stroke-linecap:round; stroke-linejoin:round;">
<path d="M2.9906 29.0250
L2.3306 29.0250
" />
<path style="fill:#000000; fill-opacity:1.0000; stroke:none;fill-rule:evenodd;"
d="M 1.8856,29.0250
3.4356,29.0250
3.4356,27.8250
1.8856,27.8250
Z" /> 
</g>
<g style="fill:none; 
stroke:#000000; stroke-width:0.9500; stroke-opacity:1; 
stroke-linecap:round; stroke-linejoin:round;">
<path d="M5.3606 28.1750
L5.3606 27.8750
" />
<path style="fill:#000000; fill-opacity:1.0000; stroke:none;fill-rule:evenodd;"
d="M 1.8856,27.2750
3.4356,27.2750
3.4356,25.7750
1.8856,25.7750
Z" /> 
<path style="fill:#000000; fill-opacity:1.0000; stroke:none;fill-rule:evenodd;"
d="M 1.8856,25.2750
3.4356,25.2750
3.4356,23.7750
1.8856,23.7750
Z" /> 
</g>
<g style="fill:none; 
stroke:#000000; stroke-width:0.9500; stroke-opacity:1; 
stroke-linecap:round; stroke-linejoin:round;">
<path d="M5.3606 23.1750
L5.3606 22.8750
" />
<path style="fill:#000000; fill-opacity:1.0000; stroke:none;fill-rule:evenodd;"
d="M 1.8856,23.2250
3.4356,23.2250
3.4356,22.0250
1.8856,22.0250
Z" /> 
</g>
<g style="fill:none; 
stroke:#000000; stroke-width:0.8900; stroke-opacity:1; 
stroke-linecap:round; stroke-linejoin:round;">
<path d="M2.9906 22.0250
L2.3306 22.0250
" />
<path style="fill:#000000; fill-opacity:1.0000; stroke:none;fill-rule:evenodd;"
d="M 8.6606,27.1750
8.6606,28.8750
10.3606,28.8750
10.3606,27.1750
Z" /> 
</g>
<g style="fill:#000000; fill-opacity:1.0000; stroke:none;">
<circle cx="96.1456" cy="33.5650" r="0.7620" /> 
</g>
<g style="fill:#000000; fill-opacity:1.0000; stroke:none;">
<circle cx="93.6056" cy="33.5650" r="0.7620" /> 
</g>
<g style="fill:#000000; fill-opacity:1.0000; stroke:none;">
<circle cx="91.0656" cy="33.5650" r="0.7620" /> 
</g>
<g style="fill:#000000; fill-opacity:1.0000; stroke:none;">
<circle cx="88.5256" cy="33.5650" r="0.7620" /> 
</g>
<g style="fill:#000000; fill-opacity:1.0000; stroke:none;">
<circle cx="85.9856" cy="33.5650" r="0.7620" /> 
</g>
<g style="fill:#000000; fill-opacity:1.0000; stroke:none;">
<circle cx="83.4456" cy="33.5650" r="0.7620" /> 
</g>
<g style="fill:#000000; fill-opacity:1.0000; stroke:none;">
<circle cx="80.9056" cy="33.5650" r="0.7620" /> 
</g>
<g style="fill:#000000; fill-opacity:1.0000; stroke:none;">
<circle cx="78.3656" cy="33.5650" r="0.7620" /> 
</g>
<g style="fill:#000000; fill-opacity:1.0000; stroke:none;">
<circle cx="75.8256" cy="33.5650" r="0.7620" /> 
</g>
<g style="fill:#000000; fill-opacity:1.0000; stroke:none;">
<circle cx="73.2856" cy="33.5650" r="0.7620" /> 
</g>
<g style="fill:#000000; fill-opacity:1.0000; stroke:none;">
<circle cx="70.7456" cy="33.5650" r="0.7620" /> 
</g>
<g style="fill:#000000; fill-opacity:1.0000; stroke:none;">
<circle cx="68.2056" cy="33.5650" r="0.7620" /> 
</g>
<g style="fill:#000000; fill-opacity:1.0000; stroke:none;">
<circle cx="65.6656" cy="33.5650" r="0.7620" /> 
</g>
<g style="fill:#000000; fill-opacity:1.0000; stroke:none;">
<circle cx="63.1256" cy="33.5650" r="0.7620" /> 
</g>
<g style="fill:#000000; fill-opacity:1.0000; stroke:none;">
<circle cx="60.5856" cy="33.5650" r="0.7620" /> 
</g>
<g style="fill:#000000; fill-opacity:1.0000; stroke:none;">
<circle cx="60.5856" cy="5.6250" r="0.7620" /> 
</g>
<g style="fill:#000000; fill-opacity:1.0000; stroke:none;">
<circle cx="63.1256" cy="5.6250" r="0.7620" /> 
</g>
<g style="fill:#000000; fill-opacity:1.0000; stroke:none;">
<circle cx="65.6656" cy="5.6250" r="0.7620" /> 
</g>
<g style="fill:#000000; fill-opacity:1.0000; stroke:none;">
<circle cx="68.2056" cy="5.6250" r="0.7620" /> 
</g>
<g style="fill:#000000; fill-opacity:1.0000; stroke:none;">
<circle cx="70.7456" cy="5.6250" r="0.7620" /> 
</g>
<g style="fill:#000000; fill-opacity:1.0000; stroke:none;">
<circle cx="73.2856" cy="5.6250" r="0.7620" /> 
</g>
<g style="fill:#000000; fill-opacity:1.0000; stroke:none;">
<circle cx="75.8256" cy="5.6250" r="0.7620" /> 
</g>
<g style="fill:#000000; fill-opacity:1.0000; stroke:none;">
<circle cx="78.3656" cy="5.6250" r="0.7620" /> 
</g>
<g style="fill:#000000; fill-opacity:1.0000; stroke:none;">
<circle cx="80.9056" cy="5.6250" r="0.7620" /> 
</g>
<g style="fill:#000000; fill-opacity:1.0000; stroke:none;">
<circle cx="83.4456" cy="5.6250" r="0.7620" /> 
</g>
<g style="fill:#000000; fill-opacity:1.0000; stroke:none;">
<circle cx="85.9856" cy="5.6250" r="0.7620" /> 
</g>
<g style="fill:#000000; fill-opacity:1.0000; stroke:none;">
<circle cx="88.5256" cy="5.6250" r="0.7620" /> 
</g>
<g style="fill:#000000; fill-opacity:1.0000; stroke:none;">
<circle cx="91.0656" cy="5.6250" r="0.7620" /> 
</g>
<g style="fill:#000000; fill-opacity:1.0000; stroke:none;">
<circle cx="93.6056" cy="5.6250" r="0.7620" /> 
</g>
<g style="fill:#000000; fill-opacity:1.0000; stroke:none;">
<circle cx="96.1456" cy="5.6250" r="0.7620" /> 
</g>
<g style="fill:#000000; fill-opacity:1.0000; stroke:none;">
<circle cx="36.7056" cy="20.5050" r="0.7620" /> 
</g>
<g style="fill:#000000; fill-opacity:1.0000; stroke:none;">
<circle cx="46.8656" cy="20.5050" r="0.7620" /> 
</g>
<g style="fill:#000000; fill-opacity:1.0000; stroke:none;">
<circle cx="36.7056" cy="23.0450" r="0.7620" /> 
<path style="fill:#000000; fill-opacity:1.0000; stroke:none;fill-rule:evenodd;"
d="M 37.4676,28.8870
37.4676,27.3630
35.9436,27.3630
35.9436,28.8870
Z" /> 
</g>
<g style="fill:#000000; fill-opacity:1.0000; stroke:none;">
<circle cx="36.7056" cy="25.5850" r="0.7620" /> 
</g>
<g style="fill:#000000; fill-opacity:1.0000; stroke:none;">
<circle cx="36.7056" cy="17.9650" r="0.7620" /> 
</g>
<g style="fill:#000000; fill-opacity:1.0000; stroke:none;">
<circle cx="36.7056" cy="15.4250" r="0.7620" /> 
</g>
<g style="fill:#000000; fill-opacity:1.0000; stroke:none;">
<circle cx="46.8656" cy="23.0450" r="0.7620" /> 
<path style="fill:#000000; fill-opacity:1.0000; stroke:none;fill-rule:evenodd;"
d="M 47.6276,28.8870
47.6276,27.3630
46.1036,27.3630
46.1036,28.8870
Z" /> 
</g>
<g style="fill:#000000; fill-opacity:1.0000; stroke:none;">
<circle cx="46.8656" cy="25.5850" r="0.7620" /> 
</g>
<g style="fill:#000000; fill-opacity:1.0000; stroke:none;">
<circle cx="46.8656" cy="17.9650" r="0.7620" /> 
</g>
<g style="fill:#000000; fill-opacity:1.0000; stroke:none;">
<circle cx="46.8656" cy="15.4250" r="0.7620" /> 
<path style="fill:#000000; fill-opacity:1.0000; stroke:none;fill-rule:evenodd;"
d="M 19.7571,32.3160
17.9791,32.3160
17.9791,34.0940
19.7571,34.0940
Z" /> 
</g>
<g style="fill:#000000; fill-opacity:1.0000; stroke:none;">
<circle cx="18.8681" cy="30.6650" r="0.8890" /> 
</g>
<g style="fill:#000000; fill-opacity:1.0000; stroke:none;">
<circle cx="18.8681" cy="28.1250" r="0.8890" /> 
</g>
<g style="fill:#000000; fill-opacity:1.0000; stroke:none;">
<circle cx="18.8681" cy="25.5850" r="0.8890" /> 
</g>
<g style="fill:#000000; fill-opacity:1.0000; stroke:none;">
<circle cx="18.8681" cy="23.0450" r="0.8890" /> 
</g>
<g style="fill:#000000; fill-opacity:1.0000; stroke:none;">
<circle cx="18.8681" cy="20.5050" r="0.8890" /> 
</g>
<g style="fill:#000000; fill-opacity:1.0000; stroke:none;">
<circle cx="18.8681" cy="17.9650" r="0.8890" /> 
</g>
<g style="fill:#000000; fill-opacity:1.0000; stroke:none;">
<circle cx="18.8681" cy="15.4250" r="0.8890" /> 
</g>
<g style="fill:#000000; fill-opacity:1.0000; stroke:none;">
<circle cx="18.8681" cy="12.8850" r="0.8890" /> 
</g>
<g style="fill:#000000; fill-opacity:1.0000; stroke:none;">
<circle cx="18.8681" cy="10.3450" r="0.8890" /> 
</g>
<g style="fill:#000000; fill-opacity:1.0000; stroke:none;">
<circle cx="31.5681" cy="10.3450" r="1.6000" /> 
</g>
<g style="fill:#000000; fill-opacity:1.0000; stroke:none;">
<circle cx="31.5681" cy="33.2050" r="1.6000" /> 
<path style="fill:#000000; fill-opacity:1.0000; stroke:none;fill-rule:evenodd;"
d="M 8.6606,18.9750
8.6606,20.6750
10.3606,20.6750
10.3606,18.9750
Z" /> 
<path style="fill:#000000; fill-opacity:1.0000; stroke:none;fill-rule:evenodd;"
d="M 12.6856,22.1750
12.6856,23.8750
14.3856,23.8750
14.3856,22.1750
Z" /> 
</g>
<g style="fill:#000000; fill-opacity:1.0000; stroke:none;">
<circle cx="13.5356" cy="25.5650" r="0.8500" /> 
<circle cx="13.5356" cy="28.1050" r="0.8500" /> 
<circle cx="13.5356" cy="30.6450" r="0.8500" /> 
<circle cx="13.5356" cy="33.1850" r="0.8500" /> 
</g>
<g style="fill:none; 
stroke:#000000; stroke-width:0.2000; stroke-opacity:1; 
stroke-linecap:round; stroke-linejoin:round;">
<path d="M1.8456 39.4250
L1.8456 35.4500
" />
<path d="M100.3956 39.4250
L1.8456 39.4250
" />
<path d="M1.8456 0.6250
L100.3956 0.6250
" />
<path d="M100.3956 0.6250
L100.3956 39.4250
" />
<path d="M1.8456 2.8500
L1.8456 0.6250
" />
</g>
<g style="fill:none; 
stroke:#000000; stroke-width:0.8128; stroke-opacity:1; 
stroke-linecap:round; stroke-linejoin:round;">
<path d="M93.6056 33.5650
L93.6056 27.3450
" />
<path d="M46.8656 15.4250
L81.6856 15.4250
" />
<path d="M93.6056 27.3450
L81.6856 15.4250
" />
<path d="M68.0456 8.3250
L70.7456 5.6250
" />
<path d="M41.7956 8.3250
L68.0456 8.3250
" />
<path d="M9.5106 14.2600
L17.0456 6.7250
" />
<path d="M60.5856 31.2750
L60.5856 33.5650
" />
<path d="M9.5106 19.8250
L9.5106 14.2600
" />
<path d="M52.3556 23.0450
L60.5856 31.2750
" />
<path d="M46.6156 23.0450
L52.3556 23.0450
" />
<path d="M17.0456 6.7250
L40.1956 6.7250
" />
<path d="M40.1956 6.7250
L41.7956 8.3250
" />
<path d="M51.3606 28.1250
L46.6156 28.1250
" />
<path d="M76.1806 35.7500
L58.9856 35.7500
" />
<path d="M78.3656 33.5650
L76.1806 35.7500
" />
<path d="M58.9856 35.7500
L51.3606 28.1250
" />
</g>
<g style="fill:none; 
stroke:#000000; stroke-width:0.4064; stroke-opacity:1; 
stroke-linecap:round; stroke-linejoin:round;">
<path d="M7.2106 27.9500
L7.2106 31.5000
" />
</g>
<g style="fill:none; 
stroke:#000000; stroke-width:0.8128; stroke-opacity:1; 
stroke-linecap:round; stroke-linejoin:round;">
<path d="M36.7056 23.0450
L37.8406 23.0450
" />
<path d="M8.8956 33.1850
L7.2106 31.5000
" />
<path d="M21.6156 10.3450
L23.9706 12.7000
" />
<path d="M18.8681 10.3450
L21.6156 10.3450
" />
<path d="M37.8406 23.0450
L39.8106 25.0150
" />
<path d="M23.9706 12.7000
L42.3956 12.7000
" />
<path d="M13.5356 33.1850
L8.8956 33.1850
" />
</g>
<g style="fill:none; 
stroke:#000000; stroke-width:0.4064; stroke-opacity:1; 
stroke-linecap:round; stroke-linejoin:round;">
<path d="M5.3606 26.8250
L6.0856 26.8250
" />
</g>
<g style="fill:none; 
stroke:#000000; stroke-width:0.8128; stroke-opacity:1; 
stroke-linecap:round; stroke-linejoin:round;">
<path d="M39.8106 34.8000
L38.1606 36.4500
" />
<path d="M42.3956 12.7000
L43.3956 11.7000
" />
</g>
<g style="fill:none; 
stroke:#000000; stroke-width:0.4064; stroke-opacity:1; 
stroke-linecap:round; stroke-linejoin:round;">
<path d="M6.0856 26.8250
L7.2106 27.9500
" />
</g>
<g style="fill:none; 
stroke:#000000; stroke-width:0.8128; stroke-opacity:1; 
stroke-linecap:round; stroke-linejoin:round;">
<path d="M43.3956 11.7000
L84.9906 11.7000
" />
<path d="M84.9906 11.7000
L91.0656 5.6250
" />
<path d="M39.8106 25.0150
L39.8106 34.8000
" />
<path d="M38.1606 36.4500
L16.8356 36.4500
" />
<path d="M16.8356 36.4500
L13.5706 33.1850
" />
<path d="M13.5706 33.1850
L13.5356 33.1850
" />
<path d="M82.7193 25.2187
L82.7193 25.2187
" />
<path d="M75.4656 17.9650
L46.8656 17.9650
" />
<path d="M79.8852 22.3846
L79.6490 22.1484
" />
<path d="M83.1916 24.7463
L82.7193 25.2187
" />
<path d="M81.1297 25.8636
L80.8935 25.6274
" />
<path d="M84.3725 25.9272
L84.5450 25.7547
" />
<path d="M81.0024 22.2121
L80.8299 22.3846
" />
<path d="M81.5384 24.0378
L81.5384 24.0378
" />
<path d="M83.3642 24.5738
L83.1916 24.7463
" />
<path d="M82.1833 22.4482
L81.9471 22.2121
" />
<path d="M84.5450 24.8100
L84.3089 24.5738
" />
<path d="M81.5384 24.0378
L82.0108 23.5655
" />
<path d="M80.8935 24.6827
L81.5384 24.0378
" />
<path d="M91.0656 33.5650
L84.3725 26.8719
" />
<path d="M79.6490 22.1484
L78.1780 20.6774
" />
<path d="M78.1780 20.6774
L75.4656 17.9650
" />
<path d="M82.0108 23.5655
L82.1833 23.3929
" />
<path d="M82.7193 25.2187
L82.0744 25.8636
" />
<path d="M84.3725 25.9273 A0.6679 0.6679 0.0 0 0 84.3725 26.8719" />
<path d="M84.5450 25.7547 A0.6680 0.6680 0.0 0 0 84.5451 24.8100" />
<path d="M84.3089 24.5738 A0.6680 0.6680 0.0 0 0 83.3642 24.5738" />
<path d="M79.8852 22.3846 A0.6680 0.6680 0.0 0 0 80.8299 22.3846" />
<path d="M81.1297 25.8636 A0.6680 0.6680 0.0 0 0 82.0744 25.8636" />
<path d="M80.8935 24.6827 A0.6680 0.6680 0.0 0 0 80.8935 25.6274" />
<path d="M81.9471 22.2121 A0.6680 0.6680 0.0 0 0 81.0025 22.2121" />
<path d="M82.1833 23.3929 A0.6680 0.6680 0.0 0 0 82.1833 22.4483" />
<path d="M36.4556 15.4250
L18.8931 15.4250
" />
<path d="M36.4556 17.9650
L18.8931 17.9650
" />
<path d="M12.5356 23.0250
L5.3606 23.0250
" />
<path d="M12.5356 23.0250
L12.5356 22.9750
" />
<path d="M18.8681 12.8850
L17.1006 12.8850
" />
<path d="M2.6606 29.0250
L4.3606 29.0250
" />
<path d="M63.1256 27.3900
L63.1256 33.5650
" />
<path d="M15.9856 19.5250
L16.9656 20.5050
" />
<path d="M18.8681 20.5050
L36.7056 20.5050
" />
<path d="M12.5356 22.9750
L15.9856 19.5250
" />
<path d="M16.9656 20.5050
L18.8681 20.5050
" />
<path d="M2.6606 24.5250
L2.6606 26.5250
" />
<path d="M56.2406 20.5050
L63.1256 27.3900
" />
<path d="M63.1256 4.8050
L61.9706 3.6500
" />
<path d="M2.6606 22.0250
L4.3606 22.0250
" />
<path d="M2.6606 26.5250
L2.6606 28.4250
" />
<path d="M63.1256 5.6250
L63.1256 4.8050
" />
<path d="M2.6606 22.6250
L2.6606 24.5250
" />
<path d="M2.6606 10.9100
L2.6606 22.6250
" />
<path d="M9.9206 3.6500
L2.6606 10.9100
" />
<path d="M46.6156 20.5050
L56.2406 20.5050
" />
<path d="M4.3606 22.0250
L5.3606 23.0250
" />
<path d="M15.9856 14.0000
L15.9856 19.5250
" />
<path d="M61.9706 3.6500
L9.9206 3.6500
" />
<path d="M4.3606 29.0250
L5.3606 28.0250
" />
<path d="M17.1006 12.8850
L15.9856 14.0000
" />
</g>
<g style="fill:none; 
stroke:#000000; stroke-width:0.4064; stroke-opacity:1; 
stroke-linecap:round; stroke-linejoin:round;">
<path d="M5.3606 24.2250
L5.3606 23.0250
" />
</g>
<g style="fill:none; 
stroke:#000000; stroke-width:0.8128; stroke-opacity:1; 
stroke-linecap:round; stroke-linejoin:round;">
<path d="M28.9106 28.1250
L36.7056 28.1250
" />
<path d="M18.8681 23.0450
L23.8306 23.0450
" />
<path d="M23.8306 23.0450
L28.9106 28.1250
" />
<path d="M18.8681 28.1250
L13.5556 28.1250
" />
<path d="M13.5556 28.1250
L13.5356 28.1050
" />
<path d="M18.8481 28.1050
L18.8681 28.1250
" />
</g>
<g style="fill:none; 
stroke:#000000; stroke-width:0.4064; stroke-opacity:1; 
stroke-linecap:round; stroke-linejoin:round;">
<path d="M5.3606 25.5250
L7.0106 25.5250
" />
<path d="M7.0106 25.5250
L9.5106 28.0250
" />
<path d="M12.8456 24.8750
L13.5356 25.5650
" />
<path d="M5.3606 24.8750
L12.8456 24.8750
" />
</g>
<g style="fill:none; 
stroke:#FFFFFF; stroke-width:0.5000; stroke-opacity:1; 
stroke-linecap:round; stroke-linejoin:round;">
<path d="M2.9856 29.0250
L2.3356 29.0250
" />
</g>
<g style="fill:none; 
stroke:#FFFFFF; stroke-width:0.5500; stroke-opacity:1; 
stroke-linecap:round; stroke-linejoin:round;">
<path d="M5.3606 28.1750
L5.3606 27.8750
" />
<path d="M5.3606 23.1750
L5.3606 22.8750
" />
</g>
<g style="fill:none; 
stroke:#FFFFFF; stroke-width:0.5000; stroke-opacity:1; 
stroke-linecap:round; stroke-linejoin:round;">
<path d="M2.9856 22.0250
L2.3356 22.0250
" />
</g>
<g style="fill:#FFFFFF; fill-opacity:1.0000; stroke:none;">
<circle cx="9.5106" cy="28.0250" r="0.5000" /> 
</g>
<g style="fill:#FFFFFF; fill-opacity:1.0000; stroke:none;">
<circle cx="96.1456" cy="33.5650" r="0.3810" /> 
</g>
<g style="fill:#FFFFFF; fill-opacity:1.0000; stroke:none;">
<circle cx="93.6056" cy="33.5650" r="0.3810" /> 
</g>
<g style="fill:#FFFFFF; fill-opacity:1.0000; stroke:none;">
<circle cx="91.0656" cy="33.5650" r="0.3810" /> 
</g>
<g style="fill:#FFFFFF; fill-opacity:1.0000; stroke:none;">
<circle cx="88.5256" cy="33.5650" r="0.3810" /> 
</g>
<g style="fill:#FFFFFF; fill-opacity:1.0000; stroke:none;">
<circle cx="85.9856" cy="33.5650" r="0.3810" /> 
</g>
<g style="fill:#FFFFFF; fill-opacity:1.0000; stroke:none;">
<circle cx="83.4456" cy="33.5650" r="0.3810" /> 
</g>
<g style="fill:#FFFFFF; fill-opacity:1.0000; stroke:none;">
<circle cx="80.9056" cy="33.5650" r="0.3810" /> 
</g>
<g style="fill:#FFFFFF; fill-opacity:1.0000; stroke:none;">
<circle cx="78.3656" cy="33.5650" r="0.3810" /> 
</g>
<g style="fill:#FFFFFF; fill-opacity:1.0000; stroke:none;">
<circle cx="75.8256" cy="33.5650" r="0.3810" /> 
</g>
<g style="fill:#FFFFFF; fill-opacity:1.0000; stroke:none;">
<circle cx="73.2856" cy="33.5650" r="0.3810" /> 
</g>
<g style="fill:#FFFFFF; fill-opacity:1.0000; stroke:none;">
<circle cx="70.7456" cy="33.5650" r="0.3810" /> 
</g>
<g style="fill:#FFFFFF; fill-opacity:1.0000; stroke:none;">
<circle cx="68.2056" cy="33.5650" r="0.3810" /> 
</g>
<g style="fill:#FFFFFF; fill-opacity:1.0000; stroke:none;">
<circle cx="65.6656" cy="33.5650" r="0.3810" /> 
</g>
<g style="fill:#FFFFFF; fill-opacity:1.0000; stroke:none;">
<circle cx="63.1256" cy="33.5650" r="0.3810" /> 
</g>
<g style="fill:#FFFFFF; fill-opacity:1.0000; stroke:none;">
<circle cx="60.5856" cy="33.5650" r="0.3810" /> 
</g>
<g style="fill:#FFFFFF; fill-opacity:1.0000; stroke:none;">
<circle cx="60.5856" cy="5.6250" r="0.3810" /> 
</g>
<g style="fill:#FFFFFF; fill-opacity:1.0000; stroke:none;">
<circle cx="63.1256" cy="5.6250" r="0.3810" /> 
</g>
<g style="fill:#FFFFFF; fill-opacity:1.0000; stroke:none;">
<circle cx="65.6656" cy="5.6250" r="0.3810" /> 
</g>
<g style="fill:#FFFFFF; fill-opacity:1.0000; stroke:none;">
<circle cx="68.2056" cy="5.6250" r="0.3810" /> 
</g>
<g style="fill:#FFFFFF; fill-opacity:1.0000; stroke:none;">
<circle cx="70.7456" cy="5.6250" r="0.3810" /> 
</g>
<g style="fill:#FFFFFF; fill-opacity:1.0000; stroke:none;">
<circle cx="73.2856" cy="5.6250" r="0.3810" /> 
</g>
<g style="fill:#FFFFFF; fill-opacity:1.0000; stroke:none;">
<circle cx="75.8256" cy="5.6250" r="0.3810" /> 
</g>
<g style="fill:#FFFFFF; fill-opacity:1.0000; stroke:none;">
<circle cx="78.3656" cy="5.6250" r="0.3810" /> 
</g>
<g style="fill:#FFFFFF; fill-opacity:1.0000; stroke:none;">
<circle cx="80.9056" cy="5.6250" r="0.3810" /> 
</g>
<g style="fill:#FFFFFF; fill-opacity:1.0000; stroke:none;">
<circle cx="83.4456" cy="5.6250" r="0.3810" /> 
</g>
<g style="fill:#FFFFFF; fill-opacity:1.0000; stroke:none;">
<circle cx="85.9856" cy="5.6250" r="0.3810" /> 
</g>
<g style="fill:#FFFFFF; fill-opacity:1.0000; stroke:none;">
<circle cx="88.5256" cy="5.6250" r="0.3810" /> 
</g>
<g style="fill:#FFFFFF; fill-opacity:1.0000; stroke:none;">
<circle cx="91.0656" cy="5.6250" r="0.3810" /> 
</g>
<g style="fill:#FFFFFF; fill-opacity:1.0000; stroke:none;">
<circle cx="93.6056" cy="5.6250" r="0.3810" /> 
</g>
<g style="fill:#FFFFFF; fill-opacity:1.0000; stroke:none;">
<circle cx="96.1456" cy="5.6250" r="0.3810" /> 
</g>
<g style="fill:#FFFFFF; fill-opacity:1.0000; stroke:none;">
<circle cx="36.7056" cy="20.5050" r="0.5080" /> 
</g>
<g style="fill:#FFFFFF; fill-opacity:1.0000; stroke:none;">
<circle cx="46.8656" cy="20.5050" r="0.5080" /> 
</g>
<g style="fill:#FFFFFF; fill-opacity:1.0000; stroke:none;">
<circle cx="36.7056" cy="23.0450" r="0.5080" /> 
</g>
<g style="fill:#FFFFFF; fill-opacity:1.0000; stroke:none;">
<circle cx="36.7056" cy="28.1250" r="0.5080" /> 
</g>
<g style="fill:#FFFFFF; fill-opacity:1.0000; stroke:none;">
<circle cx="36.7056" cy="25.5850" r="0.5080" /> 
</g>
<g style="fill:#FFFFFF; fill-opacity:1.0000; stroke:none;">
<circle cx="36.7056" cy="17.9650" r="0.5080" /> 
</g>
<g style="fill:#FFFFFF; fill-opacity:1.0000; stroke:none;">
<circle cx="36.7056" cy="15.4250" r="0.5080" /> 
</g>
<g style="fill:#FFFFFF; fill-opacity:1.0000; stroke:none;">
<circle cx="46.8656" cy="23.0450" r="0.5080" /> 
</g>
<g style="fill:#FFFFFF; fill-opacity:1.0000; stroke:none;">
<circle cx="46.8656" cy="28.1250" r="0.5080" /> 
</g>
<g style="fill:#FFFFFF; fill-opacity:1.0000; stroke:none;">
<circle cx="46.8656" cy="25.5850" r="0.5080" /> 
</g>
<g style="fill:#FFFFFF; fill-opacity:1.0000; stroke:none;">
<circle cx="46.8656" cy="17.9650" r="0.5080" /> 
</g>
<g style="fill:#FFFFFF; fill-opacity:1.0000; stroke:none;">
<circle cx="46.8656" cy="15.4250" r="0.5080" /> 
</g>
<g style="fill:#FFFFFF; fill-opacity:1.0000; stroke:none;">
<circle cx="18.8681" cy="33.2050" r="0.5000" /> 
</g>
<g style="fill:#FFFFFF; fill-opacity:1.0000; stroke:none;">
<circle cx="18.8681" cy="30.6650" r="0.5000" /> 
</g>
<g style="fill:#FFFFFF; fill-opacity:1.0000; stroke:none;">
<circle cx="18.8681" cy="28.1250" r="0.5000" /> 
</g>
<g style="fill:#FFFFFF; fill-opacity:1.0000; stroke:none;">
<circle cx="18.8681" cy="25.5850" r="0.5000" /> 
</g>
<g style="fill:#FFFFFF; fill-opacity:1.0000; stroke:none;">
<circle cx="18.8681" cy="23.0450" r="0.5000" /> 
</g>
<g style="fill:#FFFFFF; fill-opacity:1.0000; stroke:none;">
<circle cx="18.8681" cy="20.5050" r="0.5000" /> 
</g>
<g style="fill:#FFFFFF; fill-opacity:1.0000; stroke:none;">
<circle cx="18.8681" cy="17.9650" r="0.5000" /> 
</g>
<g style="fill:#FFFFFF; fill-opacity:1.0000; stroke:none;">
<circle cx="18.8681" cy="15.4250" r="0.5000" /> 
</g>
<g style="fill:#FFFFFF; fill-opacity:1.0000; stroke:none;">
<circle cx="18.8681" cy="12.8850" r="0.5000" /> 
</g>
<g style="fill:#FFFFFF; fill-opacity:1.0000; stroke:none;">
<circle cx="18.8681" cy="10.3450" r="0.5000" /> 
</g>
<g style="fill:#FFFFFF; fill-opacity:1.0000; stroke:none;">
<circle cx="31.5681" cy="10.3450" r="1.2500" /> 
</g>
<g style="fill:#FFFFFF; fill-opacity:1.0000; stroke:none;">
<circle cx="31.5681" cy="33.2050" r="1.2500" /> 
</g>
<g style="fill:#FFFFFF; fill-opacity:1.0000; stroke:none;">
<circle cx="9.5106" cy="19.8250" r="0.5000" /> 
</g>
<g style="fill:#FFFFFF; fill-opacity:1.0000; stroke:none;">
<circle cx="13.5356" cy="23.0250" r="0.5000" /> 
</g>
<g style="fill:#FFFFFF; fill-opacity:1.0000; stroke:none;">
<circle cx="13.5356" cy="25.5650" r="0.5000" /> 
</g>
<g style="fill:#FFFFFF; fill-opacity:1.0000; stroke:none;">
<circle cx="13.5356" cy="28.1050" r="0.5000" /> 
</g>
<g style="fill:#FFFFFF; fill-opacity:1.0000; stroke:none;">
<circle cx="13.5356" cy="30.6450" r="0.5000" /> 
</g>
<g style="fill:#FFFFFF; fill-opacity:1.0000; stroke:none;">
<circle cx="13.5356" cy="33.1850" r="0.5000" /> 
</g> 
</svg>
